<?xml version="1.0" encoding="utf-8" standalone="no"?>
<!DOCTYPE svg PUBLIC "-//W3C//DTD SVG 1.1//EN"
  "http://www.w3.org/Graphics/SVG/1.1/DTD/svg11.dtd">
<svg xmlns:xlink="http://www.w3.org/1999/xlink" width="1000.178125pt" height="330.541644pt" viewBox="0 0 1000.178125 330.541644" xmlns="http://www.w3.org/2000/svg" version="1.1">
 <metadata>
  <rdf:RDF xmlns:dc="http://purl.org/dc/elements/1.1/" xmlns:cc="http://creativecommons.org/ns#" xmlns:rdf="http://www.w3.org/1999/02/22-rdf-syntax-ns#">
   <cc:Work>
    <dc:type rdf:resource="http://purl.org/dc/dcmitype/StillImage"/>
    <dc:date>2022-11-03T22:57:03.011251</dc:date>
    <dc:format>image/svg+xml</dc:format>
    <dc:creator>
     <cc:Agent>
      <dc:title>Matplotlib v3.5.2, https://matplotlib.org/</dc:title>
     </cc:Agent>
    </dc:creator>
   </cc:Work>
  </rdf:RDF>
 </metadata>
 <defs>
  <style type="text/css">*{stroke-linejoin: round; stroke-linecap: butt}</style>
 </defs>
 <g id="figure_1">
  <g id="axes_1">
   <g id="patch_1">
    <path d="M 48.238125 273.99006 
L 985.343125 273.99006 
L 985.343125 31.48286 
L 48.238125 31.48286 
z
" style="fill: #ffffff"/>
   </g>
   <g id="matplotlib.axis_1">
    <g id="xtick_1">
     <g id="text_1">
      <!-- 0 -->
      <g transform="translate(45.693125 287.06881)scale(0.08 -0.08)">
       <defs>
        <path id="DejaVuSans-30" d="M 2034 4250 
Q 1547 4250 1301 3770 
Q 1056 3291 1056 2328 
Q 1056 1369 1301 889 
Q 1547 409 2034 409 
Q 2525 409 2770 889 
Q 3016 1369 3016 2328 
Q 3016 3291 2770 3770 
Q 2525 4250 2034 4250 
z
M 2034 4750 
Q 2819 4750 3233 4129 
Q 3647 3509 3647 2328 
Q 3647 1150 3233 529 
Q 2819 -91 2034 -91 
Q 1250 -91 836 529 
Q 422 1150 422 2328 
Q 422 3509 836 4129 
Q 1250 4750 2034 4750 
z
" transform="scale(0.015625)"/>
       </defs>
       <use xlink:href="#DejaVuSans-30"/>
      </g>
     </g>
    </g>
    <g id="xtick_2">
     <g id="text_2">
      <!-- 20 -->
      <g transform="translate(230.569125 287.06881)scale(0.08 -0.08)">
       <defs>
        <path id="DejaVuSans-32" d="M 1228 531 
L 3431 531 
L 3431 0 
L 469 0 
L 469 531 
Q 828 903 1448 1529 
Q 2069 2156 2228 2338 
Q 2531 2678 2651 2914 
Q 2772 3150 2772 3378 
Q 2772 3750 2511 3984 
Q 2250 4219 1831 4219 
Q 1534 4219 1204 4116 
Q 875 4013 500 3803 
L 500 4441 
Q 881 4594 1212 4672 
Q 1544 4750 1819 4750 
Q 2544 4750 2975 4387 
Q 3406 4025 3406 3419 
Q 3406 3131 3298 2873 
Q 3191 2616 2906 2266 
Q 2828 2175 2409 1742 
Q 1991 1309 1228 531 
z
" transform="scale(0.015625)"/>
       </defs>
       <use xlink:href="#DejaVuSans-32"/>
       <use xlink:href="#DejaVuSans-30" x="63.623047"/>
      </g>
     </g>
    </g>
    <g id="xtick_3">
     <g id="text_3">
      <!-- 40 -->
      <g transform="translate(417.990125 287.06881)scale(0.08 -0.08)">
       <defs>
        <path id="DejaVuSans-34" d="M 2419 4116 
L 825 1625 
L 2419 1625 
L 2419 4116 
z
M 2253 4666 
L 3047 4666 
L 3047 1625 
L 3713 1625 
L 3713 1100 
L 3047 1100 
L 3047 0 
L 2419 0 
L 2419 1100 
L 313 1100 
L 313 1709 
L 2253 4666 
z
" transform="scale(0.015625)"/>
       </defs>
       <use xlink:href="#DejaVuSans-34"/>
       <use xlink:href="#DejaVuSans-30" x="63.623047"/>
      </g>
     </g>
    </g>
    <g id="xtick_4">
     <g id="text_4">
      <!-- 60 -->
      <g transform="translate(605.411125 287.06881)scale(0.08 -0.08)">
       <defs>
        <path id="DejaVuSans-36" d="M 2113 2584 
Q 1688 2584 1439 2293 
Q 1191 2003 1191 1497 
Q 1191 994 1439 701 
Q 1688 409 2113 409 
Q 2538 409 2786 701 
Q 3034 994 3034 1497 
Q 3034 2003 2786 2293 
Q 2538 2584 2113 2584 
z
M 3366 4563 
L 3366 3988 
Q 3128 4100 2886 4159 
Q 2644 4219 2406 4219 
Q 1781 4219 1451 3797 
Q 1122 3375 1075 2522 
Q 1259 2794 1537 2939 
Q 1816 3084 2150 3084 
Q 2853 3084 3261 2657 
Q 3669 2231 3669 1497 
Q 3669 778 3244 343 
Q 2819 -91 2113 -91 
Q 1303 -91 875 529 
Q 447 1150 447 2328 
Q 447 3434 972 4092 
Q 1497 4750 2381 4750 
Q 2619 4750 2861 4703 
Q 3103 4656 3366 4563 
z
" transform="scale(0.015625)"/>
       </defs>
       <use xlink:href="#DejaVuSans-36"/>
       <use xlink:href="#DejaVuSans-30" x="63.623047"/>
      </g>
     </g>
    </g>
    <g id="xtick_5">
     <g id="text_5">
      <!-- 80 -->
      <g transform="translate(792.832125 287.06881)scale(0.08 -0.08)">
       <defs>
        <path id="DejaVuSans-38" d="M 2034 2216 
Q 1584 2216 1326 1975 
Q 1069 1734 1069 1313 
Q 1069 891 1326 650 
Q 1584 409 2034 409 
Q 2484 409 2743 651 
Q 3003 894 3003 1313 
Q 3003 1734 2745 1975 
Q 2488 2216 2034 2216 
z
M 1403 2484 
Q 997 2584 770 2862 
Q 544 3141 544 3541 
Q 544 4100 942 4425 
Q 1341 4750 2034 4750 
Q 2731 4750 3128 4425 
Q 3525 4100 3525 3541 
Q 3525 3141 3298 2862 
Q 3072 2584 2669 2484 
Q 3125 2378 3379 2068 
Q 3634 1759 3634 1313 
Q 3634 634 3220 271 
Q 2806 -91 2034 -91 
Q 1263 -91 848 271 
Q 434 634 434 1313 
Q 434 1759 690 2068 
Q 947 2378 1403 2484 
z
M 1172 3481 
Q 1172 3119 1398 2916 
Q 1625 2713 2034 2713 
Q 2441 2713 2670 2916 
Q 2900 3119 2900 3481 
Q 2900 3844 2670 4047 
Q 2441 4250 2034 4250 
Q 1625 4250 1398 4047 
Q 1172 3844 1172 3481 
z
" transform="scale(0.015625)"/>
       </defs>
       <use xlink:href="#DejaVuSans-38"/>
       <use xlink:href="#DejaVuSans-30" x="63.623047"/>
      </g>
     </g>
    </g>
    <g id="xtick_6">
     <g id="text_6">
      <!-- 100 -->
      <g transform="translate(977.708125 287.06881)scale(0.08 -0.08)">
       <defs>
        <path id="DejaVuSans-31" d="M 794 531 
L 1825 531 
L 1825 4091 
L 703 3866 
L 703 4441 
L 1819 4666 
L 2450 4666 
L 2450 531 
L 3481 531 
L 3481 0 
L 794 0 
L 794 531 
z
" transform="scale(0.015625)"/>
       </defs>
       <use xlink:href="#DejaVuSans-31"/>
       <use xlink:href="#DejaVuSans-30" x="63.623047"/>
       <use xlink:href="#DejaVuSans-30" x="127.246094"/>
      </g>
     </g>
    </g>
    <g id="text_7">
     <!-- % GC -->
     <g transform="translate(503.085156 300.330997)scale(0.1 -0.1)">
      <defs>
       <path id="DejaVuSans-25" d="M 4653 2053 
Q 4381 2053 4226 1822 
Q 4072 1591 4072 1178 
Q 4072 772 4226 539 
Q 4381 306 4653 306 
Q 4919 306 5073 539 
Q 5228 772 5228 1178 
Q 5228 1588 5073 1820 
Q 4919 2053 4653 2053 
z
M 4653 2450 
Q 5147 2450 5437 2106 
Q 5728 1763 5728 1178 
Q 5728 594 5436 251 
Q 5144 -91 4653 -91 
Q 4153 -91 3862 251 
Q 3572 594 3572 1178 
Q 3572 1766 3864 2108 
Q 4156 2450 4653 2450 
z
M 1428 4353 
Q 1159 4353 1004 4120 
Q 850 3888 850 3481 
Q 850 3069 1003 2837 
Q 1156 2606 1428 2606 
Q 1700 2606 1854 2837 
Q 2009 3069 2009 3481 
Q 2009 3884 1853 4118 
Q 1697 4353 1428 4353 
z
M 4250 4750 
L 4750 4750 
L 1831 -91 
L 1331 -91 
L 4250 4750 
z
M 1428 4750 
Q 1922 4750 2215 4408 
Q 2509 4066 2509 3481 
Q 2509 2891 2217 2550 
Q 1925 2209 1428 2209 
Q 931 2209 642 2551 
Q 353 2894 353 3481 
Q 353 4063 643 4406 
Q 934 4750 1428 4750 
z
" transform="scale(0.015625)"/>
       <path id="DejaVuSans-20" transform="scale(0.015625)"/>
       <path id="DejaVuSans-47" d="M 3809 666 
L 3809 1919 
L 2778 1919 
L 2778 2438 
L 4434 2438 
L 4434 434 
Q 4069 175 3628 42 
Q 3188 -91 2688 -91 
Q 1594 -91 976 548 
Q 359 1188 359 2328 
Q 359 3472 976 4111 
Q 1594 4750 2688 4750 
Q 3144 4750 3555 4637 
Q 3966 4525 4313 4306 
L 4313 3634 
Q 3963 3931 3569 4081 
Q 3175 4231 2741 4231 
Q 1884 4231 1454 3753 
Q 1025 3275 1025 2328 
Q 1025 1384 1454 906 
Q 1884 428 2741 428 
Q 3075 428 3337 486 
Q 3600 544 3809 666 
z
" transform="scale(0.015625)"/>
       <path id="DejaVuSans-43" d="M 4122 4306 
L 4122 3641 
Q 3803 3938 3442 4084 
Q 3081 4231 2675 4231 
Q 1875 4231 1450 3742 
Q 1025 3253 1025 2328 
Q 1025 1406 1450 917 
Q 1875 428 2675 428 
Q 3081 428 3442 575 
Q 3803 722 4122 1019 
L 4122 359 
Q 3791 134 3420 21 
Q 3050 -91 2638 -91 
Q 1578 -91 968 557 
Q 359 1206 359 2328 
Q 359 3453 968 4101 
Q 1578 4750 2638 4750 
Q 3056 4750 3426 4639 
Q 3797 4528 4122 4306 
z
" transform="scale(0.015625)"/>
      </defs>
      <use xlink:href="#DejaVuSans-25"/>
      <use xlink:href="#DejaVuSans-20" x="95.019531"/>
      <use xlink:href="#DejaVuSans-47" x="126.806641"/>
      <use xlink:href="#DejaVuSans-43" x="204.296875"/>
     </g>
    </g>
   </g>
   <g id="matplotlib.axis_2">
    <g id="ytick_1">
     <g id="line2d_1">
      <path d="M 48.238125 273.99006 
L 985.343125 273.99006 
" clip-path="url(#pff4e3085cc)" style="fill: none; stroke: #dedede; stroke-linecap: square"/>
     </g>
     <g id="text_8">
      <!-- 0 -->
      <g transform="translate(36.148125 277.029435)scale(0.08 -0.08)">
       <use xlink:href="#DejaVuSans-30"/>
      </g>
     </g>
    </g>
    <g id="ytick_2">
     <g id="line2d_2">
      <path d="M 48.238125 240.901344 
L 985.343125 240.901344 
" clip-path="url(#pff4e3085cc)" style="fill: none; stroke: #dedede; stroke-linecap: square"/>
     </g>
     <g id="text_9">
      <!-- 1000 -->
      <g transform="translate(20.878125 243.940719)scale(0.08 -0.08)">
       <use xlink:href="#DejaVuSans-31"/>
       <use xlink:href="#DejaVuSans-30" x="63.623047"/>
       <use xlink:href="#DejaVuSans-30" x="127.246094"/>
       <use xlink:href="#DejaVuSans-30" x="190.869141"/>
      </g>
     </g>
    </g>
    <g id="ytick_3">
     <g id="line2d_3">
      <path d="M 48.238125 207.812628 
L 985.343125 207.812628 
" clip-path="url(#pff4e3085cc)" style="fill: none; stroke: #dedede; stroke-linecap: square"/>
     </g>
     <g id="text_10">
      <!-- 2000 -->
      <g transform="translate(20.878125 210.852003)scale(0.08 -0.08)">
       <use xlink:href="#DejaVuSans-32"/>
       <use xlink:href="#DejaVuSans-30" x="63.623047"/>
       <use xlink:href="#DejaVuSans-30" x="127.246094"/>
       <use xlink:href="#DejaVuSans-30" x="190.869141"/>
      </g>
     </g>
    </g>
    <g id="ytick_4">
     <g id="line2d_4">
      <path d="M 48.238125 174.723912 
L 985.343125 174.723912 
" clip-path="url(#pff4e3085cc)" style="fill: none; stroke: #dedede; stroke-linecap: square"/>
     </g>
     <g id="text_11">
      <!-- 3000 -->
      <g transform="translate(20.878125 177.763287)scale(0.08 -0.08)">
       <defs>
        <path id="DejaVuSans-33" d="M 2597 2516 
Q 3050 2419 3304 2112 
Q 3559 1806 3559 1356 
Q 3559 666 3084 287 
Q 2609 -91 1734 -91 
Q 1441 -91 1130 -33 
Q 819 25 488 141 
L 488 750 
Q 750 597 1062 519 
Q 1375 441 1716 441 
Q 2309 441 2620 675 
Q 2931 909 2931 1356 
Q 2931 1769 2642 2001 
Q 2353 2234 1838 2234 
L 1294 2234 
L 1294 2753 
L 1863 2753 
Q 2328 2753 2575 2939 
Q 2822 3125 2822 3475 
Q 2822 3834 2567 4026 
Q 2313 4219 1838 4219 
Q 1578 4219 1281 4162 
Q 984 4106 628 3988 
L 628 4550 
Q 988 4650 1302 4700 
Q 1616 4750 1894 4750 
Q 2613 4750 3031 4423 
Q 3450 4097 3450 3541 
Q 3450 3153 3228 2886 
Q 3006 2619 2597 2516 
z
" transform="scale(0.015625)"/>
       </defs>
       <use xlink:href="#DejaVuSans-33"/>
       <use xlink:href="#DejaVuSans-30" x="63.623047"/>
       <use xlink:href="#DejaVuSans-30" x="127.246094"/>
       <use xlink:href="#DejaVuSans-30" x="190.869141"/>
      </g>
     </g>
    </g>
    <g id="ytick_5">
     <g id="line2d_5">
      <path d="M 48.238125 141.635196 
L 985.343125 141.635196 
" clip-path="url(#pff4e3085cc)" style="fill: none; stroke: #dedede; stroke-linecap: square"/>
     </g>
     <g id="text_12">
      <!-- 4000 -->
      <g transform="translate(20.878125 144.674571)scale(0.08 -0.08)">
       <use xlink:href="#DejaVuSans-34"/>
       <use xlink:href="#DejaVuSans-30" x="63.623047"/>
       <use xlink:href="#DejaVuSans-30" x="127.246094"/>
       <use xlink:href="#DejaVuSans-30" x="190.869141"/>
      </g>
     </g>
    </g>
    <g id="ytick_6">
     <g id="line2d_6">
      <path d="M 48.238125 108.54648 
L 985.343125 108.54648 
" clip-path="url(#pff4e3085cc)" style="fill: none; stroke: #dedede; stroke-linecap: square"/>
     </g>
     <g id="text_13">
      <!-- 5000 -->
      <g transform="translate(20.878125 111.585855)scale(0.08 -0.08)">
       <defs>
        <path id="DejaVuSans-35" d="M 691 4666 
L 3169 4666 
L 3169 4134 
L 1269 4134 
L 1269 2991 
Q 1406 3038 1543 3061 
Q 1681 3084 1819 3084 
Q 2600 3084 3056 2656 
Q 3513 2228 3513 1497 
Q 3513 744 3044 326 
Q 2575 -91 1722 -91 
Q 1428 -91 1123 -41 
Q 819 9 494 109 
L 494 744 
Q 775 591 1075 516 
Q 1375 441 1709 441 
Q 2250 441 2565 725 
Q 2881 1009 2881 1497 
Q 2881 1984 2565 2268 
Q 2250 2553 1709 2553 
Q 1456 2553 1204 2497 
Q 953 2441 691 2322 
L 691 4666 
z
" transform="scale(0.015625)"/>
       </defs>
       <use xlink:href="#DejaVuSans-35"/>
       <use xlink:href="#DejaVuSans-30" x="63.623047"/>
       <use xlink:href="#DejaVuSans-30" x="127.246094"/>
       <use xlink:href="#DejaVuSans-30" x="190.869141"/>
      </g>
     </g>
    </g>
    <g id="ytick_7">
     <g id="line2d_7">
      <path d="M 48.238125 75.457764 
L 985.343125 75.457764 
" clip-path="url(#pff4e3085cc)" style="fill: none; stroke: #dedede; stroke-linecap: square"/>
     </g>
     <g id="text_14">
      <!-- 6000 -->
      <g transform="translate(20.878125 78.497139)scale(0.08 -0.08)">
       <use xlink:href="#DejaVuSans-36"/>
       <use xlink:href="#DejaVuSans-30" x="63.623047"/>
       <use xlink:href="#DejaVuSans-30" x="127.246094"/>
       <use xlink:href="#DejaVuSans-30" x="190.869141"/>
      </g>
     </g>
    </g>
    <g id="ytick_8">
     <g id="line2d_8">
      <path d="M 48.238125 42.369048 
L 985.343125 42.369048 
" clip-path="url(#pff4e3085cc)" style="fill: none; stroke: #dedede; stroke-linecap: square"/>
     </g>
     <g id="text_15">
      <!-- 7000 -->
      <g transform="translate(20.878125 45.408423)scale(0.08 -0.08)">
       <defs>
        <path id="DejaVuSans-37" d="M 525 4666 
L 3525 4666 
L 3525 4397 
L 1831 0 
L 1172 0 
L 2766 4134 
L 525 4134 
L 525 4666 
z
" transform="scale(0.015625)"/>
       </defs>
       <use xlink:href="#DejaVuSans-37"/>
       <use xlink:href="#DejaVuSans-30" x="63.623047"/>
       <use xlink:href="#DejaVuSans-30" x="127.246094"/>
       <use xlink:href="#DejaVuSans-30" x="190.869141"/>
      </g>
     </g>
    </g>
    <g id="text_16">
     <!-- Count -->
     <g transform="translate(14.798438 167.584897)rotate(-90)scale(0.1 -0.1)">
      <defs>
       <path id="DejaVuSans-6f" d="M 1959 3097 
Q 1497 3097 1228 2736 
Q 959 2375 959 1747 
Q 959 1119 1226 758 
Q 1494 397 1959 397 
Q 2419 397 2687 759 
Q 2956 1122 2956 1747 
Q 2956 2369 2687 2733 
Q 2419 3097 1959 3097 
z
M 1959 3584 
Q 2709 3584 3137 3096 
Q 3566 2609 3566 1747 
Q 3566 888 3137 398 
Q 2709 -91 1959 -91 
Q 1206 -91 779 398 
Q 353 888 353 1747 
Q 353 2609 779 3096 
Q 1206 3584 1959 3584 
z
" transform="scale(0.015625)"/>
       <path id="DejaVuSans-75" d="M 544 1381 
L 544 3500 
L 1119 3500 
L 1119 1403 
Q 1119 906 1312 657 
Q 1506 409 1894 409 
Q 2359 409 2629 706 
Q 2900 1003 2900 1516 
L 2900 3500 
L 3475 3500 
L 3475 0 
L 2900 0 
L 2900 538 
Q 2691 219 2414 64 
Q 2138 -91 1772 -91 
Q 1169 -91 856 284 
Q 544 659 544 1381 
z
M 1991 3584 
L 1991 3584 
z
" transform="scale(0.015625)"/>
       <path id="DejaVuSans-6e" d="M 3513 2113 
L 3513 0 
L 2938 0 
L 2938 2094 
Q 2938 2591 2744 2837 
Q 2550 3084 2163 3084 
Q 1697 3084 1428 2787 
Q 1159 2491 1159 1978 
L 1159 0 
L 581 0 
L 581 3500 
L 1159 3500 
L 1159 2956 
Q 1366 3272 1645 3428 
Q 1925 3584 2291 3584 
Q 2894 3584 3203 3211 
Q 3513 2838 3513 2113 
z
" transform="scale(0.015625)"/>
       <path id="DejaVuSans-74" d="M 1172 4494 
L 1172 3500 
L 2356 3500 
L 2356 3053 
L 1172 3053 
L 1172 1153 
Q 1172 725 1289 603 
Q 1406 481 1766 481 
L 2356 481 
L 2356 0 
L 1766 0 
Q 1100 0 847 248 
Q 594 497 594 1153 
L 594 3053 
L 172 3053 
L 172 3500 
L 594 3500 
L 594 4494 
L 1172 4494 
z
" transform="scale(0.015625)"/>
      </defs>
      <use xlink:href="#DejaVuSans-43"/>
      <use xlink:href="#DejaVuSans-6f" x="69.824219"/>
      <use xlink:href="#DejaVuSans-75" x="131.005859"/>
      <use xlink:href="#DejaVuSans-6e" x="194.384766"/>
      <use xlink:href="#DejaVuSans-74" x="257.763672"/>
     </g>
    </g>
   </g>
   <g id="line2d_9">
    <path d="M 48.238125 273.99006 
L 57.609175 273.99006 
L 66.980225 273.99006 
L 76.351275 273.99006 
L 85.722325 273.956971 
L 95.093375 273.923883 
L 104.464425 273.907338 
L 113.835475 273.907338 
L 123.206525 273.874249 
L 132.577575 273.774983 
L 141.948625 273.659173 
L 151.319675 273.526818 
L 160.690725 273.34483 
L 170.061775 273.013943 
L 179.432825 272.716144 
L 188.803875 272.600334 
L 198.174925 271.905471 
L 207.545975 271.078253 
L 216.917025 270.433023 
L 226.288075 269.341095 
L 235.659125 267.471583 
L 245.030175 266.230756 
L 254.401225 265.10574 
L 263.772275 261.9954 
L 273.143325 258.752706 
L 282.514375 255.476923 
L 291.885425 247.916152 
L 301.256475 238.518956 
L 310.627525 229.039039 
L 319.998575 220.965393 
L 329.369625 208.606757 
L 338.740675 192.095488 
L 348.111725 178.479481 
L 357.482775 169.065741 
L 366.853825 158.775151 
L 376.224875 140.427458 
L 385.595925 121.219458 
L 394.966975 110.614524 
L 404.338025 99.546349 
L 413.709075 78.353026 
L 423.080125 67.16904 
L 432.451175 63.645092 
L 441.822225 57.358236 
L 451.193275 49.698198 
L 460.564325 47.166911 
L 469.935375 48.672448 
L 479.306425 44.321282 
L 488.677475 48.821347 
L 498.048525 65.183717 
L 507.419575 77.591986 
L 516.790625 81.876975 
L 526.161675 95.410259 
L 535.532725 110.779968 
L 544.903775 129.756347 
L 554.274825 154.29163 
L 563.645875 171.762472 
L 573.016925 190.970471 
L 582.387975 207.167398 
L 591.759025 216.829303 
L 601.130075 225.597813 
L 610.501125 234.018891 
L 619.872175 241.116421 
L 629.243225 246.394071 
L 638.614275 249.636765 
L 647.985325 253.293068 
L 657.356375 257.561512 
L 666.727425 262.111211 
L 676.098475 265.552437 
L 685.469525 267.752837 
L 694.840575 269.605805 
L 704.211625 270.830088 
L 713.582675 271.160975 
L 722.953725 271.740027 
L 732.324775 272.385257 
L 741.695825 272.716144 
L 751.066875 272.997399 
L 760.437925 273.08012 
L 769.808975 273.063576 
L 779.180025 273.129753 
L 788.551075 273.34483 
L 797.922125 273.543362 
L 807.293175 273.675717 
L 816.664225 273.692262 
L 826.035275 273.675717 
L 835.406325 273.791528 
L 844.777375 273.923883 
L 854.148425 273.923883 
L 863.519475 273.923883 
L 872.890525 273.973516 
L 882.261575 273.99006 
L 891.632625 273.99006 
L 901.003675 273.99006 
L 910.374725 273.99006 
L 919.745775 273.956971 
L 929.116825 273.956971 
L 938.487875 273.99006 
L 947.858925 273.99006 
L 957.229975 273.99006 
L 966.601025 273.99006 
L 975.972075 273.923883 
L 985.343125 273.857705 
" clip-path="url(#pff4e3085cc)" style="fill: none; stroke: #5cb85c; stroke-linecap: square"/>
   </g>
   <g id="line2d_10">
    <path d="M 48.238125 273.592995 
L 57.609175 273.626084 
L 66.980225 273.708806 
L 76.351275 273.72535 
L 85.722325 273.692262 
L 95.093375 273.741895 
L 104.464425 273.791528 
L 113.835475 273.626084 
L 123.206525 273.444096 
L 132.577575 273.444096 
L 141.948625 273.394463 
L 151.319675 273.096665 
L 160.690725 272.848499 
L 170.061775 272.831955 
L 179.432825 272.58379 
L 188.803875 272.153636 
L 198.174925 271.624217 
L 207.545975 271.227152 
L 216.917025 270.813543 
L 226.288075 269.572716 
L 235.659125 267.885192 
L 245.030175 266.925619 
L 254.401225 265.552437 
L 263.772275 262.094667 
L 273.143325 256.883194 
L 282.514375 252.813282 
L 291.885425 248.379394 
L 301.256475 240.35538 
L 310.627525 230.395677 
L 319.998575 222.156586 
L 329.369625 209.086543 
L 338.740675 192.442919 
L 348.111725 178.661469 
L 357.482775 168.403967 
L 366.853825 157.203437 
L 376.224875 139.368619 
L 385.595925 121.930865 
L 394.966975 110.763424 
L 404.338025 98.669498 
L 413.709075 78.865901 
L 423.080125 68.19479 
L 432.451175 64.85283 
L 441.822225 58.54943 
L 451.193275 51.203735 
L 460.564325 47.530887 
L 469.935375 47.233089 
L 479.306425 43.030822 
L 488.677475 48.076851 
L 498.048525 64.753564 
L 507.419575 78.584647 
L 516.790625 85.450556 
L 526.161675 96.866163 
L 535.532725 110.33327 
L 544.903775 130.037601 
L 554.274825 154.771416 
L 563.645875 172.391157 
L 573.016925 189.382213 
L 582.387975 205.794216 
L 591.759025 216.878936 
L 601.130075 225.597813 
L 610.501125 234.713754 
L 619.872175 241.844372 
L 629.243225 246.824224 
L 638.614275 249.851842 
L 647.985325 253.690133 
L 657.356375 257.478791 
L 666.727425 261.747235 
L 676.098475 265.436627 
L 685.469525 267.670115 
L 694.840575 269.589261 
L 704.211625 270.730821 
L 713.582675 271.177519 
L 722.953725 271.773116 
L 732.324775 272.352169 
L 741.695825 272.683056 
L 751.066875 272.997399 
L 760.437925 273.113209 
L 769.808975 273.113209 
L 779.180025 273.212475 
L 788.551075 273.411007 
L 797.922125 273.559907 
L 807.293175 273.60954 
L 816.664225 273.592995 
L 826.035275 273.626084 
L 835.406325 273.774983 
L 844.777375 273.890794 
L 854.148425 273.874249 
L 863.519475 273.874249 
L 872.890525 273.907338 
L 882.261575 273.923883 
L 891.632625 273.940427 
L 901.003675 273.956971 
L 910.374725 273.956971 
L 919.745775 273.973516 
L 929.116825 273.956971 
L 938.487875 273.923883 
L 947.858925 273.907338 
L 957.229975 273.874249 
L 966.601025 273.72535 
L 975.972075 272.335624 
L 985.343125 271.078253 
" clip-path="url(#pff4e3085cc)" style="fill: none; stroke: #5cb85c; stroke-linecap: square"/>
   </g>
   <g id="line2d_11">
    <path d="M 48.238125 273.99006 
L 57.609175 273.956971 
L 66.980225 273.940427 
L 76.351275 273.940427 
L 85.722325 273.923883 
L 95.093375 273.907338 
L 104.464425 273.841161 
L 113.835475 273.808072 
L 123.206525 273.841161 
L 132.577575 273.675717 
L 141.948625 273.559907 
L 151.319675 273.427552 
L 160.690725 273.212475 
L 170.061775 272.865044 
L 179.432825 272.186725 
L 188.803875 271.574584 
L 198.174925 270.912809 
L 207.545975 270.251035 
L 216.917025 269.324551 
L 226.288075 268.33189 
L 235.659125 266.379655 
L 245.030175 264.278522 
L 254.401225 262.52482 
L 263.772275 260.539497 
L 273.143325 258.223287 
L 282.514375 255.195669 
L 291.885425 247.337099 
L 301.256475 237.27813 
L 310.627525 227.500414 
L 319.998575 219.079336 
L 329.369625 209.367798 
L 338.740675 196.099222 
L 348.111725 183.575143 
L 357.482775 174.459202 
L 366.853825 165.773414 
L 376.224875 148.60037 
L 385.595925 130.269222 
L 394.966975 120.425329 
L 404.338025 108.728468 
L 413.709075 86.426673 
L 423.080125 74.00186 
L 432.451175 68.757299 
L 441.822225 61.692858 
L 451.193275 54.231352 
L 460.564325 48.655904 
L 469.935375 47.365444 
L 479.306425 44.635625 
L 488.677475 51.882053 
L 498.048525 70.610267 
L 507.419575 81.74462 
L 516.790625 86.145419 
L 526.161675 97.908457 
L 535.532725 107.735806 
L 544.903775 127.953012 
L 554.274825 154.159275 
L 563.645875 172.010637 
L 573.016925 191.400625 
L 582.387975 207.994616 
L 591.759025 219.509489 
L 601.130075 228.096011 
L 610.501125 234.879198 
L 619.872175 240.487735 
L 629.243225 243.763518 
L 638.614275 246.16245 
L 647.985325 250.877592 
L 657.356375 254.997137 
L 666.727425 259.282126 
L 676.098475 264.07999 
L 685.469525 267.388861 
L 694.840575 269.556172 
L 704.211625 270.896265 
L 713.582675 271.806205 
L 722.953725 272.58379 
L 732.324775 273.146298 
L 741.695825 273.444096 
L 751.066875 273.626084 
L 760.437925 273.675717 
L 769.808975 273.675717 
L 779.180025 273.741895 
L 788.551075 273.808072 
L 797.922125 273.841161 
L 807.293175 273.857705 
L 816.664225 273.857705 
L 826.035275 273.907338 
L 835.406325 273.973516 
L 844.777375 273.956971 
L 854.148425 273.907338 
L 863.519475 273.890794 
L 872.890525 273.940427 
L 882.261575 273.99006 
L 891.632625 273.99006 
L 901.003675 273.99006 
L 910.374725 273.99006 
L 919.745775 273.99006 
L 929.116825 273.99006 
L 938.487875 273.99006 
L 947.858925 273.99006 
L 957.229975 273.99006 
L 966.601025 273.99006 
L 975.972075 273.907338 
L 985.343125 273.824616 
" clip-path="url(#pff4e3085cc)" style="fill: none; stroke: #5cb85c; stroke-linecap: square"/>
   </g>
   <g id="line2d_12">
    <path d="M 48.238125 273.758439 
L 57.609175 273.576451 
L 66.980225 273.510274 
L 76.351275 273.675717 
L 85.722325 273.72535 
L 95.093375 273.791528 
L 104.464425 273.857705 
L 113.835475 273.692262 
L 123.206525 273.510274 
L 132.577575 273.510274 
L 141.948625 273.328286 
L 151.319675 272.980854 
L 160.690725 272.782322 
L 170.061775 272.43489 
L 179.432825 271.756572 
L 188.803875 271.045164 
L 198.174925 270.416479 
L 207.545975 270.300668 
L 216.917025 269.456906 
L 226.288075 268.050635 
L 235.659125 266.363111 
L 245.030175 264.245433 
L 254.401225 262.392465 
L 263.772275 259.82809 
L 273.143325 256.899738 
L 282.514375 254.517351 
L 291.885425 248.445571 
L 301.256475 238.916021 
L 310.627525 229.369926 
L 319.998575 221.842243 
L 329.369625 211.071866 
L 338.740675 195.189283 
L 348.111725 183.872942 
L 357.482775 176.825045 
L 366.853825 162.894696 
L 376.224875 142.710579 
L 385.595925 127.34087 
L 394.966975 118.274562 
L 404.338025 103.897515 
L 413.709075 83.696854 
L 423.080125 71.966904 
L 432.451175 66.341822 
L 441.822225 62.321543 
L 451.193275 52.874715 
L 460.564325 46.389327 
L 469.935375 49.168779 
L 479.306425 47.84523 
L 488.677475 53.139425 
L 498.048525 70.874976 
L 507.419575 81.115934 
L 516.790625 83.961564 
L 526.161675 98.553687 
L 535.532725 112.632936 
L 544.903775 134.124057 
L 554.274825 160.992095 
L 563.645875 175.93165 
L 573.016925 192.575274 
L 582.387975 208.292414 
L 591.759025 218.698815 
L 601.130075 227.847845 
L 610.501125 235.871859 
L 619.872175 241.348042 
L 629.243225 244.723091 
L 638.614275 247.535632 
L 647.985325 252.035697 
L 657.356375 255.807811 
L 666.727425 259.82809 
L 676.098475 264.295066 
L 685.469525 267.239962 
L 694.840575 269.705071 
L 704.211625 271.243697 
L 713.582675 271.872382 
L 722.953725 272.683056 
L 732.324775 273.295197 
L 741.695825 273.477185 
L 751.066875 273.526818 
L 760.437925 273.510274 
L 769.808975 273.559907 
L 779.180025 273.626084 
L 788.551075 273.692262 
L 797.922125 273.808072 
L 807.293175 273.874249 
L 816.664225 273.841161 
L 826.035275 273.874249 
L 835.406325 273.956971 
L 844.777375 273.956971 
L 854.148425 273.907338 
L 863.519475 273.874249 
L 872.890525 273.841161 
L 882.261575 273.874249 
L 891.632625 273.956971 
L 901.003675 273.956971 
L 910.374725 273.923883 
L 919.745775 273.940427 
L 929.116825 273.956971 
L 938.487875 273.923883 
L 947.858925 273.890794 
L 957.229975 273.923883 
L 966.601025 273.72535 
L 975.972075 272.848499 
L 985.343125 272.203269 
" clip-path="url(#pff4e3085cc)" style="fill: none; stroke: #5cb85c; stroke-linecap: square"/>
   </g>
   <g id="line2d_13">
    <path d="M 48.238125 273.99006 
L 57.609175 273.973516 
L 66.980225 273.973516 
L 76.351275 273.973516 
L 85.722325 273.956971 
L 95.093375 273.956971 
L 104.464425 273.923883 
L 113.835475 273.890794 
L 123.206525 273.890794 
L 132.577575 273.907338 
L 141.948625 273.890794 
L 151.319675 273.758439 
L 160.690725 273.659173 
L 170.061775 273.559907 
L 179.432825 273.295197 
L 188.803875 272.914677 
L 198.174925 272.716144 
L 207.545975 272.501068 
L 216.917025 272.203269 
L 226.288075 271.508406 
L 235.659125 270.416479 
L 245.030175 269.655438 
L 254.401225 268.613144 
L 263.772275 266.230756 
L 273.143325 262.078122 
L 282.514375 258.074388 
L 291.885425 251.473189 
L 301.256475 243.20101 
L 310.627525 234.81302 
L 319.998575 227.748579 
L 329.369625 216.448783 
L 338.740675 198.514699 
L 348.111725 182.152329 
L 357.482775 170.703633 
L 366.853825 158.626251 
L 376.224875 139.252808 
L 385.595925 120.226796 
L 394.966975 108.331403 
L 404.338025 95.013195 
L 413.709075 72.810666 
L 423.080125 60.303132 
L 432.451175 60.054966 
L 441.822225 58.003466 
L 451.193275 52.610005 
L 460.564325 52.130219 
L 469.935375 56.646829 
L 479.306425 59.360103 
L 488.677475 66.970508 
L 498.048525 82.720737 
L 507.419575 96.105122 
L 516.790625 102.855221 
L 526.161675 117.149546 
L 535.532725 132.204912 
L 544.903775 153.166613 
L 554.274825 176.080549 
L 563.645875 189.514568 
L 573.016925 205.115898 
L 582.387975 218.45065 
L 591.759025 227.33497 
L 601.130075 235.19354 
L 610.501125 243.598074 
L 619.872175 250.03383 
L 629.243225 253.094536 
L 638.614275 254.78206 
L 647.985325 258.223287 
L 657.356375 261.929223 
L 666.727425 265.337361 
L 676.098475 268.100269 
L 685.469525 269.622349 
L 694.840575 271.045164 
L 704.211625 272.070914 
L 713.582675 272.368713 
L 722.953725 272.58379 
L 732.324775 273.047032 
L 741.695825 273.361374 
L 751.066875 273.394463 
L 760.437925 273.328286 
L 769.808975 273.576451 
L 779.180025 273.857705 
L 788.551075 273.907338 
L 797.922125 273.940427 
L 807.293175 273.923883 
L 816.664225 273.890794 
L 826.035275 273.890794 
L 835.406325 273.907338 
L 844.777375 273.923883 
L 854.148425 273.923883 
L 863.519475 273.940427 
L 872.890525 273.956971 
L 882.261575 273.973516 
L 891.632625 273.99006 
L 901.003675 273.99006 
L 910.374725 273.99006 
L 919.745775 273.99006 
L 929.116825 273.99006 
L 938.487875 273.99006 
L 947.858925 273.99006 
L 957.229975 273.99006 
L 966.601025 273.99006 
L 975.972075 273.973516 
L 985.343125 273.956971 
" clip-path="url(#pff4e3085cc)" style="fill: none; stroke: #5cb85c; stroke-linecap: square"/>
   </g>
   <g id="line2d_14">
    <path d="M 48.238125 273.559907 
L 57.609175 273.592995 
L 66.980225 273.692262 
L 76.351275 273.741895 
L 85.722325 273.72535 
L 95.093375 273.72535 
L 104.464425 273.824616 
L 113.835475 273.808072 
L 123.206525 273.708806 
L 132.577575 273.708806 
L 141.948625 273.72535 
L 151.319675 273.444096 
L 160.690725 273.063576 
L 170.061775 273.179386 
L 179.432825 273.278653 
L 188.803875 272.931221 
L 198.174925 272.451435 
L 207.545975 272.269447 
L 216.917025 271.93856 
L 226.288075 271.29333 
L 235.659125 269.837426 
L 245.030175 268.133357 
L 254.401225 267.107607 
L 263.772275 265.403538 
L 273.143325 262.1443 
L 282.514375 258.835428 
L 291.885425 253.441967 
L 301.256475 244.954712 
L 310.627525 235.375528 
L 319.998575 227.732035 
L 329.369625 215.803553 
L 338.740675 197.604759 
L 348.111725 180.431715 
L 357.482775 169.264274 
L 366.853825 157.865211 
L 376.224875 136.4899 
L 385.595925 119.531933 
L 394.966975 112.351682 
L 404.338025 95.658425 
L 413.709075 73.422808 
L 423.080125 64.306866 
L 432.451175 61.924479 
L 441.822225 60.452031 
L 451.193275 52.62655 
L 460.564325 51.683521 
L 469.935375 58.615607 
L 479.306425 58.698329 
L 488.677475 68.227879 
L 498.048525 87.419334 
L 507.419575 99.794514 
L 516.790625 106.015193 
L 526.161675 120.888571 
L 535.532725 133.511916 
L 544.903775 152.422117 
L 554.274825 176.030916 
L 563.645875 189.249858 
L 573.016925 202.948587 
L 582.387975 218.003952 
L 591.759025 229.237572 
L 601.130075 236.186202 
L 610.501125 242.9363 
L 619.872175 248.826091 
L 629.243225 252.796737 
L 638.614275 254.980593 
L 647.985325 258.471452 
L 657.356375 262.061578 
L 666.727425 265.453171 
L 676.098475 268.100269 
L 685.469525 269.721616 
L 694.840575 271.127886 
L 704.211625 271.773116 
L 713.582675 272.070914 
L 722.953725 272.451435 
L 732.324775 272.831955 
L 741.695825 273.195931 
L 751.066875 273.411007 
L 760.437925 273.510274 
L 769.808975 273.659173 
L 779.180025 273.857705 
L 788.551075 273.940427 
L 797.922125 273.923883 
L 807.293175 273.907338 
L 816.664225 273.857705 
L 826.035275 273.808072 
L 835.406325 273.808072 
L 844.777375 273.824616 
L 854.148425 273.907338 
L 863.519475 273.923883 
L 872.890525 273.857705 
L 882.261575 273.857705 
L 891.632625 273.841161 
L 901.003675 273.824616 
L 910.374725 273.874249 
L 919.745775 273.923883 
L 929.116825 273.923883 
L 938.487875 273.890794 
L 947.858925 273.890794 
L 957.229975 273.907338 
L 966.601025 273.72535 
L 975.972075 272.170181 
L 985.343125 270.813543 
" clip-path="url(#pff4e3085cc)" style="fill: none; stroke: #5cb85c; stroke-linecap: square"/>
   </g>
   <g id="line2d_15">
    <path d="M 48.238125 273.99006 
L 57.609175 273.99006 
L 66.980225 273.99006 
L 76.351275 273.99006 
L 85.722325 273.956971 
L 95.093375 273.890794 
L 104.464425 273.857705 
L 113.835475 273.874249 
L 123.206525 273.857705 
L 132.577575 273.808072 
L 141.948625 273.791528 
L 151.319675 273.692262 
L 160.690725 273.493729 
L 170.061775 273.328286 
L 179.432825 273.096665 
L 188.803875 272.501068 
L 198.174925 271.78966 
L 207.545975 271.442229 
L 216.917025 270.697733 
L 226.288075 269.572716 
L 235.659125 267.703204 
L 245.030175 265.320816 
L 254.401225 263.318949 
L 263.772275 259.629557 
L 273.143325 254.78206 
L 282.514375 251.009947 
L 291.885425 243.366453 
L 301.256475 232.579532 
L 310.627525 222.636373 
L 319.998575 214.099484 
L 329.369625 199.110296 
L 338.740675 178.810368 
L 348.111725 162.944329 
L 357.482775 151.33019 
L 366.853825 135.530328 
L 376.224875 113.956485 
L 385.595925 97.445215 
L 394.966975 89.305391 
L 404.338025 80.669236 
L 413.709075 65.663504 
L 423.080125 56.464841 
L 432.451175 53.817743 
L 441.822225 52.907804 
L 451.193275 48.209206 
L 460.564325 49.598932 
L 469.935375 58.880317 
L 479.306425 62.404265 
L 488.677475 70.908065 
L 498.048525 88.213464 
L 507.419575 104.112592 
L 516.790625 113.493243 
L 526.161675 124.90885 
L 535.532725 137.499106 
L 544.903775 155.714444 
L 554.274825 177.040122 
L 563.645875 191.566068 
L 573.016925 205.678406 
L 582.387975 219.542578 
L 591.759025 229.634636 
L 601.130075 236.814888 
L 610.501125 243.449175 
L 619.872175 249.603676 
L 629.243225 253.673588 
L 638.614275 255.642367 
L 647.985325 259.265581 
L 657.356375 263.037695 
L 666.727425 265.932958 
L 676.098475 268.199535 
L 685.469525 269.638894 
L 694.840575 271.194063 
L 704.211625 272.087459 
L 713.582675 272.401802 
L 722.953725 272.947765 
L 732.324775 273.212475 
L 741.695825 273.295197 
L 751.066875 273.427552 
L 760.437925 273.526818 
L 769.808975 273.642628 
L 779.180025 273.741895 
L 788.551075 273.824616 
L 797.922125 273.907338 
L 807.293175 273.956971 
L 816.664225 273.956971 
L 826.035275 273.940427 
L 835.406325 273.923883 
L 844.777375 273.956971 
L 854.148425 273.99006 
L 863.519475 273.99006 
L 872.890525 273.99006 
L 882.261575 273.99006 
L 891.632625 273.99006 
L 901.003675 273.99006 
L 910.374725 273.99006 
L 919.745775 273.99006 
L 929.116825 273.99006 
L 938.487875 273.99006 
L 947.858925 273.99006 
L 957.229975 273.99006 
L 966.601025 273.99006 
L 975.972075 273.973516 
L 985.343125 273.956971 
" clip-path="url(#pff4e3085cc)" style="fill: none; stroke: #5cb85c; stroke-linecap: square"/>
   </g>
   <g id="line2d_16">
    <path d="M 48.238125 273.626084 
L 57.609175 273.659173 
L 66.980225 273.72535 
L 76.351275 273.72535 
L 85.722325 273.692262 
L 95.093375 273.708806 
L 104.464425 273.642628 
L 113.835475 273.60954 
L 123.206525 273.60954 
L 132.577575 273.576451 
L 141.948625 273.361374 
L 151.319675 273.047032 
L 160.690725 272.96431 
L 170.061775 272.831955 
L 179.432825 272.633423 
L 188.803875 272.203269 
L 198.174925 271.376051 
L 207.545975 270.830088 
L 216.917025 270.11868 
L 226.288075 269.291462 
L 235.659125 267.273051 
L 245.030175 264.84103 
L 254.401225 262.954973 
L 263.772275 259.662646 
L 273.143325 254.070653 
L 282.514375 249.2397 
L 291.885425 242.969389 
L 301.256475 233.52256 
L 310.627525 223.529768 
L 319.998575 214.46346 
L 329.369625 198.961396 
L 338.740675 179.190888 
L 348.111725 163.159406 
L 357.482775 151.18129 
L 366.853825 136.357546 
L 376.224875 115.825997 
L 385.595925 97.412127 
L 394.966975 85.599455 
L 404.338025 76.632413 
L 413.709075 62.702064 
L 423.080125 54.214808 
L 432.451175 54.926215 
L 441.822225 56.431752 
L 451.193275 50.856303 
L 460.564325 51.567711 
L 469.935375 59.376648 
L 479.306425 62.652431 
L 488.677475 73.042287 
L 498.048525 92.531541 
L 507.419575 106.61079 
L 516.790625 112.666025 
L 526.161675 124.627596 
L 535.532725 135.497239 
L 544.903775 153.927654 
L 554.274825 177.950062 
L 563.645875 192.82344 
L 573.016925 207.018499 
L 582.387975 219.6253 
L 591.759025 229.088672 
L 601.130075 237.046509 
L 610.501125 244.177127 
L 619.872175 249.934563 
L 629.243225 253.772854 
L 638.614275 255.890532 
L 647.985325 259.613013 
L 657.356375 263.219683 
L 666.727425 265.833691 
L 676.098475 267.868648 
L 685.469525 269.489995 
L 694.840575 271.243697 
L 704.211625 272.186725 
L 713.582675 272.666511 
L 722.953725 273.063576 
L 732.324775 273.328286 
L 741.695825 273.328286 
L 751.066875 273.262108 
L 760.437925 273.328286 
L 769.808975 273.543362 
L 779.180025 273.758439 
L 788.551075 273.774983 
L 797.922125 273.758439 
L 807.293175 273.857705 
L 816.664225 273.890794 
L 826.035275 273.808072 
L 835.406325 273.808072 
L 844.777375 273.857705 
L 854.148425 273.874249 
L 863.519475 273.857705 
L 872.890525 273.923883 
L 882.261575 273.99006 
L 891.632625 273.99006 
L 901.003675 273.956971 
L 910.374725 273.923883 
L 919.745775 273.940427 
L 929.116825 273.907338 
L 938.487875 273.841161 
L 947.858925 273.824616 
L 957.229975 273.907338 
L 966.601025 273.791528 
L 975.972075 272.186725 
L 985.343125 270.780455 
" clip-path="url(#pff4e3085cc)" style="fill: none; stroke: #5cb85c; stroke-linecap: square"/>
   </g>
   <g id="line2d_17">
    <path d="M 48.238125 273.99006 
L 985.343125 273.99006 
" clip-path="url(#pff4e3085cc)" style="fill: none; stroke: #dedede; stroke-width: 2; stroke-linecap: square"/>
   </g>
   <g id="text_17">
    <!-- FastQC: Per Sequence GC Content -->
    <g transform="translate(380.154375 19.3575)scale(0.16 -0.16)">
     <defs>
      <path id="DejaVuSans-46" d="M 628 4666 
L 3309 4666 
L 3309 4134 
L 1259 4134 
L 1259 2759 
L 3109 2759 
L 3109 2228 
L 1259 2228 
L 1259 0 
L 628 0 
L 628 4666 
z
" transform="scale(0.015625)"/>
      <path id="DejaVuSans-61" d="M 2194 1759 
Q 1497 1759 1228 1600 
Q 959 1441 959 1056 
Q 959 750 1161 570 
Q 1363 391 1709 391 
Q 2188 391 2477 730 
Q 2766 1069 2766 1631 
L 2766 1759 
L 2194 1759 
z
M 3341 1997 
L 3341 0 
L 2766 0 
L 2766 531 
Q 2569 213 2275 61 
Q 1981 -91 1556 -91 
Q 1019 -91 701 211 
Q 384 513 384 1019 
Q 384 1609 779 1909 
Q 1175 2209 1959 2209 
L 2766 2209 
L 2766 2266 
Q 2766 2663 2505 2880 
Q 2244 3097 1772 3097 
Q 1472 3097 1187 3025 
Q 903 2953 641 2809 
L 641 3341 
Q 956 3463 1253 3523 
Q 1550 3584 1831 3584 
Q 2591 3584 2966 3190 
Q 3341 2797 3341 1997 
z
" transform="scale(0.015625)"/>
      <path id="DejaVuSans-73" d="M 2834 3397 
L 2834 2853 
Q 2591 2978 2328 3040 
Q 2066 3103 1784 3103 
Q 1356 3103 1142 2972 
Q 928 2841 928 2578 
Q 928 2378 1081 2264 
Q 1234 2150 1697 2047 
L 1894 2003 
Q 2506 1872 2764 1633 
Q 3022 1394 3022 966 
Q 3022 478 2636 193 
Q 2250 -91 1575 -91 
Q 1294 -91 989 -36 
Q 684 19 347 128 
L 347 722 
Q 666 556 975 473 
Q 1284 391 1588 391 
Q 1994 391 2212 530 
Q 2431 669 2431 922 
Q 2431 1156 2273 1281 
Q 2116 1406 1581 1522 
L 1381 1569 
Q 847 1681 609 1914 
Q 372 2147 372 2553 
Q 372 3047 722 3315 
Q 1072 3584 1716 3584 
Q 2034 3584 2315 3537 
Q 2597 3491 2834 3397 
z
" transform="scale(0.015625)"/>
      <path id="DejaVuSans-51" d="M 2522 4238 
Q 1834 4238 1429 3725 
Q 1025 3213 1025 2328 
Q 1025 1447 1429 934 
Q 1834 422 2522 422 
Q 3209 422 3611 934 
Q 4013 1447 4013 2328 
Q 4013 3213 3611 3725 
Q 3209 4238 2522 4238 
z
M 3406 84 
L 4238 -825 
L 3475 -825 
L 2784 -78 
Q 2681 -84 2626 -87 
Q 2572 -91 2522 -91 
Q 1538 -91 948 567 
Q 359 1225 359 2328 
Q 359 3434 948 4092 
Q 1538 4750 2522 4750 
Q 3503 4750 4090 4092 
Q 4678 3434 4678 2328 
Q 4678 1516 4351 937 
Q 4025 359 3406 84 
z
" transform="scale(0.015625)"/>
      <path id="DejaVuSans-3a" d="M 750 794 
L 1409 794 
L 1409 0 
L 750 0 
L 750 794 
z
M 750 3309 
L 1409 3309 
L 1409 2516 
L 750 2516 
L 750 3309 
z
" transform="scale(0.015625)"/>
      <path id="DejaVuSans-50" d="M 1259 4147 
L 1259 2394 
L 2053 2394 
Q 2494 2394 2734 2622 
Q 2975 2850 2975 3272 
Q 2975 3691 2734 3919 
Q 2494 4147 2053 4147 
L 1259 4147 
z
M 628 4666 
L 2053 4666 
Q 2838 4666 3239 4311 
Q 3641 3956 3641 3272 
Q 3641 2581 3239 2228 
Q 2838 1875 2053 1875 
L 1259 1875 
L 1259 0 
L 628 0 
L 628 4666 
z
" transform="scale(0.015625)"/>
      <path id="DejaVuSans-65" d="M 3597 1894 
L 3597 1613 
L 953 1613 
Q 991 1019 1311 708 
Q 1631 397 2203 397 
Q 2534 397 2845 478 
Q 3156 559 3463 722 
L 3463 178 
Q 3153 47 2828 -22 
Q 2503 -91 2169 -91 
Q 1331 -91 842 396 
Q 353 884 353 1716 
Q 353 2575 817 3079 
Q 1281 3584 2069 3584 
Q 2775 3584 3186 3129 
Q 3597 2675 3597 1894 
z
M 3022 2063 
Q 3016 2534 2758 2815 
Q 2500 3097 2075 3097 
Q 1594 3097 1305 2825 
Q 1016 2553 972 2059 
L 3022 2063 
z
" transform="scale(0.015625)"/>
      <path id="DejaVuSans-72" d="M 2631 2963 
Q 2534 3019 2420 3045 
Q 2306 3072 2169 3072 
Q 1681 3072 1420 2755 
Q 1159 2438 1159 1844 
L 1159 0 
L 581 0 
L 581 3500 
L 1159 3500 
L 1159 2956 
Q 1341 3275 1631 3429 
Q 1922 3584 2338 3584 
Q 2397 3584 2469 3576 
Q 2541 3569 2628 3553 
L 2631 2963 
z
" transform="scale(0.015625)"/>
      <path id="DejaVuSans-53" d="M 3425 4513 
L 3425 3897 
Q 3066 4069 2747 4153 
Q 2428 4238 2131 4238 
Q 1616 4238 1336 4038 
Q 1056 3838 1056 3469 
Q 1056 3159 1242 3001 
Q 1428 2844 1947 2747 
L 2328 2669 
Q 3034 2534 3370 2195 
Q 3706 1856 3706 1288 
Q 3706 609 3251 259 
Q 2797 -91 1919 -91 
Q 1588 -91 1214 -16 
Q 841 59 441 206 
L 441 856 
Q 825 641 1194 531 
Q 1563 422 1919 422 
Q 2459 422 2753 634 
Q 3047 847 3047 1241 
Q 3047 1584 2836 1778 
Q 2625 1972 2144 2069 
L 1759 2144 
Q 1053 2284 737 2584 
Q 422 2884 422 3419 
Q 422 4038 858 4394 
Q 1294 4750 2059 4750 
Q 2388 4750 2728 4690 
Q 3069 4631 3425 4513 
z
" transform="scale(0.015625)"/>
      <path id="DejaVuSans-71" d="M 947 1747 
Q 947 1113 1208 752 
Q 1469 391 1925 391 
Q 2381 391 2643 752 
Q 2906 1113 2906 1747 
Q 2906 2381 2643 2742 
Q 2381 3103 1925 3103 
Q 1469 3103 1208 2742 
Q 947 2381 947 1747 
z
M 2906 525 
Q 2725 213 2448 61 
Q 2172 -91 1784 -91 
Q 1150 -91 751 415 
Q 353 922 353 1747 
Q 353 2572 751 3078 
Q 1150 3584 1784 3584 
Q 2172 3584 2448 3432 
Q 2725 3281 2906 2969 
L 2906 3500 
L 3481 3500 
L 3481 -1331 
L 2906 -1331 
L 2906 525 
z
" transform="scale(0.015625)"/>
      <path id="DejaVuSans-63" d="M 3122 3366 
L 3122 2828 
Q 2878 2963 2633 3030 
Q 2388 3097 2138 3097 
Q 1578 3097 1268 2742 
Q 959 2388 959 1747 
Q 959 1106 1268 751 
Q 1578 397 2138 397 
Q 2388 397 2633 464 
Q 2878 531 3122 666 
L 3122 134 
Q 2881 22 2623 -34 
Q 2366 -91 2075 -91 
Q 1284 -91 818 406 
Q 353 903 353 1747 
Q 353 2603 823 3093 
Q 1294 3584 2113 3584 
Q 2378 3584 2631 3529 
Q 2884 3475 3122 3366 
z
" transform="scale(0.015625)"/>
     </defs>
     <use xlink:href="#DejaVuSans-46"/>
     <use xlink:href="#DejaVuSans-61" x="48.394531"/>
     <use xlink:href="#DejaVuSans-73" x="109.673828"/>
     <use xlink:href="#DejaVuSans-74" x="161.773438"/>
     <use xlink:href="#DejaVuSans-51" x="200.982422"/>
     <use xlink:href="#DejaVuSans-43" x="279.693359"/>
     <use xlink:href="#DejaVuSans-3a" x="349.517578"/>
     <use xlink:href="#DejaVuSans-20" x="383.208984"/>
     <use xlink:href="#DejaVuSans-50" x="414.996094"/>
     <use xlink:href="#DejaVuSans-65" x="471.673828"/>
     <use xlink:href="#DejaVuSans-72" x="533.197266"/>
     <use xlink:href="#DejaVuSans-20" x="574.310547"/>
     <use xlink:href="#DejaVuSans-53" x="606.097656"/>
     <use xlink:href="#DejaVuSans-65" x="669.574219"/>
     <use xlink:href="#DejaVuSans-71" x="731.097656"/>
     <use xlink:href="#DejaVuSans-75" x="794.574219"/>
     <use xlink:href="#DejaVuSans-65" x="857.953125"/>
     <use xlink:href="#DejaVuSans-6e" x="919.476562"/>
     <use xlink:href="#DejaVuSans-63" x="982.855469"/>
     <use xlink:href="#DejaVuSans-65" x="1037.835938"/>
     <use xlink:href="#DejaVuSans-20" x="1099.359375"/>
     <use xlink:href="#DejaVuSans-47" x="1131.146484"/>
     <use xlink:href="#DejaVuSans-43" x="1208.636719"/>
     <use xlink:href="#DejaVuSans-20" x="1278.460938"/>
     <use xlink:href="#DejaVuSans-43" x="1310.248047"/>
     <use xlink:href="#DejaVuSans-6f" x="1380.072266"/>
     <use xlink:href="#DejaVuSans-6e" x="1441.253906"/>
     <use xlink:href="#DejaVuSans-74" x="1504.632812"/>
     <use xlink:href="#DejaVuSans-65" x="1543.841797"/>
     <use xlink:href="#DejaVuSans-6e" x="1605.365234"/>
     <use xlink:href="#DejaVuSans-74" x="1668.744141"/>
    </g>
   </g>
   <g id="legend_1">
    <g id="line2d_18">
     <path d="M 55.438125 303.490394 
L 63.438125 303.490394 
L 71.438125 303.490394 
" style="fill: none; stroke: #5cb85c; stroke-linecap: square"/>
    </g>
    <g id="text_18">
     <!-- OSMOTIC_STRESS_T0_REP1_T1_1 -->
     <g transform="translate(77.838125 306.290394)scale(0.08 -0.08)">
      <defs>
       <path id="DejaVuSans-4f" d="M 2522 4238 
Q 1834 4238 1429 3725 
Q 1025 3213 1025 2328 
Q 1025 1447 1429 934 
Q 1834 422 2522 422 
Q 3209 422 3611 934 
Q 4013 1447 4013 2328 
Q 4013 3213 3611 3725 
Q 3209 4238 2522 4238 
z
M 2522 4750 
Q 3503 4750 4090 4092 
Q 4678 3434 4678 2328 
Q 4678 1225 4090 567 
Q 3503 -91 2522 -91 
Q 1538 -91 948 565 
Q 359 1222 359 2328 
Q 359 3434 948 4092 
Q 1538 4750 2522 4750 
z
" transform="scale(0.015625)"/>
       <path id="DejaVuSans-4d" d="M 628 4666 
L 1569 4666 
L 2759 1491 
L 3956 4666 
L 4897 4666 
L 4897 0 
L 4281 0 
L 4281 4097 
L 3078 897 
L 2444 897 
L 1241 4097 
L 1241 0 
L 628 0 
L 628 4666 
z
" transform="scale(0.015625)"/>
       <path id="DejaVuSans-54" d="M -19 4666 
L 3928 4666 
L 3928 4134 
L 2272 4134 
L 2272 0 
L 1638 0 
L 1638 4134 
L -19 4134 
L -19 4666 
z
" transform="scale(0.015625)"/>
       <path id="DejaVuSans-49" d="M 628 4666 
L 1259 4666 
L 1259 0 
L 628 0 
L 628 4666 
z
" transform="scale(0.015625)"/>
       <path id="DejaVuSans-5f" d="M 3263 -1063 
L 3263 -1509 
L -63 -1509 
L -63 -1063 
L 3263 -1063 
z
" transform="scale(0.015625)"/>
       <path id="DejaVuSans-52" d="M 2841 2188 
Q 3044 2119 3236 1894 
Q 3428 1669 3622 1275 
L 4263 0 
L 3584 0 
L 2988 1197 
Q 2756 1666 2539 1819 
Q 2322 1972 1947 1972 
L 1259 1972 
L 1259 0 
L 628 0 
L 628 4666 
L 2053 4666 
Q 2853 4666 3247 4331 
Q 3641 3997 3641 3322 
Q 3641 2881 3436 2590 
Q 3231 2300 2841 2188 
z
M 1259 4147 
L 1259 2491 
L 2053 2491 
Q 2509 2491 2742 2702 
Q 2975 2913 2975 3322 
Q 2975 3731 2742 3939 
Q 2509 4147 2053 4147 
L 1259 4147 
z
" transform="scale(0.015625)"/>
       <path id="DejaVuSans-45" d="M 628 4666 
L 3578 4666 
L 3578 4134 
L 1259 4134 
L 1259 2753 
L 3481 2753 
L 3481 2222 
L 1259 2222 
L 1259 531 
L 3634 531 
L 3634 0 
L 628 0 
L 628 4666 
z
" transform="scale(0.015625)"/>
      </defs>
      <use xlink:href="#DejaVuSans-4f"/>
      <use xlink:href="#DejaVuSans-53" x="78.710938"/>
      <use xlink:href="#DejaVuSans-4d" x="142.1875"/>
      <use xlink:href="#DejaVuSans-4f" x="228.466797"/>
      <use xlink:href="#DejaVuSans-54" x="307.177734"/>
      <use xlink:href="#DejaVuSans-49" x="368.261719"/>
      <use xlink:href="#DejaVuSans-43" x="397.753906"/>
      <use xlink:href="#DejaVuSans-5f" x="467.578125"/>
      <use xlink:href="#DejaVuSans-53" x="517.578125"/>
      <use xlink:href="#DejaVuSans-54" x="581.054688"/>
      <use xlink:href="#DejaVuSans-52" x="642.138672"/>
      <use xlink:href="#DejaVuSans-45" x="711.621094"/>
      <use xlink:href="#DejaVuSans-53" x="774.804688"/>
      <use xlink:href="#DejaVuSans-53" x="838.28125"/>
      <use xlink:href="#DejaVuSans-5f" x="901.757812"/>
      <use xlink:href="#DejaVuSans-54" x="951.757812"/>
      <use xlink:href="#DejaVuSans-30" x="1012.841797"/>
      <use xlink:href="#DejaVuSans-5f" x="1076.464844"/>
      <use xlink:href="#DejaVuSans-52" x="1126.464844"/>
      <use xlink:href="#DejaVuSans-45" x="1195.947266"/>
      <use xlink:href="#DejaVuSans-50" x="1259.130859"/>
      <use xlink:href="#DejaVuSans-31" x="1319.433594"/>
      <use xlink:href="#DejaVuSans-5f" x="1383.056641"/>
      <use xlink:href="#DejaVuSans-54" x="1433.056641"/>
      <use xlink:href="#DejaVuSans-31" x="1494.140625"/>
      <use xlink:href="#DejaVuSans-5f" x="1557.763672"/>
      <use xlink:href="#DejaVuSans-31" x="1607.763672"/>
     </g>
    </g>
    <g id="line2d_19">
     <path d="M 55.438125 315.455394 
L 63.438125 315.455394 
L 71.438125 315.455394 
" style="fill: none; stroke: #5cb85c; stroke-linecap: square"/>
    </g>
    <g id="text_19">
     <!-- OSMOTIC_STRESS_T0_REP1_T1_2 -->
     <g transform="translate(77.838125 318.255394)scale(0.08 -0.08)">
      <use xlink:href="#DejaVuSans-4f"/>
      <use xlink:href="#DejaVuSans-53" x="78.710938"/>
      <use xlink:href="#DejaVuSans-4d" x="142.1875"/>
      <use xlink:href="#DejaVuSans-4f" x="228.466797"/>
      <use xlink:href="#DejaVuSans-54" x="307.177734"/>
      <use xlink:href="#DejaVuSans-49" x="368.261719"/>
      <use xlink:href="#DejaVuSans-43" x="397.753906"/>
      <use xlink:href="#DejaVuSans-5f" x="467.578125"/>
      <use xlink:href="#DejaVuSans-53" x="517.578125"/>
      <use xlink:href="#DejaVuSans-54" x="581.054688"/>
      <use xlink:href="#DejaVuSans-52" x="642.138672"/>
      <use xlink:href="#DejaVuSans-45" x="711.621094"/>
      <use xlink:href="#DejaVuSans-53" x="774.804688"/>
      <use xlink:href="#DejaVuSans-53" x="838.28125"/>
      <use xlink:href="#DejaVuSans-5f" x="901.757812"/>
      <use xlink:href="#DejaVuSans-54" x="951.757812"/>
      <use xlink:href="#DejaVuSans-30" x="1012.841797"/>
      <use xlink:href="#DejaVuSans-5f" x="1076.464844"/>
      <use xlink:href="#DejaVuSans-52" x="1126.464844"/>
      <use xlink:href="#DejaVuSans-45" x="1195.947266"/>
      <use xlink:href="#DejaVuSans-50" x="1259.130859"/>
      <use xlink:href="#DejaVuSans-31" x="1319.433594"/>
      <use xlink:href="#DejaVuSans-5f" x="1383.056641"/>
      <use xlink:href="#DejaVuSans-54" x="1433.056641"/>
      <use xlink:href="#DejaVuSans-31" x="1494.140625"/>
      <use xlink:href="#DejaVuSans-5f" x="1557.763672"/>
      <use xlink:href="#DejaVuSans-32" x="1607.763672"/>
     </g>
    </g>
    <g id="line2d_20">
     <path d="M 243.268125 303.490394 
L 251.268125 303.490394 
L 259.268125 303.490394 
" style="fill: none; stroke: #5cb85c; stroke-linecap: square"/>
    </g>
    <g id="text_20">
     <!-- OSMOTIC_STRESS_T0_REP2_T1_1 -->
     <g transform="translate(265.668125 306.290394)scale(0.08 -0.08)">
      <use xlink:href="#DejaVuSans-4f"/>
      <use xlink:href="#DejaVuSans-53" x="78.710938"/>
      <use xlink:href="#DejaVuSans-4d" x="142.1875"/>
      <use xlink:href="#DejaVuSans-4f" x="228.466797"/>
      <use xlink:href="#DejaVuSans-54" x="307.177734"/>
      <use xlink:href="#DejaVuSans-49" x="368.261719"/>
      <use xlink:href="#DejaVuSans-43" x="397.753906"/>
      <use xlink:href="#DejaVuSans-5f" x="467.578125"/>
      <use xlink:href="#DejaVuSans-53" x="517.578125"/>
      <use xlink:href="#DejaVuSans-54" x="581.054688"/>
      <use xlink:href="#DejaVuSans-52" x="642.138672"/>
      <use xlink:href="#DejaVuSans-45" x="711.621094"/>
      <use xlink:href="#DejaVuSans-53" x="774.804688"/>
      <use xlink:href="#DejaVuSans-53" x="838.28125"/>
      <use xlink:href="#DejaVuSans-5f" x="901.757812"/>
      <use xlink:href="#DejaVuSans-54" x="951.757812"/>
      <use xlink:href="#DejaVuSans-30" x="1012.841797"/>
      <use xlink:href="#DejaVuSans-5f" x="1076.464844"/>
      <use xlink:href="#DejaVuSans-52" x="1126.464844"/>
      <use xlink:href="#DejaVuSans-45" x="1195.947266"/>
      <use xlink:href="#DejaVuSans-50" x="1259.130859"/>
      <use xlink:href="#DejaVuSans-32" x="1319.433594"/>
      <use xlink:href="#DejaVuSans-5f" x="1383.056641"/>
      <use xlink:href="#DejaVuSans-54" x="1433.056641"/>
      <use xlink:href="#DejaVuSans-31" x="1494.140625"/>
      <use xlink:href="#DejaVuSans-5f" x="1557.763672"/>
      <use xlink:href="#DejaVuSans-31" x="1607.763672"/>
     </g>
    </g>
    <g id="line2d_21">
     <path d="M 243.268125 315.455394 
L 251.268125 315.455394 
L 259.268125 315.455394 
" style="fill: none; stroke: #5cb85c; stroke-linecap: square"/>
    </g>
    <g id="text_21">
     <!-- OSMOTIC_STRESS_T0_REP2_T1_2 -->
     <g transform="translate(265.668125 318.255394)scale(0.08 -0.08)">
      <use xlink:href="#DejaVuSans-4f"/>
      <use xlink:href="#DejaVuSans-53" x="78.710938"/>
      <use xlink:href="#DejaVuSans-4d" x="142.1875"/>
      <use xlink:href="#DejaVuSans-4f" x="228.466797"/>
      <use xlink:href="#DejaVuSans-54" x="307.177734"/>
      <use xlink:href="#DejaVuSans-49" x="368.261719"/>
      <use xlink:href="#DejaVuSans-43" x="397.753906"/>
      <use xlink:href="#DejaVuSans-5f" x="467.578125"/>
      <use xlink:href="#DejaVuSans-53" x="517.578125"/>
      <use xlink:href="#DejaVuSans-54" x="581.054688"/>
      <use xlink:href="#DejaVuSans-52" x="642.138672"/>
      <use xlink:href="#DejaVuSans-45" x="711.621094"/>
      <use xlink:href="#DejaVuSans-53" x="774.804688"/>
      <use xlink:href="#DejaVuSans-53" x="838.28125"/>
      <use xlink:href="#DejaVuSans-5f" x="901.757812"/>
      <use xlink:href="#DejaVuSans-54" x="951.757812"/>
      <use xlink:href="#DejaVuSans-30" x="1012.841797"/>
      <use xlink:href="#DejaVuSans-5f" x="1076.464844"/>
      <use xlink:href="#DejaVuSans-52" x="1126.464844"/>
      <use xlink:href="#DejaVuSans-45" x="1195.947266"/>
      <use xlink:href="#DejaVuSans-50" x="1259.130859"/>
      <use xlink:href="#DejaVuSans-32" x="1319.433594"/>
      <use xlink:href="#DejaVuSans-5f" x="1383.056641"/>
      <use xlink:href="#DejaVuSans-54" x="1433.056641"/>
      <use xlink:href="#DejaVuSans-31" x="1494.140625"/>
      <use xlink:href="#DejaVuSans-5f" x="1557.763672"/>
      <use xlink:href="#DejaVuSans-32" x="1607.763672"/>
     </g>
    </g>
    <g id="line2d_22">
     <path d="M 431.098125 303.490394 
L 439.098125 303.490394 
L 447.098125 303.490394 
" style="fill: none; stroke: #5cb85c; stroke-linecap: square"/>
    </g>
    <g id="text_22">
     <!-- OSMOTIC_STRESS_T15_REP1_T1_1 -->
     <g transform="translate(453.498125 306.290394)scale(0.08 -0.08)">
      <use xlink:href="#DejaVuSans-4f"/>
      <use xlink:href="#DejaVuSans-53" x="78.710938"/>
      <use xlink:href="#DejaVuSans-4d" x="142.1875"/>
      <use xlink:href="#DejaVuSans-4f" x="228.466797"/>
      <use xlink:href="#DejaVuSans-54" x="307.177734"/>
      <use xlink:href="#DejaVuSans-49" x="368.261719"/>
      <use xlink:href="#DejaVuSans-43" x="397.753906"/>
      <use xlink:href="#DejaVuSans-5f" x="467.578125"/>
      <use xlink:href="#DejaVuSans-53" x="517.578125"/>
      <use xlink:href="#DejaVuSans-54" x="581.054688"/>
      <use xlink:href="#DejaVuSans-52" x="642.138672"/>
      <use xlink:href="#DejaVuSans-45" x="711.621094"/>
      <use xlink:href="#DejaVuSans-53" x="774.804688"/>
      <use xlink:href="#DejaVuSans-53" x="838.28125"/>
      <use xlink:href="#DejaVuSans-5f" x="901.757812"/>
      <use xlink:href="#DejaVuSans-54" x="951.757812"/>
      <use xlink:href="#DejaVuSans-31" x="1012.841797"/>
      <use xlink:href="#DejaVuSans-35" x="1076.464844"/>
      <use xlink:href="#DejaVuSans-5f" x="1140.087891"/>
      <use xlink:href="#DejaVuSans-52" x="1190.087891"/>
      <use xlink:href="#DejaVuSans-45" x="1259.570312"/>
      <use xlink:href="#DejaVuSans-50" x="1322.753906"/>
      <use xlink:href="#DejaVuSans-31" x="1383.056641"/>
      <use xlink:href="#DejaVuSans-5f" x="1446.679688"/>
      <use xlink:href="#DejaVuSans-54" x="1496.679688"/>
      <use xlink:href="#DejaVuSans-31" x="1557.763672"/>
      <use xlink:href="#DejaVuSans-5f" x="1621.386719"/>
      <use xlink:href="#DejaVuSans-31" x="1671.386719"/>
     </g>
    </g>
    <g id="line2d_23">
     <path d="M 431.098125 315.455394 
L 439.098125 315.455394 
L 447.098125 315.455394 
" style="fill: none; stroke: #5cb85c; stroke-linecap: square"/>
    </g>
    <g id="text_23">
     <!-- OSMOTIC_STRESS_T15_REP1_T1_2 -->
     <g transform="translate(453.498125 318.255394)scale(0.08 -0.08)">
      <use xlink:href="#DejaVuSans-4f"/>
      <use xlink:href="#DejaVuSans-53" x="78.710938"/>
      <use xlink:href="#DejaVuSans-4d" x="142.1875"/>
      <use xlink:href="#DejaVuSans-4f" x="228.466797"/>
      <use xlink:href="#DejaVuSans-54" x="307.177734"/>
      <use xlink:href="#DejaVuSans-49" x="368.261719"/>
      <use xlink:href="#DejaVuSans-43" x="397.753906"/>
      <use xlink:href="#DejaVuSans-5f" x="467.578125"/>
      <use xlink:href="#DejaVuSans-53" x="517.578125"/>
      <use xlink:href="#DejaVuSans-54" x="581.054688"/>
      <use xlink:href="#DejaVuSans-52" x="642.138672"/>
      <use xlink:href="#DejaVuSans-45" x="711.621094"/>
      <use xlink:href="#DejaVuSans-53" x="774.804688"/>
      <use xlink:href="#DejaVuSans-53" x="838.28125"/>
      <use xlink:href="#DejaVuSans-5f" x="901.757812"/>
      <use xlink:href="#DejaVuSans-54" x="951.757812"/>
      <use xlink:href="#DejaVuSans-31" x="1012.841797"/>
      <use xlink:href="#DejaVuSans-35" x="1076.464844"/>
      <use xlink:href="#DejaVuSans-5f" x="1140.087891"/>
      <use xlink:href="#DejaVuSans-52" x="1190.087891"/>
      <use xlink:href="#DejaVuSans-45" x="1259.570312"/>
      <use xlink:href="#DejaVuSans-50" x="1322.753906"/>
      <use xlink:href="#DejaVuSans-31" x="1383.056641"/>
      <use xlink:href="#DejaVuSans-5f" x="1446.679688"/>
      <use xlink:href="#DejaVuSans-54" x="1496.679688"/>
      <use xlink:href="#DejaVuSans-31" x="1557.763672"/>
      <use xlink:href="#DejaVuSans-5f" x="1621.386719"/>
      <use xlink:href="#DejaVuSans-32" x="1671.386719"/>
     </g>
    </g>
    <g id="line2d_24">
     <path d="M 624.018125 303.490394 
L 632.018125 303.490394 
L 640.018125 303.490394 
" style="fill: none; stroke: #5cb85c; stroke-linecap: square"/>
    </g>
    <g id="text_24">
     <!-- OSMOTIC_STRESS_T15_REP2_T1_1 -->
     <g transform="translate(646.418125 306.290394)scale(0.08 -0.08)">
      <use xlink:href="#DejaVuSans-4f"/>
      <use xlink:href="#DejaVuSans-53" x="78.710938"/>
      <use xlink:href="#DejaVuSans-4d" x="142.1875"/>
      <use xlink:href="#DejaVuSans-4f" x="228.466797"/>
      <use xlink:href="#DejaVuSans-54" x="307.177734"/>
      <use xlink:href="#DejaVuSans-49" x="368.261719"/>
      <use xlink:href="#DejaVuSans-43" x="397.753906"/>
      <use xlink:href="#DejaVuSans-5f" x="467.578125"/>
      <use xlink:href="#DejaVuSans-53" x="517.578125"/>
      <use xlink:href="#DejaVuSans-54" x="581.054688"/>
      <use xlink:href="#DejaVuSans-52" x="642.138672"/>
      <use xlink:href="#DejaVuSans-45" x="711.621094"/>
      <use xlink:href="#DejaVuSans-53" x="774.804688"/>
      <use xlink:href="#DejaVuSans-53" x="838.28125"/>
      <use xlink:href="#DejaVuSans-5f" x="901.757812"/>
      <use xlink:href="#DejaVuSans-54" x="951.757812"/>
      <use xlink:href="#DejaVuSans-31" x="1012.841797"/>
      <use xlink:href="#DejaVuSans-35" x="1076.464844"/>
      <use xlink:href="#DejaVuSans-5f" x="1140.087891"/>
      <use xlink:href="#DejaVuSans-52" x="1190.087891"/>
      <use xlink:href="#DejaVuSans-45" x="1259.570312"/>
      <use xlink:href="#DejaVuSans-50" x="1322.753906"/>
      <use xlink:href="#DejaVuSans-32" x="1383.056641"/>
      <use xlink:href="#DejaVuSans-5f" x="1446.679688"/>
      <use xlink:href="#DejaVuSans-54" x="1496.679688"/>
      <use xlink:href="#DejaVuSans-31" x="1557.763672"/>
      <use xlink:href="#DejaVuSans-5f" x="1621.386719"/>
      <use xlink:href="#DejaVuSans-31" x="1671.386719"/>
     </g>
    </g>
    <g id="line2d_25">
     <path d="M 816.938125 303.490394 
L 824.938125 303.490394 
L 832.938125 303.490394 
" style="fill: none; stroke: #5cb85c; stroke-linecap: square"/>
    </g>
    <g id="text_25">
     <!-- OSMOTIC_STRESS_T15_REP2_T1_2 -->
     <g transform="translate(839.338125 306.290394)scale(0.08 -0.08)">
      <use xlink:href="#DejaVuSans-4f"/>
      <use xlink:href="#DejaVuSans-53" x="78.710938"/>
      <use xlink:href="#DejaVuSans-4d" x="142.1875"/>
      <use xlink:href="#DejaVuSans-4f" x="228.466797"/>
      <use xlink:href="#DejaVuSans-54" x="307.177734"/>
      <use xlink:href="#DejaVuSans-49" x="368.261719"/>
      <use xlink:href="#DejaVuSans-43" x="397.753906"/>
      <use xlink:href="#DejaVuSans-5f" x="467.578125"/>
      <use xlink:href="#DejaVuSans-53" x="517.578125"/>
      <use xlink:href="#DejaVuSans-54" x="581.054688"/>
      <use xlink:href="#DejaVuSans-52" x="642.138672"/>
      <use xlink:href="#DejaVuSans-45" x="711.621094"/>
      <use xlink:href="#DejaVuSans-53" x="774.804688"/>
      <use xlink:href="#DejaVuSans-53" x="838.28125"/>
      <use xlink:href="#DejaVuSans-5f" x="901.757812"/>
      <use xlink:href="#DejaVuSans-54" x="951.757812"/>
      <use xlink:href="#DejaVuSans-31" x="1012.841797"/>
      <use xlink:href="#DejaVuSans-35" x="1076.464844"/>
      <use xlink:href="#DejaVuSans-5f" x="1140.087891"/>
      <use xlink:href="#DejaVuSans-52" x="1190.087891"/>
      <use xlink:href="#DejaVuSans-45" x="1259.570312"/>
      <use xlink:href="#DejaVuSans-50" x="1322.753906"/>
      <use xlink:href="#DejaVuSans-32" x="1383.056641"/>
      <use xlink:href="#DejaVuSans-5f" x="1446.679688"/>
      <use xlink:href="#DejaVuSans-54" x="1496.679688"/>
      <use xlink:href="#DejaVuSans-31" x="1557.763672"/>
      <use xlink:href="#DejaVuSans-5f" x="1621.386719"/>
      <use xlink:href="#DejaVuSans-32" x="1671.386719"/>
     </g>
    </g>
   </g>
  </g>
 </g>
 <defs>
  <clipPath id="pff4e3085cc">
   <rect x="48.238125" y="31.48286" width="937.105" height="242.5072"/>
  </clipPath>
 </defs>
</svg>
