<?xml version="1.0" encoding="utf-8" standalone="no"?>
<!DOCTYPE svg PUBLIC "-//W3C//DTD SVG 1.1//EN"
  "http://www.w3.org/Graphics/SVG/1.1/DTD/svg11.dtd">
<svg xmlns:xlink="http://www.w3.org/1999/xlink" width="1000.358125pt" height="330.541644pt" viewBox="0 0 1000.358125 330.541644" xmlns="http://www.w3.org/2000/svg" version="1.1">
 <metadata>
  <rdf:RDF xmlns:dc="http://purl.org/dc/elements/1.1/" xmlns:cc="http://creativecommons.org/ns#" xmlns:rdf="http://www.w3.org/1999/02/22-rdf-syntax-ns#">
   <cc:Work>
    <dc:type rdf:resource="http://purl.org/dc/dcmitype/StillImage"/>
    <dc:date>2022-11-03T22:57:03.987529</dc:date>
    <dc:format>image/svg+xml</dc:format>
    <dc:creator>
     <cc:Agent>
      <dc:title>Matplotlib v3.5.2, https://matplotlib.org/</dc:title>
     </cc:Agent>
    </dc:creator>
   </cc:Work>
  </rdf:RDF>
 </metadata>
 <defs>
  <style type="text/css">*{stroke-linejoin: round; stroke-linecap: butt}</style>
 </defs>
 <g id="figure_1">
  <g id="axes_1">
   <g id="patch_1">
    <path d="M 32.968125 273.99006 
L 993.158125 273.99006 
L 993.158125 31.48286 
L 32.968125 31.48286 
z
" style="fill: #ffffff"/>
   </g>
   <g id="patch_2">
    <path d="M 32.968125 -696.03874 
L 993.158125 -696.03874 
L 993.158125 -4576.15394 
L 32.968125 -4576.15394 
z
" clip-path="url(#p67a16dafdc)" style="fill: #e6c3c3"/>
   </g>
   <g id="patch_3">
    <path d="M 32.968125 31.48286 
L 993.158125 31.48286 
L 993.158125 -696.03874 
L 32.968125 -696.03874 
z
" clip-path="url(#p67a16dafdc)" style="fill: #e6dcc3"/>
   </g>
   <g id="patch_4">
    <path d="M 32.968125 273.99006 
L 993.158125 273.99006 
L 993.158125 31.48286 
L 32.968125 31.48286 
z
" clip-path="url(#p67a16dafdc)" style="fill: #c3e6c3"/>
   </g>
   <g id="matplotlib.axis_1">
    <g id="xtick_1">
     <g id="text_1">
      <!-- 0 -->
      <g transform="translate(30.423125 287.06881)scale(0.08 -0.08)">
       <defs>
        <path id="DejaVuSans-30" d="M 2034 4250 
Q 1547 4250 1301 3770 
Q 1056 3291 1056 2328 
Q 1056 1369 1301 889 
Q 1547 409 2034 409 
Q 2525 409 2770 889 
Q 3016 1369 3016 2328 
Q 3016 3291 2770 3770 
Q 2525 4250 2034 4250 
z
M 2034 4750 
Q 2819 4750 3233 4129 
Q 3647 3509 3647 2328 
Q 3647 1150 3233 529 
Q 2819 -91 2034 -91 
Q 1250 -91 836 529 
Q 422 1150 422 2328 
Q 422 3509 836 4129 
Q 1250 4750 2034 4750 
z
" transform="scale(0.015625)"/>
       </defs>
       <use xlink:href="#DejaVuSans-30"/>
      </g>
     </g>
    </g>
    <g id="xtick_2">
     <g id="text_2">
      <!-- 10 -->
      <g transform="translate(148.278125 287.06881)scale(0.08 -0.08)">
       <defs>
        <path id="DejaVuSans-31" d="M 794 531 
L 1825 531 
L 1825 4091 
L 703 3866 
L 703 4441 
L 1819 4666 
L 2450 4666 
L 2450 531 
L 3481 531 
L 3481 0 
L 794 0 
L 794 531 
z
" transform="scale(0.015625)"/>
       </defs>
       <use xlink:href="#DejaVuSans-31"/>
       <use xlink:href="#DejaVuSans-30" x="63.623047"/>
      </g>
     </g>
    </g>
    <g id="xtick_3">
     <g id="text_3">
      <!-- 20 -->
      <g transform="translate(268.678125 287.06881)scale(0.08 -0.08)">
       <defs>
        <path id="DejaVuSans-32" d="M 1228 531 
L 3431 531 
L 3431 0 
L 469 0 
L 469 531 
Q 828 903 1448 1529 
Q 2069 2156 2228 2338 
Q 2531 2678 2651 2914 
Q 2772 3150 2772 3378 
Q 2772 3750 2511 3984 
Q 2250 4219 1831 4219 
Q 1534 4219 1204 4116 
Q 875 4013 500 3803 
L 500 4441 
Q 881 4594 1212 4672 
Q 1544 4750 1819 4750 
Q 2544 4750 2975 4387 
Q 3406 4025 3406 3419 
Q 3406 3131 3298 2873 
Q 3191 2616 2906 2266 
Q 2828 2175 2409 1742 
Q 1991 1309 1228 531 
z
" transform="scale(0.015625)"/>
       </defs>
       <use xlink:href="#DejaVuSans-32"/>
       <use xlink:href="#DejaVuSans-30" x="63.623047"/>
      </g>
     </g>
    </g>
    <g id="xtick_4">
     <g id="text_4">
      <!-- 30 -->
      <g transform="translate(389.078125 287.06881)scale(0.08 -0.08)">
       <defs>
        <path id="DejaVuSans-33" d="M 2597 2516 
Q 3050 2419 3304 2112 
Q 3559 1806 3559 1356 
Q 3559 666 3084 287 
Q 2609 -91 1734 -91 
Q 1441 -91 1130 -33 
Q 819 25 488 141 
L 488 750 
Q 750 597 1062 519 
Q 1375 441 1716 441 
Q 2309 441 2620 675 
Q 2931 909 2931 1356 
Q 2931 1769 2642 2001 
Q 2353 2234 1838 2234 
L 1294 2234 
L 1294 2753 
L 1863 2753 
Q 2328 2753 2575 2939 
Q 2822 3125 2822 3475 
Q 2822 3834 2567 4026 
Q 2313 4219 1838 4219 
Q 1578 4219 1281 4162 
Q 984 4106 628 3988 
L 628 4550 
Q 988 4650 1302 4700 
Q 1616 4750 1894 4750 
Q 2613 4750 3031 4423 
Q 3450 4097 3450 3541 
Q 3450 3153 3228 2886 
Q 3006 2619 2597 2516 
z
" transform="scale(0.015625)"/>
       </defs>
       <use xlink:href="#DejaVuSans-33"/>
       <use xlink:href="#DejaVuSans-30" x="63.623047"/>
      </g>
     </g>
    </g>
    <g id="xtick_5">
     <g id="text_5">
      <!-- 40 -->
      <g transform="translate(509.478125 287.06881)scale(0.08 -0.08)">
       <defs>
        <path id="DejaVuSans-34" d="M 2419 4116 
L 825 1625 
L 2419 1625 
L 2419 4116 
z
M 2253 4666 
L 3047 4666 
L 3047 1625 
L 3713 1625 
L 3713 1100 
L 3047 1100 
L 3047 0 
L 2419 0 
L 2419 1100 
L 313 1100 
L 313 1709 
L 2253 4666 
z
" transform="scale(0.015625)"/>
       </defs>
       <use xlink:href="#DejaVuSans-34"/>
       <use xlink:href="#DejaVuSans-30" x="63.623047"/>
      </g>
     </g>
    </g>
    <g id="xtick_6">
     <g id="text_6">
      <!-- 50 -->
      <g transform="translate(629.878125 287.06881)scale(0.08 -0.08)">
       <defs>
        <path id="DejaVuSans-35" d="M 691 4666 
L 3169 4666 
L 3169 4134 
L 1269 4134 
L 1269 2991 
Q 1406 3038 1543 3061 
Q 1681 3084 1819 3084 
Q 2600 3084 3056 2656 
Q 3513 2228 3513 1497 
Q 3513 744 3044 326 
Q 2575 -91 1722 -91 
Q 1428 -91 1123 -41 
Q 819 9 494 109 
L 494 744 
Q 775 591 1075 516 
Q 1375 441 1709 441 
Q 2250 441 2565 725 
Q 2881 1009 2881 1497 
Q 2881 1984 2565 2268 
Q 2250 2553 1709 2553 
Q 1456 2553 1204 2497 
Q 953 2441 691 2322 
L 691 4666 
z
" transform="scale(0.015625)"/>
       </defs>
       <use xlink:href="#DejaVuSans-35"/>
       <use xlink:href="#DejaVuSans-30" x="63.623047"/>
      </g>
     </g>
    </g>
    <g id="xtick_7">
     <g id="text_7">
      <!-- 60 -->
      <g transform="translate(750.278125 287.06881)scale(0.08 -0.08)">
       <defs>
        <path id="DejaVuSans-36" d="M 2113 2584 
Q 1688 2584 1439 2293 
Q 1191 2003 1191 1497 
Q 1191 994 1439 701 
Q 1688 409 2113 409 
Q 2538 409 2786 701 
Q 3034 994 3034 1497 
Q 3034 2003 2786 2293 
Q 2538 2584 2113 2584 
z
M 3366 4563 
L 3366 3988 
Q 3128 4100 2886 4159 
Q 2644 4219 2406 4219 
Q 1781 4219 1451 3797 
Q 1122 3375 1075 2522 
Q 1259 2794 1537 2939 
Q 1816 3084 2150 3084 
Q 2853 3084 3261 2657 
Q 3669 2231 3669 1497 
Q 3669 778 3244 343 
Q 2819 -91 2113 -91 
Q 1303 -91 875 529 
Q 447 1150 447 2328 
Q 447 3434 972 4092 
Q 1497 4750 2381 4750 
Q 2619 4750 2861 4703 
Q 3103 4656 3366 4563 
z
" transform="scale(0.015625)"/>
       </defs>
       <use xlink:href="#DejaVuSans-36"/>
       <use xlink:href="#DejaVuSans-30" x="63.623047"/>
      </g>
     </g>
    </g>
    <g id="xtick_8">
     <g id="text_8">
      <!-- 70 -->
      <g transform="translate(870.678125 287.06881)scale(0.08 -0.08)">
       <defs>
        <path id="DejaVuSans-37" d="M 525 4666 
L 3525 4666 
L 3525 4397 
L 1831 0 
L 1172 0 
L 2766 4134 
L 525 4134 
L 525 4666 
z
" transform="scale(0.015625)"/>
       </defs>
       <use xlink:href="#DejaVuSans-37"/>
       <use xlink:href="#DejaVuSans-30" x="63.623047"/>
      </g>
     </g>
    </g>
    <g id="text_9">
     <!-- Position in Read (bp) -->
     <g transform="translate(461.46 300.330997)scale(0.1 -0.1)">
      <defs>
       <path id="DejaVuSans-50" d="M 1259 4147 
L 1259 2394 
L 2053 2394 
Q 2494 2394 2734 2622 
Q 2975 2850 2975 3272 
Q 2975 3691 2734 3919 
Q 2494 4147 2053 4147 
L 1259 4147 
z
M 628 4666 
L 2053 4666 
Q 2838 4666 3239 4311 
Q 3641 3956 3641 3272 
Q 3641 2581 3239 2228 
Q 2838 1875 2053 1875 
L 1259 1875 
L 1259 0 
L 628 0 
L 628 4666 
z
" transform="scale(0.015625)"/>
       <path id="DejaVuSans-6f" d="M 1959 3097 
Q 1497 3097 1228 2736 
Q 959 2375 959 1747 
Q 959 1119 1226 758 
Q 1494 397 1959 397 
Q 2419 397 2687 759 
Q 2956 1122 2956 1747 
Q 2956 2369 2687 2733 
Q 2419 3097 1959 3097 
z
M 1959 3584 
Q 2709 3584 3137 3096 
Q 3566 2609 3566 1747 
Q 3566 888 3137 398 
Q 2709 -91 1959 -91 
Q 1206 -91 779 398 
Q 353 888 353 1747 
Q 353 2609 779 3096 
Q 1206 3584 1959 3584 
z
" transform="scale(0.015625)"/>
       <path id="DejaVuSans-73" d="M 2834 3397 
L 2834 2853 
Q 2591 2978 2328 3040 
Q 2066 3103 1784 3103 
Q 1356 3103 1142 2972 
Q 928 2841 928 2578 
Q 928 2378 1081 2264 
Q 1234 2150 1697 2047 
L 1894 2003 
Q 2506 1872 2764 1633 
Q 3022 1394 3022 966 
Q 3022 478 2636 193 
Q 2250 -91 1575 -91 
Q 1294 -91 989 -36 
Q 684 19 347 128 
L 347 722 
Q 666 556 975 473 
Q 1284 391 1588 391 
Q 1994 391 2212 530 
Q 2431 669 2431 922 
Q 2431 1156 2273 1281 
Q 2116 1406 1581 1522 
L 1381 1569 
Q 847 1681 609 1914 
Q 372 2147 372 2553 
Q 372 3047 722 3315 
Q 1072 3584 1716 3584 
Q 2034 3584 2315 3537 
Q 2597 3491 2834 3397 
z
" transform="scale(0.015625)"/>
       <path id="DejaVuSans-69" d="M 603 3500 
L 1178 3500 
L 1178 0 
L 603 0 
L 603 3500 
z
M 603 4863 
L 1178 4863 
L 1178 4134 
L 603 4134 
L 603 4863 
z
" transform="scale(0.015625)"/>
       <path id="DejaVuSans-74" d="M 1172 4494 
L 1172 3500 
L 2356 3500 
L 2356 3053 
L 1172 3053 
L 1172 1153 
Q 1172 725 1289 603 
Q 1406 481 1766 481 
L 2356 481 
L 2356 0 
L 1766 0 
Q 1100 0 847 248 
Q 594 497 594 1153 
L 594 3053 
L 172 3053 
L 172 3500 
L 594 3500 
L 594 4494 
L 1172 4494 
z
" transform="scale(0.015625)"/>
       <path id="DejaVuSans-6e" d="M 3513 2113 
L 3513 0 
L 2938 0 
L 2938 2094 
Q 2938 2591 2744 2837 
Q 2550 3084 2163 3084 
Q 1697 3084 1428 2787 
Q 1159 2491 1159 1978 
L 1159 0 
L 581 0 
L 581 3500 
L 1159 3500 
L 1159 2956 
Q 1366 3272 1645 3428 
Q 1925 3584 2291 3584 
Q 2894 3584 3203 3211 
Q 3513 2838 3513 2113 
z
" transform="scale(0.015625)"/>
       <path id="DejaVuSans-20" transform="scale(0.015625)"/>
       <path id="DejaVuSans-52" d="M 2841 2188 
Q 3044 2119 3236 1894 
Q 3428 1669 3622 1275 
L 4263 0 
L 3584 0 
L 2988 1197 
Q 2756 1666 2539 1819 
Q 2322 1972 1947 1972 
L 1259 1972 
L 1259 0 
L 628 0 
L 628 4666 
L 2053 4666 
Q 2853 4666 3247 4331 
Q 3641 3997 3641 3322 
Q 3641 2881 3436 2590 
Q 3231 2300 2841 2188 
z
M 1259 4147 
L 1259 2491 
L 2053 2491 
Q 2509 2491 2742 2702 
Q 2975 2913 2975 3322 
Q 2975 3731 2742 3939 
Q 2509 4147 2053 4147 
L 1259 4147 
z
" transform="scale(0.015625)"/>
       <path id="DejaVuSans-65" d="M 3597 1894 
L 3597 1613 
L 953 1613 
Q 991 1019 1311 708 
Q 1631 397 2203 397 
Q 2534 397 2845 478 
Q 3156 559 3463 722 
L 3463 178 
Q 3153 47 2828 -22 
Q 2503 -91 2169 -91 
Q 1331 -91 842 396 
Q 353 884 353 1716 
Q 353 2575 817 3079 
Q 1281 3584 2069 3584 
Q 2775 3584 3186 3129 
Q 3597 2675 3597 1894 
z
M 3022 2063 
Q 3016 2534 2758 2815 
Q 2500 3097 2075 3097 
Q 1594 3097 1305 2825 
Q 1016 2553 972 2059 
L 3022 2063 
z
" transform="scale(0.015625)"/>
       <path id="DejaVuSans-61" d="M 2194 1759 
Q 1497 1759 1228 1600 
Q 959 1441 959 1056 
Q 959 750 1161 570 
Q 1363 391 1709 391 
Q 2188 391 2477 730 
Q 2766 1069 2766 1631 
L 2766 1759 
L 2194 1759 
z
M 3341 1997 
L 3341 0 
L 2766 0 
L 2766 531 
Q 2569 213 2275 61 
Q 1981 -91 1556 -91 
Q 1019 -91 701 211 
Q 384 513 384 1019 
Q 384 1609 779 1909 
Q 1175 2209 1959 2209 
L 2766 2209 
L 2766 2266 
Q 2766 2663 2505 2880 
Q 2244 3097 1772 3097 
Q 1472 3097 1187 3025 
Q 903 2953 641 2809 
L 641 3341 
Q 956 3463 1253 3523 
Q 1550 3584 1831 3584 
Q 2591 3584 2966 3190 
Q 3341 2797 3341 1997 
z
" transform="scale(0.015625)"/>
       <path id="DejaVuSans-64" d="M 2906 2969 
L 2906 4863 
L 3481 4863 
L 3481 0 
L 2906 0 
L 2906 525 
Q 2725 213 2448 61 
Q 2172 -91 1784 -91 
Q 1150 -91 751 415 
Q 353 922 353 1747 
Q 353 2572 751 3078 
Q 1150 3584 1784 3584 
Q 2172 3584 2448 3432 
Q 2725 3281 2906 2969 
z
M 947 1747 
Q 947 1113 1208 752 
Q 1469 391 1925 391 
Q 2381 391 2643 752 
Q 2906 1113 2906 1747 
Q 2906 2381 2643 2742 
Q 2381 3103 1925 3103 
Q 1469 3103 1208 2742 
Q 947 2381 947 1747 
z
" transform="scale(0.015625)"/>
       <path id="DejaVuSans-28" d="M 1984 4856 
Q 1566 4138 1362 3434 
Q 1159 2731 1159 2009 
Q 1159 1288 1364 580 
Q 1569 -128 1984 -844 
L 1484 -844 
Q 1016 -109 783 600 
Q 550 1309 550 2009 
Q 550 2706 781 3412 
Q 1013 4119 1484 4856 
L 1984 4856 
z
" transform="scale(0.015625)"/>
       <path id="DejaVuSans-62" d="M 3116 1747 
Q 3116 2381 2855 2742 
Q 2594 3103 2138 3103 
Q 1681 3103 1420 2742 
Q 1159 2381 1159 1747 
Q 1159 1113 1420 752 
Q 1681 391 2138 391 
Q 2594 391 2855 752 
Q 3116 1113 3116 1747 
z
M 1159 2969 
Q 1341 3281 1617 3432 
Q 1894 3584 2278 3584 
Q 2916 3584 3314 3078 
Q 3713 2572 3713 1747 
Q 3713 922 3314 415 
Q 2916 -91 2278 -91 
Q 1894 -91 1617 61 
Q 1341 213 1159 525 
L 1159 0 
L 581 0 
L 581 4863 
L 1159 4863 
L 1159 2969 
z
" transform="scale(0.015625)"/>
       <path id="DejaVuSans-70" d="M 1159 525 
L 1159 -1331 
L 581 -1331 
L 581 3500 
L 1159 3500 
L 1159 2969 
Q 1341 3281 1617 3432 
Q 1894 3584 2278 3584 
Q 2916 3584 3314 3078 
Q 3713 2572 3713 1747 
Q 3713 922 3314 415 
Q 2916 -91 2278 -91 
Q 1894 -91 1617 61 
Q 1341 213 1159 525 
z
M 3116 1747 
Q 3116 2381 2855 2742 
Q 2594 3103 2138 3103 
Q 1681 3103 1420 2742 
Q 1159 2381 1159 1747 
Q 1159 1113 1420 752 
Q 1681 391 2138 391 
Q 2594 391 2855 752 
Q 3116 1113 3116 1747 
z
" transform="scale(0.015625)"/>
       <path id="DejaVuSans-29" d="M 513 4856 
L 1013 4856 
Q 1481 4119 1714 3412 
Q 1947 2706 1947 2009 
Q 1947 1309 1714 600 
Q 1481 -109 1013 -844 
L 513 -844 
Q 928 -128 1133 580 
Q 1338 1288 1338 2009 
Q 1338 2731 1133 3434 
Q 928 4138 513 4856 
z
" transform="scale(0.015625)"/>
      </defs>
      <use xlink:href="#DejaVuSans-50"/>
      <use xlink:href="#DejaVuSans-6f" x="56.677734"/>
      <use xlink:href="#DejaVuSans-73" x="117.859375"/>
      <use xlink:href="#DejaVuSans-69" x="169.958984"/>
      <use xlink:href="#DejaVuSans-74" x="197.742188"/>
      <use xlink:href="#DejaVuSans-69" x="236.951172"/>
      <use xlink:href="#DejaVuSans-6f" x="264.734375"/>
      <use xlink:href="#DejaVuSans-6e" x="325.916016"/>
      <use xlink:href="#DejaVuSans-20" x="389.294922"/>
      <use xlink:href="#DejaVuSans-69" x="421.082031"/>
      <use xlink:href="#DejaVuSans-6e" x="448.865234"/>
      <use xlink:href="#DejaVuSans-20" x="512.244141"/>
      <use xlink:href="#DejaVuSans-52" x="544.03125"/>
      <use xlink:href="#DejaVuSans-65" x="609.013672"/>
      <use xlink:href="#DejaVuSans-61" x="670.537109"/>
      <use xlink:href="#DejaVuSans-64" x="731.816406"/>
      <use xlink:href="#DejaVuSans-20" x="795.292969"/>
      <use xlink:href="#DejaVuSans-28" x="827.080078"/>
      <use xlink:href="#DejaVuSans-62" x="866.09375"/>
      <use xlink:href="#DejaVuSans-70" x="929.570312"/>
      <use xlink:href="#DejaVuSans-29" x="993.046875"/>
     </g>
    </g>
   </g>
   <g id="matplotlib.axis_2">
    <g id="ytick_1">
     <g id="line2d_1">
      <path d="M 32.968125 273.99006 
L 993.158125 273.99006 
" clip-path="url(#p67a16dafdc)" style="fill: none; stroke: #dedede; stroke-linecap: square"/>
     </g>
     <g id="text_10">
      <!-- 0 -->
      <g transform="translate(20.878125 277.029435)scale(0.08 -0.08)">
       <use xlink:href="#DejaVuSans-30"/>
      </g>
     </g>
    </g>
    <g id="ytick_2">
     <g id="line2d_2">
      <path d="M 32.968125 225.48862 
L 993.158125 225.48862 
" clip-path="url(#p67a16dafdc)" style="fill: none; stroke: #dedede; stroke-linecap: square"/>
     </g>
     <g id="text_11">
      <!-- 1 -->
      <g transform="translate(20.878125 228.527995)scale(0.08 -0.08)">
       <use xlink:href="#DejaVuSans-31"/>
      </g>
     </g>
    </g>
    <g id="ytick_3">
     <g id="line2d_3">
      <path d="M 32.968125 176.98718 
L 993.158125 176.98718 
" clip-path="url(#p67a16dafdc)" style="fill: none; stroke: #dedede; stroke-linecap: square"/>
     </g>
     <g id="text_12">
      <!-- 2 -->
      <g transform="translate(20.878125 180.026555)scale(0.08 -0.08)">
       <use xlink:href="#DejaVuSans-32"/>
      </g>
     </g>
    </g>
    <g id="ytick_4">
     <g id="line2d_4">
      <path d="M 32.968125 128.48574 
L 993.158125 128.48574 
" clip-path="url(#p67a16dafdc)" style="fill: none; stroke: #dedede; stroke-linecap: square"/>
     </g>
     <g id="text_13">
      <!-- 3 -->
      <g transform="translate(20.878125 131.525115)scale(0.08 -0.08)">
       <use xlink:href="#DejaVuSans-33"/>
      </g>
     </g>
    </g>
    <g id="ytick_5">
     <g id="line2d_5">
      <path d="M 32.968125 79.9843 
L 993.158125 79.9843 
" clip-path="url(#p67a16dafdc)" style="fill: none; stroke: #dedede; stroke-linecap: square"/>
     </g>
     <g id="text_14">
      <!-- 4 -->
      <g transform="translate(20.878125 83.023675)scale(0.08 -0.08)">
       <use xlink:href="#DejaVuSans-34"/>
      </g>
     </g>
    </g>
    <g id="ytick_6">
     <g id="line2d_6">
      <path d="M 32.968125 31.48286 
L 993.158125 31.48286 
" clip-path="url(#p67a16dafdc)" style="fill: none; stroke: #dedede; stroke-linecap: square"/>
     </g>
     <g id="text_15">
      <!-- 5 -->
      <g transform="translate(20.878125 34.522235)scale(0.08 -0.08)">
       <use xlink:href="#DejaVuSans-35"/>
      </g>
     </g>
    </g>
    <g id="text_16">
     <!-- Percentage N-Count -->
     <g transform="translate(14.798438 202.841147)rotate(-90)scale(0.1 -0.1)">
      <defs>
       <path id="DejaVuSans-72" d="M 2631 2963 
Q 2534 3019 2420 3045 
Q 2306 3072 2169 3072 
Q 1681 3072 1420 2755 
Q 1159 2438 1159 1844 
L 1159 0 
L 581 0 
L 581 3500 
L 1159 3500 
L 1159 2956 
Q 1341 3275 1631 3429 
Q 1922 3584 2338 3584 
Q 2397 3584 2469 3576 
Q 2541 3569 2628 3553 
L 2631 2963 
z
" transform="scale(0.015625)"/>
       <path id="DejaVuSans-63" d="M 3122 3366 
L 3122 2828 
Q 2878 2963 2633 3030 
Q 2388 3097 2138 3097 
Q 1578 3097 1268 2742 
Q 959 2388 959 1747 
Q 959 1106 1268 751 
Q 1578 397 2138 397 
Q 2388 397 2633 464 
Q 2878 531 3122 666 
L 3122 134 
Q 2881 22 2623 -34 
Q 2366 -91 2075 -91 
Q 1284 -91 818 406 
Q 353 903 353 1747 
Q 353 2603 823 3093 
Q 1294 3584 2113 3584 
Q 2378 3584 2631 3529 
Q 2884 3475 3122 3366 
z
" transform="scale(0.015625)"/>
       <path id="DejaVuSans-67" d="M 2906 1791 
Q 2906 2416 2648 2759 
Q 2391 3103 1925 3103 
Q 1463 3103 1205 2759 
Q 947 2416 947 1791 
Q 947 1169 1205 825 
Q 1463 481 1925 481 
Q 2391 481 2648 825 
Q 2906 1169 2906 1791 
z
M 3481 434 
Q 3481 -459 3084 -895 
Q 2688 -1331 1869 -1331 
Q 1566 -1331 1297 -1286 
Q 1028 -1241 775 -1147 
L 775 -588 
Q 1028 -725 1275 -790 
Q 1522 -856 1778 -856 
Q 2344 -856 2625 -561 
Q 2906 -266 2906 331 
L 2906 616 
Q 2728 306 2450 153 
Q 2172 0 1784 0 
Q 1141 0 747 490 
Q 353 981 353 1791 
Q 353 2603 747 3093 
Q 1141 3584 1784 3584 
Q 2172 3584 2450 3431 
Q 2728 3278 2906 2969 
L 2906 3500 
L 3481 3500 
L 3481 434 
z
" transform="scale(0.015625)"/>
       <path id="DejaVuSans-4e" d="M 628 4666 
L 1478 4666 
L 3547 763 
L 3547 4666 
L 4159 4666 
L 4159 0 
L 3309 0 
L 1241 3903 
L 1241 0 
L 628 0 
L 628 4666 
z
" transform="scale(0.015625)"/>
       <path id="DejaVuSans-2d" d="M 313 2009 
L 1997 2009 
L 1997 1497 
L 313 1497 
L 313 2009 
z
" transform="scale(0.015625)"/>
       <path id="DejaVuSans-43" d="M 4122 4306 
L 4122 3641 
Q 3803 3938 3442 4084 
Q 3081 4231 2675 4231 
Q 1875 4231 1450 3742 
Q 1025 3253 1025 2328 
Q 1025 1406 1450 917 
Q 1875 428 2675 428 
Q 3081 428 3442 575 
Q 3803 722 4122 1019 
L 4122 359 
Q 3791 134 3420 21 
Q 3050 -91 2638 -91 
Q 1578 -91 968 557 
Q 359 1206 359 2328 
Q 359 3453 968 4101 
Q 1578 4750 2638 4750 
Q 3056 4750 3426 4639 
Q 3797 4528 4122 4306 
z
" transform="scale(0.015625)"/>
       <path id="DejaVuSans-75" d="M 544 1381 
L 544 3500 
L 1119 3500 
L 1119 1403 
Q 1119 906 1312 657 
Q 1506 409 1894 409 
Q 2359 409 2629 706 
Q 2900 1003 2900 1516 
L 2900 3500 
L 3475 3500 
L 3475 0 
L 2900 0 
L 2900 538 
Q 2691 219 2414 64 
Q 2138 -91 1772 -91 
Q 1169 -91 856 284 
Q 544 659 544 1381 
z
M 1991 3584 
L 1991 3584 
z
" transform="scale(0.015625)"/>
      </defs>
      <use xlink:href="#DejaVuSans-50"/>
      <use xlink:href="#DejaVuSans-65" x="56.677734"/>
      <use xlink:href="#DejaVuSans-72" x="118.201172"/>
      <use xlink:href="#DejaVuSans-63" x="157.064453"/>
      <use xlink:href="#DejaVuSans-65" x="212.044922"/>
      <use xlink:href="#DejaVuSans-6e" x="273.568359"/>
      <use xlink:href="#DejaVuSans-74" x="336.947266"/>
      <use xlink:href="#DejaVuSans-61" x="376.15625"/>
      <use xlink:href="#DejaVuSans-67" x="437.435547"/>
      <use xlink:href="#DejaVuSans-65" x="500.912109"/>
      <use xlink:href="#DejaVuSans-20" x="562.435547"/>
      <use xlink:href="#DejaVuSans-4e" x="594.222656"/>
      <use xlink:href="#DejaVuSans-2d" x="669.027344"/>
      <use xlink:href="#DejaVuSans-43" x="705.111328"/>
      <use xlink:href="#DejaVuSans-6f" x="774.935547"/>
      <use xlink:href="#DejaVuSans-75" x="836.117188"/>
      <use xlink:href="#DejaVuSans-6e" x="899.496094"/>
      <use xlink:href="#DejaVuSans-74" x="962.875"/>
     </g>
    </g>
   </g>
   <g id="line2d_7">
    <path d="M 45.008125 273.260759 
L 57.048125 273.69834 
L 69.088125 273.99006 
L 81.128125 273.99006 
L 93.168125 273.69834 
L 105.208125 273.69834 
L 117.248125 273.99006 
L 129.288125 273.99006 
L 141.328125 273.99006 
L 153.368125 273.99006 
L 177.448125 273.99006 
L 201.528125 273.96575 
L 225.608125 273.99006 
L 249.688125 273.99006 
L 273.768125 273.96575 
L 297.848125 273.941436 
L 321.928125 273.868489 
L 346.008125 273.77117 
L 370.088125 273.673646 
L 394.168125 273.623794 
L 418.248125 273.769824 
L 442.328125 273.941061 
L 466.408125 273.99006 
L 490.488125 273.99006 
L 514.568125 273.964728 
L 538.648125 273.937924 
L 562.728125 273.804173 
L 586.808125 273.502156 
L 610.888125 273.106076 
L 634.968125 272.493877 
L 659.048125 272.741288 
L 683.128125 273.278787 
L 707.208125 273.505787 
L 731.288125 273.742914 
L 755.368125 273.99006 
L 779.448125 273.925577 
L 803.528125 273.99006 
L 827.608125 273.99006 
L 851.688125 273.99006 
L 875.768125 273.920098 
L 899.848125 273.918346 
L 923.928125 273.912646 
L 948.008125 273.99006 
" clip-path="url(#p67a16dafdc)" style="fill: none; stroke: #5cb85c; stroke-linecap: square"/>
   </g>
   <g id="line2d_8">
    <path d="M 45.008125 267.912551 
L 57.048125 266.162228 
L 69.088125 266.599809 
L 81.128125 266.599809 
L 93.168125 266.794289 
L 105.208125 267.28049 
L 117.248125 267.18325 
L 129.288125 266.745669 
L 141.328125 267.23187 
L 153.368125 267.18325 
L 177.448125 267.18325 
L 201.528125 267.42635 
L 225.608125 267.863931 
L 249.688125 268.228581 
L 273.768125 269.492523 
L 297.848125 270.172868 
L 321.928125 270.780347 
L 346.008125 271.29013 
L 370.088125 271.847792 
L 394.168125 271.914082 
L 418.248125 272.17878 
L 442.328125 272.495129 
L 466.408125 272.439872 
L 490.488125 271.931046 
L 514.568125 271.278854 
L 538.648125 271.09677 
L 562.728125 270.405994 
L 586.808125 270.03317 
L 610.888125 268.742272 
L 634.968125 267.865428 
L 659.048125 267.835534 
L 683.128125 267.206352 
L 707.208125 267.001729 
L 731.288125 267.197314 
L 755.368125 266.742574 
L 779.448125 266.706739 
L 803.528125 267.347514 
L 827.608125 268.016687 
L 851.688125 269.846277 
L 875.768125 271.715888 
L 899.848125 272.841927 
L 923.928125 273.097469 
L 948.008125 273.99006 
" clip-path="url(#p67a16dafdc)" style="fill: none; stroke: #5cb85c; stroke-linecap: square"/>
   </g>
   <g id="line2d_9">
    <path d="M 45.008125 273.40635 
L 57.048125 273.79549 
L 69.088125 273.99006 
L 81.128125 273.99006 
L 93.168125 273.892775 
L 105.208125 273.357707 
L 117.248125 273.99006 
L 129.288125 273.99006 
L 141.328125 273.99006 
L 153.368125 273.99006 
L 177.448125 273.99006 
L 201.528125 273.99006 
L 225.608125 273.99006 
L 249.688125 273.99006 
L 273.768125 273.99006 
L 297.848125 273.965733 
L 321.928125 273.868392 
L 346.008125 273.843958 
L 370.088125 273.868117 
L 394.168125 273.745757 
L 418.248125 273.843299 
L 442.328125 273.891996 
L 466.408125 273.965407 
L 490.488125 273.99006 
L 514.568125 273.939445 
L 538.648125 273.938633 
L 562.728125 273.885371 
L 586.808125 273.590235 
L 610.888125 273.20317 
L 634.968125 272.498227 
L 659.048125 272.892195 
L 683.128125 273.301795 
L 707.208125 273.609978 
L 731.288125 273.900701 
L 755.368125 273.99006 
L 779.448125 273.99006 
L 803.528125 273.958662 
L 827.608125 273.926172 
L 851.688125 273.957557 
L 875.768125 273.890885 
L 899.848125 273.922512 
L 923.928125 273.99006 
L 948.008125 273.99006 
" clip-path="url(#p67a16dafdc)" style="fill: none; stroke: #5cb85c; stroke-linecap: square"/>
   </g>
   <g id="line2d_10">
    <path d="M 45.008125 267.520607 
L 57.048125 266.109974 
L 69.088125 266.158617 
L 81.128125 266.012689 
L 93.168125 265.964047 
L 105.208125 265.915404 
L 117.248125 266.499114 
L 129.288125 265.623549 
L 141.328125 266.547757 
L 153.368125 266.620721 
L 177.448125 266.353187 
L 201.528125 266.523436 
L 225.608125 267.058503 
L 249.688125 267.56925 
L 273.768125 269.076674 
L 297.848125 269.707243 
L 321.928125 270.216216 
L 346.008125 270.968482 
L 370.088125 271.305501 
L 394.168125 271.325052 
L 418.248125 271.639852 
L 442.328125 271.879808 
L 466.408125 271.695074 
L 490.488125 271.169556 
L 514.568125 270.569684 
L 538.648125 270.59196 
L 562.728125 269.875971 
L 586.808125 269.239779 
L 610.888125 268.123016 
L 634.968125 267.242957 
L 659.048125 267.087364 
L 683.128125 266.556207 
L 707.208125 266.060972 
L 731.288125 266.627673 
L 755.368125 266.223519 
L 779.448125 266.581348 
L 803.528125 267.047775 
L 827.608125 267.598241 
L 851.688125 269.210376 
L 875.768125 270.914341 
L 899.848125 272.061493 
L 923.928125 272.780411 
L 948.008125 273.99006 
" clip-path="url(#p67a16dafdc)" style="fill: none; stroke: #5cb85c; stroke-linecap: square"/>
   </g>
   <g id="line2d_11">
    <path d="M 45.008125 273.455309 
L 57.048125 273.892833 
L 69.088125 273.99006 
L 81.128125 273.99006 
L 93.168125 273.844219 
L 105.208125 273.503923 
L 117.248125 273.99006 
L 129.288125 273.99006 
L 141.328125 273.99006 
L 153.368125 273.99006 
L 177.448125 273.99006 
L 201.528125 273.941446 
L 225.608125 273.99006 
L 249.688125 273.99006 
L 273.768125 273.965753 
L 297.848125 273.941444 
L 321.928125 273.868514 
L 346.008125 273.917127 
L 370.088125 273.868454 
L 394.168125 273.722384 
L 418.248125 273.868336 
L 442.328125 273.892618 
L 466.408125 273.941238 
L 490.488125 273.99006 
L 514.568125 273.99006 
L 538.648125 273.99006 
L 562.728125 273.99006 
L 586.808125 273.888709 
L 610.888125 273.375645 
L 634.968125 272.851298 
L 659.048125 273.179493 
L 683.128125 273.672858 
L 707.208125 273.776158 
L 731.288125 273.935936 
L 755.368125 273.99006 
L 779.448125 273.962321 
L 803.528125 273.962 
L 827.608125 273.904871 
L 851.688125 273.961288 
L 875.768125 273.99006 
L 899.848125 273.930651 
L 923.928125 273.926466 
L 948.008125 273.99006 
" clip-path="url(#p67a16dafdc)" style="fill: none; stroke: #5cb85c; stroke-linecap: square"/>
   </g>
   <g id="line2d_12">
    <path d="M 45.008125 267.913343 
L 57.048125 266.892454 
L 69.088125 266.892454 
L 81.128125 266.697999 
L 93.168125 266.697999 
L 105.208125 266.211862 
L 117.248125 266.163248 
L 129.288125 266.066021 
L 141.328125 266.600772 
L 153.368125 266.576465 
L 177.448125 266.479238 
L 201.528125 267.013989 
L 225.608125 267.23275 
L 249.688125 267.840422 
L 273.768125 269.274457 
L 297.848125 270.149074 
L 321.928125 270.68353 
L 346.008125 271.169403 
L 370.088125 271.508869 
L 394.168125 271.580552 
L 418.248125 271.823045 
L 442.328125 271.943473 
L 466.408125 271.939342 
L 490.488125 271.559808 
L 514.568125 270.950859 
L 538.648125 270.929153 
L 562.728125 270.424811 
L 586.808125 269.885308 
L 610.888125 268.76797 
L 634.968125 267.961083 
L 659.048125 267.899312 
L 683.128125 267.225416 
L 707.208125 267.175395 
L 731.288125 267.661139 
L 755.368125 267.003551 
L 779.448125 267.170117 
L 803.528125 268.072583 
L 827.608125 268.682128 
L 851.688125 269.934251 
L 875.768125 271.188819 
L 899.848125 272.266758 
L 923.928125 272.904852 
L 948.008125 273.99006 
" clip-path="url(#p67a16dafdc)" style="fill: none; stroke: #5cb85c; stroke-linecap: square"/>
   </g>
   <g id="line2d_13">
    <path d="M 45.008125 273.406508 
L 57.048125 273.746913 
L 69.088125 273.99006 
L 81.128125 273.99006 
L 93.168125 273.844172 
L 105.208125 273.455137 
L 117.248125 273.99006 
L 129.288125 273.99006 
L 141.328125 273.99006 
L 153.368125 273.99006 
L 177.448125 273.99006 
L 201.528125 273.99006 
L 225.608125 273.99006 
L 249.688125 273.99006 
L 273.768125 273.99006 
L 297.848125 273.99006 
L 321.928125 273.844161 
L 346.008125 273.795494 
L 370.088125 273.868352 
L 394.168125 273.67325 
L 418.248125 273.84372 
L 442.328125 273.843548 
L 466.408125 273.916506 
L 490.488125 273.99006 
L 514.568125 273.939884 
L 538.648125 273.99006 
L 562.728125 273.886453 
L 586.808125 273.593873 
L 610.888125 273.262474 
L 634.968125 272.50576 
L 659.048125 272.954075 
L 683.128125 273.448288 
L 707.208125 273.466792 
L 731.288125 273.841814 
L 755.368125 273.99006 
L 779.448125 273.99006 
L 803.528125 273.99006 
L 827.608125 273.894503 
L 851.688125 273.827835 
L 875.768125 273.791556 
L 899.848125 273.956242 
L 923.928125 273.844483 
L 948.008125 273.99006 
" clip-path="url(#p67a16dafdc)" style="fill: none; stroke: #5cb85c; stroke-linecap: square"/>
   </g>
   <g id="line2d_14">
    <path d="M 45.008125 268.300428 
L 57.048125 266.501142 
L 69.088125 266.890177 
L 81.128125 266.69566 
L 93.168125 266.355254 
L 105.208125 266.355254 
L 117.248125 266.549772 
L 129.288125 266.306625 
L 141.328125 266.549772 
L 153.368125 266.768604 
L 177.448125 266.64703 
L 201.528125 267.109009 
L 225.608125 267.522358 
L 249.688125 267.887078 
L 273.768125 269.637625 
L 297.848125 270.099245 
L 321.928125 270.633845 
L 346.008125 271.04651 
L 370.088125 271.555078 
L 394.168125 271.795689 
L 418.248125 271.891202 
L 442.328125 272.206362 
L 466.408125 272.125516 
L 490.488125 271.661737 
L 514.568125 270.802148 
L 538.648125 270.704814 
L 562.728125 270.000027 
L 586.808125 269.525579 
L 610.888125 268.465241 
L 634.968125 267.832927 
L 659.048125 268.026355 
L 683.128125 267.289942 
L 707.208125 266.78266 
L 731.288125 267.231971 
L 755.368125 266.956666 
L 779.448125 266.985665 
L 803.528125 267.548634 
L 827.608125 268.133359 
L 851.688125 269.77401 
L 875.768125 271.177289 
L 899.848125 272.465944 
L 923.928125 273.258316 
L 948.008125 273.99006 
" clip-path="url(#p67a16dafdc)" style="fill: none; stroke: #5cb85c; stroke-linecap: square"/>
   </g>
   <g id="line2d_15">
    <path d="M 32.968125 273.99006 
L 993.158125 273.99006 
" clip-path="url(#p67a16dafdc)" style="fill: none; stroke: #dedede; stroke-width: 2; stroke-linecap: square"/>
   </g>
   <g id="text_17">
    <!-- FastQC: Per Base N Content -->
    <g transform="translate(402.209375 19.3575)scale(0.16 -0.16)">
     <defs>
      <path id="DejaVuSans-46" d="M 628 4666 
L 3309 4666 
L 3309 4134 
L 1259 4134 
L 1259 2759 
L 3109 2759 
L 3109 2228 
L 1259 2228 
L 1259 0 
L 628 0 
L 628 4666 
z
" transform="scale(0.015625)"/>
      <path id="DejaVuSans-51" d="M 2522 4238 
Q 1834 4238 1429 3725 
Q 1025 3213 1025 2328 
Q 1025 1447 1429 934 
Q 1834 422 2522 422 
Q 3209 422 3611 934 
Q 4013 1447 4013 2328 
Q 4013 3213 3611 3725 
Q 3209 4238 2522 4238 
z
M 3406 84 
L 4238 -825 
L 3475 -825 
L 2784 -78 
Q 2681 -84 2626 -87 
Q 2572 -91 2522 -91 
Q 1538 -91 948 567 
Q 359 1225 359 2328 
Q 359 3434 948 4092 
Q 1538 4750 2522 4750 
Q 3503 4750 4090 4092 
Q 4678 3434 4678 2328 
Q 4678 1516 4351 937 
Q 4025 359 3406 84 
z
" transform="scale(0.015625)"/>
      <path id="DejaVuSans-3a" d="M 750 794 
L 1409 794 
L 1409 0 
L 750 0 
L 750 794 
z
M 750 3309 
L 1409 3309 
L 1409 2516 
L 750 2516 
L 750 3309 
z
" transform="scale(0.015625)"/>
      <path id="DejaVuSans-42" d="M 1259 2228 
L 1259 519 
L 2272 519 
Q 2781 519 3026 730 
Q 3272 941 3272 1375 
Q 3272 1813 3026 2020 
Q 2781 2228 2272 2228 
L 1259 2228 
z
M 1259 4147 
L 1259 2741 
L 2194 2741 
Q 2656 2741 2882 2914 
Q 3109 3088 3109 3444 
Q 3109 3797 2882 3972 
Q 2656 4147 2194 4147 
L 1259 4147 
z
M 628 4666 
L 2241 4666 
Q 2963 4666 3353 4366 
Q 3744 4066 3744 3513 
Q 3744 3084 3544 2831 
Q 3344 2578 2956 2516 
Q 3422 2416 3680 2098 
Q 3938 1781 3938 1306 
Q 3938 681 3513 340 
Q 3088 0 2303 0 
L 628 0 
L 628 4666 
z
" transform="scale(0.015625)"/>
     </defs>
     <use xlink:href="#DejaVuSans-46"/>
     <use xlink:href="#DejaVuSans-61" x="48.394531"/>
     <use xlink:href="#DejaVuSans-73" x="109.673828"/>
     <use xlink:href="#DejaVuSans-74" x="161.773438"/>
     <use xlink:href="#DejaVuSans-51" x="200.982422"/>
     <use xlink:href="#DejaVuSans-43" x="279.693359"/>
     <use xlink:href="#DejaVuSans-3a" x="349.517578"/>
     <use xlink:href="#DejaVuSans-20" x="383.208984"/>
     <use xlink:href="#DejaVuSans-50" x="414.996094"/>
     <use xlink:href="#DejaVuSans-65" x="471.673828"/>
     <use xlink:href="#DejaVuSans-72" x="533.197266"/>
     <use xlink:href="#DejaVuSans-20" x="574.310547"/>
     <use xlink:href="#DejaVuSans-42" x="606.097656"/>
     <use xlink:href="#DejaVuSans-61" x="674.701172"/>
     <use xlink:href="#DejaVuSans-73" x="735.980469"/>
     <use xlink:href="#DejaVuSans-65" x="788.080078"/>
     <use xlink:href="#DejaVuSans-20" x="849.603516"/>
     <use xlink:href="#DejaVuSans-4e" x="881.390625"/>
     <use xlink:href="#DejaVuSans-20" x="956.195312"/>
     <use xlink:href="#DejaVuSans-43" x="987.982422"/>
     <use xlink:href="#DejaVuSans-6f" x="1057.806641"/>
     <use xlink:href="#DejaVuSans-6e" x="1118.988281"/>
     <use xlink:href="#DejaVuSans-74" x="1182.367188"/>
     <use xlink:href="#DejaVuSans-65" x="1221.576172"/>
     <use xlink:href="#DejaVuSans-6e" x="1283.099609"/>
     <use xlink:href="#DejaVuSans-74" x="1346.478516"/>
    </g>
   </g>
   <g id="legend_1">
    <g id="line2d_16">
     <path d="M 40.168125 303.490394 
L 48.168125 303.490394 
L 56.168125 303.490394 
" style="fill: none; stroke: #5cb85c; stroke-linecap: square"/>
    </g>
    <g id="text_18">
     <!-- OSMOTIC_STRESS_T0_REP1_T1_1 -->
     <g transform="translate(62.568125 306.290394)scale(0.08 -0.08)">
      <defs>
       <path id="DejaVuSans-4f" d="M 2522 4238 
Q 1834 4238 1429 3725 
Q 1025 3213 1025 2328 
Q 1025 1447 1429 934 
Q 1834 422 2522 422 
Q 3209 422 3611 934 
Q 4013 1447 4013 2328 
Q 4013 3213 3611 3725 
Q 3209 4238 2522 4238 
z
M 2522 4750 
Q 3503 4750 4090 4092 
Q 4678 3434 4678 2328 
Q 4678 1225 4090 567 
Q 3503 -91 2522 -91 
Q 1538 -91 948 565 
Q 359 1222 359 2328 
Q 359 3434 948 4092 
Q 1538 4750 2522 4750 
z
" transform="scale(0.015625)"/>
       <path id="DejaVuSans-53" d="M 3425 4513 
L 3425 3897 
Q 3066 4069 2747 4153 
Q 2428 4238 2131 4238 
Q 1616 4238 1336 4038 
Q 1056 3838 1056 3469 
Q 1056 3159 1242 3001 
Q 1428 2844 1947 2747 
L 2328 2669 
Q 3034 2534 3370 2195 
Q 3706 1856 3706 1288 
Q 3706 609 3251 259 
Q 2797 -91 1919 -91 
Q 1588 -91 1214 -16 
Q 841 59 441 206 
L 441 856 
Q 825 641 1194 531 
Q 1563 422 1919 422 
Q 2459 422 2753 634 
Q 3047 847 3047 1241 
Q 3047 1584 2836 1778 
Q 2625 1972 2144 2069 
L 1759 2144 
Q 1053 2284 737 2584 
Q 422 2884 422 3419 
Q 422 4038 858 4394 
Q 1294 4750 2059 4750 
Q 2388 4750 2728 4690 
Q 3069 4631 3425 4513 
z
" transform="scale(0.015625)"/>
       <path id="DejaVuSans-4d" d="M 628 4666 
L 1569 4666 
L 2759 1491 
L 3956 4666 
L 4897 4666 
L 4897 0 
L 4281 0 
L 4281 4097 
L 3078 897 
L 2444 897 
L 1241 4097 
L 1241 0 
L 628 0 
L 628 4666 
z
" transform="scale(0.015625)"/>
       <path id="DejaVuSans-54" d="M -19 4666 
L 3928 4666 
L 3928 4134 
L 2272 4134 
L 2272 0 
L 1638 0 
L 1638 4134 
L -19 4134 
L -19 4666 
z
" transform="scale(0.015625)"/>
       <path id="DejaVuSans-49" d="M 628 4666 
L 1259 4666 
L 1259 0 
L 628 0 
L 628 4666 
z
" transform="scale(0.015625)"/>
       <path id="DejaVuSans-5f" d="M 3263 -1063 
L 3263 -1509 
L -63 -1509 
L -63 -1063 
L 3263 -1063 
z
" transform="scale(0.015625)"/>
       <path id="DejaVuSans-45" d="M 628 4666 
L 3578 4666 
L 3578 4134 
L 1259 4134 
L 1259 2753 
L 3481 2753 
L 3481 2222 
L 1259 2222 
L 1259 531 
L 3634 531 
L 3634 0 
L 628 0 
L 628 4666 
z
" transform="scale(0.015625)"/>
      </defs>
      <use xlink:href="#DejaVuSans-4f"/>
      <use xlink:href="#DejaVuSans-53" x="78.710938"/>
      <use xlink:href="#DejaVuSans-4d" x="142.1875"/>
      <use xlink:href="#DejaVuSans-4f" x="228.466797"/>
      <use xlink:href="#DejaVuSans-54" x="307.177734"/>
      <use xlink:href="#DejaVuSans-49" x="368.261719"/>
      <use xlink:href="#DejaVuSans-43" x="397.753906"/>
      <use xlink:href="#DejaVuSans-5f" x="467.578125"/>
      <use xlink:href="#DejaVuSans-53" x="517.578125"/>
      <use xlink:href="#DejaVuSans-54" x="581.054688"/>
      <use xlink:href="#DejaVuSans-52" x="642.138672"/>
      <use xlink:href="#DejaVuSans-45" x="711.621094"/>
      <use xlink:href="#DejaVuSans-53" x="774.804688"/>
      <use xlink:href="#DejaVuSans-53" x="838.28125"/>
      <use xlink:href="#DejaVuSans-5f" x="901.757812"/>
      <use xlink:href="#DejaVuSans-54" x="951.757812"/>
      <use xlink:href="#DejaVuSans-30" x="1012.841797"/>
      <use xlink:href="#DejaVuSans-5f" x="1076.464844"/>
      <use xlink:href="#DejaVuSans-52" x="1126.464844"/>
      <use xlink:href="#DejaVuSans-45" x="1195.947266"/>
      <use xlink:href="#DejaVuSans-50" x="1259.130859"/>
      <use xlink:href="#DejaVuSans-31" x="1319.433594"/>
      <use xlink:href="#DejaVuSans-5f" x="1383.056641"/>
      <use xlink:href="#DejaVuSans-54" x="1433.056641"/>
      <use xlink:href="#DejaVuSans-31" x="1494.140625"/>
      <use xlink:href="#DejaVuSans-5f" x="1557.763672"/>
      <use xlink:href="#DejaVuSans-31" x="1607.763672"/>
     </g>
    </g>
    <g id="line2d_17">
     <path d="M 40.168125 315.455394 
L 48.168125 315.455394 
L 56.168125 315.455394 
" style="fill: none; stroke: #5cb85c; stroke-linecap: square"/>
    </g>
    <g id="text_19">
     <!-- OSMOTIC_STRESS_T0_REP1_T1_2 -->
     <g transform="translate(62.568125 318.255394)scale(0.08 -0.08)">
      <use xlink:href="#DejaVuSans-4f"/>
      <use xlink:href="#DejaVuSans-53" x="78.710938"/>
      <use xlink:href="#DejaVuSans-4d" x="142.1875"/>
      <use xlink:href="#DejaVuSans-4f" x="228.466797"/>
      <use xlink:href="#DejaVuSans-54" x="307.177734"/>
      <use xlink:href="#DejaVuSans-49" x="368.261719"/>
      <use xlink:href="#DejaVuSans-43" x="397.753906"/>
      <use xlink:href="#DejaVuSans-5f" x="467.578125"/>
      <use xlink:href="#DejaVuSans-53" x="517.578125"/>
      <use xlink:href="#DejaVuSans-54" x="581.054688"/>
      <use xlink:href="#DejaVuSans-52" x="642.138672"/>
      <use xlink:href="#DejaVuSans-45" x="711.621094"/>
      <use xlink:href="#DejaVuSans-53" x="774.804688"/>
      <use xlink:href="#DejaVuSans-53" x="838.28125"/>
      <use xlink:href="#DejaVuSans-5f" x="901.757812"/>
      <use xlink:href="#DejaVuSans-54" x="951.757812"/>
      <use xlink:href="#DejaVuSans-30" x="1012.841797"/>
      <use xlink:href="#DejaVuSans-5f" x="1076.464844"/>
      <use xlink:href="#DejaVuSans-52" x="1126.464844"/>
      <use xlink:href="#DejaVuSans-45" x="1195.947266"/>
      <use xlink:href="#DejaVuSans-50" x="1259.130859"/>
      <use xlink:href="#DejaVuSans-31" x="1319.433594"/>
      <use xlink:href="#DejaVuSans-5f" x="1383.056641"/>
      <use xlink:href="#DejaVuSans-54" x="1433.056641"/>
      <use xlink:href="#DejaVuSans-31" x="1494.140625"/>
      <use xlink:href="#DejaVuSans-5f" x="1557.763672"/>
      <use xlink:href="#DejaVuSans-32" x="1607.763672"/>
     </g>
    </g>
    <g id="line2d_18">
     <path d="M 233.769375 303.490394 
L 241.769375 303.490394 
L 249.769375 303.490394 
" style="fill: none; stroke: #5cb85c; stroke-linecap: square"/>
    </g>
    <g id="text_20">
     <!-- OSMOTIC_STRESS_T0_REP2_T1_1 -->
     <g transform="translate(256.169375 306.290394)scale(0.08 -0.08)">
      <use xlink:href="#DejaVuSans-4f"/>
      <use xlink:href="#DejaVuSans-53" x="78.710938"/>
      <use xlink:href="#DejaVuSans-4d" x="142.1875"/>
      <use xlink:href="#DejaVuSans-4f" x="228.466797"/>
      <use xlink:href="#DejaVuSans-54" x="307.177734"/>
      <use xlink:href="#DejaVuSans-49" x="368.261719"/>
      <use xlink:href="#DejaVuSans-43" x="397.753906"/>
      <use xlink:href="#DejaVuSans-5f" x="467.578125"/>
      <use xlink:href="#DejaVuSans-53" x="517.578125"/>
      <use xlink:href="#DejaVuSans-54" x="581.054688"/>
      <use xlink:href="#DejaVuSans-52" x="642.138672"/>
      <use xlink:href="#DejaVuSans-45" x="711.621094"/>
      <use xlink:href="#DejaVuSans-53" x="774.804688"/>
      <use xlink:href="#DejaVuSans-53" x="838.28125"/>
      <use xlink:href="#DejaVuSans-5f" x="901.757812"/>
      <use xlink:href="#DejaVuSans-54" x="951.757812"/>
      <use xlink:href="#DejaVuSans-30" x="1012.841797"/>
      <use xlink:href="#DejaVuSans-5f" x="1076.464844"/>
      <use xlink:href="#DejaVuSans-52" x="1126.464844"/>
      <use xlink:href="#DejaVuSans-45" x="1195.947266"/>
      <use xlink:href="#DejaVuSans-50" x="1259.130859"/>
      <use xlink:href="#DejaVuSans-32" x="1319.433594"/>
      <use xlink:href="#DejaVuSans-5f" x="1383.056641"/>
      <use xlink:href="#DejaVuSans-54" x="1433.056641"/>
      <use xlink:href="#DejaVuSans-31" x="1494.140625"/>
      <use xlink:href="#DejaVuSans-5f" x="1557.763672"/>
      <use xlink:href="#DejaVuSans-31" x="1607.763672"/>
     </g>
    </g>
    <g id="line2d_19">
     <path d="M 233.769375 315.455394 
L 241.769375 315.455394 
L 249.769375 315.455394 
" style="fill: none; stroke: #5cb85c; stroke-linecap: square"/>
    </g>
    <g id="text_21">
     <!-- OSMOTIC_STRESS_T0_REP2_T1_2 -->
     <g transform="translate(256.169375 318.255394)scale(0.08 -0.08)">
      <use xlink:href="#DejaVuSans-4f"/>
      <use xlink:href="#DejaVuSans-53" x="78.710938"/>
      <use xlink:href="#DejaVuSans-4d" x="142.1875"/>
      <use xlink:href="#DejaVuSans-4f" x="228.466797"/>
      <use xlink:href="#DejaVuSans-54" x="307.177734"/>
      <use xlink:href="#DejaVuSans-49" x="368.261719"/>
      <use xlink:href="#DejaVuSans-43" x="397.753906"/>
      <use xlink:href="#DejaVuSans-5f" x="467.578125"/>
      <use xlink:href="#DejaVuSans-53" x="517.578125"/>
      <use xlink:href="#DejaVuSans-54" x="581.054688"/>
      <use xlink:href="#DejaVuSans-52" x="642.138672"/>
      <use xlink:href="#DejaVuSans-45" x="711.621094"/>
      <use xlink:href="#DejaVuSans-53" x="774.804688"/>
      <use xlink:href="#DejaVuSans-53" x="838.28125"/>
      <use xlink:href="#DejaVuSans-5f" x="901.757812"/>
      <use xlink:href="#DejaVuSans-54" x="951.757812"/>
      <use xlink:href="#DejaVuSans-30" x="1012.841797"/>
      <use xlink:href="#DejaVuSans-5f" x="1076.464844"/>
      <use xlink:href="#DejaVuSans-52" x="1126.464844"/>
      <use xlink:href="#DejaVuSans-45" x="1195.947266"/>
      <use xlink:href="#DejaVuSans-50" x="1259.130859"/>
      <use xlink:href="#DejaVuSans-32" x="1319.433594"/>
      <use xlink:href="#DejaVuSans-5f" x="1383.056641"/>
      <use xlink:href="#DejaVuSans-54" x="1433.056641"/>
      <use xlink:href="#DejaVuSans-31" x="1494.140625"/>
      <use xlink:href="#DejaVuSans-5f" x="1557.763672"/>
      <use xlink:href="#DejaVuSans-32" x="1607.763672"/>
     </g>
    </g>
    <g id="line2d_20">
     <path d="M 427.370625 303.490394 
L 435.370625 303.490394 
L 443.370625 303.490394 
" style="fill: none; stroke: #5cb85c; stroke-linecap: square"/>
    </g>
    <g id="text_22">
     <!-- OSMOTIC_STRESS_T15_REP1_T1_1 -->
     <g transform="translate(449.770625 306.290394)scale(0.08 -0.08)">
      <use xlink:href="#DejaVuSans-4f"/>
      <use xlink:href="#DejaVuSans-53" x="78.710938"/>
      <use xlink:href="#DejaVuSans-4d" x="142.1875"/>
      <use xlink:href="#DejaVuSans-4f" x="228.466797"/>
      <use xlink:href="#DejaVuSans-54" x="307.177734"/>
      <use xlink:href="#DejaVuSans-49" x="368.261719"/>
      <use xlink:href="#DejaVuSans-43" x="397.753906"/>
      <use xlink:href="#DejaVuSans-5f" x="467.578125"/>
      <use xlink:href="#DejaVuSans-53" x="517.578125"/>
      <use xlink:href="#DejaVuSans-54" x="581.054688"/>
      <use xlink:href="#DejaVuSans-52" x="642.138672"/>
      <use xlink:href="#DejaVuSans-45" x="711.621094"/>
      <use xlink:href="#DejaVuSans-53" x="774.804688"/>
      <use xlink:href="#DejaVuSans-53" x="838.28125"/>
      <use xlink:href="#DejaVuSans-5f" x="901.757812"/>
      <use xlink:href="#DejaVuSans-54" x="951.757812"/>
      <use xlink:href="#DejaVuSans-31" x="1012.841797"/>
      <use xlink:href="#DejaVuSans-35" x="1076.464844"/>
      <use xlink:href="#DejaVuSans-5f" x="1140.087891"/>
      <use xlink:href="#DejaVuSans-52" x="1190.087891"/>
      <use xlink:href="#DejaVuSans-45" x="1259.570312"/>
      <use xlink:href="#DejaVuSans-50" x="1322.753906"/>
      <use xlink:href="#DejaVuSans-31" x="1383.056641"/>
      <use xlink:href="#DejaVuSans-5f" x="1446.679688"/>
      <use xlink:href="#DejaVuSans-54" x="1496.679688"/>
      <use xlink:href="#DejaVuSans-31" x="1557.763672"/>
      <use xlink:href="#DejaVuSans-5f" x="1621.386719"/>
      <use xlink:href="#DejaVuSans-31" x="1671.386719"/>
     </g>
    </g>
    <g id="line2d_21">
     <path d="M 427.370625 315.455394 
L 435.370625 315.455394 
L 443.370625 315.455394 
" style="fill: none; stroke: #5cb85c; stroke-linecap: square"/>
    </g>
    <g id="text_23">
     <!-- OSMOTIC_STRESS_T15_REP1_T1_2 -->
     <g transform="translate(449.770625 318.255394)scale(0.08 -0.08)">
      <use xlink:href="#DejaVuSans-4f"/>
      <use xlink:href="#DejaVuSans-53" x="78.710938"/>
      <use xlink:href="#DejaVuSans-4d" x="142.1875"/>
      <use xlink:href="#DejaVuSans-4f" x="228.466797"/>
      <use xlink:href="#DejaVuSans-54" x="307.177734"/>
      <use xlink:href="#DejaVuSans-49" x="368.261719"/>
      <use xlink:href="#DejaVuSans-43" x="397.753906"/>
      <use xlink:href="#DejaVuSans-5f" x="467.578125"/>
      <use xlink:href="#DejaVuSans-53" x="517.578125"/>
      <use xlink:href="#DejaVuSans-54" x="581.054688"/>
      <use xlink:href="#DejaVuSans-52" x="642.138672"/>
      <use xlink:href="#DejaVuSans-45" x="711.621094"/>
      <use xlink:href="#DejaVuSans-53" x="774.804688"/>
      <use xlink:href="#DejaVuSans-53" x="838.28125"/>
      <use xlink:href="#DejaVuSans-5f" x="901.757812"/>
      <use xlink:href="#DejaVuSans-54" x="951.757812"/>
      <use xlink:href="#DejaVuSans-31" x="1012.841797"/>
      <use xlink:href="#DejaVuSans-35" x="1076.464844"/>
      <use xlink:href="#DejaVuSans-5f" x="1140.087891"/>
      <use xlink:href="#DejaVuSans-52" x="1190.087891"/>
      <use xlink:href="#DejaVuSans-45" x="1259.570312"/>
      <use xlink:href="#DejaVuSans-50" x="1322.753906"/>
      <use xlink:href="#DejaVuSans-31" x="1383.056641"/>
      <use xlink:href="#DejaVuSans-5f" x="1446.679688"/>
      <use xlink:href="#DejaVuSans-54" x="1496.679688"/>
      <use xlink:href="#DejaVuSans-31" x="1557.763672"/>
      <use xlink:href="#DejaVuSans-5f" x="1621.386719"/>
      <use xlink:href="#DejaVuSans-32" x="1671.386719"/>
     </g>
    </g>
    <g id="line2d_22">
     <path d="M 626.061875 303.490394 
L 634.061875 303.490394 
L 642.061875 303.490394 
" style="fill: none; stroke: #5cb85c; stroke-linecap: square"/>
    </g>
    <g id="text_24">
     <!-- OSMOTIC_STRESS_T15_REP2_T1_1 -->
     <g transform="translate(648.461875 306.290394)scale(0.08 -0.08)">
      <use xlink:href="#DejaVuSans-4f"/>
      <use xlink:href="#DejaVuSans-53" x="78.710938"/>
      <use xlink:href="#DejaVuSans-4d" x="142.1875"/>
      <use xlink:href="#DejaVuSans-4f" x="228.466797"/>
      <use xlink:href="#DejaVuSans-54" x="307.177734"/>
      <use xlink:href="#DejaVuSans-49" x="368.261719"/>
      <use xlink:href="#DejaVuSans-43" x="397.753906"/>
      <use xlink:href="#DejaVuSans-5f" x="467.578125"/>
      <use xlink:href="#DejaVuSans-53" x="517.578125"/>
      <use xlink:href="#DejaVuSans-54" x="581.054688"/>
      <use xlink:href="#DejaVuSans-52" x="642.138672"/>
      <use xlink:href="#DejaVuSans-45" x="711.621094"/>
      <use xlink:href="#DejaVuSans-53" x="774.804688"/>
      <use xlink:href="#DejaVuSans-53" x="838.28125"/>
      <use xlink:href="#DejaVuSans-5f" x="901.757812"/>
      <use xlink:href="#DejaVuSans-54" x="951.757812"/>
      <use xlink:href="#DejaVuSans-31" x="1012.841797"/>
      <use xlink:href="#DejaVuSans-35" x="1076.464844"/>
      <use xlink:href="#DejaVuSans-5f" x="1140.087891"/>
      <use xlink:href="#DejaVuSans-52" x="1190.087891"/>
      <use xlink:href="#DejaVuSans-45" x="1259.570312"/>
      <use xlink:href="#DejaVuSans-50" x="1322.753906"/>
      <use xlink:href="#DejaVuSans-32" x="1383.056641"/>
      <use xlink:href="#DejaVuSans-5f" x="1446.679688"/>
      <use xlink:href="#DejaVuSans-54" x="1496.679688"/>
      <use xlink:href="#DejaVuSans-31" x="1557.763672"/>
      <use xlink:href="#DejaVuSans-5f" x="1621.386719"/>
      <use xlink:href="#DejaVuSans-31" x="1671.386719"/>
     </g>
    </g>
    <g id="line2d_23">
     <path d="M 824.753125 303.490394 
L 832.753125 303.490394 
L 840.753125 303.490394 
" style="fill: none; stroke: #5cb85c; stroke-linecap: square"/>
    </g>
    <g id="text_25">
     <!-- OSMOTIC_STRESS_T15_REP2_T1_2 -->
     <g transform="translate(847.153125 306.290394)scale(0.08 -0.08)">
      <use xlink:href="#DejaVuSans-4f"/>
      <use xlink:href="#DejaVuSans-53" x="78.710938"/>
      <use xlink:href="#DejaVuSans-4d" x="142.1875"/>
      <use xlink:href="#DejaVuSans-4f" x="228.466797"/>
      <use xlink:href="#DejaVuSans-54" x="307.177734"/>
      <use xlink:href="#DejaVuSans-49" x="368.261719"/>
      <use xlink:href="#DejaVuSans-43" x="397.753906"/>
      <use xlink:href="#DejaVuSans-5f" x="467.578125"/>
      <use xlink:href="#DejaVuSans-53" x="517.578125"/>
      <use xlink:href="#DejaVuSans-54" x="581.054688"/>
      <use xlink:href="#DejaVuSans-52" x="642.138672"/>
      <use xlink:href="#DejaVuSans-45" x="711.621094"/>
      <use xlink:href="#DejaVuSans-53" x="774.804688"/>
      <use xlink:href="#DejaVuSans-53" x="838.28125"/>
      <use xlink:href="#DejaVuSans-5f" x="901.757812"/>
      <use xlink:href="#DejaVuSans-54" x="951.757812"/>
      <use xlink:href="#DejaVuSans-31" x="1012.841797"/>
      <use xlink:href="#DejaVuSans-35" x="1076.464844"/>
      <use xlink:href="#DejaVuSans-5f" x="1140.087891"/>
      <use xlink:href="#DejaVuSans-52" x="1190.087891"/>
      <use xlink:href="#DejaVuSans-45" x="1259.570312"/>
      <use xlink:href="#DejaVuSans-50" x="1322.753906"/>
      <use xlink:href="#DejaVuSans-32" x="1383.056641"/>
      <use xlink:href="#DejaVuSans-5f" x="1446.679688"/>
      <use xlink:href="#DejaVuSans-54" x="1496.679688"/>
      <use xlink:href="#DejaVuSans-31" x="1557.763672"/>
      <use xlink:href="#DejaVuSans-5f" x="1621.386719"/>
      <use xlink:href="#DejaVuSans-32" x="1671.386719"/>
     </g>
    </g>
   </g>
  </g>
 </g>
 <defs>
  <clipPath id="p67a16dafdc">
   <rect x="32.968125" y="31.48286" width="960.19" height="242.5072"/>
  </clipPath>
 </defs>
</svg>
