<?xml version="1.0" encoding="utf-8" standalone="no"?>
<!DOCTYPE svg PUBLIC "-//W3C//DTD SVG 1.1//EN"
  "http://www.w3.org/Graphics/SVG/1.1/DTD/svg11.dtd">
<svg xmlns:xlink="http://www.w3.org/1999/xlink" width="1000.318125pt" height="330.541644pt" viewBox="0 0 1000.318125 330.541644" xmlns="http://www.w3.org/2000/svg" version="1.1">
 <metadata>
  <rdf:RDF xmlns:dc="http://purl.org/dc/elements/1.1/" xmlns:cc="http://creativecommons.org/ns#" xmlns:rdf="http://www.w3.org/1999/02/22-rdf-syntax-ns#">
   <cc:Work>
    <dc:type rdf:resource="http://purl.org/dc/dcmitype/StillImage"/>
    <dc:date>2022-11-03T22:56:53.907225</dc:date>
    <dc:format>image/svg+xml</dc:format>
    <dc:creator>
     <cc:Agent>
      <dc:title>Matplotlib v3.5.2, https://matplotlib.org/</dc:title>
     </cc:Agent>
    </dc:creator>
   </cc:Work>
  </rdf:RDF>
 </metadata>
 <defs>
  <style type="text/css">*{stroke-linejoin: round; stroke-linecap: butt}</style>
 </defs>
 <g id="figure_1">
  <g id="axes_1">
   <g id="patch_1">
    <path d="M 38.058125 273.99006 
L 993.118125 273.99006 
L 993.118125 31.48286 
L 38.058125 31.48286 
z
" style="fill: #ffffff"/>
   </g>
   <g id="patch_2">
    <path d="M 38.058125 92.568091 
L 963.2725 92.568091 
L 963.2725 -633.119787 
L 38.058125 -633.119787 
z
" clip-path="url(#p05368e6168)" style="fill: #e6c3c3"/>
   </g>
   <g id="patch_3">
    <path d="M 38.058125 228.634568 
L 963.2725 228.634568 
L 963.2725 92.568091 
L 38.058125 92.568091 
z
" clip-path="url(#p05368e6168)" style="fill: #e6dcc3"/>
   </g>
   <g id="patch_4">
    <path d="M 38.058125 273.99006 
L 963.2725 273.99006 
L 963.2725 228.634568 
L 38.058125 228.634568 
z
" clip-path="url(#p05368e6168)" style="fill: #c3e6c3"/>
   </g>
   <g id="matplotlib.axis_1">
    <g id="xtick_1">
     <g id="text_1">
      <!-- 0 -->
      <g transform="translate(65.35875 287.06881)scale(0.08 -0.08)">
       <defs>
        <path id="DejaVuSans-30" d="M 2034 4250 
Q 1547 4250 1301 3770 
Q 1056 3291 1056 2328 
Q 1056 1369 1301 889 
Q 1547 409 2034 409 
Q 2525 409 2770 889 
Q 3016 1369 3016 2328 
Q 3016 3291 2770 3770 
Q 2525 4250 2034 4250 
z
M 2034 4750 
Q 2819 4750 3233 4129 
Q 3647 3509 3647 2328 
Q 3647 1150 3233 529 
Q 2819 -91 2034 -91 
Q 1250 -91 836 529 
Q 422 1150 422 2328 
Q 422 3509 836 4129 
Q 1250 4750 2034 4750 
z
" transform="scale(0.015625)"/>
       </defs>
       <use xlink:href="#DejaVuSans-30"/>
      </g>
     </g>
    </g>
    <g id="xtick_2">
     <g id="text_2">
      <!-- 10 -->
      <g transform="translate(198.475682 287.06881)scale(0.08 -0.08)">
       <defs>
        <path id="DejaVuSans-31" d="M 794 531 
L 1825 531 
L 1825 4091 
L 703 3866 
L 703 4441 
L 1819 4666 
L 2450 4666 
L 2450 531 
L 3481 531 
L 3481 0 
L 794 0 
L 794 531 
z
" transform="scale(0.015625)"/>
       </defs>
       <use xlink:href="#DejaVuSans-31"/>
       <use xlink:href="#DejaVuSans-30" x="63.623047"/>
      </g>
     </g>
    </g>
    <g id="xtick_3">
     <g id="text_3">
      <!-- 20 -->
      <g transform="translate(334.137614 287.06881)scale(0.08 -0.08)">
       <defs>
        <path id="DejaVuSans-32" d="M 1228 531 
L 3431 531 
L 3431 0 
L 469 0 
L 469 531 
Q 828 903 1448 1529 
Q 2069 2156 2228 2338 
Q 2531 2678 2651 2914 
Q 2772 3150 2772 3378 
Q 2772 3750 2511 3984 
Q 2250 4219 1831 4219 
Q 1534 4219 1204 4116 
Q 875 4013 500 3803 
L 500 4441 
Q 881 4594 1212 4672 
Q 1544 4750 1819 4750 
Q 2544 4750 2975 4387 
Q 3406 4025 3406 3419 
Q 3406 3131 3298 2873 
Q 3191 2616 2906 2266 
Q 2828 2175 2409 1742 
Q 1991 1309 1228 531 
z
" transform="scale(0.015625)"/>
       </defs>
       <use xlink:href="#DejaVuSans-32"/>
       <use xlink:href="#DejaVuSans-30" x="63.623047"/>
      </g>
     </g>
    </g>
    <g id="xtick_4">
     <g id="text_4">
      <!-- 30 -->
      <g transform="translate(469.799545 287.06881)scale(0.08 -0.08)">
       <defs>
        <path id="DejaVuSans-33" d="M 2597 2516 
Q 3050 2419 3304 2112 
Q 3559 1806 3559 1356 
Q 3559 666 3084 287 
Q 2609 -91 1734 -91 
Q 1441 -91 1130 -33 
Q 819 25 488 141 
L 488 750 
Q 750 597 1062 519 
Q 1375 441 1716 441 
Q 2309 441 2620 675 
Q 2931 909 2931 1356 
Q 2931 1769 2642 2001 
Q 2353 2234 1838 2234 
L 1294 2234 
L 1294 2753 
L 1863 2753 
Q 2328 2753 2575 2939 
Q 2822 3125 2822 3475 
Q 2822 3834 2567 4026 
Q 2313 4219 1838 4219 
Q 1578 4219 1281 4162 
Q 984 4106 628 3988 
L 628 4550 
Q 988 4650 1302 4700 
Q 1616 4750 1894 4750 
Q 2613 4750 3031 4423 
Q 3450 4097 3450 3541 
Q 3450 3153 3228 2886 
Q 3006 2619 2597 2516 
z
" transform="scale(0.015625)"/>
       </defs>
       <use xlink:href="#DejaVuSans-33"/>
       <use xlink:href="#DejaVuSans-30" x="63.623047"/>
      </g>
     </g>
    </g>
    <g id="xtick_5">
     <g id="text_5">
      <!-- 40 -->
      <g transform="translate(605.461477 287.06881)scale(0.08 -0.08)">
       <defs>
        <path id="DejaVuSans-34" d="M 2419 4116 
L 825 1625 
L 2419 1625 
L 2419 4116 
z
M 2253 4666 
L 3047 4666 
L 3047 1625 
L 3713 1625 
L 3713 1100 
L 3047 1100 
L 3047 0 
L 2419 0 
L 2419 1100 
L 313 1100 
L 313 1709 
L 2253 4666 
z
" transform="scale(0.015625)"/>
       </defs>
       <use xlink:href="#DejaVuSans-34"/>
       <use xlink:href="#DejaVuSans-30" x="63.623047"/>
      </g>
     </g>
    </g>
    <g id="xtick_6">
     <g id="text_6">
      <!-- 50 -->
      <g transform="translate(741.123409 287.06881)scale(0.08 -0.08)">
       <defs>
        <path id="DejaVuSans-35" d="M 691 4666 
L 3169 4666 
L 3169 4134 
L 1269 4134 
L 1269 2991 
Q 1406 3038 1543 3061 
Q 1681 3084 1819 3084 
Q 2600 3084 3056 2656 
Q 3513 2228 3513 1497 
Q 3513 744 3044 326 
Q 2575 -91 1722 -91 
Q 1428 -91 1123 -41 
Q 819 9 494 109 
L 494 744 
Q 775 591 1075 516 
Q 1375 441 1709 441 
Q 2250 441 2565 725 
Q 2881 1009 2881 1497 
Q 2881 1984 2565 2268 
Q 2250 2553 1709 2553 
Q 1456 2553 1204 2497 
Q 953 2441 691 2322 
L 691 4666 
z
" transform="scale(0.015625)"/>
       </defs>
       <use xlink:href="#DejaVuSans-35"/>
       <use xlink:href="#DejaVuSans-30" x="63.623047"/>
      </g>
     </g>
    </g>
    <g id="xtick_7">
     <g id="text_7">
      <!-- 60 -->
      <g transform="translate(876.785341 287.06881)scale(0.08 -0.08)">
       <defs>
        <path id="DejaVuSans-36" d="M 2113 2584 
Q 1688 2584 1439 2293 
Q 1191 2003 1191 1497 
Q 1191 994 1439 701 
Q 1688 409 2113 409 
Q 2538 409 2786 701 
Q 3034 994 3034 1497 
Q 3034 2003 2786 2293 
Q 2538 2584 2113 2584 
z
M 3366 4563 
L 3366 3988 
Q 3128 4100 2886 4159 
Q 2644 4219 2406 4219 
Q 1781 4219 1451 3797 
Q 1122 3375 1075 2522 
Q 1259 2794 1537 2939 
Q 1816 3084 2150 3084 
Q 2853 3084 3261 2657 
Q 3669 2231 3669 1497 
Q 3669 778 3244 343 
Q 2819 -91 2113 -91 
Q 1303 -91 875 529 
Q 447 1150 447 2328 
Q 447 3434 972 4092 
Q 1497 4750 2381 4750 
Q 2619 4750 2861 4703 
Q 3103 4656 3366 4563 
z
" transform="scale(0.015625)"/>
       </defs>
       <use xlink:href="#DejaVuSans-36"/>
       <use xlink:href="#DejaVuSans-30" x="63.623047"/>
      </g>
     </g>
    </g>
    <g id="text_8">
     <!-- Position (bp) -->
     <g transform="translate(484.285 300.330997)scale(0.1 -0.1)">
      <defs>
       <path id="DejaVuSans-50" d="M 1259 4147 
L 1259 2394 
L 2053 2394 
Q 2494 2394 2734 2622 
Q 2975 2850 2975 3272 
Q 2975 3691 2734 3919 
Q 2494 4147 2053 4147 
L 1259 4147 
z
M 628 4666 
L 2053 4666 
Q 2838 4666 3239 4311 
Q 3641 3956 3641 3272 
Q 3641 2581 3239 2228 
Q 2838 1875 2053 1875 
L 1259 1875 
L 1259 0 
L 628 0 
L 628 4666 
z
" transform="scale(0.015625)"/>
       <path id="DejaVuSans-6f" d="M 1959 3097 
Q 1497 3097 1228 2736 
Q 959 2375 959 1747 
Q 959 1119 1226 758 
Q 1494 397 1959 397 
Q 2419 397 2687 759 
Q 2956 1122 2956 1747 
Q 2956 2369 2687 2733 
Q 2419 3097 1959 3097 
z
M 1959 3584 
Q 2709 3584 3137 3096 
Q 3566 2609 3566 1747 
Q 3566 888 3137 398 
Q 2709 -91 1959 -91 
Q 1206 -91 779 398 
Q 353 888 353 1747 
Q 353 2609 779 3096 
Q 1206 3584 1959 3584 
z
" transform="scale(0.015625)"/>
       <path id="DejaVuSans-73" d="M 2834 3397 
L 2834 2853 
Q 2591 2978 2328 3040 
Q 2066 3103 1784 3103 
Q 1356 3103 1142 2972 
Q 928 2841 928 2578 
Q 928 2378 1081 2264 
Q 1234 2150 1697 2047 
L 1894 2003 
Q 2506 1872 2764 1633 
Q 3022 1394 3022 966 
Q 3022 478 2636 193 
Q 2250 -91 1575 -91 
Q 1294 -91 989 -36 
Q 684 19 347 128 
L 347 722 
Q 666 556 975 473 
Q 1284 391 1588 391 
Q 1994 391 2212 530 
Q 2431 669 2431 922 
Q 2431 1156 2273 1281 
Q 2116 1406 1581 1522 
L 1381 1569 
Q 847 1681 609 1914 
Q 372 2147 372 2553 
Q 372 3047 722 3315 
Q 1072 3584 1716 3584 
Q 2034 3584 2315 3537 
Q 2597 3491 2834 3397 
z
" transform="scale(0.015625)"/>
       <path id="DejaVuSans-69" d="M 603 3500 
L 1178 3500 
L 1178 0 
L 603 0 
L 603 3500 
z
M 603 4863 
L 1178 4863 
L 1178 4134 
L 603 4134 
L 603 4863 
z
" transform="scale(0.015625)"/>
       <path id="DejaVuSans-74" d="M 1172 4494 
L 1172 3500 
L 2356 3500 
L 2356 3053 
L 1172 3053 
L 1172 1153 
Q 1172 725 1289 603 
Q 1406 481 1766 481 
L 2356 481 
L 2356 0 
L 1766 0 
Q 1100 0 847 248 
Q 594 497 594 1153 
L 594 3053 
L 172 3053 
L 172 3500 
L 594 3500 
L 594 4494 
L 1172 4494 
z
" transform="scale(0.015625)"/>
       <path id="DejaVuSans-6e" d="M 3513 2113 
L 3513 0 
L 2938 0 
L 2938 2094 
Q 2938 2591 2744 2837 
Q 2550 3084 2163 3084 
Q 1697 3084 1428 2787 
Q 1159 2491 1159 1978 
L 1159 0 
L 581 0 
L 581 3500 
L 1159 3500 
L 1159 2956 
Q 1366 3272 1645 3428 
Q 1925 3584 2291 3584 
Q 2894 3584 3203 3211 
Q 3513 2838 3513 2113 
z
" transform="scale(0.015625)"/>
       <path id="DejaVuSans-20" transform="scale(0.015625)"/>
       <path id="DejaVuSans-28" d="M 1984 4856 
Q 1566 4138 1362 3434 
Q 1159 2731 1159 2009 
Q 1159 1288 1364 580 
Q 1569 -128 1984 -844 
L 1484 -844 
Q 1016 -109 783 600 
Q 550 1309 550 2009 
Q 550 2706 781 3412 
Q 1013 4119 1484 4856 
L 1984 4856 
z
" transform="scale(0.015625)"/>
       <path id="DejaVuSans-62" d="M 3116 1747 
Q 3116 2381 2855 2742 
Q 2594 3103 2138 3103 
Q 1681 3103 1420 2742 
Q 1159 2381 1159 1747 
Q 1159 1113 1420 752 
Q 1681 391 2138 391 
Q 2594 391 2855 752 
Q 3116 1113 3116 1747 
z
M 1159 2969 
Q 1341 3281 1617 3432 
Q 1894 3584 2278 3584 
Q 2916 3584 3314 3078 
Q 3713 2572 3713 1747 
Q 3713 922 3314 415 
Q 2916 -91 2278 -91 
Q 1894 -91 1617 61 
Q 1341 213 1159 525 
L 1159 0 
L 581 0 
L 581 4863 
L 1159 4863 
L 1159 2969 
z
" transform="scale(0.015625)"/>
       <path id="DejaVuSans-70" d="M 1159 525 
L 1159 -1331 
L 581 -1331 
L 581 3500 
L 1159 3500 
L 1159 2969 
Q 1341 3281 1617 3432 
Q 1894 3584 2278 3584 
Q 2916 3584 3314 3078 
Q 3713 2572 3713 1747 
Q 3713 922 3314 415 
Q 2916 -91 2278 -91 
Q 1894 -91 1617 61 
Q 1341 213 1159 525 
z
M 3116 1747 
Q 3116 2381 2855 2742 
Q 2594 3103 2138 3103 
Q 1681 3103 1420 2742 
Q 1159 2381 1159 1747 
Q 1159 1113 1420 752 
Q 1681 391 2138 391 
Q 2594 391 2855 752 
Q 3116 1113 3116 1747 
z
" transform="scale(0.015625)"/>
       <path id="DejaVuSans-29" d="M 513 4856 
L 1013 4856 
Q 1481 4119 1714 3412 
Q 1947 2706 1947 2009 
Q 1947 1309 1714 600 
Q 1481 -109 1013 -844 
L 513 -844 
Q 928 -128 1133 580 
Q 1338 1288 1338 2009 
Q 1338 2731 1133 3434 
Q 928 4138 513 4856 
z
" transform="scale(0.015625)"/>
      </defs>
      <use xlink:href="#DejaVuSans-50"/>
      <use xlink:href="#DejaVuSans-6f" x="56.677734"/>
      <use xlink:href="#DejaVuSans-73" x="117.859375"/>
      <use xlink:href="#DejaVuSans-69" x="169.958984"/>
      <use xlink:href="#DejaVuSans-74" x="197.742188"/>
      <use xlink:href="#DejaVuSans-69" x="236.951172"/>
      <use xlink:href="#DejaVuSans-6f" x="264.734375"/>
      <use xlink:href="#DejaVuSans-6e" x="325.916016"/>
      <use xlink:href="#DejaVuSans-20" x="389.294922"/>
      <use xlink:href="#DejaVuSans-28" x="421.082031"/>
      <use xlink:href="#DejaVuSans-62" x="460.095703"/>
      <use xlink:href="#DejaVuSans-70" x="523.572266"/>
      <use xlink:href="#DejaVuSans-29" x="587.048828"/>
     </g>
    </g>
   </g>
   <g id="matplotlib.axis_2">
    <g id="ytick_1">
     <g id="line2d_1">
      <path d="M 38.058125 273.99006 
L 993.118125 273.99006 
" clip-path="url(#p05368e6168)" style="fill: none; stroke: #dedede; stroke-linecap: square"/>
     </g>
     <g id="text_9">
      <!-- 0 -->
      <g transform="translate(25.968125 277.029435)scale(0.08 -0.08)">
       <use xlink:href="#DejaVuSans-30"/>
      </g>
     </g>
    </g>
    <g id="ytick_2">
     <g id="line2d_2">
      <path d="M 38.058125 228.634568 
L 993.118125 228.634568 
" clip-path="url(#p05368e6168)" style="fill: none; stroke: #dedede; stroke-linecap: square"/>
     </g>
     <g id="text_10">
      <!-- 5 -->
      <g transform="translate(25.968125 231.673943)scale(0.08 -0.08)">
       <use xlink:href="#DejaVuSans-35"/>
      </g>
     </g>
    </g>
    <g id="ytick_3">
     <g id="line2d_3">
      <path d="M 38.058125 183.279075 
L 993.118125 183.279075 
" clip-path="url(#p05368e6168)" style="fill: none; stroke: #dedede; stroke-linecap: square"/>
     </g>
     <g id="text_11">
      <!-- 10 -->
      <g transform="translate(20.878125 186.31845)scale(0.08 -0.08)">
       <use xlink:href="#DejaVuSans-31"/>
       <use xlink:href="#DejaVuSans-30" x="63.623047"/>
      </g>
     </g>
    </g>
    <g id="ytick_4">
     <g id="line2d_4">
      <path d="M 38.058125 137.923583 
L 993.118125 137.923583 
" clip-path="url(#p05368e6168)" style="fill: none; stroke: #dedede; stroke-linecap: square"/>
     </g>
     <g id="text_12">
      <!-- 15 -->
      <g transform="translate(20.878125 140.962958)scale(0.08 -0.08)">
       <use xlink:href="#DejaVuSans-31"/>
       <use xlink:href="#DejaVuSans-35" x="63.623047"/>
      </g>
     </g>
    </g>
    <g id="ytick_5">
     <g id="line2d_5">
      <path d="M 38.058125 92.568091 
L 993.118125 92.568091 
" clip-path="url(#p05368e6168)" style="fill: none; stroke: #dedede; stroke-linecap: square"/>
     </g>
     <g id="text_13">
      <!-- 20 -->
      <g transform="translate(20.878125 95.607466)scale(0.08 -0.08)">
       <use xlink:href="#DejaVuSans-32"/>
       <use xlink:href="#DejaVuSans-30" x="63.623047"/>
      </g>
     </g>
    </g>
    <g id="ytick_6">
     <g id="line2d_6">
      <path d="M 38.058125 47.212598 
L 993.118125 47.212598 
" clip-path="url(#p05368e6168)" style="fill: none; stroke: #dedede; stroke-linecap: square"/>
     </g>
     <g id="text_14">
      <!-- 25 -->
      <g transform="translate(20.878125 50.251973)scale(0.08 -0.08)">
       <use xlink:href="#DejaVuSans-32"/>
       <use xlink:href="#DejaVuSans-35" x="63.623047"/>
      </g>
     </g>
    </g>
    <g id="text_15">
     <!-- % of Sequences -->
     <g transform="translate(14.798438 192.754429)rotate(-90)scale(0.1 -0.1)">
      <defs>
       <path id="DejaVuSans-25" d="M 4653 2053 
Q 4381 2053 4226 1822 
Q 4072 1591 4072 1178 
Q 4072 772 4226 539 
Q 4381 306 4653 306 
Q 4919 306 5073 539 
Q 5228 772 5228 1178 
Q 5228 1588 5073 1820 
Q 4919 2053 4653 2053 
z
M 4653 2450 
Q 5147 2450 5437 2106 
Q 5728 1763 5728 1178 
Q 5728 594 5436 251 
Q 5144 -91 4653 -91 
Q 4153 -91 3862 251 
Q 3572 594 3572 1178 
Q 3572 1766 3864 2108 
Q 4156 2450 4653 2450 
z
M 1428 4353 
Q 1159 4353 1004 4120 
Q 850 3888 850 3481 
Q 850 3069 1003 2837 
Q 1156 2606 1428 2606 
Q 1700 2606 1854 2837 
Q 2009 3069 2009 3481 
Q 2009 3884 1853 4118 
Q 1697 4353 1428 4353 
z
M 4250 4750 
L 4750 4750 
L 1831 -91 
L 1331 -91 
L 4250 4750 
z
M 1428 4750 
Q 1922 4750 2215 4408 
Q 2509 4066 2509 3481 
Q 2509 2891 2217 2550 
Q 1925 2209 1428 2209 
Q 931 2209 642 2551 
Q 353 2894 353 3481 
Q 353 4063 643 4406 
Q 934 4750 1428 4750 
z
" transform="scale(0.015625)"/>
       <path id="DejaVuSans-66" d="M 2375 4863 
L 2375 4384 
L 1825 4384 
Q 1516 4384 1395 4259 
Q 1275 4134 1275 3809 
L 1275 3500 
L 2222 3500 
L 2222 3053 
L 1275 3053 
L 1275 0 
L 697 0 
L 697 3053 
L 147 3053 
L 147 3500 
L 697 3500 
L 697 3744 
Q 697 4328 969 4595 
Q 1241 4863 1831 4863 
L 2375 4863 
z
" transform="scale(0.015625)"/>
       <path id="DejaVuSans-53" d="M 3425 4513 
L 3425 3897 
Q 3066 4069 2747 4153 
Q 2428 4238 2131 4238 
Q 1616 4238 1336 4038 
Q 1056 3838 1056 3469 
Q 1056 3159 1242 3001 
Q 1428 2844 1947 2747 
L 2328 2669 
Q 3034 2534 3370 2195 
Q 3706 1856 3706 1288 
Q 3706 609 3251 259 
Q 2797 -91 1919 -91 
Q 1588 -91 1214 -16 
Q 841 59 441 206 
L 441 856 
Q 825 641 1194 531 
Q 1563 422 1919 422 
Q 2459 422 2753 634 
Q 3047 847 3047 1241 
Q 3047 1584 2836 1778 
Q 2625 1972 2144 2069 
L 1759 2144 
Q 1053 2284 737 2584 
Q 422 2884 422 3419 
Q 422 4038 858 4394 
Q 1294 4750 2059 4750 
Q 2388 4750 2728 4690 
Q 3069 4631 3425 4513 
z
" transform="scale(0.015625)"/>
       <path id="DejaVuSans-65" d="M 3597 1894 
L 3597 1613 
L 953 1613 
Q 991 1019 1311 708 
Q 1631 397 2203 397 
Q 2534 397 2845 478 
Q 3156 559 3463 722 
L 3463 178 
Q 3153 47 2828 -22 
Q 2503 -91 2169 -91 
Q 1331 -91 842 396 
Q 353 884 353 1716 
Q 353 2575 817 3079 
Q 1281 3584 2069 3584 
Q 2775 3584 3186 3129 
Q 3597 2675 3597 1894 
z
M 3022 2063 
Q 3016 2534 2758 2815 
Q 2500 3097 2075 3097 
Q 1594 3097 1305 2825 
Q 1016 2553 972 2059 
L 3022 2063 
z
" transform="scale(0.015625)"/>
       <path id="DejaVuSans-71" d="M 947 1747 
Q 947 1113 1208 752 
Q 1469 391 1925 391 
Q 2381 391 2643 752 
Q 2906 1113 2906 1747 
Q 2906 2381 2643 2742 
Q 2381 3103 1925 3103 
Q 1469 3103 1208 2742 
Q 947 2381 947 1747 
z
M 2906 525 
Q 2725 213 2448 61 
Q 2172 -91 1784 -91 
Q 1150 -91 751 415 
Q 353 922 353 1747 
Q 353 2572 751 3078 
Q 1150 3584 1784 3584 
Q 2172 3584 2448 3432 
Q 2725 3281 2906 2969 
L 2906 3500 
L 3481 3500 
L 3481 -1331 
L 2906 -1331 
L 2906 525 
z
" transform="scale(0.015625)"/>
       <path id="DejaVuSans-75" d="M 544 1381 
L 544 3500 
L 1119 3500 
L 1119 1403 
Q 1119 906 1312 657 
Q 1506 409 1894 409 
Q 2359 409 2629 706 
Q 2900 1003 2900 1516 
L 2900 3500 
L 3475 3500 
L 3475 0 
L 2900 0 
L 2900 538 
Q 2691 219 2414 64 
Q 2138 -91 1772 -91 
Q 1169 -91 856 284 
Q 544 659 544 1381 
z
M 1991 3584 
L 1991 3584 
z
" transform="scale(0.015625)"/>
       <path id="DejaVuSans-63" d="M 3122 3366 
L 3122 2828 
Q 2878 2963 2633 3030 
Q 2388 3097 2138 3097 
Q 1578 3097 1268 2742 
Q 959 2388 959 1747 
Q 959 1106 1268 751 
Q 1578 397 2138 397 
Q 2388 397 2633 464 
Q 2878 531 3122 666 
L 3122 134 
Q 2881 22 2623 -34 
Q 2366 -91 2075 -91 
Q 1284 -91 818 406 
Q 353 903 353 1747 
Q 353 2603 823 3093 
Q 1294 3584 2113 3584 
Q 2378 3584 2631 3529 
Q 2884 3475 3122 3366 
z
" transform="scale(0.015625)"/>
      </defs>
      <use xlink:href="#DejaVuSans-25"/>
      <use xlink:href="#DejaVuSans-20" x="95.019531"/>
      <use xlink:href="#DejaVuSans-6f" x="126.806641"/>
      <use xlink:href="#DejaVuSans-66" x="187.988281"/>
      <use xlink:href="#DejaVuSans-20" x="223.193359"/>
      <use xlink:href="#DejaVuSans-53" x="254.980469"/>
      <use xlink:href="#DejaVuSans-65" x="318.457031"/>
      <use xlink:href="#DejaVuSans-71" x="379.980469"/>
      <use xlink:href="#DejaVuSans-75" x="443.457031"/>
      <use xlink:href="#DejaVuSans-65" x="506.835938"/>
      <use xlink:href="#DejaVuSans-6e" x="568.359375"/>
      <use xlink:href="#DejaVuSans-63" x="631.738281"/>
      <use xlink:href="#DejaVuSans-65" x="686.71875"/>
      <use xlink:href="#DejaVuSans-73" x="748.242188"/>
     </g>
    </g>
   </g>
   <g id="line2d_7">
    <path d="M 81.469943 273.99006 
L 95.036136 273.99006 
L 108.60233 273.99006 
L 122.168523 273.99006 
L 135.734716 273.99006 
L 149.300909 273.99006 
L 162.867102 273.99006 
L 176.433295 273.99006 
L 189.999489 273.99006 
L 203.565682 273.99006 
L 217.131875 273.99006 
L 230.698068 273.99006 
L 244.264261 273.99006 
L 257.830455 273.99006 
L 271.396648 273.99006 
L 284.962841 273.99006 
L 298.529034 273.99006 
L 312.095227 273.99006 
L 325.66142 273.99006 
L 339.227614 273.99006 
L 352.793807 273.971918 
L 366.36 273.971918 
L 379.926193 273.962847 
L 393.492386 273.962847 
L 407.05858 273.962847 
L 420.624773 273.935633 
L 434.190966 273.736069 
L 447.757159 273.427652 
L 461.323352 273.08295 
L 474.889545 271.59529 
L 488.455739 269.418226 
L 502.021932 268.901174 
L 515.588125 268.61997 
L 529.154318 268.284339 
L 542.720511 267.422585 
L 556.286705 265.871427 
L 569.852898 263.113813 
L 583.419091 259.830075 
L 596.985284 255.221957 
L 610.551477 246.813049 
L 624.11767 232.081585 
L 637.683864 219.409261 
L 651.250057 211.88932 
L 664.81625 204.822934 
L 678.382443 196.686159 
L 691.948636 188.513099 
L 705.51483 180.467035 
L 719.081023 173.309938 
L 732.647216 166.352406 
L 746.213409 158.641972 
L 759.779602 147.938076 
L 773.345795 136.463136 
L 786.911989 127.809308 
L 800.478182 120.824562 
L 814.044375 113.876101 
L 827.610568 106.192881 
L 841.176761 98.536873 
L 854.742955 91.388848 
L 868.309148 84.957439 
L 881.875341 77.7822 
L 895.441534 70.661388 
L 909.007727 62.878385 
L 922.57392 55.585222 
L 936.140114 49.416875 
L 949.706307 43.030822 
" clip-path="url(#p05368e6168)" style="fill: none; stroke: #7cb5ec; stroke-linecap: square"/>
   </g>
   <g id="line2d_8">
    <path d="M 81.469943 273.99006 
L 95.036136 273.99006 
L 108.60233 273.99006 
L 122.168523 273.99006 
L 135.734716 273.99006 
L 149.300909 273.99006 
L 162.867102 273.99006 
L 176.433295 273.99006 
L 189.999489 273.99006 
L 203.565682 273.99006 
L 217.131875 273.99006 
L 230.698068 273.99006 
L 244.264261 273.99006 
L 257.830455 273.980989 
L 271.396648 273.980989 
L 284.962841 273.980989 
L 298.529034 273.980989 
L 312.095227 273.980989 
L 325.66142 273.980989 
L 339.227614 273.980989 
L 352.793807 273.953776 
L 366.36 273.953776 
L 379.926193 273.944705 
L 393.492386 273.944705 
L 407.05858 273.944705 
L 420.624773 273.917491 
L 434.190966 273.717927 
L 447.757159 273.391368 
L 461.323352 273.064808 
L 474.889545 271.568077 
L 488.455739 269.409155 
L 502.021932 268.87396 
L 515.588125 268.592756 
L 529.154318 268.257126 
L 542.720511 267.431656 
L 556.286705 265.889569 
L 569.852898 263.16824 
L 583.419091 259.857289 
L 596.985284 255.339882 
L 610.551477 246.940044 
L 624.11767 232.20858 
L 637.683864 219.626967 
L 651.250057 212.215879 
L 664.81625 205.185778 
L 678.382443 197.058074 
L 691.948636 188.885014 
L 705.51483 180.802665 
L 719.081023 173.699995 
L 732.647216 166.71525 
L 746.213409 159.077385 
L 759.779602 148.337204 
L 773.345795 136.82598 
L 786.911989 128.290076 
L 800.478182 121.287188 
L 814.044375 114.411296 
L 827.610568 106.746218 
L 841.176761 99.108353 
L 854.742955 91.951256 
L 868.309148 85.583345 
L 881.875341 78.44439 
L 895.441534 71.34172 
L 909.007727 63.676642 
L 922.57392 56.401621 
L 936.140114 50.233274 
L 949.706307 43.810936 
" clip-path="url(#p05368e6168)" style="fill: none; stroke: #434348; stroke-linecap: square"/>
   </g>
   <g id="line2d_9">
    <path d="M 81.469943 273.99006 
L 95.036136 273.99006 
L 108.60233 273.99006 
L 122.168523 273.99006 
L 135.734716 273.99006 
L 149.300909 273.99006 
L 162.867102 273.99006 
L 176.433295 273.99006 
L 189.999489 273.99006 
L 203.565682 273.99006 
L 217.131875 273.99006 
L 230.698068 273.99006 
L 244.264261 273.99006 
L 257.830455 273.99006 
L 271.396648 273.99006 
L 284.962841 273.99006 
L 298.529034 273.980989 
L 312.095227 273.971918 
L 325.66142 273.962847 
L 339.227614 273.944705 
L 352.793807 273.917491 
L 366.36 273.917491 
L 379.926193 273.90842 
L 393.492386 273.863065 
L 407.05858 273.835851 
L 420.624773 273.772354 
L 434.190966 273.373225 
L 447.757159 272.865244 
L 461.323352 272.248409 
L 474.889545 271.559006 
L 488.455739 271.078237 
L 502.021932 270.715393 
L 515.588125 270.252767 
L 529.154318 269.291231 
L 542.720511 268.139201 
L 556.286705 265.871427 
L 569.852898 262.215774 
L 583.419091 257.371808 
L 596.985284 251.61166 
L 610.551477 245.425171 
L 624.11767 238.440425 
L 637.683864 231.891092 
L 651.250057 225.51411 
L 664.81625 217.966956 
L 678.382443 210.492371 
L 691.948636 203.099425 
L 705.51483 195.851618 
L 719.081023 188.857801 
L 732.647216 182.00005 
L 746.213409 175.586784 
L 759.779602 167.658644 
L 773.345795 160.837178 
L 786.911989 153.843361 
L 800.478182 147.049108 
L 814.044375 140.055291 
L 827.610568 132.834697 
L 841.176761 126.058586 
L 854.742955 119.082911 
L 868.309148 113.195769 
L 881.875341 106.918568 
L 895.441534 100.850004 
L 909.007727 94.745154 
L 922.57392 88.957793 
L 936.140114 82.998082 
L 949.706307 77.165365 
" clip-path="url(#p05368e6168)" style="fill: none; stroke: #90ed7d; stroke-linecap: square"/>
   </g>
   <g id="line2d_10">
    <path d="M 81.469943 273.99006 
L 95.036136 273.99006 
L 108.60233 273.99006 
L 122.168523 273.99006 
L 135.734716 273.99006 
L 149.300909 273.99006 
L 162.867102 273.99006 
L 176.433295 273.99006 
L 189.999489 273.99006 
L 203.565682 273.99006 
L 217.131875 273.99006 
L 230.698068 273.99006 
L 244.264261 273.99006 
L 257.830455 273.99006 
L 271.396648 273.99006 
L 284.962841 273.99006 
L 298.529034 273.99006 
L 312.095227 273.962847 
L 325.66142 273.935633 
L 339.227614 273.899349 
L 352.793807 273.872136 
L 366.36 273.853994 
L 379.926193 273.82678 
L 393.492386 273.790496 
L 407.05858 273.763283 
L 420.624773 273.6635 
L 434.190966 273.255301 
L 447.757159 272.729177 
L 461.323352 272.0942 
L 474.889545 271.422939 
L 488.455739 270.951242 
L 502.021932 270.570256 
L 515.588125 270.10763 
L 529.154318 269.155165 
L 542.720511 267.975922 
L 556.286705 265.73536 
L 569.852898 262.088779 
L 583.419091 257.235741 
L 596.985284 251.53002 
L 610.551477 245.388887 
L 624.11767 238.485781 
L 637.683864 232.054372 
L 651.250057 225.722745 
L 664.81625 218.266302 
L 678.382443 210.828001 
L 691.948636 203.516696 
L 705.51483 196.36867 
L 719.081023 189.447422 
L 732.647216 182.625956 
L 746.213409 176.185476 
L 759.779602 168.239194 
L 773.345795 161.553794 
L 786.911989 154.569049 
L 800.478182 147.756654 
L 814.044375 140.771908 
L 827.610568 133.651096 
L 841.176761 126.884056 
L 854.742955 119.999092 
L 868.309148 114.148234 
L 881.875341 107.825678 
L 895.441534 101.7299 
L 909.007727 95.706691 
L 922.57392 90.00097 
L 936.140114 84.122898 
L 949.706307 78.380893 
" clip-path="url(#p05368e6168)" style="fill: none; stroke: #f7a35c; stroke-linecap: square"/>
   </g>
   <g id="line2d_11">
    <path d="M 81.469943 273.99006 
L 95.036136 273.99006 
L 108.60233 273.99006 
L 122.168523 273.99006 
L 135.734716 273.99006 
L 149.300909 273.99006 
L 162.867102 273.99006 
L 176.433295 273.99006 
L 189.999489 273.99006 
L 203.565682 273.99006 
L 217.131875 273.99006 
L 230.698068 273.99006 
L 244.264261 273.99006 
L 257.830455 273.99006 
L 271.396648 273.99006 
L 284.962841 273.99006 
L 298.529034 273.99006 
L 312.095227 273.980989 
L 325.66142 273.980989 
L 339.227614 273.980989 
L 352.793807 273.980989 
L 366.36 273.980989 
L 379.926193 273.980989 
L 393.492386 273.980989 
L 407.05858 273.980989 
L 420.624773 273.980989 
L 434.190966 273.944705 
L 447.757159 273.799567 
L 461.323352 273.609074 
L 474.889545 273.427652 
L 488.455739 273.24623 
L 502.021932 273.128306 
L 515.588125 272.974097 
L 529.154318 272.783604 
L 542.720511 272.375404 
L 556.286705 271.667859 
L 569.852898 270.071345 
L 583.419091 267.585864 
L 596.985284 264.701255 
L 610.551477 261.834788 
L 624.11767 259.249525 
L 637.683864 256.092783 
L 651.250057 252.781832 
L 664.81625 248.899402 
L 678.382443 244.917189 
L 691.948636 241.261537 
L 705.51483 237.197685 
L 719.081023 232.8617 
L 732.647216 228.40779 
L 746.213409 223.990165 
L 759.779602 219.4909 
L 773.345795 215.563115 
L 786.911989 211.326912 
L 800.478182 206.999998 
L 814.044375 202.39188 
L 827.610568 197.910757 
L 841.176761 193.23007 
L 854.742955 188.449601 
L 868.309148 183.678204 
L 881.875341 178.398824 
L 895.441534 173.690924 
L 909.007727 169.164446 
L 922.57392 164.801248 
L 936.140114 160.574116 
L 949.706307 156.056709 
" clip-path="url(#p05368e6168)" style="fill: none; stroke: #8085e9; stroke-linecap: square"/>
   </g>
   <g id="line2d_12">
    <path d="M 81.469943 273.99006 
L 95.036136 273.99006 
L 108.60233 273.99006 
L 122.168523 273.99006 
L 135.734716 273.99006 
L 149.300909 273.99006 
L 162.867102 273.99006 
L 176.433295 273.99006 
L 189.999489 273.99006 
L 203.565682 273.99006 
L 217.131875 273.99006 
L 230.698068 273.99006 
L 244.264261 273.99006 
L 257.830455 273.99006 
L 271.396648 273.99006 
L 284.962841 273.99006 
L 298.529034 273.99006 
L 312.095227 273.980989 
L 325.66142 273.980989 
L 339.227614 273.980989 
L 352.793807 273.980989 
L 366.36 273.980989 
L 379.926193 273.980989 
L 393.492386 273.980989 
L 407.05858 273.980989 
L 420.624773 273.980989 
L 434.190966 273.944705 
L 447.757159 273.799567 
L 461.323352 273.609074 
L 474.889545 273.418581 
L 488.455739 273.24623 
L 502.021932 273.137377 
L 515.588125 272.983168 
L 529.154318 272.801746 
L 542.720511 272.393547 
L 556.286705 271.686001 
L 569.852898 270.071345 
L 583.419091 267.567722 
L 596.985284 264.674042 
L 610.551477 261.798504 
L 624.11767 259.240454 
L 637.683864 256.101854 
L 651.250057 252.809045 
L 664.81625 248.990113 
L 678.382443 244.998829 
L 691.948636 241.361319 
L 705.51483 237.306538 
L 719.081023 232.988695 
L 732.647216 228.534786 
L 746.213409 224.126232 
L 759.779602 219.608825 
L 773.345795 215.681039 
L 786.911989 211.435765 
L 800.478182 207.054424 
L 814.044375 202.464449 
L 827.610568 198.037753 
L 841.176761 193.338924 
L 854.742955 188.558455 
L 868.309148 183.787057 
L 881.875341 178.480464 
L 895.441534 173.745351 
L 909.007727 169.28237 
L 922.57392 164.973599 
L 936.140114 160.800893 
L 949.706307 156.292557 
" clip-path="url(#p05368e6168)" style="fill: none; stroke: #f15c80; stroke-linecap: square"/>
   </g>
   <g id="line2d_13">
    <path d="M 81.469943 273.99006 
L 95.036136 273.99006 
L 108.60233 273.99006 
L 122.168523 273.99006 
L 135.734716 273.99006 
L 149.300909 273.99006 
L 162.867102 273.99006 
L 176.433295 273.99006 
L 189.999489 273.99006 
L 203.565682 273.99006 
L 217.131875 273.99006 
L 230.698068 273.99006 
L 244.264261 273.99006 
L 257.830455 273.99006 
L 271.396648 273.99006 
L 284.962841 273.99006 
L 298.529034 273.99006 
L 312.095227 273.99006 
L 325.66142 273.99006 
L 339.227614 273.99006 
L 352.793807 273.99006 
L 366.36 273.99006 
L 379.926193 273.99006 
L 393.492386 273.99006 
L 407.05858 273.99006 
L 420.624773 273.971918 
L 434.190966 273.781425 
L 447.757159 273.391368 
L 461.323352 272.901528 
L 474.889545 272.375404 
L 488.455739 271.92185 
L 502.021932 271.613432 
L 515.588125 271.332228 
L 529.154318 270.878673 
L 542.720511 270.180199 
L 556.286705 268.647183 
L 569.852898 265.390659 
L 583.419091 261.299593 
L 596.985284 256.101854 
L 610.551477 250.36892 
L 624.11767 244.209644 
L 637.683864 238.349714 
L 651.250057 231.70967 
L 664.81625 224.670498 
L 678.382443 216.67886 
L 691.948636 208.741649 
L 705.51483 200.623016 
L 719.081023 192.495311 
L 732.647216 184.730451 
L 746.213409 177.029088 
L 759.779602 169.255157 
L 773.345795 162.34298 
L 786.911989 155.503372 
L 800.478182 148.663764 
L 814.044375 141.742515 
L 827.610568 134.385855 
L 841.176761 127.455535 
L 854.742955 119.853955 
L 868.309148 113.259266 
L 881.875341 106.492227 
L 895.441534 100.32388 
L 909.007727 94.101106 
L 922.57392 88.086968 
L 936.140114 82.054688 
L 949.706307 76.022407 
" clip-path="url(#p05368e6168)" style="fill: none; stroke: #e4d354; stroke-linecap: square"/>
   </g>
   <g id="line2d_14">
    <path d="M 81.469943 273.99006 
L 95.036136 273.99006 
L 108.60233 273.99006 
L 122.168523 273.99006 
L 135.734716 273.99006 
L 149.300909 273.99006 
L 162.867102 273.99006 
L 176.433295 273.99006 
L 189.999489 273.99006 
L 203.565682 273.99006 
L 217.131875 273.99006 
L 230.698068 273.99006 
L 244.264261 273.99006 
L 257.830455 273.99006 
L 271.396648 273.99006 
L 284.962841 273.99006 
L 298.529034 273.99006 
L 312.095227 273.99006 
L 325.66142 273.99006 
L 339.227614 273.99006 
L 352.793807 273.99006 
L 366.36 273.99006 
L 379.926193 273.99006 
L 393.492386 273.99006 
L 407.05858 273.99006 
L 420.624773 273.971918 
L 434.190966 273.781425 
L 447.757159 273.40951 
L 461.323352 272.937813 
L 474.889545 272.393547 
L 488.455739 271.958134 
L 502.021932 271.667859 
L 515.588125 271.377584 
L 529.154318 270.924029 
L 542.720511 270.225554 
L 556.286705 268.756036 
L 569.852898 265.517654 
L 583.419091 261.544513 
L 596.985284 256.428413 
L 610.551477 250.740835 
L 624.11767 244.59063 
L 637.683864 238.839553 
L 651.250057 232.281149 
L 664.81625 225.332688 
L 678.382443 217.42269 
L 691.948636 209.558048 
L 705.51483 201.493841 
L 719.081023 193.420563 
L 732.647216 185.719201 
L 746.213409 178.063194 
L 759.779602 170.298333 
L 773.345795 163.422441 
L 786.911989 156.673544 
L 800.478182 149.933717 
L 814.044375 143.121322 
L 827.610568 135.83723 
L 841.176761 128.934124 
L 854.742955 121.405113 
L 868.309148 114.910206 
L 881.875341 108.315518 
L 895.441534 102.192526 
L 909.007727 96.078606 
L 922.57392 90.055396 
L 936.140114 84.122898 
L 949.706307 78.181328 
" clip-path="url(#p05368e6168)" style="fill: none; stroke: #2b908f; stroke-linecap: square"/>
   </g>
   <g id="line2d_15">
    <path d="M 38.058125 273.99006 
L 993.118125 273.99006 
" clip-path="url(#p05368e6168)" style="fill: none; stroke: #dedede; stroke-width: 2; stroke-linecap: square"/>
   </g>
   <g id="text_16">
    <!-- FastQC: Adapter Content -->
    <g transform="translate(416.290625 19.3575)scale(0.16 -0.16)">
     <defs>
      <path id="DejaVuSans-46" d="M 628 4666 
L 3309 4666 
L 3309 4134 
L 1259 4134 
L 1259 2759 
L 3109 2759 
L 3109 2228 
L 1259 2228 
L 1259 0 
L 628 0 
L 628 4666 
z
" transform="scale(0.015625)"/>
      <path id="DejaVuSans-61" d="M 2194 1759 
Q 1497 1759 1228 1600 
Q 959 1441 959 1056 
Q 959 750 1161 570 
Q 1363 391 1709 391 
Q 2188 391 2477 730 
Q 2766 1069 2766 1631 
L 2766 1759 
L 2194 1759 
z
M 3341 1997 
L 3341 0 
L 2766 0 
L 2766 531 
Q 2569 213 2275 61 
Q 1981 -91 1556 -91 
Q 1019 -91 701 211 
Q 384 513 384 1019 
Q 384 1609 779 1909 
Q 1175 2209 1959 2209 
L 2766 2209 
L 2766 2266 
Q 2766 2663 2505 2880 
Q 2244 3097 1772 3097 
Q 1472 3097 1187 3025 
Q 903 2953 641 2809 
L 641 3341 
Q 956 3463 1253 3523 
Q 1550 3584 1831 3584 
Q 2591 3584 2966 3190 
Q 3341 2797 3341 1997 
z
" transform="scale(0.015625)"/>
      <path id="DejaVuSans-51" d="M 2522 4238 
Q 1834 4238 1429 3725 
Q 1025 3213 1025 2328 
Q 1025 1447 1429 934 
Q 1834 422 2522 422 
Q 3209 422 3611 934 
Q 4013 1447 4013 2328 
Q 4013 3213 3611 3725 
Q 3209 4238 2522 4238 
z
M 3406 84 
L 4238 -825 
L 3475 -825 
L 2784 -78 
Q 2681 -84 2626 -87 
Q 2572 -91 2522 -91 
Q 1538 -91 948 567 
Q 359 1225 359 2328 
Q 359 3434 948 4092 
Q 1538 4750 2522 4750 
Q 3503 4750 4090 4092 
Q 4678 3434 4678 2328 
Q 4678 1516 4351 937 
Q 4025 359 3406 84 
z
" transform="scale(0.015625)"/>
      <path id="DejaVuSans-43" d="M 4122 4306 
L 4122 3641 
Q 3803 3938 3442 4084 
Q 3081 4231 2675 4231 
Q 1875 4231 1450 3742 
Q 1025 3253 1025 2328 
Q 1025 1406 1450 917 
Q 1875 428 2675 428 
Q 3081 428 3442 575 
Q 3803 722 4122 1019 
L 4122 359 
Q 3791 134 3420 21 
Q 3050 -91 2638 -91 
Q 1578 -91 968 557 
Q 359 1206 359 2328 
Q 359 3453 968 4101 
Q 1578 4750 2638 4750 
Q 3056 4750 3426 4639 
Q 3797 4528 4122 4306 
z
" transform="scale(0.015625)"/>
      <path id="DejaVuSans-3a" d="M 750 794 
L 1409 794 
L 1409 0 
L 750 0 
L 750 794 
z
M 750 3309 
L 1409 3309 
L 1409 2516 
L 750 2516 
L 750 3309 
z
" transform="scale(0.015625)"/>
      <path id="DejaVuSans-41" d="M 2188 4044 
L 1331 1722 
L 3047 1722 
L 2188 4044 
z
M 1831 4666 
L 2547 4666 
L 4325 0 
L 3669 0 
L 3244 1197 
L 1141 1197 
L 716 0 
L 50 0 
L 1831 4666 
z
" transform="scale(0.015625)"/>
      <path id="DejaVuSans-64" d="M 2906 2969 
L 2906 4863 
L 3481 4863 
L 3481 0 
L 2906 0 
L 2906 525 
Q 2725 213 2448 61 
Q 2172 -91 1784 -91 
Q 1150 -91 751 415 
Q 353 922 353 1747 
Q 353 2572 751 3078 
Q 1150 3584 1784 3584 
Q 2172 3584 2448 3432 
Q 2725 3281 2906 2969 
z
M 947 1747 
Q 947 1113 1208 752 
Q 1469 391 1925 391 
Q 2381 391 2643 752 
Q 2906 1113 2906 1747 
Q 2906 2381 2643 2742 
Q 2381 3103 1925 3103 
Q 1469 3103 1208 2742 
Q 947 2381 947 1747 
z
" transform="scale(0.015625)"/>
      <path id="DejaVuSans-72" d="M 2631 2963 
Q 2534 3019 2420 3045 
Q 2306 3072 2169 3072 
Q 1681 3072 1420 2755 
Q 1159 2438 1159 1844 
L 1159 0 
L 581 0 
L 581 3500 
L 1159 3500 
L 1159 2956 
Q 1341 3275 1631 3429 
Q 1922 3584 2338 3584 
Q 2397 3584 2469 3576 
Q 2541 3569 2628 3553 
L 2631 2963 
z
" transform="scale(0.015625)"/>
     </defs>
     <use xlink:href="#DejaVuSans-46"/>
     <use xlink:href="#DejaVuSans-61" x="48.394531"/>
     <use xlink:href="#DejaVuSans-73" x="109.673828"/>
     <use xlink:href="#DejaVuSans-74" x="161.773438"/>
     <use xlink:href="#DejaVuSans-51" x="200.982422"/>
     <use xlink:href="#DejaVuSans-43" x="279.693359"/>
     <use xlink:href="#DejaVuSans-3a" x="349.517578"/>
     <use xlink:href="#DejaVuSans-20" x="383.208984"/>
     <use xlink:href="#DejaVuSans-41" x="414.996094"/>
     <use xlink:href="#DejaVuSans-64" x="481.654297"/>
     <use xlink:href="#DejaVuSans-61" x="545.130859"/>
     <use xlink:href="#DejaVuSans-70" x="606.410156"/>
     <use xlink:href="#DejaVuSans-74" x="669.886719"/>
     <use xlink:href="#DejaVuSans-65" x="709.095703"/>
     <use xlink:href="#DejaVuSans-72" x="770.619141"/>
     <use xlink:href="#DejaVuSans-20" x="811.732422"/>
     <use xlink:href="#DejaVuSans-43" x="843.519531"/>
     <use xlink:href="#DejaVuSans-6f" x="913.34375"/>
     <use xlink:href="#DejaVuSans-6e" x="974.525391"/>
     <use xlink:href="#DejaVuSans-74" x="1037.904297"/>
     <use xlink:href="#DejaVuSans-65" x="1077.113281"/>
     <use xlink:href="#DejaVuSans-6e" x="1138.636719"/>
     <use xlink:href="#DejaVuSans-74" x="1202.015625"/>
    </g>
   </g>
   <g id="legend_1">
    <g id="line2d_16">
     <path d="M 45.258125 303.490394 
L 53.258125 303.490394 
L 61.258125 303.490394 
" style="fill: none; stroke: #7cb5ec; stroke-linecap: square"/>
    </g>
    <g id="text_17">
     <!-- OSMOTIC_STRESS_T0_REP1_T1_1 - nextera_transposase_sequence -->
     <g transform="translate(67.658125 306.290394)scale(0.08 -0.08)">
      <defs>
       <path id="DejaVuSans-4f" d="M 2522 4238 
Q 1834 4238 1429 3725 
Q 1025 3213 1025 2328 
Q 1025 1447 1429 934 
Q 1834 422 2522 422 
Q 3209 422 3611 934 
Q 4013 1447 4013 2328 
Q 4013 3213 3611 3725 
Q 3209 4238 2522 4238 
z
M 2522 4750 
Q 3503 4750 4090 4092 
Q 4678 3434 4678 2328 
Q 4678 1225 4090 567 
Q 3503 -91 2522 -91 
Q 1538 -91 948 565 
Q 359 1222 359 2328 
Q 359 3434 948 4092 
Q 1538 4750 2522 4750 
z
" transform="scale(0.015625)"/>
       <path id="DejaVuSans-4d" d="M 628 4666 
L 1569 4666 
L 2759 1491 
L 3956 4666 
L 4897 4666 
L 4897 0 
L 4281 0 
L 4281 4097 
L 3078 897 
L 2444 897 
L 1241 4097 
L 1241 0 
L 628 0 
L 628 4666 
z
" transform="scale(0.015625)"/>
       <path id="DejaVuSans-54" d="M -19 4666 
L 3928 4666 
L 3928 4134 
L 2272 4134 
L 2272 0 
L 1638 0 
L 1638 4134 
L -19 4134 
L -19 4666 
z
" transform="scale(0.015625)"/>
       <path id="DejaVuSans-49" d="M 628 4666 
L 1259 4666 
L 1259 0 
L 628 0 
L 628 4666 
z
" transform="scale(0.015625)"/>
       <path id="DejaVuSans-5f" d="M 3263 -1063 
L 3263 -1509 
L -63 -1509 
L -63 -1063 
L 3263 -1063 
z
" transform="scale(0.015625)"/>
       <path id="DejaVuSans-52" d="M 2841 2188 
Q 3044 2119 3236 1894 
Q 3428 1669 3622 1275 
L 4263 0 
L 3584 0 
L 2988 1197 
Q 2756 1666 2539 1819 
Q 2322 1972 1947 1972 
L 1259 1972 
L 1259 0 
L 628 0 
L 628 4666 
L 2053 4666 
Q 2853 4666 3247 4331 
Q 3641 3997 3641 3322 
Q 3641 2881 3436 2590 
Q 3231 2300 2841 2188 
z
M 1259 4147 
L 1259 2491 
L 2053 2491 
Q 2509 2491 2742 2702 
Q 2975 2913 2975 3322 
Q 2975 3731 2742 3939 
Q 2509 4147 2053 4147 
L 1259 4147 
z
" transform="scale(0.015625)"/>
       <path id="DejaVuSans-45" d="M 628 4666 
L 3578 4666 
L 3578 4134 
L 1259 4134 
L 1259 2753 
L 3481 2753 
L 3481 2222 
L 1259 2222 
L 1259 531 
L 3634 531 
L 3634 0 
L 628 0 
L 628 4666 
z
" transform="scale(0.015625)"/>
       <path id="DejaVuSans-2d" d="M 313 2009 
L 1997 2009 
L 1997 1497 
L 313 1497 
L 313 2009 
z
" transform="scale(0.015625)"/>
       <path id="DejaVuSans-78" d="M 3513 3500 
L 2247 1797 
L 3578 0 
L 2900 0 
L 1881 1375 
L 863 0 
L 184 0 
L 1544 1831 
L 300 3500 
L 978 3500 
L 1906 2253 
L 2834 3500 
L 3513 3500 
z
" transform="scale(0.015625)"/>
      </defs>
      <use xlink:href="#DejaVuSans-4f"/>
      <use xlink:href="#DejaVuSans-53" x="78.710938"/>
      <use xlink:href="#DejaVuSans-4d" x="142.1875"/>
      <use xlink:href="#DejaVuSans-4f" x="228.466797"/>
      <use xlink:href="#DejaVuSans-54" x="307.177734"/>
      <use xlink:href="#DejaVuSans-49" x="368.261719"/>
      <use xlink:href="#DejaVuSans-43" x="397.753906"/>
      <use xlink:href="#DejaVuSans-5f" x="467.578125"/>
      <use xlink:href="#DejaVuSans-53" x="517.578125"/>
      <use xlink:href="#DejaVuSans-54" x="581.054688"/>
      <use xlink:href="#DejaVuSans-52" x="642.138672"/>
      <use xlink:href="#DejaVuSans-45" x="711.621094"/>
      <use xlink:href="#DejaVuSans-53" x="774.804688"/>
      <use xlink:href="#DejaVuSans-53" x="838.28125"/>
      <use xlink:href="#DejaVuSans-5f" x="901.757812"/>
      <use xlink:href="#DejaVuSans-54" x="951.757812"/>
      <use xlink:href="#DejaVuSans-30" x="1012.841797"/>
      <use xlink:href="#DejaVuSans-5f" x="1076.464844"/>
      <use xlink:href="#DejaVuSans-52" x="1126.464844"/>
      <use xlink:href="#DejaVuSans-45" x="1195.947266"/>
      <use xlink:href="#DejaVuSans-50" x="1259.130859"/>
      <use xlink:href="#DejaVuSans-31" x="1319.433594"/>
      <use xlink:href="#DejaVuSans-5f" x="1383.056641"/>
      <use xlink:href="#DejaVuSans-54" x="1433.056641"/>
      <use xlink:href="#DejaVuSans-31" x="1494.140625"/>
      <use xlink:href="#DejaVuSans-5f" x="1557.763672"/>
      <use xlink:href="#DejaVuSans-31" x="1607.763672"/>
      <use xlink:href="#DejaVuSans-20" x="1671.386719"/>
      <use xlink:href="#DejaVuSans-2d" x="1703.173828"/>
      <use xlink:href="#DejaVuSans-20" x="1739.257812"/>
      <use xlink:href="#DejaVuSans-6e" x="1771.044922"/>
      <use xlink:href="#DejaVuSans-65" x="1834.423828"/>
      <use xlink:href="#DejaVuSans-78" x="1894.197266"/>
      <use xlink:href="#DejaVuSans-74" x="1953.376953"/>
      <use xlink:href="#DejaVuSans-65" x="1992.585938"/>
      <use xlink:href="#DejaVuSans-72" x="2054.109375"/>
      <use xlink:href="#DejaVuSans-61" x="2095.222656"/>
      <use xlink:href="#DejaVuSans-5f" x="2156.501953"/>
      <use xlink:href="#DejaVuSans-74" x="2206.501953"/>
      <use xlink:href="#DejaVuSans-72" x="2245.710938"/>
      <use xlink:href="#DejaVuSans-61" x="2286.824219"/>
      <use xlink:href="#DejaVuSans-6e" x="2348.103516"/>
      <use xlink:href="#DejaVuSans-73" x="2411.482422"/>
      <use xlink:href="#DejaVuSans-70" x="2463.582031"/>
      <use xlink:href="#DejaVuSans-6f" x="2527.058594"/>
      <use xlink:href="#DejaVuSans-73" x="2588.240234"/>
      <use xlink:href="#DejaVuSans-61" x="2640.339844"/>
      <use xlink:href="#DejaVuSans-73" x="2701.619141"/>
      <use xlink:href="#DejaVuSans-65" x="2753.71875"/>
      <use xlink:href="#DejaVuSans-5f" x="2815.242188"/>
      <use xlink:href="#DejaVuSans-73" x="2865.242188"/>
      <use xlink:href="#DejaVuSans-65" x="2917.341797"/>
      <use xlink:href="#DejaVuSans-71" x="2978.865234"/>
      <use xlink:href="#DejaVuSans-75" x="3042.341797"/>
      <use xlink:href="#DejaVuSans-65" x="3105.720703"/>
      <use xlink:href="#DejaVuSans-6e" x="3167.244141"/>
      <use xlink:href="#DejaVuSans-63" x="3230.623047"/>
      <use xlink:href="#DejaVuSans-65" x="3285.603516"/>
     </g>
    </g>
    <g id="line2d_17">
     <path d="M 45.258125 315.455394 
L 53.258125 315.455394 
L 61.258125 315.455394 
" style="fill: none; stroke: #434348; stroke-linecap: square"/>
    </g>
    <g id="text_18">
     <!-- OSMOTIC_STRESS_T0_REP1_T1_2 - nextera_transposase_sequence -->
     <g transform="translate(67.658125 318.255394)scale(0.08 -0.08)">
      <use xlink:href="#DejaVuSans-4f"/>
      <use xlink:href="#DejaVuSans-53" x="78.710938"/>
      <use xlink:href="#DejaVuSans-4d" x="142.1875"/>
      <use xlink:href="#DejaVuSans-4f" x="228.466797"/>
      <use xlink:href="#DejaVuSans-54" x="307.177734"/>
      <use xlink:href="#DejaVuSans-49" x="368.261719"/>
      <use xlink:href="#DejaVuSans-43" x="397.753906"/>
      <use xlink:href="#DejaVuSans-5f" x="467.578125"/>
      <use xlink:href="#DejaVuSans-53" x="517.578125"/>
      <use xlink:href="#DejaVuSans-54" x="581.054688"/>
      <use xlink:href="#DejaVuSans-52" x="642.138672"/>
      <use xlink:href="#DejaVuSans-45" x="711.621094"/>
      <use xlink:href="#DejaVuSans-53" x="774.804688"/>
      <use xlink:href="#DejaVuSans-53" x="838.28125"/>
      <use xlink:href="#DejaVuSans-5f" x="901.757812"/>
      <use xlink:href="#DejaVuSans-54" x="951.757812"/>
      <use xlink:href="#DejaVuSans-30" x="1012.841797"/>
      <use xlink:href="#DejaVuSans-5f" x="1076.464844"/>
      <use xlink:href="#DejaVuSans-52" x="1126.464844"/>
      <use xlink:href="#DejaVuSans-45" x="1195.947266"/>
      <use xlink:href="#DejaVuSans-50" x="1259.130859"/>
      <use xlink:href="#DejaVuSans-31" x="1319.433594"/>
      <use xlink:href="#DejaVuSans-5f" x="1383.056641"/>
      <use xlink:href="#DejaVuSans-54" x="1433.056641"/>
      <use xlink:href="#DejaVuSans-31" x="1494.140625"/>
      <use xlink:href="#DejaVuSans-5f" x="1557.763672"/>
      <use xlink:href="#DejaVuSans-32" x="1607.763672"/>
      <use xlink:href="#DejaVuSans-20" x="1671.386719"/>
      <use xlink:href="#DejaVuSans-2d" x="1703.173828"/>
      <use xlink:href="#DejaVuSans-20" x="1739.257812"/>
      <use xlink:href="#DejaVuSans-6e" x="1771.044922"/>
      <use xlink:href="#DejaVuSans-65" x="1834.423828"/>
      <use xlink:href="#DejaVuSans-78" x="1894.197266"/>
      <use xlink:href="#DejaVuSans-74" x="1953.376953"/>
      <use xlink:href="#DejaVuSans-65" x="1992.585938"/>
      <use xlink:href="#DejaVuSans-72" x="2054.109375"/>
      <use xlink:href="#DejaVuSans-61" x="2095.222656"/>
      <use xlink:href="#DejaVuSans-5f" x="2156.501953"/>
      <use xlink:href="#DejaVuSans-74" x="2206.501953"/>
      <use xlink:href="#DejaVuSans-72" x="2245.710938"/>
      <use xlink:href="#DejaVuSans-61" x="2286.824219"/>
      <use xlink:href="#DejaVuSans-6e" x="2348.103516"/>
      <use xlink:href="#DejaVuSans-73" x="2411.482422"/>
      <use xlink:href="#DejaVuSans-70" x="2463.582031"/>
      <use xlink:href="#DejaVuSans-6f" x="2527.058594"/>
      <use xlink:href="#DejaVuSans-73" x="2588.240234"/>
      <use xlink:href="#DejaVuSans-61" x="2640.339844"/>
      <use xlink:href="#DejaVuSans-73" x="2701.619141"/>
      <use xlink:href="#DejaVuSans-65" x="2753.71875"/>
      <use xlink:href="#DejaVuSans-5f" x="2815.242188"/>
      <use xlink:href="#DejaVuSans-73" x="2865.242188"/>
      <use xlink:href="#DejaVuSans-65" x="2917.341797"/>
      <use xlink:href="#DejaVuSans-71" x="2978.865234"/>
      <use xlink:href="#DejaVuSans-75" x="3042.341797"/>
      <use xlink:href="#DejaVuSans-65" x="3105.720703"/>
      <use xlink:href="#DejaVuSans-6e" x="3167.244141"/>
      <use xlink:href="#DejaVuSans-63" x="3230.623047"/>
      <use xlink:href="#DejaVuSans-65" x="3285.603516"/>
     </g>
    </g>
    <g id="line2d_18">
     <path d="M 204.061875 303.490394 
L 212.061875 303.490394 
L 220.061875 303.490394 
" style="fill: none; stroke: #90ed7d; stroke-linecap: square"/>
    </g>
    <g id="text_19">
     <!-- OSMOTIC_STRESS_T0_REP2_T1_1 - nextera_transposase_sequence -->
     <g transform="translate(226.461875 306.290394)scale(0.08 -0.08)">
      <use xlink:href="#DejaVuSans-4f"/>
      <use xlink:href="#DejaVuSans-53" x="78.710938"/>
      <use xlink:href="#DejaVuSans-4d" x="142.1875"/>
      <use xlink:href="#DejaVuSans-4f" x="228.466797"/>
      <use xlink:href="#DejaVuSans-54" x="307.177734"/>
      <use xlink:href="#DejaVuSans-49" x="368.261719"/>
      <use xlink:href="#DejaVuSans-43" x="397.753906"/>
      <use xlink:href="#DejaVuSans-5f" x="467.578125"/>
      <use xlink:href="#DejaVuSans-53" x="517.578125"/>
      <use xlink:href="#DejaVuSans-54" x="581.054688"/>
      <use xlink:href="#DejaVuSans-52" x="642.138672"/>
      <use xlink:href="#DejaVuSans-45" x="711.621094"/>
      <use xlink:href="#DejaVuSans-53" x="774.804688"/>
      <use xlink:href="#DejaVuSans-53" x="838.28125"/>
      <use xlink:href="#DejaVuSans-5f" x="901.757812"/>
      <use xlink:href="#DejaVuSans-54" x="951.757812"/>
      <use xlink:href="#DejaVuSans-30" x="1012.841797"/>
      <use xlink:href="#DejaVuSans-5f" x="1076.464844"/>
      <use xlink:href="#DejaVuSans-52" x="1126.464844"/>
      <use xlink:href="#DejaVuSans-45" x="1195.947266"/>
      <use xlink:href="#DejaVuSans-50" x="1259.130859"/>
      <use xlink:href="#DejaVuSans-32" x="1319.433594"/>
      <use xlink:href="#DejaVuSans-5f" x="1383.056641"/>
      <use xlink:href="#DejaVuSans-54" x="1433.056641"/>
      <use xlink:href="#DejaVuSans-31" x="1494.140625"/>
      <use xlink:href="#DejaVuSans-5f" x="1557.763672"/>
      <use xlink:href="#DejaVuSans-31" x="1607.763672"/>
      <use xlink:href="#DejaVuSans-20" x="1671.386719"/>
      <use xlink:href="#DejaVuSans-2d" x="1703.173828"/>
      <use xlink:href="#DejaVuSans-20" x="1739.257812"/>
      <use xlink:href="#DejaVuSans-6e" x="1771.044922"/>
      <use xlink:href="#DejaVuSans-65" x="1834.423828"/>
      <use xlink:href="#DejaVuSans-78" x="1894.197266"/>
      <use xlink:href="#DejaVuSans-74" x="1953.376953"/>
      <use xlink:href="#DejaVuSans-65" x="1992.585938"/>
      <use xlink:href="#DejaVuSans-72" x="2054.109375"/>
      <use xlink:href="#DejaVuSans-61" x="2095.222656"/>
      <use xlink:href="#DejaVuSans-5f" x="2156.501953"/>
      <use xlink:href="#DejaVuSans-74" x="2206.501953"/>
      <use xlink:href="#DejaVuSans-72" x="2245.710938"/>
      <use xlink:href="#DejaVuSans-61" x="2286.824219"/>
      <use xlink:href="#DejaVuSans-6e" x="2348.103516"/>
      <use xlink:href="#DejaVuSans-73" x="2411.482422"/>
      <use xlink:href="#DejaVuSans-70" x="2463.582031"/>
      <use xlink:href="#DejaVuSans-6f" x="2527.058594"/>
      <use xlink:href="#DejaVuSans-73" x="2588.240234"/>
      <use xlink:href="#DejaVuSans-61" x="2640.339844"/>
      <use xlink:href="#DejaVuSans-73" x="2701.619141"/>
      <use xlink:href="#DejaVuSans-65" x="2753.71875"/>
      <use xlink:href="#DejaVuSans-5f" x="2815.242188"/>
      <use xlink:href="#DejaVuSans-73" x="2865.242188"/>
      <use xlink:href="#DejaVuSans-65" x="2917.341797"/>
      <use xlink:href="#DejaVuSans-71" x="2978.865234"/>
      <use xlink:href="#DejaVuSans-75" x="3042.341797"/>
      <use xlink:href="#DejaVuSans-65" x="3105.720703"/>
      <use xlink:href="#DejaVuSans-6e" x="3167.244141"/>
      <use xlink:href="#DejaVuSans-63" x="3230.623047"/>
      <use xlink:href="#DejaVuSans-65" x="3285.603516"/>
     </g>
    </g>
    <g id="line2d_19">
     <path d="M 204.061875 315.455394 
L 212.061875 315.455394 
L 220.061875 315.455394 
" style="fill: none; stroke: #f7a35c; stroke-linecap: square"/>
    </g>
    <g id="text_20">
     <!-- OSMOTIC_STRESS_T0_REP2_T1_2 - nextera_transposase_sequence -->
     <g transform="translate(226.461875 318.255394)scale(0.08 -0.08)">
      <use xlink:href="#DejaVuSans-4f"/>
      <use xlink:href="#DejaVuSans-53" x="78.710938"/>
      <use xlink:href="#DejaVuSans-4d" x="142.1875"/>
      <use xlink:href="#DejaVuSans-4f" x="228.466797"/>
      <use xlink:href="#DejaVuSans-54" x="307.177734"/>
      <use xlink:href="#DejaVuSans-49" x="368.261719"/>
      <use xlink:href="#DejaVuSans-43" x="397.753906"/>
      <use xlink:href="#DejaVuSans-5f" x="467.578125"/>
      <use xlink:href="#DejaVuSans-53" x="517.578125"/>
      <use xlink:href="#DejaVuSans-54" x="581.054688"/>
      <use xlink:href="#DejaVuSans-52" x="642.138672"/>
      <use xlink:href="#DejaVuSans-45" x="711.621094"/>
      <use xlink:href="#DejaVuSans-53" x="774.804688"/>
      <use xlink:href="#DejaVuSans-53" x="838.28125"/>
      <use xlink:href="#DejaVuSans-5f" x="901.757812"/>
      <use xlink:href="#DejaVuSans-54" x="951.757812"/>
      <use xlink:href="#DejaVuSans-30" x="1012.841797"/>
      <use xlink:href="#DejaVuSans-5f" x="1076.464844"/>
      <use xlink:href="#DejaVuSans-52" x="1126.464844"/>
      <use xlink:href="#DejaVuSans-45" x="1195.947266"/>
      <use xlink:href="#DejaVuSans-50" x="1259.130859"/>
      <use xlink:href="#DejaVuSans-32" x="1319.433594"/>
      <use xlink:href="#DejaVuSans-5f" x="1383.056641"/>
      <use xlink:href="#DejaVuSans-54" x="1433.056641"/>
      <use xlink:href="#DejaVuSans-31" x="1494.140625"/>
      <use xlink:href="#DejaVuSans-5f" x="1557.763672"/>
      <use xlink:href="#DejaVuSans-32" x="1607.763672"/>
      <use xlink:href="#DejaVuSans-20" x="1671.386719"/>
      <use xlink:href="#DejaVuSans-2d" x="1703.173828"/>
      <use xlink:href="#DejaVuSans-20" x="1739.257812"/>
      <use xlink:href="#DejaVuSans-6e" x="1771.044922"/>
      <use xlink:href="#DejaVuSans-65" x="1834.423828"/>
      <use xlink:href="#DejaVuSans-78" x="1894.197266"/>
      <use xlink:href="#DejaVuSans-74" x="1953.376953"/>
      <use xlink:href="#DejaVuSans-65" x="1992.585938"/>
      <use xlink:href="#DejaVuSans-72" x="2054.109375"/>
      <use xlink:href="#DejaVuSans-61" x="2095.222656"/>
      <use xlink:href="#DejaVuSans-5f" x="2156.501953"/>
      <use xlink:href="#DejaVuSans-74" x="2206.501953"/>
      <use xlink:href="#DejaVuSans-72" x="2245.710938"/>
      <use xlink:href="#DejaVuSans-61" x="2286.824219"/>
      <use xlink:href="#DejaVuSans-6e" x="2348.103516"/>
      <use xlink:href="#DejaVuSans-73" x="2411.482422"/>
      <use xlink:href="#DejaVuSans-70" x="2463.582031"/>
      <use xlink:href="#DejaVuSans-6f" x="2527.058594"/>
      <use xlink:href="#DejaVuSans-73" x="2588.240234"/>
      <use xlink:href="#DejaVuSans-61" x="2640.339844"/>
      <use xlink:href="#DejaVuSans-73" x="2701.619141"/>
      <use xlink:href="#DejaVuSans-65" x="2753.71875"/>
      <use xlink:href="#DejaVuSans-5f" x="2815.242188"/>
      <use xlink:href="#DejaVuSans-73" x="2865.242188"/>
      <use xlink:href="#DejaVuSans-65" x="2917.341797"/>
      <use xlink:href="#DejaVuSans-71" x="2978.865234"/>
      <use xlink:href="#DejaVuSans-75" x="3042.341797"/>
      <use xlink:href="#DejaVuSans-65" x="3105.720703"/>
      <use xlink:href="#DejaVuSans-6e" x="3167.244141"/>
      <use xlink:href="#DejaVuSans-63" x="3230.623047"/>
      <use xlink:href="#DejaVuSans-65" x="3285.603516"/>
     </g>
    </g>
    <g id="line2d_20">
     <path d="M 362.865625 303.490394 
L 370.865625 303.490394 
L 378.865625 303.490394 
" style="fill: none; stroke: #8085e9; stroke-linecap: square"/>
    </g>
    <g id="text_21">
     <!-- OSMOTIC_STRESS_T15_REP1_T1_1 - nextera_transposase_sequence -->
     <g transform="translate(385.265625 306.290394)scale(0.08 -0.08)">
      <use xlink:href="#DejaVuSans-4f"/>
      <use xlink:href="#DejaVuSans-53" x="78.710938"/>
      <use xlink:href="#DejaVuSans-4d" x="142.1875"/>
      <use xlink:href="#DejaVuSans-4f" x="228.466797"/>
      <use xlink:href="#DejaVuSans-54" x="307.177734"/>
      <use xlink:href="#DejaVuSans-49" x="368.261719"/>
      <use xlink:href="#DejaVuSans-43" x="397.753906"/>
      <use xlink:href="#DejaVuSans-5f" x="467.578125"/>
      <use xlink:href="#DejaVuSans-53" x="517.578125"/>
      <use xlink:href="#DejaVuSans-54" x="581.054688"/>
      <use xlink:href="#DejaVuSans-52" x="642.138672"/>
      <use xlink:href="#DejaVuSans-45" x="711.621094"/>
      <use xlink:href="#DejaVuSans-53" x="774.804688"/>
      <use xlink:href="#DejaVuSans-53" x="838.28125"/>
      <use xlink:href="#DejaVuSans-5f" x="901.757812"/>
      <use xlink:href="#DejaVuSans-54" x="951.757812"/>
      <use xlink:href="#DejaVuSans-31" x="1012.841797"/>
      <use xlink:href="#DejaVuSans-35" x="1076.464844"/>
      <use xlink:href="#DejaVuSans-5f" x="1140.087891"/>
      <use xlink:href="#DejaVuSans-52" x="1190.087891"/>
      <use xlink:href="#DejaVuSans-45" x="1259.570312"/>
      <use xlink:href="#DejaVuSans-50" x="1322.753906"/>
      <use xlink:href="#DejaVuSans-31" x="1383.056641"/>
      <use xlink:href="#DejaVuSans-5f" x="1446.679688"/>
      <use xlink:href="#DejaVuSans-54" x="1496.679688"/>
      <use xlink:href="#DejaVuSans-31" x="1557.763672"/>
      <use xlink:href="#DejaVuSans-5f" x="1621.386719"/>
      <use xlink:href="#DejaVuSans-31" x="1671.386719"/>
      <use xlink:href="#DejaVuSans-20" x="1735.009766"/>
      <use xlink:href="#DejaVuSans-2d" x="1766.796875"/>
      <use xlink:href="#DejaVuSans-20" x="1802.880859"/>
      <use xlink:href="#DejaVuSans-6e" x="1834.667969"/>
      <use xlink:href="#DejaVuSans-65" x="1898.046875"/>
      <use xlink:href="#DejaVuSans-78" x="1957.820312"/>
      <use xlink:href="#DejaVuSans-74" x="2017"/>
      <use xlink:href="#DejaVuSans-65" x="2056.208984"/>
      <use xlink:href="#DejaVuSans-72" x="2117.732422"/>
      <use xlink:href="#DejaVuSans-61" x="2158.845703"/>
      <use xlink:href="#DejaVuSans-5f" x="2220.125"/>
      <use xlink:href="#DejaVuSans-74" x="2270.125"/>
      <use xlink:href="#DejaVuSans-72" x="2309.333984"/>
      <use xlink:href="#DejaVuSans-61" x="2350.447266"/>
      <use xlink:href="#DejaVuSans-6e" x="2411.726562"/>
      <use xlink:href="#DejaVuSans-73" x="2475.105469"/>
      <use xlink:href="#DejaVuSans-70" x="2527.205078"/>
      <use xlink:href="#DejaVuSans-6f" x="2590.681641"/>
      <use xlink:href="#DejaVuSans-73" x="2651.863281"/>
      <use xlink:href="#DejaVuSans-61" x="2703.962891"/>
      <use xlink:href="#DejaVuSans-73" x="2765.242188"/>
      <use xlink:href="#DejaVuSans-65" x="2817.341797"/>
      <use xlink:href="#DejaVuSans-5f" x="2878.865234"/>
      <use xlink:href="#DejaVuSans-73" x="2928.865234"/>
      <use xlink:href="#DejaVuSans-65" x="2980.964844"/>
      <use xlink:href="#DejaVuSans-71" x="3042.488281"/>
      <use xlink:href="#DejaVuSans-75" x="3105.964844"/>
      <use xlink:href="#DejaVuSans-65" x="3169.34375"/>
      <use xlink:href="#DejaVuSans-6e" x="3230.867188"/>
      <use xlink:href="#DejaVuSans-63" x="3294.246094"/>
      <use xlink:href="#DejaVuSans-65" x="3349.226562"/>
     </g>
    </g>
    <g id="line2d_21">
     <path d="M 362.865625 315.455394 
L 370.865625 315.455394 
L 378.865625 315.455394 
" style="fill: none; stroke: #f15c80; stroke-linecap: square"/>
    </g>
    <g id="text_22">
     <!-- OSMOTIC_STRESS_T15_REP1_T1_2 - nextera_transposase_sequence -->
     <g transform="translate(385.265625 318.255394)scale(0.08 -0.08)">
      <use xlink:href="#DejaVuSans-4f"/>
      <use xlink:href="#DejaVuSans-53" x="78.710938"/>
      <use xlink:href="#DejaVuSans-4d" x="142.1875"/>
      <use xlink:href="#DejaVuSans-4f" x="228.466797"/>
      <use xlink:href="#DejaVuSans-54" x="307.177734"/>
      <use xlink:href="#DejaVuSans-49" x="368.261719"/>
      <use xlink:href="#DejaVuSans-43" x="397.753906"/>
      <use xlink:href="#DejaVuSans-5f" x="467.578125"/>
      <use xlink:href="#DejaVuSans-53" x="517.578125"/>
      <use xlink:href="#DejaVuSans-54" x="581.054688"/>
      <use xlink:href="#DejaVuSans-52" x="642.138672"/>
      <use xlink:href="#DejaVuSans-45" x="711.621094"/>
      <use xlink:href="#DejaVuSans-53" x="774.804688"/>
      <use xlink:href="#DejaVuSans-53" x="838.28125"/>
      <use xlink:href="#DejaVuSans-5f" x="901.757812"/>
      <use xlink:href="#DejaVuSans-54" x="951.757812"/>
      <use xlink:href="#DejaVuSans-31" x="1012.841797"/>
      <use xlink:href="#DejaVuSans-35" x="1076.464844"/>
      <use xlink:href="#DejaVuSans-5f" x="1140.087891"/>
      <use xlink:href="#DejaVuSans-52" x="1190.087891"/>
      <use xlink:href="#DejaVuSans-45" x="1259.570312"/>
      <use xlink:href="#DejaVuSans-50" x="1322.753906"/>
      <use xlink:href="#DejaVuSans-31" x="1383.056641"/>
      <use xlink:href="#DejaVuSans-5f" x="1446.679688"/>
      <use xlink:href="#DejaVuSans-54" x="1496.679688"/>
      <use xlink:href="#DejaVuSans-31" x="1557.763672"/>
      <use xlink:href="#DejaVuSans-5f" x="1621.386719"/>
      <use xlink:href="#DejaVuSans-32" x="1671.386719"/>
      <use xlink:href="#DejaVuSans-20" x="1735.009766"/>
      <use xlink:href="#DejaVuSans-2d" x="1766.796875"/>
      <use xlink:href="#DejaVuSans-20" x="1802.880859"/>
      <use xlink:href="#DejaVuSans-6e" x="1834.667969"/>
      <use xlink:href="#DejaVuSans-65" x="1898.046875"/>
      <use xlink:href="#DejaVuSans-78" x="1957.820312"/>
      <use xlink:href="#DejaVuSans-74" x="2017"/>
      <use xlink:href="#DejaVuSans-65" x="2056.208984"/>
      <use xlink:href="#DejaVuSans-72" x="2117.732422"/>
      <use xlink:href="#DejaVuSans-61" x="2158.845703"/>
      <use xlink:href="#DejaVuSans-5f" x="2220.125"/>
      <use xlink:href="#DejaVuSans-74" x="2270.125"/>
      <use xlink:href="#DejaVuSans-72" x="2309.333984"/>
      <use xlink:href="#DejaVuSans-61" x="2350.447266"/>
      <use xlink:href="#DejaVuSans-6e" x="2411.726562"/>
      <use xlink:href="#DejaVuSans-73" x="2475.105469"/>
      <use xlink:href="#DejaVuSans-70" x="2527.205078"/>
      <use xlink:href="#DejaVuSans-6f" x="2590.681641"/>
      <use xlink:href="#DejaVuSans-73" x="2651.863281"/>
      <use xlink:href="#DejaVuSans-61" x="2703.962891"/>
      <use xlink:href="#DejaVuSans-73" x="2765.242188"/>
      <use xlink:href="#DejaVuSans-65" x="2817.341797"/>
      <use xlink:href="#DejaVuSans-5f" x="2878.865234"/>
      <use xlink:href="#DejaVuSans-73" x="2928.865234"/>
      <use xlink:href="#DejaVuSans-65" x="2980.964844"/>
      <use xlink:href="#DejaVuSans-71" x="3042.488281"/>
      <use xlink:href="#DejaVuSans-75" x="3105.964844"/>
      <use xlink:href="#DejaVuSans-65" x="3169.34375"/>
      <use xlink:href="#DejaVuSans-6e" x="3230.867188"/>
      <use xlink:href="#DejaVuSans-63" x="3294.246094"/>
      <use xlink:href="#DejaVuSans-65" x="3349.226562"/>
     </g>
    </g>
    <g id="line2d_22">
     <path d="M 526.759375 303.490394 
L 534.759375 303.490394 
L 542.759375 303.490394 
" style="fill: none; stroke: #e4d354; stroke-linecap: square"/>
    </g>
    <g id="text_23">
     <!-- OSMOTIC_STRESS_T15_REP2_T1_1 - nextera_transposase_sequence -->
     <g transform="translate(549.159375 306.290394)scale(0.08 -0.08)">
      <use xlink:href="#DejaVuSans-4f"/>
      <use xlink:href="#DejaVuSans-53" x="78.710938"/>
      <use xlink:href="#DejaVuSans-4d" x="142.1875"/>
      <use xlink:href="#DejaVuSans-4f" x="228.466797"/>
      <use xlink:href="#DejaVuSans-54" x="307.177734"/>
      <use xlink:href="#DejaVuSans-49" x="368.261719"/>
      <use xlink:href="#DejaVuSans-43" x="397.753906"/>
      <use xlink:href="#DejaVuSans-5f" x="467.578125"/>
      <use xlink:href="#DejaVuSans-53" x="517.578125"/>
      <use xlink:href="#DejaVuSans-54" x="581.054688"/>
      <use xlink:href="#DejaVuSans-52" x="642.138672"/>
      <use xlink:href="#DejaVuSans-45" x="711.621094"/>
      <use xlink:href="#DejaVuSans-53" x="774.804688"/>
      <use xlink:href="#DejaVuSans-53" x="838.28125"/>
      <use xlink:href="#DejaVuSans-5f" x="901.757812"/>
      <use xlink:href="#DejaVuSans-54" x="951.757812"/>
      <use xlink:href="#DejaVuSans-31" x="1012.841797"/>
      <use xlink:href="#DejaVuSans-35" x="1076.464844"/>
      <use xlink:href="#DejaVuSans-5f" x="1140.087891"/>
      <use xlink:href="#DejaVuSans-52" x="1190.087891"/>
      <use xlink:href="#DejaVuSans-45" x="1259.570312"/>
      <use xlink:href="#DejaVuSans-50" x="1322.753906"/>
      <use xlink:href="#DejaVuSans-32" x="1383.056641"/>
      <use xlink:href="#DejaVuSans-5f" x="1446.679688"/>
      <use xlink:href="#DejaVuSans-54" x="1496.679688"/>
      <use xlink:href="#DejaVuSans-31" x="1557.763672"/>
      <use xlink:href="#DejaVuSans-5f" x="1621.386719"/>
      <use xlink:href="#DejaVuSans-31" x="1671.386719"/>
      <use xlink:href="#DejaVuSans-20" x="1735.009766"/>
      <use xlink:href="#DejaVuSans-2d" x="1766.796875"/>
      <use xlink:href="#DejaVuSans-20" x="1802.880859"/>
      <use xlink:href="#DejaVuSans-6e" x="1834.667969"/>
      <use xlink:href="#DejaVuSans-65" x="1898.046875"/>
      <use xlink:href="#DejaVuSans-78" x="1957.820312"/>
      <use xlink:href="#DejaVuSans-74" x="2017"/>
      <use xlink:href="#DejaVuSans-65" x="2056.208984"/>
      <use xlink:href="#DejaVuSans-72" x="2117.732422"/>
      <use xlink:href="#DejaVuSans-61" x="2158.845703"/>
      <use xlink:href="#DejaVuSans-5f" x="2220.125"/>
      <use xlink:href="#DejaVuSans-74" x="2270.125"/>
      <use xlink:href="#DejaVuSans-72" x="2309.333984"/>
      <use xlink:href="#DejaVuSans-61" x="2350.447266"/>
      <use xlink:href="#DejaVuSans-6e" x="2411.726562"/>
      <use xlink:href="#DejaVuSans-73" x="2475.105469"/>
      <use xlink:href="#DejaVuSans-70" x="2527.205078"/>
      <use xlink:href="#DejaVuSans-6f" x="2590.681641"/>
      <use xlink:href="#DejaVuSans-73" x="2651.863281"/>
      <use xlink:href="#DejaVuSans-61" x="2703.962891"/>
      <use xlink:href="#DejaVuSans-73" x="2765.242188"/>
      <use xlink:href="#DejaVuSans-65" x="2817.341797"/>
      <use xlink:href="#DejaVuSans-5f" x="2878.865234"/>
      <use xlink:href="#DejaVuSans-73" x="2928.865234"/>
      <use xlink:href="#DejaVuSans-65" x="2980.964844"/>
      <use xlink:href="#DejaVuSans-71" x="3042.488281"/>
      <use xlink:href="#DejaVuSans-75" x="3105.964844"/>
      <use xlink:href="#DejaVuSans-65" x="3169.34375"/>
      <use xlink:href="#DejaVuSans-6e" x="3230.867188"/>
      <use xlink:href="#DejaVuSans-63" x="3294.246094"/>
      <use xlink:href="#DejaVuSans-65" x="3349.226562"/>
     </g>
    </g>
    <g id="line2d_23">
     <path d="M 690.653125 303.490394 
L 698.653125 303.490394 
L 706.653125 303.490394 
" style="fill: none; stroke: #2b908f; stroke-linecap: square"/>
    </g>
    <g id="text_24">
     <!-- OSMOTIC_STRESS_T15_REP2_T1_2 - nextera_transposase_sequence -->
     <g transform="translate(713.053125 306.290394)scale(0.08 -0.08)">
      <use xlink:href="#DejaVuSans-4f"/>
      <use xlink:href="#DejaVuSans-53" x="78.710938"/>
      <use xlink:href="#DejaVuSans-4d" x="142.1875"/>
      <use xlink:href="#DejaVuSans-4f" x="228.466797"/>
      <use xlink:href="#DejaVuSans-54" x="307.177734"/>
      <use xlink:href="#DejaVuSans-49" x="368.261719"/>
      <use xlink:href="#DejaVuSans-43" x="397.753906"/>
      <use xlink:href="#DejaVuSans-5f" x="467.578125"/>
      <use xlink:href="#DejaVuSans-53" x="517.578125"/>
      <use xlink:href="#DejaVuSans-54" x="581.054688"/>
      <use xlink:href="#DejaVuSans-52" x="642.138672"/>
      <use xlink:href="#DejaVuSans-45" x="711.621094"/>
      <use xlink:href="#DejaVuSans-53" x="774.804688"/>
      <use xlink:href="#DejaVuSans-53" x="838.28125"/>
      <use xlink:href="#DejaVuSans-5f" x="901.757812"/>
      <use xlink:href="#DejaVuSans-54" x="951.757812"/>
      <use xlink:href="#DejaVuSans-31" x="1012.841797"/>
      <use xlink:href="#DejaVuSans-35" x="1076.464844"/>
      <use xlink:href="#DejaVuSans-5f" x="1140.087891"/>
      <use xlink:href="#DejaVuSans-52" x="1190.087891"/>
      <use xlink:href="#DejaVuSans-45" x="1259.570312"/>
      <use xlink:href="#DejaVuSans-50" x="1322.753906"/>
      <use xlink:href="#DejaVuSans-32" x="1383.056641"/>
      <use xlink:href="#DejaVuSans-5f" x="1446.679688"/>
      <use xlink:href="#DejaVuSans-54" x="1496.679688"/>
      <use xlink:href="#DejaVuSans-31" x="1557.763672"/>
      <use xlink:href="#DejaVuSans-5f" x="1621.386719"/>
      <use xlink:href="#DejaVuSans-32" x="1671.386719"/>
      <use xlink:href="#DejaVuSans-20" x="1735.009766"/>
      <use xlink:href="#DejaVuSans-2d" x="1766.796875"/>
      <use xlink:href="#DejaVuSans-20" x="1802.880859"/>
      <use xlink:href="#DejaVuSans-6e" x="1834.667969"/>
      <use xlink:href="#DejaVuSans-65" x="1898.046875"/>
      <use xlink:href="#DejaVuSans-78" x="1957.820312"/>
      <use xlink:href="#DejaVuSans-74" x="2017"/>
      <use xlink:href="#DejaVuSans-65" x="2056.208984"/>
      <use xlink:href="#DejaVuSans-72" x="2117.732422"/>
      <use xlink:href="#DejaVuSans-61" x="2158.845703"/>
      <use xlink:href="#DejaVuSans-5f" x="2220.125"/>
      <use xlink:href="#DejaVuSans-74" x="2270.125"/>
      <use xlink:href="#DejaVuSans-72" x="2309.333984"/>
      <use xlink:href="#DejaVuSans-61" x="2350.447266"/>
      <use xlink:href="#DejaVuSans-6e" x="2411.726562"/>
      <use xlink:href="#DejaVuSans-73" x="2475.105469"/>
      <use xlink:href="#DejaVuSans-70" x="2527.205078"/>
      <use xlink:href="#DejaVuSans-6f" x="2590.681641"/>
      <use xlink:href="#DejaVuSans-73" x="2651.863281"/>
      <use xlink:href="#DejaVuSans-61" x="2703.962891"/>
      <use xlink:href="#DejaVuSans-73" x="2765.242188"/>
      <use xlink:href="#DejaVuSans-65" x="2817.341797"/>
      <use xlink:href="#DejaVuSans-5f" x="2878.865234"/>
      <use xlink:href="#DejaVuSans-73" x="2928.865234"/>
      <use xlink:href="#DejaVuSans-65" x="2980.964844"/>
      <use xlink:href="#DejaVuSans-71" x="3042.488281"/>
      <use xlink:href="#DejaVuSans-75" x="3105.964844"/>
      <use xlink:href="#DejaVuSans-65" x="3169.34375"/>
      <use xlink:href="#DejaVuSans-6e" x="3230.867188"/>
      <use xlink:href="#DejaVuSans-63" x="3294.246094"/>
      <use xlink:href="#DejaVuSans-65" x="3349.226562"/>
     </g>
    </g>
   </g>
  </g>
 </g>
 <defs>
  <clipPath id="p05368e6168">
   <rect x="38.058125" y="31.48286" width="955.06" height="242.5072"/>
  </clipPath>
 </defs>
</svg>
