<?xml version="1.0" encoding="utf-8" standalone="no"?>
<!DOCTYPE svg PUBLIC "-//W3C//DTD SVG 1.1//EN"
  "http://www.w3.org/Graphics/SVG/1.1/DTD/svg11.dtd">
<svg xmlns:xlink="http://www.w3.org/1999/xlink" width="1000.298125pt" height="330.541644pt" viewBox="0 0 1000.298125 330.541644" xmlns="http://www.w3.org/2000/svg" version="1.1">
 <metadata>
  <rdf:RDF xmlns:dc="http://purl.org/dc/elements/1.1/" xmlns:cc="http://creativecommons.org/ns#" xmlns:rdf="http://www.w3.org/1999/02/22-rdf-syntax-ns#">
   <cc:Work>
    <dc:type rdf:resource="http://purl.org/dc/dcmitype/StillImage"/>
    <dc:date>2022-11-03T22:56:49.785376</dc:date>
    <dc:format>image/svg+xml</dc:format>
    <dc:creator>
     <cc:Agent>
      <dc:title>Matplotlib v3.5.2, https://matplotlib.org/</dc:title>
     </cc:Agent>
    </dc:creator>
   </cc:Work>
  </rdf:RDF>
 </metadata>
 <defs>
  <style type="text/css">*{stroke-linejoin: round; stroke-linecap: butt}</style>
 </defs>
 <g id="figure_1">
  <g id="axes_1">
   <g id="patch_1">
    <path d="M 32.968125 273.99006 
L 985.463125 273.99006 
L 985.463125 31.48286 
L 32.968125 31.48286 
z
" style="fill: #ffffff"/>
   </g>
   <g id="matplotlib.axis_1">
    <g id="xtick_1">
     <g id="text_1">
      <!-- 0 -->
      <g transform="translate(30.423125 287.06881)scale(0.08 -0.08)">
       <defs>
        <path id="DejaVuSans-30" d="M 2034 4250 
Q 1547 4250 1301 3770 
Q 1056 3291 1056 2328 
Q 1056 1369 1301 889 
Q 1547 409 2034 409 
Q 2525 409 2770 889 
Q 3016 1369 3016 2328 
Q 3016 3291 2770 3770 
Q 2525 4250 2034 4250 
z
M 2034 4750 
Q 2819 4750 3233 4129 
Q 3647 3509 3647 2328 
Q 3647 1150 3233 529 
Q 2819 -91 2034 -91 
Q 1250 -91 836 529 
Q 422 1150 422 2328 
Q 422 3509 836 4129 
Q 1250 4750 2034 4750 
z
" transform="scale(0.015625)"/>
       </defs>
       <use xlink:href="#DejaVuSans-30"/>
      </g>
     </g>
    </g>
    <g id="xtick_2">
     <g id="text_2">
      <!-- 20 -->
      <g transform="translate(218.377125 287.06881)scale(0.08 -0.08)">
       <defs>
        <path id="DejaVuSans-32" d="M 1228 531 
L 3431 531 
L 3431 0 
L 469 0 
L 469 531 
Q 828 903 1448 1529 
Q 2069 2156 2228 2338 
Q 2531 2678 2651 2914 
Q 2772 3150 2772 3378 
Q 2772 3750 2511 3984 
Q 2250 4219 1831 4219 
Q 1534 4219 1204 4116 
Q 875 4013 500 3803 
L 500 4441 
Q 881 4594 1212 4672 
Q 1544 4750 1819 4750 
Q 2544 4750 2975 4387 
Q 3406 4025 3406 3419 
Q 3406 3131 3298 2873 
Q 3191 2616 2906 2266 
Q 2828 2175 2409 1742 
Q 1991 1309 1228 531 
z
" transform="scale(0.015625)"/>
       </defs>
       <use xlink:href="#DejaVuSans-32"/>
       <use xlink:href="#DejaVuSans-30" x="63.623047"/>
      </g>
     </g>
    </g>
    <g id="xtick_3">
     <g id="text_3">
      <!-- 40 -->
      <g transform="translate(408.876125 287.06881)scale(0.08 -0.08)">
       <defs>
        <path id="DejaVuSans-34" d="M 2419 4116 
L 825 1625 
L 2419 1625 
L 2419 4116 
z
M 2253 4666 
L 3047 4666 
L 3047 1625 
L 3713 1625 
L 3713 1100 
L 3047 1100 
L 3047 0 
L 2419 0 
L 2419 1100 
L 313 1100 
L 313 1709 
L 2253 4666 
z
" transform="scale(0.015625)"/>
       </defs>
       <use xlink:href="#DejaVuSans-34"/>
       <use xlink:href="#DejaVuSans-30" x="63.623047"/>
      </g>
     </g>
    </g>
    <g id="xtick_4">
     <g id="text_4">
      <!-- 60 -->
      <g transform="translate(599.375125 287.06881)scale(0.08 -0.08)">
       <defs>
        <path id="DejaVuSans-36" d="M 2113 2584 
Q 1688 2584 1439 2293 
Q 1191 2003 1191 1497 
Q 1191 994 1439 701 
Q 1688 409 2113 409 
Q 2538 409 2786 701 
Q 3034 994 3034 1497 
Q 3034 2003 2786 2293 
Q 2538 2584 2113 2584 
z
M 3366 4563 
L 3366 3988 
Q 3128 4100 2886 4159 
Q 2644 4219 2406 4219 
Q 1781 4219 1451 3797 
Q 1122 3375 1075 2522 
Q 1259 2794 1537 2939 
Q 1816 3084 2150 3084 
Q 2853 3084 3261 2657 
Q 3669 2231 3669 1497 
Q 3669 778 3244 343 
Q 2819 -91 2113 -91 
Q 1303 -91 875 529 
Q 447 1150 447 2328 
Q 447 3434 972 4092 
Q 1497 4750 2381 4750 
Q 2619 4750 2861 4703 
Q 3103 4656 3366 4563 
z
" transform="scale(0.015625)"/>
       </defs>
       <use xlink:href="#DejaVuSans-36"/>
       <use xlink:href="#DejaVuSans-30" x="63.623047"/>
      </g>
     </g>
    </g>
    <g id="xtick_5">
     <g id="text_5">
      <!-- 80 -->
      <g transform="translate(789.874125 287.06881)scale(0.08 -0.08)">
       <defs>
        <path id="DejaVuSans-38" d="M 2034 2216 
Q 1584 2216 1326 1975 
Q 1069 1734 1069 1313 
Q 1069 891 1326 650 
Q 1584 409 2034 409 
Q 2484 409 2743 651 
Q 3003 894 3003 1313 
Q 3003 1734 2745 1975 
Q 2488 2216 2034 2216 
z
M 1403 2484 
Q 997 2584 770 2862 
Q 544 3141 544 3541 
Q 544 4100 942 4425 
Q 1341 4750 2034 4750 
Q 2731 4750 3128 4425 
Q 3525 4100 3525 3541 
Q 3525 3141 3298 2862 
Q 3072 2584 2669 2484 
Q 3125 2378 3379 2068 
Q 3634 1759 3634 1313 
Q 3634 634 3220 271 
Q 2806 -91 2034 -91 
Q 1263 -91 848 271 
Q 434 634 434 1313 
Q 434 1759 690 2068 
Q 947 2378 1403 2484 
z
M 1172 3481 
Q 1172 3119 1398 2916 
Q 1625 2713 2034 2713 
Q 2441 2713 2670 2916 
Q 2900 3119 2900 3481 
Q 2900 3844 2670 4047 
Q 2441 4250 2034 4250 
Q 1625 4250 1398 4047 
Q 1172 3844 1172 3481 
z
" transform="scale(0.015625)"/>
       </defs>
       <use xlink:href="#DejaVuSans-38"/>
       <use xlink:href="#DejaVuSans-30" x="63.623047"/>
      </g>
     </g>
    </g>
    <g id="xtick_6">
     <g id="text_6">
      <!-- 100 -->
      <g transform="translate(977.828125 287.06881)scale(0.08 -0.08)">
       <defs>
        <path id="DejaVuSans-31" d="M 794 531 
L 1825 531 
L 1825 4091 
L 703 3866 
L 703 4441 
L 1819 4666 
L 2450 4666 
L 2450 531 
L 3481 531 
L 3481 0 
L 794 0 
L 794 531 
z
" transform="scale(0.015625)"/>
       </defs>
       <use xlink:href="#DejaVuSans-31"/>
       <use xlink:href="#DejaVuSans-30" x="63.623047"/>
       <use xlink:href="#DejaVuSans-30" x="127.246094"/>
      </g>
     </g>
    </g>
    <g id="text_7">
     <!-- % GC -->
     <g transform="translate(495.510156 300.330997)scale(0.1 -0.1)">
      <defs>
       <path id="DejaVuSans-25" d="M 4653 2053 
Q 4381 2053 4226 1822 
Q 4072 1591 4072 1178 
Q 4072 772 4226 539 
Q 4381 306 4653 306 
Q 4919 306 5073 539 
Q 5228 772 5228 1178 
Q 5228 1588 5073 1820 
Q 4919 2053 4653 2053 
z
M 4653 2450 
Q 5147 2450 5437 2106 
Q 5728 1763 5728 1178 
Q 5728 594 5436 251 
Q 5144 -91 4653 -91 
Q 4153 -91 3862 251 
Q 3572 594 3572 1178 
Q 3572 1766 3864 2108 
Q 4156 2450 4653 2450 
z
M 1428 4353 
Q 1159 4353 1004 4120 
Q 850 3888 850 3481 
Q 850 3069 1003 2837 
Q 1156 2606 1428 2606 
Q 1700 2606 1854 2837 
Q 2009 3069 2009 3481 
Q 2009 3884 1853 4118 
Q 1697 4353 1428 4353 
z
M 4250 4750 
L 4750 4750 
L 1831 -91 
L 1331 -91 
L 4250 4750 
z
M 1428 4750 
Q 1922 4750 2215 4408 
Q 2509 4066 2509 3481 
Q 2509 2891 2217 2550 
Q 1925 2209 1428 2209 
Q 931 2209 642 2551 
Q 353 2894 353 3481 
Q 353 4063 643 4406 
Q 934 4750 1428 4750 
z
" transform="scale(0.015625)"/>
       <path id="DejaVuSans-20" transform="scale(0.015625)"/>
       <path id="DejaVuSans-47" d="M 3809 666 
L 3809 1919 
L 2778 1919 
L 2778 2438 
L 4434 2438 
L 4434 434 
Q 4069 175 3628 42 
Q 3188 -91 2688 -91 
Q 1594 -91 976 548 
Q 359 1188 359 2328 
Q 359 3472 976 4111 
Q 1594 4750 2688 4750 
Q 3144 4750 3555 4637 
Q 3966 4525 4313 4306 
L 4313 3634 
Q 3963 3931 3569 4081 
Q 3175 4231 2741 4231 
Q 1884 4231 1454 3753 
Q 1025 3275 1025 2328 
Q 1025 1384 1454 906 
Q 1884 428 2741 428 
Q 3075 428 3337 486 
Q 3600 544 3809 666 
z
" transform="scale(0.015625)"/>
       <path id="DejaVuSans-43" d="M 4122 4306 
L 4122 3641 
Q 3803 3938 3442 4084 
Q 3081 4231 2675 4231 
Q 1875 4231 1450 3742 
Q 1025 3253 1025 2328 
Q 1025 1406 1450 917 
Q 1875 428 2675 428 
Q 3081 428 3442 575 
Q 3803 722 4122 1019 
L 4122 359 
Q 3791 134 3420 21 
Q 3050 -91 2638 -91 
Q 1578 -91 968 557 
Q 359 1206 359 2328 
Q 359 3453 968 4101 
Q 1578 4750 2638 4750 
Q 3056 4750 3426 4639 
Q 3797 4528 4122 4306 
z
" transform="scale(0.015625)"/>
      </defs>
      <use xlink:href="#DejaVuSans-25"/>
      <use xlink:href="#DejaVuSans-20" x="95.019531"/>
      <use xlink:href="#DejaVuSans-47" x="126.806641"/>
      <use xlink:href="#DejaVuSans-43" x="204.296875"/>
     </g>
    </g>
   </g>
   <g id="matplotlib.axis_2">
    <g id="ytick_1">
     <g id="line2d_1">
      <path d="M 32.968125 273.99006 
L 985.463125 273.99006 
" clip-path="url(#p939235528a)" style="fill: none; stroke: #dedede; stroke-linecap: square"/>
     </g>
     <g id="text_8">
      <!-- 0 -->
      <g transform="translate(20.878125 277.029435)scale(0.08 -0.08)">
       <use xlink:href="#DejaVuSans-30"/>
      </g>
     </g>
    </g>
    <g id="ytick_2">
     <g id="line2d_2">
      <path d="M 32.968125 227.803313 
L 985.463125 227.803313 
" clip-path="url(#p939235528a)" style="fill: none; stroke: #dedede; stroke-linecap: square"/>
     </g>
     <g id="text_9">
      <!-- 1 -->
      <g transform="translate(20.878125 230.842688)scale(0.08 -0.08)">
       <use xlink:href="#DejaVuSans-31"/>
      </g>
     </g>
    </g>
    <g id="ytick_3">
     <g id="line2d_3">
      <path d="M 32.968125 181.616566 
L 985.463125 181.616566 
" clip-path="url(#p939235528a)" style="fill: none; stroke: #dedede; stroke-linecap: square"/>
     </g>
     <g id="text_10">
      <!-- 2 -->
      <g transform="translate(20.878125 184.655941)scale(0.08 -0.08)">
       <use xlink:href="#DejaVuSans-32"/>
      </g>
     </g>
    </g>
    <g id="ytick_4">
     <g id="line2d_4">
      <path d="M 32.968125 135.429818 
L 985.463125 135.429818 
" clip-path="url(#p939235528a)" style="fill: none; stroke: #dedede; stroke-linecap: square"/>
     </g>
     <g id="text_11">
      <!-- 3 -->
      <g transform="translate(20.878125 138.469193)scale(0.08 -0.08)">
       <defs>
        <path id="DejaVuSans-33" d="M 2597 2516 
Q 3050 2419 3304 2112 
Q 3559 1806 3559 1356 
Q 3559 666 3084 287 
Q 2609 -91 1734 -91 
Q 1441 -91 1130 -33 
Q 819 25 488 141 
L 488 750 
Q 750 597 1062 519 
Q 1375 441 1716 441 
Q 2309 441 2620 675 
Q 2931 909 2931 1356 
Q 2931 1769 2642 2001 
Q 2353 2234 1838 2234 
L 1294 2234 
L 1294 2753 
L 1863 2753 
Q 2328 2753 2575 2939 
Q 2822 3125 2822 3475 
Q 2822 3834 2567 4026 
Q 2313 4219 1838 4219 
Q 1578 4219 1281 4162 
Q 984 4106 628 3988 
L 628 4550 
Q 988 4650 1302 4700 
Q 1616 4750 1894 4750 
Q 2613 4750 3031 4423 
Q 3450 4097 3450 3541 
Q 3450 3153 3228 2886 
Q 3006 2619 2597 2516 
z
" transform="scale(0.015625)"/>
       </defs>
       <use xlink:href="#DejaVuSans-33"/>
      </g>
     </g>
    </g>
    <g id="ytick_5">
     <g id="line2d_5">
      <path d="M 32.968125 89.243071 
L 985.463125 89.243071 
" clip-path="url(#p939235528a)" style="fill: none; stroke: #dedede; stroke-linecap: square"/>
     </g>
     <g id="text_12">
      <!-- 4 -->
      <g transform="translate(20.878125 92.282446)scale(0.08 -0.08)">
       <use xlink:href="#DejaVuSans-34"/>
      </g>
     </g>
    </g>
    <g id="ytick_6">
     <g id="line2d_6">
      <path d="M 32.968125 43.056324 
L 985.463125 43.056324 
" clip-path="url(#p939235528a)" style="fill: none; stroke: #dedede; stroke-linecap: square"/>
     </g>
     <g id="text_13">
      <!-- 5 -->
      <g transform="translate(20.878125 46.095699)scale(0.08 -0.08)">
       <defs>
        <path id="DejaVuSans-35" d="M 691 4666 
L 3169 4666 
L 3169 4134 
L 1269 4134 
L 1269 2991 
Q 1406 3038 1543 3061 
Q 1681 3084 1819 3084 
Q 2600 3084 3056 2656 
Q 3513 2228 3513 1497 
Q 3513 744 3044 326 
Q 2575 -91 1722 -91 
Q 1428 -91 1123 -41 
Q 819 9 494 109 
L 494 744 
Q 775 591 1075 516 
Q 1375 441 1709 441 
Q 2250 441 2565 725 
Q 2881 1009 2881 1497 
Q 2881 1984 2565 2268 
Q 2250 2553 1709 2553 
Q 1456 2553 1204 2497 
Q 953 2441 691 2322 
L 691 4666 
z
" transform="scale(0.015625)"/>
       </defs>
       <use xlink:href="#DejaVuSans-35"/>
      </g>
     </g>
    </g>
    <g id="text_14">
     <!-- Percentage -->
     <g transform="translate(14.798437 180.859116)rotate(-90)scale(0.1 -0.1)">
      <defs>
       <path id="DejaVuSans-50" d="M 1259 4147 
L 1259 2394 
L 2053 2394 
Q 2494 2394 2734 2622 
Q 2975 2850 2975 3272 
Q 2975 3691 2734 3919 
Q 2494 4147 2053 4147 
L 1259 4147 
z
M 628 4666 
L 2053 4666 
Q 2838 4666 3239 4311 
Q 3641 3956 3641 3272 
Q 3641 2581 3239 2228 
Q 2838 1875 2053 1875 
L 1259 1875 
L 1259 0 
L 628 0 
L 628 4666 
z
" transform="scale(0.015625)"/>
       <path id="DejaVuSans-65" d="M 3597 1894 
L 3597 1613 
L 953 1613 
Q 991 1019 1311 708 
Q 1631 397 2203 397 
Q 2534 397 2845 478 
Q 3156 559 3463 722 
L 3463 178 
Q 3153 47 2828 -22 
Q 2503 -91 2169 -91 
Q 1331 -91 842 396 
Q 353 884 353 1716 
Q 353 2575 817 3079 
Q 1281 3584 2069 3584 
Q 2775 3584 3186 3129 
Q 3597 2675 3597 1894 
z
M 3022 2063 
Q 3016 2534 2758 2815 
Q 2500 3097 2075 3097 
Q 1594 3097 1305 2825 
Q 1016 2553 972 2059 
L 3022 2063 
z
" transform="scale(0.015625)"/>
       <path id="DejaVuSans-72" d="M 2631 2963 
Q 2534 3019 2420 3045 
Q 2306 3072 2169 3072 
Q 1681 3072 1420 2755 
Q 1159 2438 1159 1844 
L 1159 0 
L 581 0 
L 581 3500 
L 1159 3500 
L 1159 2956 
Q 1341 3275 1631 3429 
Q 1922 3584 2338 3584 
Q 2397 3584 2469 3576 
Q 2541 3569 2628 3553 
L 2631 2963 
z
" transform="scale(0.015625)"/>
       <path id="DejaVuSans-63" d="M 3122 3366 
L 3122 2828 
Q 2878 2963 2633 3030 
Q 2388 3097 2138 3097 
Q 1578 3097 1268 2742 
Q 959 2388 959 1747 
Q 959 1106 1268 751 
Q 1578 397 2138 397 
Q 2388 397 2633 464 
Q 2878 531 3122 666 
L 3122 134 
Q 2881 22 2623 -34 
Q 2366 -91 2075 -91 
Q 1284 -91 818 406 
Q 353 903 353 1747 
Q 353 2603 823 3093 
Q 1294 3584 2113 3584 
Q 2378 3584 2631 3529 
Q 2884 3475 3122 3366 
z
" transform="scale(0.015625)"/>
       <path id="DejaVuSans-6e" d="M 3513 2113 
L 3513 0 
L 2938 0 
L 2938 2094 
Q 2938 2591 2744 2837 
Q 2550 3084 2163 3084 
Q 1697 3084 1428 2787 
Q 1159 2491 1159 1978 
L 1159 0 
L 581 0 
L 581 3500 
L 1159 3500 
L 1159 2956 
Q 1366 3272 1645 3428 
Q 1925 3584 2291 3584 
Q 2894 3584 3203 3211 
Q 3513 2838 3513 2113 
z
" transform="scale(0.015625)"/>
       <path id="DejaVuSans-74" d="M 1172 4494 
L 1172 3500 
L 2356 3500 
L 2356 3053 
L 1172 3053 
L 1172 1153 
Q 1172 725 1289 603 
Q 1406 481 1766 481 
L 2356 481 
L 2356 0 
L 1766 0 
Q 1100 0 847 248 
Q 594 497 594 1153 
L 594 3053 
L 172 3053 
L 172 3500 
L 594 3500 
L 594 4494 
L 1172 4494 
z
" transform="scale(0.015625)"/>
       <path id="DejaVuSans-61" d="M 2194 1759 
Q 1497 1759 1228 1600 
Q 959 1441 959 1056 
Q 959 750 1161 570 
Q 1363 391 1709 391 
Q 2188 391 2477 730 
Q 2766 1069 2766 1631 
L 2766 1759 
L 2194 1759 
z
M 3341 1997 
L 3341 0 
L 2766 0 
L 2766 531 
Q 2569 213 2275 61 
Q 1981 -91 1556 -91 
Q 1019 -91 701 211 
Q 384 513 384 1019 
Q 384 1609 779 1909 
Q 1175 2209 1959 2209 
L 2766 2209 
L 2766 2266 
Q 2766 2663 2505 2880 
Q 2244 3097 1772 3097 
Q 1472 3097 1187 3025 
Q 903 2953 641 2809 
L 641 3341 
Q 956 3463 1253 3523 
Q 1550 3584 1831 3584 
Q 2591 3584 2966 3190 
Q 3341 2797 3341 1997 
z
" transform="scale(0.015625)"/>
       <path id="DejaVuSans-67" d="M 2906 1791 
Q 2906 2416 2648 2759 
Q 2391 3103 1925 3103 
Q 1463 3103 1205 2759 
Q 947 2416 947 1791 
Q 947 1169 1205 825 
Q 1463 481 1925 481 
Q 2391 481 2648 825 
Q 2906 1169 2906 1791 
z
M 3481 434 
Q 3481 -459 3084 -895 
Q 2688 -1331 1869 -1331 
Q 1566 -1331 1297 -1286 
Q 1028 -1241 775 -1147 
L 775 -588 
Q 1028 -725 1275 -790 
Q 1522 -856 1778 -856 
Q 2344 -856 2625 -561 
Q 2906 -266 2906 331 
L 2906 616 
Q 2728 306 2450 153 
Q 2172 0 1784 0 
Q 1141 0 747 490 
Q 353 981 353 1791 
Q 353 2603 747 3093 
Q 1141 3584 1784 3584 
Q 2172 3584 2450 3431 
Q 2728 3278 2906 2969 
L 2906 3500 
L 3481 3500 
L 3481 434 
z
" transform="scale(0.015625)"/>
      </defs>
      <use xlink:href="#DejaVuSans-50"/>
      <use xlink:href="#DejaVuSans-65" x="56.677734"/>
      <use xlink:href="#DejaVuSans-72" x="118.201172"/>
      <use xlink:href="#DejaVuSans-63" x="157.064453"/>
      <use xlink:href="#DejaVuSans-65" x="212.044922"/>
      <use xlink:href="#DejaVuSans-6e" x="273.568359"/>
      <use xlink:href="#DejaVuSans-74" x="336.947266"/>
      <use xlink:href="#DejaVuSans-61" x="376.15625"/>
      <use xlink:href="#DejaVuSans-67" x="437.435547"/>
      <use xlink:href="#DejaVuSans-65" x="500.912109"/>
     </g>
    </g>
   </g>
   <g id="line2d_7">
    <path d="M 32.968125 273.99006 
L 42.493075 273.99006 
L 52.018025 273.99006 
L 61.542975 273.99006 
L 71.067925 273.99006 
L 80.592875 273.99006 
L 90.117825 273.95491 
L 99.642775 273.937336 
L 109.167725 273.95491 
L 118.692675 273.796737 
L 128.217625 273.638564 
L 137.742575 273.603414 
L 147.267525 273.568265 
L 156.792475 273.339792 
L 166.317425 273.005871 
L 175.842375 272.847698 
L 185.367325 272.144706 
L 194.892275 271.494439 
L 204.417225 271.090218 
L 213.942175 270.193903 
L 223.467125 268.840644 
L 232.992075 267.979479 
L 242.517025 266.731668 
L 252.041975 263.95485 
L 261.566925 260.984709 
L 271.091875 259.543575 
L 280.616825 255.308049 
L 290.141775 245.307988 
L 299.666725 234.974006 
L 309.191675 230.404559 
L 318.716625 222.706797 
L 328.241575 204.675053 
L 337.766525 188.734711 
L 347.291475 183.12835 
L 356.816425 177.188068 
L 366.341375 159.296922 
L 375.866325 137.469022 
L 385.391275 127.591985 
L 394.916225 119.525153 
L 404.441175 96.941536 
L 413.966125 80.966044 
L 423.491075 73.426455 
L 433.016025 67.345575 
L 442.540975 58.470301 
L 452.065925 47.011532 
L 461.590875 43.988667 
L 471.115825 43.549297 
L 480.640775 45.552824 
L 490.165725 59.349041 
L 499.690675 73.303431 
L 509.215625 75.465132 
L 518.740575 86.677853 
L 528.265525 113.268524 
L 537.790475 147.293335 
L 547.315425 165.940196 
L 556.840375 180.738177 
L 566.365325 207.258549 
L 575.890275 226.239331 
L 585.415225 233.497723 
L 594.940175 240.299171 
L 604.465125 251.564617 
L 613.990075 258.805434 
L 623.515025 261.582252 
L 633.039975 262.970661 
L 642.564925 265.817779 
L 652.089875 269.033967 
L 661.614825 271.424139 
L 671.139775 272.056832 
L 680.664725 272.373179 
L 690.189675 272.917997 
L 699.714625 273.251918 
L 709.239575 273.357367 
L 718.764525 273.533115 
L 728.289475 273.726438 
L 737.814425 273.744013 
L 747.339375 273.744013 
L 756.864325 273.814312 
L 766.389275 273.884611 
L 775.914225 273.919761 
L 785.439175 273.95491 
L 794.964125 273.95491 
L 804.489075 273.972485 
L 814.014025 273.99006 
L 823.538975 273.99006 
L 833.063925 273.99006 
L 842.588875 273.972485 
L 852.113825 273.972485 
L 861.638775 273.99006 
L 871.163725 273.99006 
L 880.688675 273.99006 
L 890.213625 273.972485 
L 899.738575 273.972485 
L 909.263525 273.99006 
L 918.788475 273.95491 
L 928.313425 273.95491 
L 937.838375 273.99006 
L 947.363325 273.99006 
L 956.888275 273.99006 
L 966.413225 273.972485 
L 975.938175 273.919761 
L 985.463125 273.884611 
" clip-path="url(#p939235528a)" style="fill: none; stroke: #5cb85c; stroke-linecap: square"/>
   </g>
   <g id="line2d_8">
    <path d="M 32.968125 271.316758 
L 42.493075 272.424771 
L 52.018025 273.532785 
L 61.542975 273.655897 
L 71.067925 273.77901 
L 80.592875 273.761422 
L 90.117825 273.673485 
L 99.642775 273.620722 
L 109.167725 273.63831 
L 118.692675 273.532785 
L 128.217625 273.444847 
L 137.742575 273.356909 
L 147.267525 273.251384 
L 156.792475 273.093097 
L 166.317425 272.846872 
L 175.842375 272.442359 
L 185.367325 271.721271 
L 194.892275 271.316758 
L 204.417225 271.08812 
L 213.942175 270.507732 
L 223.467125 269.118319 
L 232.992075 268.080655 
L 242.517025 266.937467 
L 252.041975 264.352102 
L 261.566925 259.744173 
L 271.091875 256.578421 
L 280.616825 254.274456 
L 290.141775 246.166612 
L 299.666725 235.877916 
L 309.191675 231.3931 
L 318.716625 222.177243 
L 328.241575 204.449028 
L 337.766525 188.884078 
L 347.291475 181.831485 
L 356.816425 175.623092 
L 366.341375 155.942664 
L 375.866325 134.274846 
L 385.391275 126.079065 
L 394.916225 118.358146 
L 404.441175 97.446591 
L 413.966125 80.281177 
L 423.491075 71.434658 
L 433.016025 66.562916 
L 442.540975 59.66861 
L 452.065925 48.817114 
L 461.590875 43.945373 
L 471.115825 43.030822 
L 480.640775 46.354862 
L 490.165725 60.055536 
L 499.690675 76.288811 
L 509.215625 82.145454 
L 518.740575 92.416562 
L 528.265525 114.488893 
L 537.790475 147.658945 
L 547.315425 169.027775 
L 556.840375 182.306348 
L 566.365325 207.333381 
L 575.890275 227.189684 
L 585.415225 235.297528 
L 594.940175 241.576271 
L 604.465125 252.163955 
L 613.990075 259.392423 
L 623.515025 262.31195 
L 633.039975 263.068214 
L 642.564925 265.723928 
L 652.089875 268.801743 
L 661.614825 271.070533 
L 671.139775 272.160959 
L 680.664725 272.565471 
L 690.189675 272.899634 
L 699.714625 273.163447 
L 709.239575 273.49761 
L 718.764525 273.603135 
L 728.289475 273.743835 
L 737.814425 273.691072 
L 747.339375 273.603135 
L 756.864325 273.761422 
L 766.389275 273.796597 
L 775.914225 273.814185 
L 785.439175 273.954885 
L 794.964125 273.937297 
L 804.489075 273.884535 
L 814.014025 273.866947 
L 823.538975 273.884535 
L 833.063925 273.937297 
L 842.588875 273.937297 
L 852.113825 273.91971 
L 861.638775 273.954885 
L 871.163725 273.91971 
L 880.688675 273.91971 
L 890.213625 273.902122 
L 899.738575 273.902122 
L 909.263525 273.954885 
L 918.788475 273.937297 
L 928.313425 273.884535 
L 937.838375 273.884535 
L 947.363325 273.91971 
L 956.888275 273.884535 
L 966.413225 273.761422 
L 975.938175 272.512709 
L 985.463125 271.351933 
" clip-path="url(#p939235528a)" style="fill: none; stroke: #f0ad4e; stroke-linecap: square"/>
   </g>
   <g id="line2d_9">
    <path d="M 32.968125 273.99006 
L 42.493075 273.954969 
L 52.018025 273.937423 
L 61.542975 273.937423 
L 71.067925 273.919877 
L 80.592875 273.937423 
L 90.117825 273.902332 
L 99.642775 273.86724 
L 109.167725 273.884786 
L 118.692675 273.779512 
L 128.217625 273.674238 
L 137.742575 273.604055 
L 147.267525 273.533872 
L 156.792475 273.21805 
L 166.317425 272.656588 
L 175.842375 272.007397 
L 185.367325 270.884473 
L 194.892275 270.1651 
L 204.417225 269.428181 
L 213.942175 268.498259 
L 223.467125 266.445413 
L 232.992075 264.58557 
L 242.517025 263.269644 
L 252.041975 261.462438 
L 261.566925 259.549957 
L 271.091875 258.128756 
L 280.616825 252.286042 
L 290.141775 241.688445 
L 299.666725 231.318943 
L 309.191675 225.704322 
L 318.716625 218.650955 
L 328.241575 204.509129 
L 337.766525 190.455031 
L 347.291475 183.489392 
L 356.816425 178.839785 
L 366.341375 164.785687 
L 375.866325 144.994149 
L 385.391275 134.607101 
L 394.916225 125.097337 
L 404.441175 102.480943 
L 413.966125 85.60199 
L 423.491075 77.916977 
L 433.016025 74.004289 
L 442.540975 68.17912 
L 452.065925 55.160218 
L 461.590875 47.58048 
L 471.115825 47.194475 
L 480.640775 54.388208 
L 490.165725 68.108937 
L 499.690675 77.776612 
L 509.215625 80.91729 
L 518.740575 93.971284 
L 528.265525 111.394153 
L 537.790475 135.09838 
L 547.315425 154.43373 
L 556.840375 171.014407 
L 566.365325 200.368346 
L 575.890275 221.019623 
L 585.415225 228.897637 
L 594.940175 235.249177 
L 604.465125 246.741604 
L 613.990075 255.654814 
L 623.515025 259.427138 
L 633.039975 261.00625 
L 642.564925 265.269852 
L 652.089875 268.919356 
L 661.614825 271.095021 
L 671.139775 272.305674 
L 680.664725 272.709225 
L 690.189675 273.112776 
L 699.714625 273.182958 
L 709.239575 273.253141 
L 718.764525 273.463689 
L 728.289475 273.709329 
L 737.814425 273.849694 
L 747.339375 273.954969 
L 756.864325 273.954969 
L 766.389275 273.954969 
L 775.914225 273.972514 
L 785.439175 273.99006 
L 794.964125 273.99006 
L 804.489075 273.99006 
L 814.014025 273.99006 
L 823.538975 273.99006 
L 833.063925 273.99006 
L 842.588875 273.954969 
L 852.113825 273.954969 
L 861.638775 273.99006 
L 871.163725 273.99006 
L 880.688675 273.99006 
L 890.213625 273.99006 
L 899.738575 273.99006 
L 909.263525 273.99006 
L 918.788475 273.99006 
L 928.313425 273.99006 
L 937.838375 273.972514 
L 947.363325 273.954969 
L 956.888275 273.972514 
L 966.413225 273.99006 
L 975.938175 273.902332 
L 985.463125 273.814603 
" clip-path="url(#p939235528a)" style="fill: none; stroke: #5cb85c; stroke-linecap: square"/>
   </g>
   <g id="line2d_10">
    <path d="M 32.968125 271.385233 
L 42.493075 272.335643 
L 52.018025 273.321253 
L 61.542975 273.550055 
L 71.067925 273.743657 
L 80.592875 273.796458 
L 90.117825 273.814058 
L 99.642775 273.655657 
L 109.167725 273.532455 
L 118.692675 273.567656 
L 128.217625 273.409254 
L 137.742575 273.110051 
L 147.267525 273.00445 
L 156.792475 272.863648 
L 166.317425 272.300443 
L 175.842375 271.543635 
L 185.367325 270.804427 
L 194.892275 270.399623 
L 204.417225 269.554814 
L 213.942175 268.393202 
L 223.467125 265.981978 
L 232.992075 263.887556 
L 242.517025 263.218749 
L 252.041975 260.983526 
L 261.566925 258.4491 
L 271.091875 257.48109 
L 280.616825 253.063445 
L 290.141775 242.520936 
L 299.666725 231.960828 
L 309.191675 227.525582 
L 318.716625 219.183096 
L 328.241575 201.776517 
L 337.766525 188.981185 
L 347.291475 185.249947 
L 356.816425 177.118663 
L 366.341375 157.881665 
L 375.866325 138.063861 
L 385.391275 129.351772 
L 394.916225 118.598061 
L 404.441175 95.20742 
L 413.966125 77.360837 
L 423.491075 71.306374 
L 433.016025 70.461566 
L 442.540975 62.523884 
L 452.065925 48.355738 
L 461.590875 43.462888 
L 471.115825 44.800502 
L 480.640775 50.766963 
L 490.165725 65.691917 
L 499.690675 75.72402 
L 509.215625 76.797631 
L 518.740575 93.060198 
L 528.265525 118.45726 
L 537.790475 150.031985 
L 547.315425 172.472215 
L 556.840375 184.862743 
L 566.365325 209.291794 
L 575.890275 227.824785 
L 585.415225 234.319252 
L 594.940175 240.514516 
L 604.465125 251.901833 
L 613.990075 259.839514 
L 623.515025 262.585143 
L 633.039975 263.465152 
L 642.564925 266.17558 
L 652.089875 269.326012 
L 661.614825 271.666836 
L 671.139775 272.687647 
L 680.664725 272.793248 
L 690.189675 273.215652 
L 699.714625 273.497255 
L 709.239575 273.462055 
L 718.764525 273.655657 
L 728.289475 273.866859 
L 737.814425 273.866859 
L 747.339375 273.849259 
L 756.864325 273.866859 
L 766.389275 273.849259 
L 775.914225 273.814058 
L 785.439175 273.814058 
L 794.964125 273.884459 
L 804.489075 273.919659 
L 814.014025 273.937259 
L 823.538975 273.99006 
L 833.063925 273.99006 
L 842.588875 273.937259 
L 852.113825 273.919659 
L 861.638775 273.95486 
L 871.163725 273.884459 
L 880.688675 273.884459 
L 890.213625 273.937259 
L 899.738575 273.902059 
L 909.263525 273.884459 
L 918.788475 273.919659 
L 928.313425 273.95486 
L 937.838375 273.884459 
L 947.363325 273.814058 
L 956.888275 273.866859 
L 966.413225 273.937259 
L 975.938175 273.338853 
L 985.463125 272.722847 
" clip-path="url(#p939235528a)" style="fill: none; stroke: #f0ad4e; stroke-linecap: square"/>
   </g>
   <g id="line2d_11">
    <path d="M 32.968125 273.99006 
L 42.493075 273.972485 
L 52.018025 273.972485 
L 61.542975 273.972485 
L 71.067925 273.954909 
L 80.592875 273.972485 
L 90.117825 273.954909 
L 99.642775 273.937334 
L 109.167725 273.954909 
L 118.692675 273.954909 
L 128.217625 273.937334 
L 137.742575 273.761581 
L 147.267525 273.603403 
L 156.792475 273.568252 
L 166.317425 273.392499 
L 175.842375 273.076143 
L 185.367325 272.67191 
L 194.892275 272.443431 
L 204.417225 272.461006 
L 213.942175 271.916171 
L 223.467125 270.808925 
L 232.992075 270.264089 
L 242.517025 269.525925 
L 252.041975 267.504762 
L 261.566925 263.356983 
L 271.091875 260.492204 
L 280.616825 256.432301 
L 290.141775 247.679785 
L 299.666725 237.94305 
L 309.191675 232.898929 
L 318.716625 224.251865 
L 328.241575 204.848696 
L 337.766525 185.28735 
L 347.291475 176.482107 
L 356.816425 168.889563 
L 366.341375 148.379149 
L 375.866325 122.877339 
L 385.391275 110.2934 
L 394.916225 101.312404 
L 404.441175 79.062032 
L 413.966125 60.994588 
L 423.491075 56.372276 
L 433.016025 56.548029 
L 442.540975 52.382675 
L 452.065925 47.514307 
L 461.590875 47.567033 
L 471.115825 48.322773 
L 480.640775 55.704413 
L 490.165725 73.98276 
L 499.690675 88.130904 
L 509.215625 91.382341 
L 518.740575 106.725607 
L 528.265525 130.065651 
L 537.790475 157.324994 
L 547.315425 176.587559 
L 556.840375 188.644239 
L 566.365325 210.29705 
L 575.890275 226.290604 
L 585.415225 232.688025 
L 594.940175 238.839392 
L 604.465125 250.474263 
L 613.990075 257.926205 
L 623.515025 259.894642 
L 633.039975 261.388546 
L 642.564925 264.569681 
L 652.089875 267.66294 
L 661.614825 270.193788 
L 671.139775 271.318609 
L 680.664725 271.933746 
L 690.189675 272.830088 
L 699.714625 273.181595 
L 709.239575 273.251896 
L 718.764525 273.480375 
L 728.289475 273.708855 
L 737.814425 273.814307 
L 747.339375 273.919759 
L 756.864325 273.902183 
L 766.389275 273.937334 
L 775.914225 273.972485 
L 785.439175 273.954909 
L 794.964125 273.972485 
L 804.489075 273.972485 
L 814.014025 273.954909 
L 823.538975 273.954909 
L 833.063925 273.972485 
L 842.588875 273.99006 
L 852.113825 273.99006 
L 861.638775 273.99006 
L 871.163725 273.972485 
L 880.688675 273.972485 
L 890.213625 273.99006 
L 899.738575 273.99006 
L 909.263525 273.99006 
L 918.788475 273.99006 
L 928.313425 273.99006 
L 937.838375 273.99006 
L 947.363325 273.99006 
L 956.888275 273.99006 
L 966.413225 273.99006 
L 975.938175 273.972485 
L 985.463125 273.954909 
" clip-path="url(#p939235528a)" style="fill: none; stroke: #5cb85c; stroke-linecap: square"/>
   </g>
   <g id="line2d_12">
    <path d="M 32.968125 271.2444 
L 42.493075 272.282823 
L 52.018025 273.497249 
L 61.542975 273.743655 
L 71.067925 273.814056 
L 80.592875 273.690854 
L 90.117825 273.726054 
L 99.642775 273.814056 
L 109.167725 273.743655 
L 118.692675 273.690854 
L 128.217625 273.708454 
L 137.742575 273.51485 
L 147.267525 273.250844 
L 156.792475 273.250844 
L 166.317425 273.250844 
L 175.842375 273.07484 
L 185.367325 272.511628 
L 194.892275 272.124419 
L 204.417225 272.071618 
L 213.942175 271.631609 
L 223.467125 270.241179 
L 232.992075 269.237957 
L 242.517025 268.357938 
L 252.041975 266.685901 
L 261.566925 263.535433 
L 271.091875 261.176982 
L 280.616825 258.237718 
L 290.141775 249.384726 
L 299.666725 238.243684 
L 309.191675 233.01637 
L 318.716625 224.145777 
L 328.241575 203.007718 
L 337.766525 182.080864 
L 347.291475 173.421476 
L 356.816425 167.701351 
L 366.341375 147.214506 
L 375.866325 122.274765 
L 385.391275 112.101744 
L 394.916225 100.485491 
L 404.441175 77.481792 
L 413.966125 62.486266 
L 423.491075 57.065348 
L 433.016025 55.252509 
L 442.540975 48.458761 
L 452.065925 44.586677 
L 461.590875 48.476362 
L 471.115825 49.444383 
L 480.640775 54.759698 
L 490.165725 75.035338 
L 499.690675 92.547719 
L 509.215625 95.099774 
L 518.740575 109.303283 
L 528.265525 131.215759 
L 537.790475 159.253168 
L 547.315425 179.581609 
L 556.840375 190.687451 
L 566.365325 210.839888 
L 575.890275 228.457871 
L 585.415225 237.029257 
L 594.940175 241.957364 
L 604.465125 251.003961 
L 613.990075 257.498502 
L 623.515025 259.874553 
L 633.039975 261.704993 
L 642.564925 265.119467 
L 652.089875 267.953129 
L 661.614825 270.32918 
L 671.139775 271.455605 
L 680.664725 272.177221 
L 690.189675 272.969238 
L 699.714625 273.092441 
L 709.239575 273.145242 
L 718.764525 273.286045 
L 728.289475 273.567651 
L 737.814425 273.708454 
L 747.339375 273.708454 
L 756.864325 273.761255 
L 766.389275 273.849257 
L 775.914225 273.919658 
L 785.439175 273.954859 
L 794.964125 273.954859 
L 804.489075 273.902058 
L 814.014025 273.849257 
L 823.538975 273.849257 
L 833.063925 273.849257 
L 842.588875 273.831657 
L 852.113825 273.902058 
L 861.638775 273.99006 
L 871.163725 273.849257 
L 880.688675 273.743655 
L 890.213625 273.814056 
L 899.738575 273.866857 
L 909.263525 273.884458 
L 918.788475 273.919658 
L 928.313425 273.902058 
L 937.838375 273.831657 
L 947.363325 273.814056 
L 956.888275 273.866857 
L 966.413225 273.831657 
L 975.938175 272.441226 
L 985.463125 271.138798 
" clip-path="url(#p939235528a)" style="fill: none; stroke: #5cb85c; stroke-linecap: square"/>
   </g>
   <g id="line2d_13">
    <path d="M 32.968125 273.99006 
L 42.493075 273.99006 
L 52.018025 273.99006 
L 61.542975 273.99006 
L 71.067925 273.99006 
L 80.592875 273.954878 
L 90.117825 273.937287 
L 99.642775 273.919696 
L 109.167725 273.884514 
L 118.692675 273.866923 
L 128.217625 273.831742 
L 137.742575 273.778969 
L 147.267525 273.743787 
L 156.792475 273.532696 
L 166.317425 273.251241 
L 175.842375 272.969786 
L 185.367325 272.037467 
L 194.892275 271.316239 
L 204.417225 271.228284 
L 213.942175 270.59501 
L 223.467125 268.378553 
L 232.992075 266.707415 
L 242.517025 265.212186 
L 252.041975 261.975454 
L 261.566925 257.823995 
L 271.091875 255.414037 
L 280.616825 251.192214 
L 290.141775 240.72561 
L 299.666725 228.62305 
L 309.191675 222.76527 
L 318.716625 213.741123 
L 328.241575 194.092053 
L 337.766525 174.442984 
L 347.291475 165.418837 
L 356.816425 156.957599 
L 366.341375 135.391118 
L 375.866325 114.264411 
L 385.391275 106.242946 
L 394.916225 97.957618 
L 404.441175 78.765913 
L 413.966125 65.607897 
L 423.491075 59.486253 
L 433.016025 55.616248 
L 442.540975 52.43229 
L 452.065925 51.781425 
L 461.590875 57.480887 
L 471.115825 60.647254 
L 480.640775 66.962398 
L 490.165725 82.600736 
L 499.690675 98.291846 
L 509.215625 104.659763 
L 518.740575 116.252186 
L 528.265525 137.396484 
L 537.790475 163.378289 
L 547.315425 179.808218 
L 556.840375 193.300462 
L 566.365325 215.447443 
L 575.890275 231.314462 
L 585.415225 238.526744 
L 594.940175 244.067887 
L 604.465125 253.408671 
L 613.990075 259.899725 
L 623.515025 262.591137 
L 633.039975 263.998411 
L 642.564925 266.760188 
L 652.089875 269.434009 
L 661.614825 271.756012 
L 671.139775 272.758695 
L 680.664725 272.653149 
L 690.189675 272.952195 
L 699.714625 273.339196 
L 709.239575 273.321605 
L 718.764525 273.497514 
L 728.289475 273.761378 
L 737.814425 273.902105 
L 747.339375 273.954878 
L 756.864325 273.954878 
L 766.389275 273.919696 
L 775.914225 273.919696 
L 785.439175 273.954878 
L 794.964125 273.972469 
L 804.489075 273.972469 
L 814.014025 273.972469 
L 823.538975 273.99006 
L 833.063925 273.954878 
L 842.588875 273.954878 
L 852.113825 273.99006 
L 861.638775 273.99006 
L 871.163725 273.99006 
L 880.688675 273.99006 
L 890.213625 273.99006 
L 899.738575 273.99006 
L 909.263525 273.99006 
L 918.788475 273.99006 
L 928.313425 273.99006 
L 937.838375 273.99006 
L 947.363325 273.99006 
L 956.888275 273.99006 
L 966.413225 273.972469 
L 975.938175 273.972469 
L 985.463125 273.99006 
" clip-path="url(#p939235528a)" style="fill: none; stroke: #5cb85c; stroke-linecap: square"/>
   </g>
   <g id="line2d_14">
    <path d="M 32.968125 271.703613 
L 42.493075 272.530252 
L 52.018025 273.515183 
L 61.542975 273.655887 
L 71.067925 273.638299 
L 80.592875 273.691063 
L 90.117825 273.691063 
L 99.642775 273.585535 
L 109.167725 273.532771 
L 118.692675 273.585535 
L 128.217625 273.409654 
L 137.742575 273.216186 
L 147.267525 273.251362 
L 156.792475 273.145834 
L 166.317425 272.934777 
L 175.842375 272.495076 
L 185.367325 271.615673 
L 194.892275 271.070444 
L 204.417225 270.789035 
L 213.942175 270.191041 
L 223.467125 268.22118 
L 232.992075 266.567903 
L 242.517025 264.79151 
L 252.041975 261.942246 
L 261.566925 257.404529 
L 271.091875 253.939683 
L 280.616825 250.738658 
L 290.141775 241.276287 
L 299.666725 229.281237 
L 309.191675 223.547532 
L 318.716625 213.223347 
L 328.241575 194.281017 
L 337.766525 173.720586 
L 347.291475 161.7783 
L 356.816425 155.217958 
L 366.341375 137.119854 
L 375.866325 113.07699 
L 385.391275 100.571886 
L 394.916225 90.968811 
L 404.441175 73.996342 
L 413.966125 62.282701 
L 423.491075 59.169616 
L 433.016025 60.400779 
L 442.540975 55.423361 
L 452.065925 51.694695 
L 461.590875 54.614311 
L 471.115825 56.285176 
L 480.640775 63.37316 
L 490.165725 83.617006 
L 499.690675 101.662345 
L 509.215625 106.551823 
L 518.740575 119.426276 
L 528.265525 138.984187 
L 537.790475 167.494417 
L 547.315425 189.321187 
L 556.840375 199.698136 
L 566.365325 219.78369 
L 575.890275 235.102881 
L 585.415225 240.713469 
L 594.940175 246.869287 
L 604.465125 255.733664 
L 613.990075 260.922139 
L 623.515025 263.402054 
L 633.039975 264.474925 
L 642.564925 267.113132 
L 652.089875 269.75134 
L 661.614825 271.633261 
L 671.139775 272.442312 
L 680.664725 272.741308 
L 690.189675 273.216186 
L 699.714625 273.409654 
L 709.239575 273.427242 
L 718.764525 273.585535 
L 728.289475 273.779003 
L 737.814425 273.726239 
L 747.339375 273.638299 
L 756.864325 273.673475 
L 766.389275 273.779003 
L 775.914225 273.866944 
L 785.439175 273.884532 
L 794.964125 273.779003 
L 804.489075 273.796591 
L 814.014025 273.866944 
L 823.538975 273.814179 
L 833.063925 273.814179 
L 842.588875 273.831768 
L 852.113825 273.866944 
L 861.638775 273.884532 
L 871.163725 273.937296 
L 880.688675 273.954884 
L 890.213625 273.90212 
L 899.738575 273.866944 
L 909.263525 273.849356 
L 918.788475 273.814179 
L 928.313425 273.814179 
L 937.838375 273.831768 
L 947.363325 273.814179 
L 956.888275 273.90212 
L 966.413225 273.919708 
L 975.938175 272.442312 
L 985.463125 271.035268 
" clip-path="url(#p939235528a)" style="fill: none; stroke: #5cb85c; stroke-linecap: square"/>
   </g>
   <g id="line2d_15">
    <path d="M 32.968125 273.99006 
L 985.463125 273.99006 
" clip-path="url(#p939235528a)" style="fill: none; stroke: #dedede; stroke-width: 2; stroke-linecap: square"/>
   </g>
   <g id="text_15">
    <!-- FastQC: Per Sequence GC Content -->
    <g transform="translate(372.579375 19.3575)scale(0.16 -0.16)">
     <defs>
      <path id="DejaVuSans-46" d="M 628 4666 
L 3309 4666 
L 3309 4134 
L 1259 4134 
L 1259 2759 
L 3109 2759 
L 3109 2228 
L 1259 2228 
L 1259 0 
L 628 0 
L 628 4666 
z
" transform="scale(0.015625)"/>
      <path id="DejaVuSans-73" d="M 2834 3397 
L 2834 2853 
Q 2591 2978 2328 3040 
Q 2066 3103 1784 3103 
Q 1356 3103 1142 2972 
Q 928 2841 928 2578 
Q 928 2378 1081 2264 
Q 1234 2150 1697 2047 
L 1894 2003 
Q 2506 1872 2764 1633 
Q 3022 1394 3022 966 
Q 3022 478 2636 193 
Q 2250 -91 1575 -91 
Q 1294 -91 989 -36 
Q 684 19 347 128 
L 347 722 
Q 666 556 975 473 
Q 1284 391 1588 391 
Q 1994 391 2212 530 
Q 2431 669 2431 922 
Q 2431 1156 2273 1281 
Q 2116 1406 1581 1522 
L 1381 1569 
Q 847 1681 609 1914 
Q 372 2147 372 2553 
Q 372 3047 722 3315 
Q 1072 3584 1716 3584 
Q 2034 3584 2315 3537 
Q 2597 3491 2834 3397 
z
" transform="scale(0.015625)"/>
      <path id="DejaVuSans-51" d="M 2522 4238 
Q 1834 4238 1429 3725 
Q 1025 3213 1025 2328 
Q 1025 1447 1429 934 
Q 1834 422 2522 422 
Q 3209 422 3611 934 
Q 4013 1447 4013 2328 
Q 4013 3213 3611 3725 
Q 3209 4238 2522 4238 
z
M 3406 84 
L 4238 -825 
L 3475 -825 
L 2784 -78 
Q 2681 -84 2626 -87 
Q 2572 -91 2522 -91 
Q 1538 -91 948 567 
Q 359 1225 359 2328 
Q 359 3434 948 4092 
Q 1538 4750 2522 4750 
Q 3503 4750 4090 4092 
Q 4678 3434 4678 2328 
Q 4678 1516 4351 937 
Q 4025 359 3406 84 
z
" transform="scale(0.015625)"/>
      <path id="DejaVuSans-3a" d="M 750 794 
L 1409 794 
L 1409 0 
L 750 0 
L 750 794 
z
M 750 3309 
L 1409 3309 
L 1409 2516 
L 750 2516 
L 750 3309 
z
" transform="scale(0.015625)"/>
      <path id="DejaVuSans-53" d="M 3425 4513 
L 3425 3897 
Q 3066 4069 2747 4153 
Q 2428 4238 2131 4238 
Q 1616 4238 1336 4038 
Q 1056 3838 1056 3469 
Q 1056 3159 1242 3001 
Q 1428 2844 1947 2747 
L 2328 2669 
Q 3034 2534 3370 2195 
Q 3706 1856 3706 1288 
Q 3706 609 3251 259 
Q 2797 -91 1919 -91 
Q 1588 -91 1214 -16 
Q 841 59 441 206 
L 441 856 
Q 825 641 1194 531 
Q 1563 422 1919 422 
Q 2459 422 2753 634 
Q 3047 847 3047 1241 
Q 3047 1584 2836 1778 
Q 2625 1972 2144 2069 
L 1759 2144 
Q 1053 2284 737 2584 
Q 422 2884 422 3419 
Q 422 4038 858 4394 
Q 1294 4750 2059 4750 
Q 2388 4750 2728 4690 
Q 3069 4631 3425 4513 
z
" transform="scale(0.015625)"/>
      <path id="DejaVuSans-71" d="M 947 1747 
Q 947 1113 1208 752 
Q 1469 391 1925 391 
Q 2381 391 2643 752 
Q 2906 1113 2906 1747 
Q 2906 2381 2643 2742 
Q 2381 3103 1925 3103 
Q 1469 3103 1208 2742 
Q 947 2381 947 1747 
z
M 2906 525 
Q 2725 213 2448 61 
Q 2172 -91 1784 -91 
Q 1150 -91 751 415 
Q 353 922 353 1747 
Q 353 2572 751 3078 
Q 1150 3584 1784 3584 
Q 2172 3584 2448 3432 
Q 2725 3281 2906 2969 
L 2906 3500 
L 3481 3500 
L 3481 -1331 
L 2906 -1331 
L 2906 525 
z
" transform="scale(0.015625)"/>
      <path id="DejaVuSans-75" d="M 544 1381 
L 544 3500 
L 1119 3500 
L 1119 1403 
Q 1119 906 1312 657 
Q 1506 409 1894 409 
Q 2359 409 2629 706 
Q 2900 1003 2900 1516 
L 2900 3500 
L 3475 3500 
L 3475 0 
L 2900 0 
L 2900 538 
Q 2691 219 2414 64 
Q 2138 -91 1772 -91 
Q 1169 -91 856 284 
Q 544 659 544 1381 
z
M 1991 3584 
L 1991 3584 
z
" transform="scale(0.015625)"/>
      <path id="DejaVuSans-6f" d="M 1959 3097 
Q 1497 3097 1228 2736 
Q 959 2375 959 1747 
Q 959 1119 1226 758 
Q 1494 397 1959 397 
Q 2419 397 2687 759 
Q 2956 1122 2956 1747 
Q 2956 2369 2687 2733 
Q 2419 3097 1959 3097 
z
M 1959 3584 
Q 2709 3584 3137 3096 
Q 3566 2609 3566 1747 
Q 3566 888 3137 398 
Q 2709 -91 1959 -91 
Q 1206 -91 779 398 
Q 353 888 353 1747 
Q 353 2609 779 3096 
Q 1206 3584 1959 3584 
z
" transform="scale(0.015625)"/>
     </defs>
     <use xlink:href="#DejaVuSans-46"/>
     <use xlink:href="#DejaVuSans-61" x="48.394531"/>
     <use xlink:href="#DejaVuSans-73" x="109.673828"/>
     <use xlink:href="#DejaVuSans-74" x="161.773438"/>
     <use xlink:href="#DejaVuSans-51" x="200.982422"/>
     <use xlink:href="#DejaVuSans-43" x="279.693359"/>
     <use xlink:href="#DejaVuSans-3a" x="349.517578"/>
     <use xlink:href="#DejaVuSans-20" x="383.208984"/>
     <use xlink:href="#DejaVuSans-50" x="414.996094"/>
     <use xlink:href="#DejaVuSans-65" x="471.673828"/>
     <use xlink:href="#DejaVuSans-72" x="533.197266"/>
     <use xlink:href="#DejaVuSans-20" x="574.310547"/>
     <use xlink:href="#DejaVuSans-53" x="606.097656"/>
     <use xlink:href="#DejaVuSans-65" x="669.574219"/>
     <use xlink:href="#DejaVuSans-71" x="731.097656"/>
     <use xlink:href="#DejaVuSans-75" x="794.574219"/>
     <use xlink:href="#DejaVuSans-65" x="857.953125"/>
     <use xlink:href="#DejaVuSans-6e" x="919.476562"/>
     <use xlink:href="#DejaVuSans-63" x="982.855469"/>
     <use xlink:href="#DejaVuSans-65" x="1037.835938"/>
     <use xlink:href="#DejaVuSans-20" x="1099.359375"/>
     <use xlink:href="#DejaVuSans-47" x="1131.146484"/>
     <use xlink:href="#DejaVuSans-43" x="1208.636719"/>
     <use xlink:href="#DejaVuSans-20" x="1278.460938"/>
     <use xlink:href="#DejaVuSans-43" x="1310.248047"/>
     <use xlink:href="#DejaVuSans-6f" x="1380.072266"/>
     <use xlink:href="#DejaVuSans-6e" x="1441.253906"/>
     <use xlink:href="#DejaVuSans-74" x="1504.632812"/>
     <use xlink:href="#DejaVuSans-65" x="1543.841797"/>
     <use xlink:href="#DejaVuSans-6e" x="1605.365234"/>
     <use xlink:href="#DejaVuSans-74" x="1668.744141"/>
    </g>
   </g>
   <g id="legend_1">
    <g id="line2d_16">
     <path d="M 40.168125 303.490394 
L 48.168125 303.490394 
L 56.168125 303.490394 
" style="fill: none; stroke: #5cb85c; stroke-linecap: square"/>
    </g>
    <g id="text_16">
     <!-- OSMOTIC_STRESS_T0_REP1_T1_1 -->
     <g transform="translate(62.568125 306.290394)scale(0.08 -0.08)">
      <defs>
       <path id="DejaVuSans-4f" d="M 2522 4238 
Q 1834 4238 1429 3725 
Q 1025 3213 1025 2328 
Q 1025 1447 1429 934 
Q 1834 422 2522 422 
Q 3209 422 3611 934 
Q 4013 1447 4013 2328 
Q 4013 3213 3611 3725 
Q 3209 4238 2522 4238 
z
M 2522 4750 
Q 3503 4750 4090 4092 
Q 4678 3434 4678 2328 
Q 4678 1225 4090 567 
Q 3503 -91 2522 -91 
Q 1538 -91 948 565 
Q 359 1222 359 2328 
Q 359 3434 948 4092 
Q 1538 4750 2522 4750 
z
" transform="scale(0.015625)"/>
       <path id="DejaVuSans-4d" d="M 628 4666 
L 1569 4666 
L 2759 1491 
L 3956 4666 
L 4897 4666 
L 4897 0 
L 4281 0 
L 4281 4097 
L 3078 897 
L 2444 897 
L 1241 4097 
L 1241 0 
L 628 0 
L 628 4666 
z
" transform="scale(0.015625)"/>
       <path id="DejaVuSans-54" d="M -19 4666 
L 3928 4666 
L 3928 4134 
L 2272 4134 
L 2272 0 
L 1638 0 
L 1638 4134 
L -19 4134 
L -19 4666 
z
" transform="scale(0.015625)"/>
       <path id="DejaVuSans-49" d="M 628 4666 
L 1259 4666 
L 1259 0 
L 628 0 
L 628 4666 
z
" transform="scale(0.015625)"/>
       <path id="DejaVuSans-5f" d="M 3263 -1063 
L 3263 -1509 
L -63 -1509 
L -63 -1063 
L 3263 -1063 
z
" transform="scale(0.015625)"/>
       <path id="DejaVuSans-52" d="M 2841 2188 
Q 3044 2119 3236 1894 
Q 3428 1669 3622 1275 
L 4263 0 
L 3584 0 
L 2988 1197 
Q 2756 1666 2539 1819 
Q 2322 1972 1947 1972 
L 1259 1972 
L 1259 0 
L 628 0 
L 628 4666 
L 2053 4666 
Q 2853 4666 3247 4331 
Q 3641 3997 3641 3322 
Q 3641 2881 3436 2590 
Q 3231 2300 2841 2188 
z
M 1259 4147 
L 1259 2491 
L 2053 2491 
Q 2509 2491 2742 2702 
Q 2975 2913 2975 3322 
Q 2975 3731 2742 3939 
Q 2509 4147 2053 4147 
L 1259 4147 
z
" transform="scale(0.015625)"/>
       <path id="DejaVuSans-45" d="M 628 4666 
L 3578 4666 
L 3578 4134 
L 1259 4134 
L 1259 2753 
L 3481 2753 
L 3481 2222 
L 1259 2222 
L 1259 531 
L 3634 531 
L 3634 0 
L 628 0 
L 628 4666 
z
" transform="scale(0.015625)"/>
      </defs>
      <use xlink:href="#DejaVuSans-4f"/>
      <use xlink:href="#DejaVuSans-53" x="78.710938"/>
      <use xlink:href="#DejaVuSans-4d" x="142.1875"/>
      <use xlink:href="#DejaVuSans-4f" x="228.466797"/>
      <use xlink:href="#DejaVuSans-54" x="307.177734"/>
      <use xlink:href="#DejaVuSans-49" x="368.261719"/>
      <use xlink:href="#DejaVuSans-43" x="397.753906"/>
      <use xlink:href="#DejaVuSans-5f" x="467.578125"/>
      <use xlink:href="#DejaVuSans-53" x="517.578125"/>
      <use xlink:href="#DejaVuSans-54" x="581.054688"/>
      <use xlink:href="#DejaVuSans-52" x="642.138672"/>
      <use xlink:href="#DejaVuSans-45" x="711.621094"/>
      <use xlink:href="#DejaVuSans-53" x="774.804688"/>
      <use xlink:href="#DejaVuSans-53" x="838.28125"/>
      <use xlink:href="#DejaVuSans-5f" x="901.757812"/>
      <use xlink:href="#DejaVuSans-54" x="951.757812"/>
      <use xlink:href="#DejaVuSans-30" x="1012.841797"/>
      <use xlink:href="#DejaVuSans-5f" x="1076.464844"/>
      <use xlink:href="#DejaVuSans-52" x="1126.464844"/>
      <use xlink:href="#DejaVuSans-45" x="1195.947266"/>
      <use xlink:href="#DejaVuSans-50" x="1259.130859"/>
      <use xlink:href="#DejaVuSans-31" x="1319.433594"/>
      <use xlink:href="#DejaVuSans-5f" x="1383.056641"/>
      <use xlink:href="#DejaVuSans-54" x="1433.056641"/>
      <use xlink:href="#DejaVuSans-31" x="1494.140625"/>
      <use xlink:href="#DejaVuSans-5f" x="1557.763672"/>
      <use xlink:href="#DejaVuSans-31" x="1607.763672"/>
     </g>
    </g>
    <g id="line2d_17">
     <path d="M 40.168125 315.455394 
L 48.168125 315.455394 
L 56.168125 315.455394 
" style="fill: none; stroke: #f0ad4e; stroke-linecap: square"/>
    </g>
    <g id="text_17">
     <!-- OSMOTIC_STRESS_T0_REP1_T1_2 -->
     <g transform="translate(62.568125 318.255394)scale(0.08 -0.08)">
      <use xlink:href="#DejaVuSans-4f"/>
      <use xlink:href="#DejaVuSans-53" x="78.710938"/>
      <use xlink:href="#DejaVuSans-4d" x="142.1875"/>
      <use xlink:href="#DejaVuSans-4f" x="228.466797"/>
      <use xlink:href="#DejaVuSans-54" x="307.177734"/>
      <use xlink:href="#DejaVuSans-49" x="368.261719"/>
      <use xlink:href="#DejaVuSans-43" x="397.753906"/>
      <use xlink:href="#DejaVuSans-5f" x="467.578125"/>
      <use xlink:href="#DejaVuSans-53" x="517.578125"/>
      <use xlink:href="#DejaVuSans-54" x="581.054688"/>
      <use xlink:href="#DejaVuSans-52" x="642.138672"/>
      <use xlink:href="#DejaVuSans-45" x="711.621094"/>
      <use xlink:href="#DejaVuSans-53" x="774.804688"/>
      <use xlink:href="#DejaVuSans-53" x="838.28125"/>
      <use xlink:href="#DejaVuSans-5f" x="901.757812"/>
      <use xlink:href="#DejaVuSans-54" x="951.757812"/>
      <use xlink:href="#DejaVuSans-30" x="1012.841797"/>
      <use xlink:href="#DejaVuSans-5f" x="1076.464844"/>
      <use xlink:href="#DejaVuSans-52" x="1126.464844"/>
      <use xlink:href="#DejaVuSans-45" x="1195.947266"/>
      <use xlink:href="#DejaVuSans-50" x="1259.130859"/>
      <use xlink:href="#DejaVuSans-31" x="1319.433594"/>
      <use xlink:href="#DejaVuSans-5f" x="1383.056641"/>
      <use xlink:href="#DejaVuSans-54" x="1433.056641"/>
      <use xlink:href="#DejaVuSans-31" x="1494.140625"/>
      <use xlink:href="#DejaVuSans-5f" x="1557.763672"/>
      <use xlink:href="#DejaVuSans-32" x="1607.763672"/>
     </g>
    </g>
    <g id="line2d_18">
     <path d="M 231.845625 303.490394 
L 239.845625 303.490394 
L 247.845625 303.490394 
" style="fill: none; stroke: #5cb85c; stroke-linecap: square"/>
    </g>
    <g id="text_18">
     <!-- OSMOTIC_STRESS_T0_REP2_T1_1 -->
     <g transform="translate(254.245625 306.290394)scale(0.08 -0.08)">
      <use xlink:href="#DejaVuSans-4f"/>
      <use xlink:href="#DejaVuSans-53" x="78.710938"/>
      <use xlink:href="#DejaVuSans-4d" x="142.1875"/>
      <use xlink:href="#DejaVuSans-4f" x="228.466797"/>
      <use xlink:href="#DejaVuSans-54" x="307.177734"/>
      <use xlink:href="#DejaVuSans-49" x="368.261719"/>
      <use xlink:href="#DejaVuSans-43" x="397.753906"/>
      <use xlink:href="#DejaVuSans-5f" x="467.578125"/>
      <use xlink:href="#DejaVuSans-53" x="517.578125"/>
      <use xlink:href="#DejaVuSans-54" x="581.054688"/>
      <use xlink:href="#DejaVuSans-52" x="642.138672"/>
      <use xlink:href="#DejaVuSans-45" x="711.621094"/>
      <use xlink:href="#DejaVuSans-53" x="774.804688"/>
      <use xlink:href="#DejaVuSans-53" x="838.28125"/>
      <use xlink:href="#DejaVuSans-5f" x="901.757812"/>
      <use xlink:href="#DejaVuSans-54" x="951.757812"/>
      <use xlink:href="#DejaVuSans-30" x="1012.841797"/>
      <use xlink:href="#DejaVuSans-5f" x="1076.464844"/>
      <use xlink:href="#DejaVuSans-52" x="1126.464844"/>
      <use xlink:href="#DejaVuSans-45" x="1195.947266"/>
      <use xlink:href="#DejaVuSans-50" x="1259.130859"/>
      <use xlink:href="#DejaVuSans-32" x="1319.433594"/>
      <use xlink:href="#DejaVuSans-5f" x="1383.056641"/>
      <use xlink:href="#DejaVuSans-54" x="1433.056641"/>
      <use xlink:href="#DejaVuSans-31" x="1494.140625"/>
      <use xlink:href="#DejaVuSans-5f" x="1557.763672"/>
      <use xlink:href="#DejaVuSans-31" x="1607.763672"/>
     </g>
    </g>
    <g id="line2d_19">
     <path d="M 231.845625 315.455394 
L 239.845625 315.455394 
L 247.845625 315.455394 
" style="fill: none; stroke: #f0ad4e; stroke-linecap: square"/>
    </g>
    <g id="text_19">
     <!-- OSMOTIC_STRESS_T0_REP2_T1_2 -->
     <g transform="translate(254.245625 318.255394)scale(0.08 -0.08)">
      <use xlink:href="#DejaVuSans-4f"/>
      <use xlink:href="#DejaVuSans-53" x="78.710938"/>
      <use xlink:href="#DejaVuSans-4d" x="142.1875"/>
      <use xlink:href="#DejaVuSans-4f" x="228.466797"/>
      <use xlink:href="#DejaVuSans-54" x="307.177734"/>
      <use xlink:href="#DejaVuSans-49" x="368.261719"/>
      <use xlink:href="#DejaVuSans-43" x="397.753906"/>
      <use xlink:href="#DejaVuSans-5f" x="467.578125"/>
      <use xlink:href="#DejaVuSans-53" x="517.578125"/>
      <use xlink:href="#DejaVuSans-54" x="581.054688"/>
      <use xlink:href="#DejaVuSans-52" x="642.138672"/>
      <use xlink:href="#DejaVuSans-45" x="711.621094"/>
      <use xlink:href="#DejaVuSans-53" x="774.804688"/>
      <use xlink:href="#DejaVuSans-53" x="838.28125"/>
      <use xlink:href="#DejaVuSans-5f" x="901.757812"/>
      <use xlink:href="#DejaVuSans-54" x="951.757812"/>
      <use xlink:href="#DejaVuSans-30" x="1012.841797"/>
      <use xlink:href="#DejaVuSans-5f" x="1076.464844"/>
      <use xlink:href="#DejaVuSans-52" x="1126.464844"/>
      <use xlink:href="#DejaVuSans-45" x="1195.947266"/>
      <use xlink:href="#DejaVuSans-50" x="1259.130859"/>
      <use xlink:href="#DejaVuSans-32" x="1319.433594"/>
      <use xlink:href="#DejaVuSans-5f" x="1383.056641"/>
      <use xlink:href="#DejaVuSans-54" x="1433.056641"/>
      <use xlink:href="#DejaVuSans-31" x="1494.140625"/>
      <use xlink:href="#DejaVuSans-5f" x="1557.763672"/>
      <use xlink:href="#DejaVuSans-32" x="1607.763672"/>
     </g>
    </g>
    <g id="line2d_20">
     <path d="M 423.523125 303.490394 
L 431.523125 303.490394 
L 439.523125 303.490394 
" style="fill: none; stroke: #5cb85c; stroke-linecap: square"/>
    </g>
    <g id="text_20">
     <!-- OSMOTIC_STRESS_T15_REP1_T1_1 -->
     <g transform="translate(445.923125 306.290394)scale(0.08 -0.08)">
      <use xlink:href="#DejaVuSans-4f"/>
      <use xlink:href="#DejaVuSans-53" x="78.710938"/>
      <use xlink:href="#DejaVuSans-4d" x="142.1875"/>
      <use xlink:href="#DejaVuSans-4f" x="228.466797"/>
      <use xlink:href="#DejaVuSans-54" x="307.177734"/>
      <use xlink:href="#DejaVuSans-49" x="368.261719"/>
      <use xlink:href="#DejaVuSans-43" x="397.753906"/>
      <use xlink:href="#DejaVuSans-5f" x="467.578125"/>
      <use xlink:href="#DejaVuSans-53" x="517.578125"/>
      <use xlink:href="#DejaVuSans-54" x="581.054688"/>
      <use xlink:href="#DejaVuSans-52" x="642.138672"/>
      <use xlink:href="#DejaVuSans-45" x="711.621094"/>
      <use xlink:href="#DejaVuSans-53" x="774.804688"/>
      <use xlink:href="#DejaVuSans-53" x="838.28125"/>
      <use xlink:href="#DejaVuSans-5f" x="901.757812"/>
      <use xlink:href="#DejaVuSans-54" x="951.757812"/>
      <use xlink:href="#DejaVuSans-31" x="1012.841797"/>
      <use xlink:href="#DejaVuSans-35" x="1076.464844"/>
      <use xlink:href="#DejaVuSans-5f" x="1140.087891"/>
      <use xlink:href="#DejaVuSans-52" x="1190.087891"/>
      <use xlink:href="#DejaVuSans-45" x="1259.570312"/>
      <use xlink:href="#DejaVuSans-50" x="1322.753906"/>
      <use xlink:href="#DejaVuSans-31" x="1383.056641"/>
      <use xlink:href="#DejaVuSans-5f" x="1446.679688"/>
      <use xlink:href="#DejaVuSans-54" x="1496.679688"/>
      <use xlink:href="#DejaVuSans-31" x="1557.763672"/>
      <use xlink:href="#DejaVuSans-5f" x="1621.386719"/>
      <use xlink:href="#DejaVuSans-31" x="1671.386719"/>
     </g>
    </g>
    <g id="line2d_21">
     <path d="M 423.523125 315.455394 
L 431.523125 315.455394 
L 439.523125 315.455394 
" style="fill: none; stroke: #5cb85c; stroke-linecap: square"/>
    </g>
    <g id="text_21">
     <!-- OSMOTIC_STRESS_T15_REP1_T1_2 -->
     <g transform="translate(445.923125 318.255394)scale(0.08 -0.08)">
      <use xlink:href="#DejaVuSans-4f"/>
      <use xlink:href="#DejaVuSans-53" x="78.710938"/>
      <use xlink:href="#DejaVuSans-4d" x="142.1875"/>
      <use xlink:href="#DejaVuSans-4f" x="228.466797"/>
      <use xlink:href="#DejaVuSans-54" x="307.177734"/>
      <use xlink:href="#DejaVuSans-49" x="368.261719"/>
      <use xlink:href="#DejaVuSans-43" x="397.753906"/>
      <use xlink:href="#DejaVuSans-5f" x="467.578125"/>
      <use xlink:href="#DejaVuSans-53" x="517.578125"/>
      <use xlink:href="#DejaVuSans-54" x="581.054688"/>
      <use xlink:href="#DejaVuSans-52" x="642.138672"/>
      <use xlink:href="#DejaVuSans-45" x="711.621094"/>
      <use xlink:href="#DejaVuSans-53" x="774.804688"/>
      <use xlink:href="#DejaVuSans-53" x="838.28125"/>
      <use xlink:href="#DejaVuSans-5f" x="901.757812"/>
      <use xlink:href="#DejaVuSans-54" x="951.757812"/>
      <use xlink:href="#DejaVuSans-31" x="1012.841797"/>
      <use xlink:href="#DejaVuSans-35" x="1076.464844"/>
      <use xlink:href="#DejaVuSans-5f" x="1140.087891"/>
      <use xlink:href="#DejaVuSans-52" x="1190.087891"/>
      <use xlink:href="#DejaVuSans-45" x="1259.570312"/>
      <use xlink:href="#DejaVuSans-50" x="1322.753906"/>
      <use xlink:href="#DejaVuSans-31" x="1383.056641"/>
      <use xlink:href="#DejaVuSans-5f" x="1446.679688"/>
      <use xlink:href="#DejaVuSans-54" x="1496.679688"/>
      <use xlink:href="#DejaVuSans-31" x="1557.763672"/>
      <use xlink:href="#DejaVuSans-5f" x="1621.386719"/>
      <use xlink:href="#DejaVuSans-32" x="1671.386719"/>
     </g>
    </g>
    <g id="line2d_22">
     <path d="M 620.290625 303.490394 
L 628.290625 303.490394 
L 636.290625 303.490394 
" style="fill: none; stroke: #5cb85c; stroke-linecap: square"/>
    </g>
    <g id="text_22">
     <!-- OSMOTIC_STRESS_T15_REP2_T1_1 -->
     <g transform="translate(642.690625 306.290394)scale(0.08 -0.08)">
      <use xlink:href="#DejaVuSans-4f"/>
      <use xlink:href="#DejaVuSans-53" x="78.710938"/>
      <use xlink:href="#DejaVuSans-4d" x="142.1875"/>
      <use xlink:href="#DejaVuSans-4f" x="228.466797"/>
      <use xlink:href="#DejaVuSans-54" x="307.177734"/>
      <use xlink:href="#DejaVuSans-49" x="368.261719"/>
      <use xlink:href="#DejaVuSans-43" x="397.753906"/>
      <use xlink:href="#DejaVuSans-5f" x="467.578125"/>
      <use xlink:href="#DejaVuSans-53" x="517.578125"/>
      <use xlink:href="#DejaVuSans-54" x="581.054688"/>
      <use xlink:href="#DejaVuSans-52" x="642.138672"/>
      <use xlink:href="#DejaVuSans-45" x="711.621094"/>
      <use xlink:href="#DejaVuSans-53" x="774.804688"/>
      <use xlink:href="#DejaVuSans-53" x="838.28125"/>
      <use xlink:href="#DejaVuSans-5f" x="901.757812"/>
      <use xlink:href="#DejaVuSans-54" x="951.757812"/>
      <use xlink:href="#DejaVuSans-31" x="1012.841797"/>
      <use xlink:href="#DejaVuSans-35" x="1076.464844"/>
      <use xlink:href="#DejaVuSans-5f" x="1140.087891"/>
      <use xlink:href="#DejaVuSans-52" x="1190.087891"/>
      <use xlink:href="#DejaVuSans-45" x="1259.570312"/>
      <use xlink:href="#DejaVuSans-50" x="1322.753906"/>
      <use xlink:href="#DejaVuSans-32" x="1383.056641"/>
      <use xlink:href="#DejaVuSans-5f" x="1446.679688"/>
      <use xlink:href="#DejaVuSans-54" x="1496.679688"/>
      <use xlink:href="#DejaVuSans-31" x="1557.763672"/>
      <use xlink:href="#DejaVuSans-5f" x="1621.386719"/>
      <use xlink:href="#DejaVuSans-31" x="1671.386719"/>
     </g>
    </g>
    <g id="line2d_23">
     <path d="M 817.058125 303.490394 
L 825.058125 303.490394 
L 833.058125 303.490394 
" style="fill: none; stroke: #5cb85c; stroke-linecap: square"/>
    </g>
    <g id="text_23">
     <!-- OSMOTIC_STRESS_T15_REP2_T1_2 -->
     <g transform="translate(839.458125 306.290394)scale(0.08 -0.08)">
      <use xlink:href="#DejaVuSans-4f"/>
      <use xlink:href="#DejaVuSans-53" x="78.710938"/>
      <use xlink:href="#DejaVuSans-4d" x="142.1875"/>
      <use xlink:href="#DejaVuSans-4f" x="228.466797"/>
      <use xlink:href="#DejaVuSans-54" x="307.177734"/>
      <use xlink:href="#DejaVuSans-49" x="368.261719"/>
      <use xlink:href="#DejaVuSans-43" x="397.753906"/>
      <use xlink:href="#DejaVuSans-5f" x="467.578125"/>
      <use xlink:href="#DejaVuSans-53" x="517.578125"/>
      <use xlink:href="#DejaVuSans-54" x="581.054688"/>
      <use xlink:href="#DejaVuSans-52" x="642.138672"/>
      <use xlink:href="#DejaVuSans-45" x="711.621094"/>
      <use xlink:href="#DejaVuSans-53" x="774.804688"/>
      <use xlink:href="#DejaVuSans-53" x="838.28125"/>
      <use xlink:href="#DejaVuSans-5f" x="901.757812"/>
      <use xlink:href="#DejaVuSans-54" x="951.757812"/>
      <use xlink:href="#DejaVuSans-31" x="1012.841797"/>
      <use xlink:href="#DejaVuSans-35" x="1076.464844"/>
      <use xlink:href="#DejaVuSans-5f" x="1140.087891"/>
      <use xlink:href="#DejaVuSans-52" x="1190.087891"/>
      <use xlink:href="#DejaVuSans-45" x="1259.570312"/>
      <use xlink:href="#DejaVuSans-50" x="1322.753906"/>
      <use xlink:href="#DejaVuSans-32" x="1383.056641"/>
      <use xlink:href="#DejaVuSans-5f" x="1446.679688"/>
      <use xlink:href="#DejaVuSans-54" x="1496.679688"/>
      <use xlink:href="#DejaVuSans-31" x="1557.763672"/>
      <use xlink:href="#DejaVuSans-5f" x="1621.386719"/>
      <use xlink:href="#DejaVuSans-32" x="1671.386719"/>
     </g>
    </g>
   </g>
  </g>
 </g>
 <defs>
  <clipPath id="p939235528a">
   <rect x="32.968125" y="31.48286" width="952.495" height="242.5072"/>
  </clipPath>
 </defs>
</svg>
