<?xml version="1.0" encoding="utf-8" standalone="no"?>
<!DOCTYPE svg PUBLIC "-//W3C//DTD SVG 1.1//EN"
  "http://www.w3.org/Graphics/SVG/1.1/DTD/svg11.dtd">
<svg xmlns:xlink="http://www.w3.org/1999/xlink" width="944.44875pt" height="426.2pt" viewBox="0 0 944.44875 426.2" xmlns="http://www.w3.org/2000/svg" version="1.1">
 <metadata>
  <rdf:RDF xmlns:dc="http://purl.org/dc/elements/1.1/" xmlns:cc="http://creativecommons.org/ns#" xmlns:rdf="http://www.w3.org/1999/02/22-rdf-syntax-ns#">
   <cc:Work>
    <dc:type rdf:resource="http://purl.org/dc/dcmitype/StillImage"/>
    <dc:date>2022-11-03T22:56:44.291109</dc:date>
    <dc:format>image/svg+xml</dc:format>
    <dc:creator>
     <cc:Agent>
      <dc:title>Matplotlib v3.5.2, https://matplotlib.org/</dc:title>
     </cc:Agent>
    </dc:creator>
   </cc:Work>
  </rdf:RDF>
 </metadata>
 <defs>
  <style type="text/css">*{stroke-linejoin: round; stroke-linecap: butt}</style>
 </defs>
 <g id="figure_1">
  <g id="axes_1">
   <g id="patch_1">
    <path d="M 149.6875 339.84 
L 930.8875 339.84 
L 930.8875 7.2 
L 149.6875 7.2 
z
" style="fill: #ffffff"/>
   </g>
   <g id="matplotlib.axis_1">
    <g id="xtick_1">
     <g id="line2d_1">
      <path d="M 149.6875 339.84 
L 149.6875 7.2 
" clip-path="url(#pda9d9b4da5)" style="fill: none; stroke: #dedede; stroke-linecap: square"/>
     </g>
     <g id="text_1">
      <!-- 0.0 -->
      <g transform="translate(143.32625 352.91875)scale(0.08 -0.08)">
       <defs>
        <path id="DejaVuSans-30" d="M 2034 4250 
Q 1547 4250 1301 3770 
Q 1056 3291 1056 2328 
Q 1056 1369 1301 889 
Q 1547 409 2034 409 
Q 2525 409 2770 889 
Q 3016 1369 3016 2328 
Q 3016 3291 2770 3770 
Q 2525 4250 2034 4250 
z
M 2034 4750 
Q 2819 4750 3233 4129 
Q 3647 3509 3647 2328 
Q 3647 1150 3233 529 
Q 2819 -91 2034 -91 
Q 1250 -91 836 529 
Q 422 1150 422 2328 
Q 422 3509 836 4129 
Q 1250 4750 2034 4750 
z
" transform="scale(0.015625)"/>
        <path id="DejaVuSans-2e" d="M 684 794 
L 1344 794 
L 1344 0 
L 684 0 
L 684 794 
z
" transform="scale(0.015625)"/>
       </defs>
       <use xlink:href="#DejaVuSans-30"/>
       <use xlink:href="#DejaVuSans-2e" x="63.623047"/>
       <use xlink:href="#DejaVuSans-30" x="95.410156"/>
      </g>
     </g>
    </g>
    <g id="xtick_2">
     <g id="line2d_2">
      <path d="M 305.9275 339.84 
L 305.9275 7.2 
" clip-path="url(#pda9d9b4da5)" style="fill: none; stroke: #dedede; stroke-linecap: square"/>
     </g>
     <g id="text_2">
      <!-- 0.2 -->
      <g transform="translate(299.56625 352.91875)scale(0.08 -0.08)">
       <defs>
        <path id="DejaVuSans-32" d="M 1228 531 
L 3431 531 
L 3431 0 
L 469 0 
L 469 531 
Q 828 903 1448 1529 
Q 2069 2156 2228 2338 
Q 2531 2678 2651 2914 
Q 2772 3150 2772 3378 
Q 2772 3750 2511 3984 
Q 2250 4219 1831 4219 
Q 1534 4219 1204 4116 
Q 875 4013 500 3803 
L 500 4441 
Q 881 4594 1212 4672 
Q 1544 4750 1819 4750 
Q 2544 4750 2975 4387 
Q 3406 4025 3406 3419 
Q 3406 3131 3298 2873 
Q 3191 2616 2906 2266 
Q 2828 2175 2409 1742 
Q 1991 1309 1228 531 
z
" transform="scale(0.015625)"/>
       </defs>
       <use xlink:href="#DejaVuSans-30"/>
       <use xlink:href="#DejaVuSans-2e" x="63.623047"/>
       <use xlink:href="#DejaVuSans-32" x="95.410156"/>
      </g>
     </g>
    </g>
    <g id="xtick_3">
     <g id="line2d_3">
      <path d="M 462.1675 339.84 
L 462.1675 7.2 
" clip-path="url(#pda9d9b4da5)" style="fill: none; stroke: #dedede; stroke-linecap: square"/>
     </g>
     <g id="text_3">
      <!-- 0.4 -->
      <g transform="translate(455.80625 352.91875)scale(0.08 -0.08)">
       <defs>
        <path id="DejaVuSans-34" d="M 2419 4116 
L 825 1625 
L 2419 1625 
L 2419 4116 
z
M 2253 4666 
L 3047 4666 
L 3047 1625 
L 3713 1625 
L 3713 1100 
L 3047 1100 
L 3047 0 
L 2419 0 
L 2419 1100 
L 313 1100 
L 313 1709 
L 2253 4666 
z
" transform="scale(0.015625)"/>
       </defs>
       <use xlink:href="#DejaVuSans-30"/>
       <use xlink:href="#DejaVuSans-2e" x="63.623047"/>
       <use xlink:href="#DejaVuSans-34" x="95.410156"/>
      </g>
     </g>
    </g>
    <g id="xtick_4">
     <g id="line2d_4">
      <path d="M 618.4075 339.84 
L 618.4075 7.2 
" clip-path="url(#pda9d9b4da5)" style="fill: none; stroke: #dedede; stroke-linecap: square"/>
     </g>
     <g id="text_4">
      <!-- 0.6 -->
      <g transform="translate(612.04625 352.91875)scale(0.08 -0.08)">
       <defs>
        <path id="DejaVuSans-36" d="M 2113 2584 
Q 1688 2584 1439 2293 
Q 1191 2003 1191 1497 
Q 1191 994 1439 701 
Q 1688 409 2113 409 
Q 2538 409 2786 701 
Q 3034 994 3034 1497 
Q 3034 2003 2786 2293 
Q 2538 2584 2113 2584 
z
M 3366 4563 
L 3366 3988 
Q 3128 4100 2886 4159 
Q 2644 4219 2406 4219 
Q 1781 4219 1451 3797 
Q 1122 3375 1075 2522 
Q 1259 2794 1537 2939 
Q 1816 3084 2150 3084 
Q 2853 3084 3261 2657 
Q 3669 2231 3669 1497 
Q 3669 778 3244 343 
Q 2819 -91 2113 -91 
Q 1303 -91 875 529 
Q 447 1150 447 2328 
Q 447 3434 972 4092 
Q 1497 4750 2381 4750 
Q 2619 4750 2861 4703 
Q 3103 4656 3366 4563 
z
" transform="scale(0.015625)"/>
       </defs>
       <use xlink:href="#DejaVuSans-30"/>
       <use xlink:href="#DejaVuSans-2e" x="63.623047"/>
       <use xlink:href="#DejaVuSans-36" x="95.410156"/>
      </g>
     </g>
    </g>
    <g id="xtick_5">
     <g id="line2d_5">
      <path d="M 774.6475 339.84 
L 774.6475 7.2 
" clip-path="url(#pda9d9b4da5)" style="fill: none; stroke: #dedede; stroke-linecap: square"/>
     </g>
     <g id="text_5">
      <!-- 0.8 -->
      <g transform="translate(768.28625 352.91875)scale(0.08 -0.08)">
       <defs>
        <path id="DejaVuSans-38" d="M 2034 2216 
Q 1584 2216 1326 1975 
Q 1069 1734 1069 1313 
Q 1069 891 1326 650 
Q 1584 409 2034 409 
Q 2484 409 2743 651 
Q 3003 894 3003 1313 
Q 3003 1734 2745 1975 
Q 2488 2216 2034 2216 
z
M 1403 2484 
Q 997 2584 770 2862 
Q 544 3141 544 3541 
Q 544 4100 942 4425 
Q 1341 4750 2034 4750 
Q 2731 4750 3128 4425 
Q 3525 4100 3525 3541 
Q 3525 3141 3298 2862 
Q 3072 2584 2669 2484 
Q 3125 2378 3379 2068 
Q 3634 1759 3634 1313 
Q 3634 634 3220 271 
Q 2806 -91 2034 -91 
Q 1263 -91 848 271 
Q 434 634 434 1313 
Q 434 1759 690 2068 
Q 947 2378 1403 2484 
z
M 1172 3481 
Q 1172 3119 1398 2916 
Q 1625 2713 2034 2713 
Q 2441 2713 2670 2916 
Q 2900 3119 2900 3481 
Q 2900 3844 2670 4047 
Q 2441 4250 2034 4250 
Q 1625 4250 1398 4047 
Q 1172 3844 1172 3481 
z
" transform="scale(0.015625)"/>
       </defs>
       <use xlink:href="#DejaVuSans-30"/>
       <use xlink:href="#DejaVuSans-2e" x="63.623047"/>
       <use xlink:href="#DejaVuSans-38" x="95.410156"/>
      </g>
     </g>
    </g>
    <g id="xtick_6">
     <g id="line2d_6">
      <path d="M 930.8875 339.84 
L 930.8875 7.2 
" clip-path="url(#pda9d9b4da5)" style="fill: none; stroke: #dedede; stroke-linecap: square"/>
     </g>
     <g id="text_6">
      <!-- 1.0 -->
      <g transform="translate(924.52625 352.91875)scale(0.08 -0.08)">
       <defs>
        <path id="DejaVuSans-31" d="M 794 531 
L 1825 531 
L 1825 4091 
L 703 3866 
L 703 4441 
L 1819 4666 
L 2450 4666 
L 2450 531 
L 3481 531 
L 3481 0 
L 794 0 
L 794 531 
z
" transform="scale(0.015625)"/>
       </defs>
       <use xlink:href="#DejaVuSans-31"/>
       <use xlink:href="#DejaVuSans-2e" x="63.623047"/>
       <use xlink:href="#DejaVuSans-30" x="95.410156"/>
      </g>
     </g>
    </g>
    <g id="text_7">
     <!-- FRiP score -->
     <g transform="translate(514.511719 366.180937)scale(0.1 -0.1)">
      <defs>
       <path id="DejaVuSans-46" d="M 628 4666 
L 3309 4666 
L 3309 4134 
L 1259 4134 
L 1259 2759 
L 3109 2759 
L 3109 2228 
L 1259 2228 
L 1259 0 
L 628 0 
L 628 4666 
z
" transform="scale(0.015625)"/>
       <path id="DejaVuSans-52" d="M 2841 2188 
Q 3044 2119 3236 1894 
Q 3428 1669 3622 1275 
L 4263 0 
L 3584 0 
L 2988 1197 
Q 2756 1666 2539 1819 
Q 2322 1972 1947 1972 
L 1259 1972 
L 1259 0 
L 628 0 
L 628 4666 
L 2053 4666 
Q 2853 4666 3247 4331 
Q 3641 3997 3641 3322 
Q 3641 2881 3436 2590 
Q 3231 2300 2841 2188 
z
M 1259 4147 
L 1259 2491 
L 2053 2491 
Q 2509 2491 2742 2702 
Q 2975 2913 2975 3322 
Q 2975 3731 2742 3939 
Q 2509 4147 2053 4147 
L 1259 4147 
z
" transform="scale(0.015625)"/>
       <path id="DejaVuSans-69" d="M 603 3500 
L 1178 3500 
L 1178 0 
L 603 0 
L 603 3500 
z
M 603 4863 
L 1178 4863 
L 1178 4134 
L 603 4134 
L 603 4863 
z
" transform="scale(0.015625)"/>
       <path id="DejaVuSans-50" d="M 1259 4147 
L 1259 2394 
L 2053 2394 
Q 2494 2394 2734 2622 
Q 2975 2850 2975 3272 
Q 2975 3691 2734 3919 
Q 2494 4147 2053 4147 
L 1259 4147 
z
M 628 4666 
L 2053 4666 
Q 2838 4666 3239 4311 
Q 3641 3956 3641 3272 
Q 3641 2581 3239 2228 
Q 2838 1875 2053 1875 
L 1259 1875 
L 1259 0 
L 628 0 
L 628 4666 
z
" transform="scale(0.015625)"/>
       <path id="DejaVuSans-20" transform="scale(0.015625)"/>
       <path id="DejaVuSans-73" d="M 2834 3397 
L 2834 2853 
Q 2591 2978 2328 3040 
Q 2066 3103 1784 3103 
Q 1356 3103 1142 2972 
Q 928 2841 928 2578 
Q 928 2378 1081 2264 
Q 1234 2150 1697 2047 
L 1894 2003 
Q 2506 1872 2764 1633 
Q 3022 1394 3022 966 
Q 3022 478 2636 193 
Q 2250 -91 1575 -91 
Q 1294 -91 989 -36 
Q 684 19 347 128 
L 347 722 
Q 666 556 975 473 
Q 1284 391 1588 391 
Q 1994 391 2212 530 
Q 2431 669 2431 922 
Q 2431 1156 2273 1281 
Q 2116 1406 1581 1522 
L 1381 1569 
Q 847 1681 609 1914 
Q 372 2147 372 2553 
Q 372 3047 722 3315 
Q 1072 3584 1716 3584 
Q 2034 3584 2315 3537 
Q 2597 3491 2834 3397 
z
" transform="scale(0.015625)"/>
       <path id="DejaVuSans-63" d="M 3122 3366 
L 3122 2828 
Q 2878 2963 2633 3030 
Q 2388 3097 2138 3097 
Q 1578 3097 1268 2742 
Q 959 2388 959 1747 
Q 959 1106 1268 751 
Q 1578 397 2138 397 
Q 2388 397 2633 464 
Q 2878 531 3122 666 
L 3122 134 
Q 2881 22 2623 -34 
Q 2366 -91 2075 -91 
Q 1284 -91 818 406 
Q 353 903 353 1747 
Q 353 2603 823 3093 
Q 1294 3584 2113 3584 
Q 2378 3584 2631 3529 
Q 2884 3475 3122 3366 
z
" transform="scale(0.015625)"/>
       <path id="DejaVuSans-6f" d="M 1959 3097 
Q 1497 3097 1228 2736 
Q 959 2375 959 1747 
Q 959 1119 1226 758 
Q 1494 397 1959 397 
Q 2419 397 2687 759 
Q 2956 1122 2956 1747 
Q 2956 2369 2687 2733 
Q 2419 3097 1959 3097 
z
M 1959 3584 
Q 2709 3584 3137 3096 
Q 3566 2609 3566 1747 
Q 3566 888 3137 398 
Q 2709 -91 1959 -91 
Q 1206 -91 779 398 
Q 353 888 353 1747 
Q 353 2609 779 3096 
Q 1206 3584 1959 3584 
z
" transform="scale(0.015625)"/>
       <path id="DejaVuSans-72" d="M 2631 2963 
Q 2534 3019 2420 3045 
Q 2306 3072 2169 3072 
Q 1681 3072 1420 2755 
Q 1159 2438 1159 1844 
L 1159 0 
L 581 0 
L 581 3500 
L 1159 3500 
L 1159 2956 
Q 1341 3275 1631 3429 
Q 1922 3584 2338 3584 
Q 2397 3584 2469 3576 
Q 2541 3569 2628 3553 
L 2631 2963 
z
" transform="scale(0.015625)"/>
       <path id="DejaVuSans-65" d="M 3597 1894 
L 3597 1613 
L 953 1613 
Q 991 1019 1311 708 
Q 1631 397 2203 397 
Q 2534 397 2845 478 
Q 3156 559 3463 722 
L 3463 178 
Q 3153 47 2828 -22 
Q 2503 -91 2169 -91 
Q 1331 -91 842 396 
Q 353 884 353 1716 
Q 353 2575 817 3079 
Q 1281 3584 2069 3584 
Q 2775 3584 3186 3129 
Q 3597 2675 3597 1894 
z
M 3022 2063 
Q 3016 2534 2758 2815 
Q 2500 3097 2075 3097 
Q 1594 3097 1305 2825 
Q 1016 2553 972 2059 
L 3022 2063 
z
" transform="scale(0.015625)"/>
      </defs>
      <use xlink:href="#DejaVuSans-46"/>
      <use xlink:href="#DejaVuSans-52" x="57.519531"/>
      <use xlink:href="#DejaVuSans-69" x="127.001953"/>
      <use xlink:href="#DejaVuSans-50" x="154.785156"/>
      <use xlink:href="#DejaVuSans-20" x="215.087891"/>
      <use xlink:href="#DejaVuSans-73" x="246.875"/>
      <use xlink:href="#DejaVuSans-63" x="298.974609"/>
      <use xlink:href="#DejaVuSans-6f" x="353.955078"/>
      <use xlink:href="#DejaVuSans-72" x="415.136719"/>
      <use xlink:href="#DejaVuSans-65" x="454"/>
     </g>
    </g>
   </g>
   <g id="matplotlib.axis_2">
    <g id="ytick_1">
     <g id="text_8">
      <!-- OSMOTIC_STRESS_T0_REP1.FRiP -->
      <g transform="translate(12.29 51.819375)scale(0.08 -0.08)">
       <defs>
        <path id="DejaVuSans-4f" d="M 2522 4238 
Q 1834 4238 1429 3725 
Q 1025 3213 1025 2328 
Q 1025 1447 1429 934 
Q 1834 422 2522 422 
Q 3209 422 3611 934 
Q 4013 1447 4013 2328 
Q 4013 3213 3611 3725 
Q 3209 4238 2522 4238 
z
M 2522 4750 
Q 3503 4750 4090 4092 
Q 4678 3434 4678 2328 
Q 4678 1225 4090 567 
Q 3503 -91 2522 -91 
Q 1538 -91 948 565 
Q 359 1222 359 2328 
Q 359 3434 948 4092 
Q 1538 4750 2522 4750 
z
" transform="scale(0.015625)"/>
        <path id="DejaVuSans-53" d="M 3425 4513 
L 3425 3897 
Q 3066 4069 2747 4153 
Q 2428 4238 2131 4238 
Q 1616 4238 1336 4038 
Q 1056 3838 1056 3469 
Q 1056 3159 1242 3001 
Q 1428 2844 1947 2747 
L 2328 2669 
Q 3034 2534 3370 2195 
Q 3706 1856 3706 1288 
Q 3706 609 3251 259 
Q 2797 -91 1919 -91 
Q 1588 -91 1214 -16 
Q 841 59 441 206 
L 441 856 
Q 825 641 1194 531 
Q 1563 422 1919 422 
Q 2459 422 2753 634 
Q 3047 847 3047 1241 
Q 3047 1584 2836 1778 
Q 2625 1972 2144 2069 
L 1759 2144 
Q 1053 2284 737 2584 
Q 422 2884 422 3419 
Q 422 4038 858 4394 
Q 1294 4750 2059 4750 
Q 2388 4750 2728 4690 
Q 3069 4631 3425 4513 
z
" transform="scale(0.015625)"/>
        <path id="DejaVuSans-4d" d="M 628 4666 
L 1569 4666 
L 2759 1491 
L 3956 4666 
L 4897 4666 
L 4897 0 
L 4281 0 
L 4281 4097 
L 3078 897 
L 2444 897 
L 1241 4097 
L 1241 0 
L 628 0 
L 628 4666 
z
" transform="scale(0.015625)"/>
        <path id="DejaVuSans-54" d="M -19 4666 
L 3928 4666 
L 3928 4134 
L 2272 4134 
L 2272 0 
L 1638 0 
L 1638 4134 
L -19 4134 
L -19 4666 
z
" transform="scale(0.015625)"/>
        <path id="DejaVuSans-49" d="M 628 4666 
L 1259 4666 
L 1259 0 
L 628 0 
L 628 4666 
z
" transform="scale(0.015625)"/>
        <path id="DejaVuSans-43" d="M 4122 4306 
L 4122 3641 
Q 3803 3938 3442 4084 
Q 3081 4231 2675 4231 
Q 1875 4231 1450 3742 
Q 1025 3253 1025 2328 
Q 1025 1406 1450 917 
Q 1875 428 2675 428 
Q 3081 428 3442 575 
Q 3803 722 4122 1019 
L 4122 359 
Q 3791 134 3420 21 
Q 3050 -91 2638 -91 
Q 1578 -91 968 557 
Q 359 1206 359 2328 
Q 359 3453 968 4101 
Q 1578 4750 2638 4750 
Q 3056 4750 3426 4639 
Q 3797 4528 4122 4306 
z
" transform="scale(0.015625)"/>
        <path id="DejaVuSans-5f" d="M 3263 -1063 
L 3263 -1509 
L -63 -1509 
L -63 -1063 
L 3263 -1063 
z
" transform="scale(0.015625)"/>
        <path id="DejaVuSans-45" d="M 628 4666 
L 3578 4666 
L 3578 4134 
L 1259 4134 
L 1259 2753 
L 3481 2753 
L 3481 2222 
L 1259 2222 
L 1259 531 
L 3634 531 
L 3634 0 
L 628 0 
L 628 4666 
z
" transform="scale(0.015625)"/>
       </defs>
       <use xlink:href="#DejaVuSans-4f"/>
       <use xlink:href="#DejaVuSans-53" x="78.710938"/>
       <use xlink:href="#DejaVuSans-4d" x="142.1875"/>
       <use xlink:href="#DejaVuSans-4f" x="228.466797"/>
       <use xlink:href="#DejaVuSans-54" x="307.177734"/>
       <use xlink:href="#DejaVuSans-49" x="368.261719"/>
       <use xlink:href="#DejaVuSans-43" x="397.753906"/>
       <use xlink:href="#DejaVuSans-5f" x="467.578125"/>
       <use xlink:href="#DejaVuSans-53" x="517.578125"/>
       <use xlink:href="#DejaVuSans-54" x="581.054688"/>
       <use xlink:href="#DejaVuSans-52" x="642.138672"/>
       <use xlink:href="#DejaVuSans-45" x="711.621094"/>
       <use xlink:href="#DejaVuSans-53" x="774.804688"/>
       <use xlink:href="#DejaVuSans-53" x="838.28125"/>
       <use xlink:href="#DejaVuSans-5f" x="901.757812"/>
       <use xlink:href="#DejaVuSans-54" x="951.757812"/>
       <use xlink:href="#DejaVuSans-30" x="1012.841797"/>
       <use xlink:href="#DejaVuSans-5f" x="1076.464844"/>
       <use xlink:href="#DejaVuSans-52" x="1126.464844"/>
       <use xlink:href="#DejaVuSans-45" x="1195.947266"/>
       <use xlink:href="#DejaVuSans-50" x="1259.130859"/>
       <use xlink:href="#DejaVuSans-31" x="1319.433594"/>
       <use xlink:href="#DejaVuSans-2e" x="1383.056641"/>
       <use xlink:href="#DejaVuSans-46" x="1414.84375"/>
       <use xlink:href="#DejaVuSans-52" x="1472.363281"/>
       <use xlink:href="#DejaVuSans-69" x="1541.845703"/>
       <use xlink:href="#DejaVuSans-50" x="1569.628906"/>
      </g>
     </g>
    </g>
    <g id="ytick_2">
     <g id="text_9">
      <!-- OSMOTIC_STRESS_T0_REP2.FRiP -->
      <g transform="translate(12.29 134.979375)scale(0.08 -0.08)">
       <use xlink:href="#DejaVuSans-4f"/>
       <use xlink:href="#DejaVuSans-53" x="78.710938"/>
       <use xlink:href="#DejaVuSans-4d" x="142.1875"/>
       <use xlink:href="#DejaVuSans-4f" x="228.466797"/>
       <use xlink:href="#DejaVuSans-54" x="307.177734"/>
       <use xlink:href="#DejaVuSans-49" x="368.261719"/>
       <use xlink:href="#DejaVuSans-43" x="397.753906"/>
       <use xlink:href="#DejaVuSans-5f" x="467.578125"/>
       <use xlink:href="#DejaVuSans-53" x="517.578125"/>
       <use xlink:href="#DejaVuSans-54" x="581.054688"/>
       <use xlink:href="#DejaVuSans-52" x="642.138672"/>
       <use xlink:href="#DejaVuSans-45" x="711.621094"/>
       <use xlink:href="#DejaVuSans-53" x="774.804688"/>
       <use xlink:href="#DejaVuSans-53" x="838.28125"/>
       <use xlink:href="#DejaVuSans-5f" x="901.757812"/>
       <use xlink:href="#DejaVuSans-54" x="951.757812"/>
       <use xlink:href="#DejaVuSans-30" x="1012.841797"/>
       <use xlink:href="#DejaVuSans-5f" x="1076.464844"/>
       <use xlink:href="#DejaVuSans-52" x="1126.464844"/>
       <use xlink:href="#DejaVuSans-45" x="1195.947266"/>
       <use xlink:href="#DejaVuSans-50" x="1259.130859"/>
       <use xlink:href="#DejaVuSans-32" x="1319.433594"/>
       <use xlink:href="#DejaVuSans-2e" x="1383.056641"/>
       <use xlink:href="#DejaVuSans-46" x="1414.84375"/>
       <use xlink:href="#DejaVuSans-52" x="1472.363281"/>
       <use xlink:href="#DejaVuSans-69" x="1541.845703"/>
       <use xlink:href="#DejaVuSans-50" x="1569.628906"/>
      </g>
     </g>
    </g>
    <g id="ytick_3">
     <g id="text_10">
      <!-- OSMOTIC_STRESS_T15_REP1.FRiP -->
      <g transform="translate(7.2 218.139375)scale(0.08 -0.08)">
       <defs>
        <path id="DejaVuSans-35" d="M 691 4666 
L 3169 4666 
L 3169 4134 
L 1269 4134 
L 1269 2991 
Q 1406 3038 1543 3061 
Q 1681 3084 1819 3084 
Q 2600 3084 3056 2656 
Q 3513 2228 3513 1497 
Q 3513 744 3044 326 
Q 2575 -91 1722 -91 
Q 1428 -91 1123 -41 
Q 819 9 494 109 
L 494 744 
Q 775 591 1075 516 
Q 1375 441 1709 441 
Q 2250 441 2565 725 
Q 2881 1009 2881 1497 
Q 2881 1984 2565 2268 
Q 2250 2553 1709 2553 
Q 1456 2553 1204 2497 
Q 953 2441 691 2322 
L 691 4666 
z
" transform="scale(0.015625)"/>
       </defs>
       <use xlink:href="#DejaVuSans-4f"/>
       <use xlink:href="#DejaVuSans-53" x="78.710938"/>
       <use xlink:href="#DejaVuSans-4d" x="142.1875"/>
       <use xlink:href="#DejaVuSans-4f" x="228.466797"/>
       <use xlink:href="#DejaVuSans-54" x="307.177734"/>
       <use xlink:href="#DejaVuSans-49" x="368.261719"/>
       <use xlink:href="#DejaVuSans-43" x="397.753906"/>
       <use xlink:href="#DejaVuSans-5f" x="467.578125"/>
       <use xlink:href="#DejaVuSans-53" x="517.578125"/>
       <use xlink:href="#DejaVuSans-54" x="581.054688"/>
       <use xlink:href="#DejaVuSans-52" x="642.138672"/>
       <use xlink:href="#DejaVuSans-45" x="711.621094"/>
       <use xlink:href="#DejaVuSans-53" x="774.804688"/>
       <use xlink:href="#DejaVuSans-53" x="838.28125"/>
       <use xlink:href="#DejaVuSans-5f" x="901.757812"/>
       <use xlink:href="#DejaVuSans-54" x="951.757812"/>
       <use xlink:href="#DejaVuSans-31" x="1012.841797"/>
       <use xlink:href="#DejaVuSans-35" x="1076.464844"/>
       <use xlink:href="#DejaVuSans-5f" x="1140.087891"/>
       <use xlink:href="#DejaVuSans-52" x="1190.087891"/>
       <use xlink:href="#DejaVuSans-45" x="1259.570312"/>
       <use xlink:href="#DejaVuSans-50" x="1322.753906"/>
       <use xlink:href="#DejaVuSans-31" x="1383.056641"/>
       <use xlink:href="#DejaVuSans-2e" x="1446.679688"/>
       <use xlink:href="#DejaVuSans-46" x="1478.466797"/>
       <use xlink:href="#DejaVuSans-52" x="1535.986328"/>
       <use xlink:href="#DejaVuSans-69" x="1605.46875"/>
       <use xlink:href="#DejaVuSans-50" x="1633.251953"/>
      </g>
     </g>
    </g>
    <g id="ytick_4">
     <g id="text_11">
      <!-- OSMOTIC_STRESS_T15_REP2.FRiP -->
      <g transform="translate(7.2 301.299375)scale(0.08 -0.08)">
       <use xlink:href="#DejaVuSans-4f"/>
       <use xlink:href="#DejaVuSans-53" x="78.710938"/>
       <use xlink:href="#DejaVuSans-4d" x="142.1875"/>
       <use xlink:href="#DejaVuSans-4f" x="228.466797"/>
       <use xlink:href="#DejaVuSans-54" x="307.177734"/>
       <use xlink:href="#DejaVuSans-49" x="368.261719"/>
       <use xlink:href="#DejaVuSans-43" x="397.753906"/>
       <use xlink:href="#DejaVuSans-5f" x="467.578125"/>
       <use xlink:href="#DejaVuSans-53" x="517.578125"/>
       <use xlink:href="#DejaVuSans-54" x="581.054688"/>
       <use xlink:href="#DejaVuSans-52" x="642.138672"/>
       <use xlink:href="#DejaVuSans-45" x="711.621094"/>
       <use xlink:href="#DejaVuSans-53" x="774.804688"/>
       <use xlink:href="#DejaVuSans-53" x="838.28125"/>
       <use xlink:href="#DejaVuSans-5f" x="901.757812"/>
       <use xlink:href="#DejaVuSans-54" x="951.757812"/>
       <use xlink:href="#DejaVuSans-31" x="1012.841797"/>
       <use xlink:href="#DejaVuSans-35" x="1076.464844"/>
       <use xlink:href="#DejaVuSans-5f" x="1140.087891"/>
       <use xlink:href="#DejaVuSans-52" x="1190.087891"/>
       <use xlink:href="#DejaVuSans-45" x="1259.570312"/>
       <use xlink:href="#DejaVuSans-50" x="1322.753906"/>
       <use xlink:href="#DejaVuSans-32" x="1383.056641"/>
       <use xlink:href="#DejaVuSans-2e" x="1446.679688"/>
       <use xlink:href="#DejaVuSans-46" x="1478.466797"/>
       <use xlink:href="#DejaVuSans-52" x="1535.986328"/>
       <use xlink:href="#DejaVuSans-69" x="1605.46875"/>
       <use xlink:href="#DejaVuSans-50" x="1633.251953"/>
      </g>
     </g>
    </g>
   </g>
   <g id="patch_2">
    <path d="M 149.6875 15.516 
L 558.094173 15.516 
L 558.094173 82.044 
L 149.6875 82.044 
z
" clip-path="url(#pda9d9b4da5)" style="fill: #7cb5ec"/>
   </g>
   <g id="patch_3">
    <path d="M 149.6875 98.676 
L 149.6875 98.676 
L 149.6875 165.204 
L 149.6875 165.204 
z
" clip-path="url(#pda9d9b4da5)" style="fill: #7cb5ec"/>
   </g>
   <g id="patch_4">
    <path d="M 149.6875 181.836 
L 149.6875 181.836 
L 149.6875 248.364 
L 149.6875 248.364 
z
" clip-path="url(#pda9d9b4da5)" style="fill: #7cb5ec"/>
   </g>
   <g id="patch_5">
    <path d="M 149.6875 264.996 
L 149.6875 264.996 
L 149.6875 331.524 
L 149.6875 331.524 
z
" clip-path="url(#pda9d9b4da5)" style="fill: #7cb5ec"/>
   </g>
   <g id="patch_6">
    <path d="M 558.094173 15.516 
L 558.094173 15.516 
L 558.094173 82.044 
L 558.094173 82.044 
z
" clip-path="url(#pda9d9b4da5)" style="fill: #434348"/>
   </g>
   <g id="patch_7">
    <path d="M 149.6875 98.676 
L 569.628591 98.676 
L 569.628591 165.204 
L 149.6875 165.204 
z
" clip-path="url(#pda9d9b4da5)" style="fill: #434348"/>
   </g>
   <g id="patch_8">
    <path d="M 149.6875 181.836 
L 149.6875 181.836 
L 149.6875 248.364 
L 149.6875 248.364 
z
" clip-path="url(#pda9d9b4da5)" style="fill: #434348"/>
   </g>
   <g id="patch_9">
    <path d="M 149.6875 264.996 
L 149.6875 264.996 
L 149.6875 331.524 
L 149.6875 331.524 
z
" clip-path="url(#pda9d9b4da5)" style="fill: #434348"/>
   </g>
   <g id="patch_10">
    <path d="M 558.094173 15.516 
L 558.094173 15.516 
L 558.094173 82.044 
L 558.094173 82.044 
z
" clip-path="url(#pda9d9b4da5)" style="fill: #90ed7d"/>
   </g>
   <g id="patch_11">
    <path d="M 569.628591 98.676 
L 569.628591 98.676 
L 569.628591 165.204 
L 569.628591 165.204 
z
" clip-path="url(#pda9d9b4da5)" style="fill: #90ed7d"/>
   </g>
   <g id="patch_12">
    <path d="M 149.6875 181.836 
L 514.147767 181.836 
L 514.147767 248.364 
L 149.6875 248.364 
z
" clip-path="url(#pda9d9b4da5)" style="fill: #90ed7d"/>
   </g>
   <g id="patch_13">
    <path d="M 149.6875 264.996 
L 149.6875 264.996 
L 149.6875 331.524 
L 149.6875 331.524 
z
" clip-path="url(#pda9d9b4da5)" style="fill: #90ed7d"/>
   </g>
   <g id="patch_14">
    <path d="M 558.094173 15.516 
L 558.094173 15.516 
L 558.094173 82.044 
L 558.094173 82.044 
z
" clip-path="url(#pda9d9b4da5)" style="fill: #f7a35c"/>
   </g>
   <g id="patch_15">
    <path d="M 569.628591 98.676 
L 569.628591 98.676 
L 569.628591 165.204 
L 569.628591 165.204 
z
" clip-path="url(#pda9d9b4da5)" style="fill: #f7a35c"/>
   </g>
   <g id="patch_16">
    <path d="M 514.147767 181.836 
L 514.147767 181.836 
L 514.147767 248.364 
L 514.147767 248.364 
z
" clip-path="url(#pda9d9b4da5)" style="fill: #f7a35c"/>
   </g>
   <g id="patch_17">
    <path d="M 149.6875 264.996 
L 490.046966 264.996 
L 490.046966 331.524 
L 149.6875 331.524 
z
" clip-path="url(#pda9d9b4da5)" style="fill: #f7a35c"/>
   </g>
   <g id="text_12">
    <!-- FRiP score -->
    <g transform="translate(499.04625 -20.52)scale(0.16 -0.16)">
     <use xlink:href="#DejaVuSans-46"/>
     <use xlink:href="#DejaVuSans-52" x="57.519531"/>
     <use xlink:href="#DejaVuSans-69" x="127.001953"/>
     <use xlink:href="#DejaVuSans-50" x="154.785156"/>
     <use xlink:href="#DejaVuSans-20" x="215.087891"/>
     <use xlink:href="#DejaVuSans-73" x="246.875"/>
     <use xlink:href="#DejaVuSans-63" x="298.974609"/>
     <use xlink:href="#DejaVuSans-6f" x="353.955078"/>
     <use xlink:href="#DejaVuSans-72" x="415.136719"/>
     <use xlink:href="#DejaVuSans-65" x="454"/>
    </g>
   </g>
   <g id="legend_1">
    <g id="patch_18">
     <path d="M 156.8875 413.91375 
L 172.8875 413.91375 
L 172.8875 408.31375 
L 156.8875 408.31375 
z
" style="fill: #7cb5ec"/>
    </g>
    <g id="text_13">
     <!-- OSMOTIC_STRESS_T0_REP1 -->
     <g transform="translate(179.2875 413.91375)scale(0.08 -0.08)">
      <use xlink:href="#DejaVuSans-4f"/>
      <use xlink:href="#DejaVuSans-53" x="78.710938"/>
      <use xlink:href="#DejaVuSans-4d" x="142.1875"/>
      <use xlink:href="#DejaVuSans-4f" x="228.466797"/>
      <use xlink:href="#DejaVuSans-54" x="307.177734"/>
      <use xlink:href="#DejaVuSans-49" x="368.261719"/>
      <use xlink:href="#DejaVuSans-43" x="397.753906"/>
      <use xlink:href="#DejaVuSans-5f" x="467.578125"/>
      <use xlink:href="#DejaVuSans-53" x="517.578125"/>
      <use xlink:href="#DejaVuSans-54" x="581.054688"/>
      <use xlink:href="#DejaVuSans-52" x="642.138672"/>
      <use xlink:href="#DejaVuSans-45" x="711.621094"/>
      <use xlink:href="#DejaVuSans-53" x="774.804688"/>
      <use xlink:href="#DejaVuSans-53" x="838.28125"/>
      <use xlink:href="#DejaVuSans-5f" x="901.757812"/>
      <use xlink:href="#DejaVuSans-54" x="951.757812"/>
      <use xlink:href="#DejaVuSans-30" x="1012.841797"/>
      <use xlink:href="#DejaVuSans-5f" x="1076.464844"/>
      <use xlink:href="#DejaVuSans-52" x="1126.464844"/>
      <use xlink:href="#DejaVuSans-45" x="1195.947266"/>
      <use xlink:href="#DejaVuSans-50" x="1259.130859"/>
      <use xlink:href="#DejaVuSans-31" x="1319.433594"/>
     </g>
    </g>
    <g id="patch_19">
     <path d="M 364.744583 413.91375 
L 380.744583 413.91375 
L 380.744583 408.31375 
L 364.744583 408.31375 
z
" style="fill: #434348"/>
    </g>
    <g id="text_14">
     <!-- OSMOTIC_STRESS_T0_REP2 -->
     <g transform="translate(387.144583 413.91375)scale(0.08 -0.08)">
      <use xlink:href="#DejaVuSans-4f"/>
      <use xlink:href="#DejaVuSans-53" x="78.710938"/>
      <use xlink:href="#DejaVuSans-4d" x="142.1875"/>
      <use xlink:href="#DejaVuSans-4f" x="228.466797"/>
      <use xlink:href="#DejaVuSans-54" x="307.177734"/>
      <use xlink:href="#DejaVuSans-49" x="368.261719"/>
      <use xlink:href="#DejaVuSans-43" x="397.753906"/>
      <use xlink:href="#DejaVuSans-5f" x="467.578125"/>
      <use xlink:href="#DejaVuSans-53" x="517.578125"/>
      <use xlink:href="#DejaVuSans-54" x="581.054688"/>
      <use xlink:href="#DejaVuSans-52" x="642.138672"/>
      <use xlink:href="#DejaVuSans-45" x="711.621094"/>
      <use xlink:href="#DejaVuSans-53" x="774.804688"/>
      <use xlink:href="#DejaVuSans-53" x="838.28125"/>
      <use xlink:href="#DejaVuSans-5f" x="901.757812"/>
      <use xlink:href="#DejaVuSans-54" x="951.757812"/>
      <use xlink:href="#DejaVuSans-30" x="1012.841797"/>
      <use xlink:href="#DejaVuSans-5f" x="1076.464844"/>
      <use xlink:href="#DejaVuSans-52" x="1126.464844"/>
      <use xlink:href="#DejaVuSans-45" x="1195.947266"/>
      <use xlink:href="#DejaVuSans-50" x="1259.130859"/>
      <use xlink:href="#DejaVuSans-32" x="1319.433594"/>
     </g>
    </g>
    <g id="patch_20">
     <path d="M 572.601667 413.91375 
L 588.601667 413.91375 
L 588.601667 408.31375 
L 572.601667 408.31375 
z
" style="fill: #90ed7d"/>
    </g>
    <g id="text_15">
     <!-- OSMOTIC_STRESS_T15_REP1 -->
     <g transform="translate(595.001667 413.91375)scale(0.08 -0.08)">
      <use xlink:href="#DejaVuSans-4f"/>
      <use xlink:href="#DejaVuSans-53" x="78.710938"/>
      <use xlink:href="#DejaVuSans-4d" x="142.1875"/>
      <use xlink:href="#DejaVuSans-4f" x="228.466797"/>
      <use xlink:href="#DejaVuSans-54" x="307.177734"/>
      <use xlink:href="#DejaVuSans-49" x="368.261719"/>
      <use xlink:href="#DejaVuSans-43" x="397.753906"/>
      <use xlink:href="#DejaVuSans-5f" x="467.578125"/>
      <use xlink:href="#DejaVuSans-53" x="517.578125"/>
      <use xlink:href="#DejaVuSans-54" x="581.054688"/>
      <use xlink:href="#DejaVuSans-52" x="642.138672"/>
      <use xlink:href="#DejaVuSans-45" x="711.621094"/>
      <use xlink:href="#DejaVuSans-53" x="774.804688"/>
      <use xlink:href="#DejaVuSans-53" x="838.28125"/>
      <use xlink:href="#DejaVuSans-5f" x="901.757812"/>
      <use xlink:href="#DejaVuSans-54" x="951.757812"/>
      <use xlink:href="#DejaVuSans-31" x="1012.841797"/>
      <use xlink:href="#DejaVuSans-35" x="1076.464844"/>
      <use xlink:href="#DejaVuSans-5f" x="1140.087891"/>
      <use xlink:href="#DejaVuSans-52" x="1190.087891"/>
      <use xlink:href="#DejaVuSans-45" x="1259.570312"/>
      <use xlink:href="#DejaVuSans-50" x="1322.753906"/>
      <use xlink:href="#DejaVuSans-31" x="1383.056641"/>
     </g>
    </g>
    <g id="patch_21">
     <path d="M 785.54875 413.91375 
L 801.54875 413.91375 
L 801.54875 408.31375 
L 785.54875 408.31375 
z
" style="fill: #f7a35c"/>
    </g>
    <g id="text_16">
     <!-- OSMOTIC_STRESS_T15_REP2 -->
     <g transform="translate(807.94875 413.91375)scale(0.08 -0.08)">
      <use xlink:href="#DejaVuSans-4f"/>
      <use xlink:href="#DejaVuSans-53" x="78.710938"/>
      <use xlink:href="#DejaVuSans-4d" x="142.1875"/>
      <use xlink:href="#DejaVuSans-4f" x="228.466797"/>
      <use xlink:href="#DejaVuSans-54" x="307.177734"/>
      <use xlink:href="#DejaVuSans-49" x="368.261719"/>
      <use xlink:href="#DejaVuSans-43" x="397.753906"/>
      <use xlink:href="#DejaVuSans-5f" x="467.578125"/>
      <use xlink:href="#DejaVuSans-53" x="517.578125"/>
      <use xlink:href="#DejaVuSans-54" x="581.054688"/>
      <use xlink:href="#DejaVuSans-52" x="642.138672"/>
      <use xlink:href="#DejaVuSans-45" x="711.621094"/>
      <use xlink:href="#DejaVuSans-53" x="774.804688"/>
      <use xlink:href="#DejaVuSans-53" x="838.28125"/>
      <use xlink:href="#DejaVuSans-5f" x="901.757812"/>
      <use xlink:href="#DejaVuSans-54" x="951.757812"/>
      <use xlink:href="#DejaVuSans-31" x="1012.841797"/>
      <use xlink:href="#DejaVuSans-35" x="1076.464844"/>
      <use xlink:href="#DejaVuSans-5f" x="1140.087891"/>
      <use xlink:href="#DejaVuSans-52" x="1190.087891"/>
      <use xlink:href="#DejaVuSans-45" x="1259.570312"/>
      <use xlink:href="#DejaVuSans-50" x="1322.753906"/>
      <use xlink:href="#DejaVuSans-32" x="1383.056641"/>
     </g>
    </g>
   </g>
  </g>
 </g>
 <defs>
  <clipPath id="pda9d9b4da5">
   <rect x="149.6875" y="7.2" width="781.2" height="332.64"/>
  </clipPath>
 </defs>
</svg>
