<?xml version="1.0" encoding="utf-8" standalone="no"?>
<!DOCTYPE svg PUBLIC "-//W3C//DTD SVG 1.1//EN"
  "http://www.w3.org/Graphics/SVG/1.1/DTD/svg11.dtd">
<svg xmlns:xlink="http://www.w3.org/1999/xlink" width="1000.318125pt" height="330.541644pt" viewBox="0 0 1000.318125 330.541644" xmlns="http://www.w3.org/2000/svg" version="1.1">
 <metadata>
  <rdf:RDF xmlns:dc="http://purl.org/dc/elements/1.1/" xmlns:cc="http://creativecommons.org/ns#" xmlns:rdf="http://www.w3.org/1999/02/22-rdf-syntax-ns#">
   <cc:Work>
    <dc:type rdf:resource="http://purl.org/dc/dcmitype/StillImage"/>
    <dc:date>2022-11-03T22:57:12.620341</dc:date>
    <dc:format>image/svg+xml</dc:format>
    <dc:creator>
     <cc:Agent>
      <dc:title>Matplotlib v3.5.2, https://matplotlib.org/</dc:title>
     </cc:Agent>
    </dc:creator>
   </cc:Work>
  </rdf:RDF>
 </metadata>
 <defs>
  <style type="text/css">*{stroke-linejoin: round; stroke-linecap: butt}</style>
 </defs>
 <g id="figure_1">
  <g id="axes_1">
   <g id="patch_1">
    <path d="M 38.058125 273.99006 
L 993.118125 273.99006 
L 993.118125 31.48286 
L 38.058125 31.48286 
z
" style="fill: #ffffff"/>
   </g>
   <g id="patch_2">
    <path d="M 577.072674 273.99006 
L 950.948419 273.99006 
L 950.948419 -287.959548 
L 577.072674 -287.959548 
z
" clip-path="url(#p313967d101)" style="fill: #f7cfcf"/>
   </g>
   <g id="patch_3">
    <path d="M 452.861464 273.99006 
L 577.072674 273.99006 
L 577.072674 -287.959548 
L 452.861464 -287.959548 
z
" clip-path="url(#p313967d101)" style="fill: #ffffe2"/>
   </g>
   <g id="patch_4">
    <path d="M 81.469943 273.99006 
L 452.861464 273.99006 
L 452.861464 -287.959548 
L 81.469943 -287.959548 
z
" clip-path="url(#p313967d101)" style="fill: #e5fce0"/>
   </g>
   <g id="matplotlib.axis_1">
    <g id="xtick_1">
     <g id="text_1">
      <!-- −3000 -->
      <g transform="translate(66.695956 287.06881)scale(0.08 -0.08)">
       <defs>
        <path id="DejaVuSans-2212" d="M 678 2272 
L 4684 2272 
L 4684 1741 
L 678 1741 
L 678 2272 
z
" transform="scale(0.015625)"/>
        <path id="DejaVuSans-33" d="M 2597 2516 
Q 3050 2419 3304 2112 
Q 3559 1806 3559 1356 
Q 3559 666 3084 287 
Q 2609 -91 1734 -91 
Q 1441 -91 1130 -33 
Q 819 25 488 141 
L 488 750 
Q 750 597 1062 519 
Q 1375 441 1716 441 
Q 2309 441 2620 675 
Q 2931 909 2931 1356 
Q 2931 1769 2642 2001 
Q 2353 2234 1838 2234 
L 1294 2234 
L 1294 2753 
L 1863 2753 
Q 2328 2753 2575 2939 
Q 2822 3125 2822 3475 
Q 2822 3834 2567 4026 
Q 2313 4219 1838 4219 
Q 1578 4219 1281 4162 
Q 984 4106 628 3988 
L 628 4550 
Q 988 4650 1302 4700 
Q 1616 4750 1894 4750 
Q 2613 4750 3031 4423 
Q 3450 4097 3450 3541 
Q 3450 3153 3228 2886 
Q 3006 2619 2597 2516 
z
" transform="scale(0.015625)"/>
        <path id="DejaVuSans-30" d="M 2034 4250 
Q 1547 4250 1301 3770 
Q 1056 3291 1056 2328 
Q 1056 1369 1301 889 
Q 1547 409 2034 409 
Q 2525 409 2770 889 
Q 3016 1369 3016 2328 
Q 3016 3291 2770 3770 
Q 2525 4250 2034 4250 
z
M 2034 4750 
Q 2819 4750 3233 4129 
Q 3647 3509 3647 2328 
Q 3647 1150 3233 529 
Q 2819 -91 2034 -91 
Q 1250 -91 836 529 
Q 422 1150 422 2328 
Q 422 3509 836 4129 
Q 1250 4750 2034 4750 
z
" transform="scale(0.015625)"/>
       </defs>
       <use xlink:href="#DejaVuSans-2212"/>
       <use xlink:href="#DejaVuSans-33" x="83.789062"/>
       <use xlink:href="#DejaVuSans-30" x="147.412109"/>
       <use xlink:href="#DejaVuSans-30" x="211.035156"/>
       <use xlink:href="#DejaVuSans-30" x="274.658203"/>
      </g>
     </g>
    </g>
    <g id="xtick_2">
     <g id="text_2">
      <!-- −2000 -->
      <g transform="translate(190.907167 287.06881)scale(0.08 -0.08)">
       <defs>
        <path id="DejaVuSans-32" d="M 1228 531 
L 3431 531 
L 3431 0 
L 469 0 
L 469 531 
Q 828 903 1448 1529 
Q 2069 2156 2228 2338 
Q 2531 2678 2651 2914 
Q 2772 3150 2772 3378 
Q 2772 3750 2511 3984 
Q 2250 4219 1831 4219 
Q 1534 4219 1204 4116 
Q 875 4013 500 3803 
L 500 4441 
Q 881 4594 1212 4672 
Q 1544 4750 1819 4750 
Q 2544 4750 2975 4387 
Q 3406 4025 3406 3419 
Q 3406 3131 3298 2873 
Q 3191 2616 2906 2266 
Q 2828 2175 2409 1742 
Q 1991 1309 1228 531 
z
" transform="scale(0.015625)"/>
       </defs>
       <use xlink:href="#DejaVuSans-2212"/>
       <use xlink:href="#DejaVuSans-32" x="83.789062"/>
       <use xlink:href="#DejaVuSans-30" x="147.412109"/>
       <use xlink:href="#DejaVuSans-30" x="211.035156"/>
       <use xlink:href="#DejaVuSans-30" x="274.658203"/>
      </g>
     </g>
    </g>
    <g id="xtick_3">
     <g id="text_3">
      <!-- −1000 -->
      <g transform="translate(315.118378 287.06881)scale(0.08 -0.08)">
       <defs>
        <path id="DejaVuSans-31" d="M 794 531 
L 1825 531 
L 1825 4091 
L 703 3866 
L 703 4441 
L 1819 4666 
L 2450 4666 
L 2450 531 
L 3481 531 
L 3481 0 
L 794 0 
L 794 531 
z
" transform="scale(0.015625)"/>
       </defs>
       <use xlink:href="#DejaVuSans-2212"/>
       <use xlink:href="#DejaVuSans-31" x="83.789062"/>
       <use xlink:href="#DejaVuSans-30" x="147.412109"/>
       <use xlink:href="#DejaVuSans-30" x="211.035156"/>
       <use xlink:href="#DejaVuSans-30" x="274.658203"/>
      </g>
     </g>
    </g>
    <g id="xtick_4">
     <g id="text_4">
      <!-- 0 -->
      <g transform="translate(450.316464 287.06881)scale(0.08 -0.08)">
       <use xlink:href="#DejaVuSans-30"/>
      </g>
     </g>
    </g>
    <g id="xtick_5">
     <g id="text_5">
      <!-- 1000 -->
      <g transform="translate(566.892674 287.06881)scale(0.08 -0.08)">
       <use xlink:href="#DejaVuSans-31"/>
       <use xlink:href="#DejaVuSans-30" x="63.623047"/>
       <use xlink:href="#DejaVuSans-30" x="127.246094"/>
       <use xlink:href="#DejaVuSans-30" x="190.869141"/>
      </g>
     </g>
    </g>
    <g id="xtick_6">
     <g id="text_6">
      <!-- 2000 -->
      <g transform="translate(691.103885 287.06881)scale(0.08 -0.08)">
       <use xlink:href="#DejaVuSans-32"/>
       <use xlink:href="#DejaVuSans-30" x="63.623047"/>
       <use xlink:href="#DejaVuSans-30" x="127.246094"/>
       <use xlink:href="#DejaVuSans-30" x="190.869141"/>
      </g>
     </g>
    </g>
    <g id="xtick_7">
     <g id="text_7">
      <!-- 3000 -->
      <g transform="translate(815.315096 287.06881)scale(0.08 -0.08)">
       <use xlink:href="#DejaVuSans-33"/>
       <use xlink:href="#DejaVuSans-30" x="63.623047"/>
       <use xlink:href="#DejaVuSans-30" x="127.246094"/>
       <use xlink:href="#DejaVuSans-30" x="190.869141"/>
      </g>
     </g>
    </g>
    <g id="xtick_8">
     <g id="text_8">
      <!-- 4000 -->
      <g transform="translate(939.526307 287.06881)scale(0.08 -0.08)">
       <defs>
        <path id="DejaVuSans-34" d="M 2419 4116 
L 825 1625 
L 2419 1625 
L 2419 4116 
z
M 2253 4666 
L 3047 4666 
L 3047 1625 
L 3713 1625 
L 3713 1100 
L 3047 1100 
L 3047 0 
L 2419 0 
L 2419 1100 
L 313 1100 
L 313 1709 
L 2253 4666 
z
" transform="scale(0.015625)"/>
       </defs>
       <use xlink:href="#DejaVuSans-34"/>
       <use xlink:href="#DejaVuSans-30" x="63.623047"/>
       <use xlink:href="#DejaVuSans-30" x="127.246094"/>
       <use xlink:href="#DejaVuSans-30" x="190.869141"/>
      </g>
     </g>
    </g>
   </g>
   <g id="matplotlib.axis_2">
    <g id="ytick_1">
     <g id="line2d_1">
      <path d="M 38.058125 264.90848 
L 993.118125 264.90848 
" clip-path="url(#p313967d101)" style="fill: none; stroke: #dedede; stroke-linecap: square"/>
     </g>
     <g id="text_9">
      <!-- 16 -->
      <g transform="translate(20.878125 267.947855)scale(0.08 -0.08)">
       <defs>
        <path id="DejaVuSans-36" d="M 2113 2584 
Q 1688 2584 1439 2293 
Q 1191 2003 1191 1497 
Q 1191 994 1439 701 
Q 1688 409 2113 409 
Q 2538 409 2786 701 
Q 3034 994 3034 1497 
Q 3034 2003 2786 2293 
Q 2538 2584 2113 2584 
z
M 3366 4563 
L 3366 3988 
Q 3128 4100 2886 4159 
Q 2644 4219 2406 4219 
Q 1781 4219 1451 3797 
Q 1122 3375 1075 2522 
Q 1259 2794 1537 2939 
Q 1816 3084 2150 3084 
Q 2853 3084 3261 2657 
Q 3669 2231 3669 1497 
Q 3669 778 3244 343 
Q 2819 -91 2113 -91 
Q 1303 -91 875 529 
Q 447 1150 447 2328 
Q 447 3434 972 4092 
Q 1497 4750 2381 4750 
Q 2619 4750 2861 4703 
Q 3103 4656 3366 4563 
z
" transform="scale(0.015625)"/>
       </defs>
       <use xlink:href="#DejaVuSans-31"/>
       <use xlink:href="#DejaVuSans-36" x="63.623047"/>
      </g>
     </g>
    </g>
    <g id="ytick_2">
     <g id="line2d_2">
      <path d="M 38.058125 223.842981 
L 993.118125 223.842981 
" clip-path="url(#p313967d101)" style="fill: none; stroke: #dedede; stroke-linecap: square"/>
     </g>
     <g id="text_10">
      <!-- 18 -->
      <g transform="translate(20.878125 226.882356)scale(0.08 -0.08)">
       <defs>
        <path id="DejaVuSans-38" d="M 2034 2216 
Q 1584 2216 1326 1975 
Q 1069 1734 1069 1313 
Q 1069 891 1326 650 
Q 1584 409 2034 409 
Q 2484 409 2743 651 
Q 3003 894 3003 1313 
Q 3003 1734 2745 1975 
Q 2488 2216 2034 2216 
z
M 1403 2484 
Q 997 2584 770 2862 
Q 544 3141 544 3541 
Q 544 4100 942 4425 
Q 1341 4750 2034 4750 
Q 2731 4750 3128 4425 
Q 3525 4100 3525 3541 
Q 3525 3141 3298 2862 
Q 3072 2584 2669 2484 
Q 3125 2378 3379 2068 
Q 3634 1759 3634 1313 
Q 3634 634 3220 271 
Q 2806 -91 2034 -91 
Q 1263 -91 848 271 
Q 434 634 434 1313 
Q 434 1759 690 2068 
Q 947 2378 1403 2484 
z
M 1172 3481 
Q 1172 3119 1398 2916 
Q 1625 2713 2034 2713 
Q 2441 2713 2670 2916 
Q 2900 3119 2900 3481 
Q 2900 3844 2670 4047 
Q 2441 4250 2034 4250 
Q 1625 4250 1398 4047 
Q 1172 3844 1172 3481 
z
" transform="scale(0.015625)"/>
       </defs>
       <use xlink:href="#DejaVuSans-31"/>
       <use xlink:href="#DejaVuSans-38" x="63.623047"/>
      </g>
     </g>
    </g>
    <g id="ytick_3">
     <g id="line2d_3">
      <path d="M 38.058125 182.777483 
L 993.118125 182.777483 
" clip-path="url(#p313967d101)" style="fill: none; stroke: #dedede; stroke-linecap: square"/>
     </g>
     <g id="text_11">
      <!-- 20 -->
      <g transform="translate(20.878125 185.816858)scale(0.08 -0.08)">
       <use xlink:href="#DejaVuSans-32"/>
       <use xlink:href="#DejaVuSans-30" x="63.623047"/>
      </g>
     </g>
    </g>
    <g id="ytick_4">
     <g id="line2d_4">
      <path d="M 38.058125 141.711984 
L 993.118125 141.711984 
" clip-path="url(#p313967d101)" style="fill: none; stroke: #dedede; stroke-linecap: square"/>
     </g>
     <g id="text_12">
      <!-- 22 -->
      <g transform="translate(20.878125 144.751359)scale(0.08 -0.08)">
       <use xlink:href="#DejaVuSans-32"/>
       <use xlink:href="#DejaVuSans-32" x="63.623047"/>
      </g>
     </g>
    </g>
    <g id="ytick_5">
     <g id="line2d_5">
      <path d="M 38.058125 100.646486 
L 993.118125 100.646486 
" clip-path="url(#p313967d101)" style="fill: none; stroke: #dedede; stroke-linecap: square"/>
     </g>
     <g id="text_13">
      <!-- 24 -->
      <g transform="translate(20.878125 103.685861)scale(0.08 -0.08)">
       <use xlink:href="#DejaVuSans-32"/>
       <use xlink:href="#DejaVuSans-34" x="63.623047"/>
      </g>
     </g>
    </g>
    <g id="ytick_6">
     <g id="line2d_6">
      <path d="M 38.058125 59.580987 
L 993.118125 59.580987 
" clip-path="url(#p313967d101)" style="fill: none; stroke: #dedede; stroke-linecap: square"/>
     </g>
     <g id="text_14">
      <!-- 26 -->
      <g transform="translate(20.878125 62.620362)scale(0.08 -0.08)">
       <use xlink:href="#DejaVuSans-32"/>
       <use xlink:href="#DejaVuSans-36" x="63.623047"/>
      </g>
     </g>
    </g>
    <g id="text_15">
     <!-- Occurrence -->
     <g transform="translate(14.798438 181.321616)rotate(-90)scale(0.1 -0.1)">
      <defs>
       <path id="DejaVuSans-4f" d="M 2522 4238 
Q 1834 4238 1429 3725 
Q 1025 3213 1025 2328 
Q 1025 1447 1429 934 
Q 1834 422 2522 422 
Q 3209 422 3611 934 
Q 4013 1447 4013 2328 
Q 4013 3213 3611 3725 
Q 3209 4238 2522 4238 
z
M 2522 4750 
Q 3503 4750 4090 4092 
Q 4678 3434 4678 2328 
Q 4678 1225 4090 567 
Q 3503 -91 2522 -91 
Q 1538 -91 948 565 
Q 359 1222 359 2328 
Q 359 3434 948 4092 
Q 1538 4750 2522 4750 
z
" transform="scale(0.015625)"/>
       <path id="DejaVuSans-63" d="M 3122 3366 
L 3122 2828 
Q 2878 2963 2633 3030 
Q 2388 3097 2138 3097 
Q 1578 3097 1268 2742 
Q 959 2388 959 1747 
Q 959 1106 1268 751 
Q 1578 397 2138 397 
Q 2388 397 2633 464 
Q 2878 531 3122 666 
L 3122 134 
Q 2881 22 2623 -34 
Q 2366 -91 2075 -91 
Q 1284 -91 818 406 
Q 353 903 353 1747 
Q 353 2603 823 3093 
Q 1294 3584 2113 3584 
Q 2378 3584 2631 3529 
Q 2884 3475 3122 3366 
z
" transform="scale(0.015625)"/>
       <path id="DejaVuSans-75" d="M 544 1381 
L 544 3500 
L 1119 3500 
L 1119 1403 
Q 1119 906 1312 657 
Q 1506 409 1894 409 
Q 2359 409 2629 706 
Q 2900 1003 2900 1516 
L 2900 3500 
L 3475 3500 
L 3475 0 
L 2900 0 
L 2900 538 
Q 2691 219 2414 64 
Q 2138 -91 1772 -91 
Q 1169 -91 856 284 
Q 544 659 544 1381 
z
M 1991 3584 
L 1991 3584 
z
" transform="scale(0.015625)"/>
       <path id="DejaVuSans-72" d="M 2631 2963 
Q 2534 3019 2420 3045 
Q 2306 3072 2169 3072 
Q 1681 3072 1420 2755 
Q 1159 2438 1159 1844 
L 1159 0 
L 581 0 
L 581 3500 
L 1159 3500 
L 1159 2956 
Q 1341 3275 1631 3429 
Q 1922 3584 2338 3584 
Q 2397 3584 2469 3576 
Q 2541 3569 2628 3553 
L 2631 2963 
z
" transform="scale(0.015625)"/>
       <path id="DejaVuSans-65" d="M 3597 1894 
L 3597 1613 
L 953 1613 
Q 991 1019 1311 708 
Q 1631 397 2203 397 
Q 2534 397 2845 478 
Q 3156 559 3463 722 
L 3463 178 
Q 3153 47 2828 -22 
Q 2503 -91 2169 -91 
Q 1331 -91 842 396 
Q 353 884 353 1716 
Q 353 2575 817 3079 
Q 1281 3584 2069 3584 
Q 2775 3584 3186 3129 
Q 3597 2675 3597 1894 
z
M 3022 2063 
Q 3016 2534 2758 2815 
Q 2500 3097 2075 3097 
Q 1594 3097 1305 2825 
Q 1016 2553 972 2059 
L 3022 2063 
z
" transform="scale(0.015625)"/>
       <path id="DejaVuSans-6e" d="M 3513 2113 
L 3513 0 
L 2938 0 
L 2938 2094 
Q 2938 2591 2744 2837 
Q 2550 3084 2163 3084 
Q 1697 3084 1428 2787 
Q 1159 2491 1159 1978 
L 1159 0 
L 581 0 
L 581 3500 
L 1159 3500 
L 1159 2956 
Q 1366 3272 1645 3428 
Q 1925 3584 2291 3584 
Q 2894 3584 3203 3211 
Q 3513 2838 3513 2113 
z
" transform="scale(0.015625)"/>
      </defs>
      <use xlink:href="#DejaVuSans-4f"/>
      <use xlink:href="#DejaVuSans-63" x="78.710938"/>
      <use xlink:href="#DejaVuSans-63" x="133.691406"/>
      <use xlink:href="#DejaVuSans-75" x="188.671875"/>
      <use xlink:href="#DejaVuSans-72" x="252.050781"/>
      <use xlink:href="#DejaVuSans-72" x="291.414062"/>
      <use xlink:href="#DejaVuSans-65" x="330.277344"/>
      <use xlink:href="#DejaVuSans-6e" x="391.800781"/>
      <use xlink:href="#DejaVuSans-63" x="455.179688"/>
      <use xlink:href="#DejaVuSans-65" x="510.160156"/>
     </g>
    </g>
   </g>
   <g id="line2d_7">
    <path d="M 81.469943 221.925155 
L 90.164728 212.666103 
L 98.859513 192.372126 
L 107.554297 184.3301 
L 116.249082 177.345074 
L 124.943867 184.376993 
L 133.638652 180.583891 
L 142.333436 176.939998 
L 151.028221 181.207363 
L 160.965118 194.676124 
L 169.659903 207.043163 
L 178.354688 207.60623 
L 187.049472 214.98818 
L 195.744257 216.695816 
L 204.439042 207.540357 
L 213.133827 197.71999 
L 221.828611 199.352016 
L 230.523396 194.753946 
L 239.218181 195.421295 
L 247.912966 194.437425 
L 256.60775 193.962941 
L 265.302535 189.143964 
L 273.99732 187.449515 
L 282.692105 178.082997 
L 291.386889 196.871352 
L 301.323786 197.138071 
L 310.018571 189.631017 
L 318.713356 195.167664 
L 327.408141 188.300379 
L 336.102925 177.149991 
L 344.79771 181.861442 
L 353.492495 182.708534 
L 362.18728 170.763774 
L 370.882064 153.814124 
L 379.576849 146.271932 
L 388.271634 150.099302 
L 396.966419 154.828242 
L 405.661203 154.346445 
L 414.355988 157.321509 
L 423.050773 165.235291 
L 431.745558 185.214706 
L 440.440342 219.295791 
L 450.377239 224.072168 
L 459.072024 212.937596 
L 467.766809 202.100048 
L 476.461594 171.756485 
L 485.156378 161.639749 
L 493.851163 165.839928 
L 502.545948 158.182828 
L 511.240733 148.955463 
L 519.935517 149.687485 
L 528.630302 159.018813 
L 537.325087 153.348618 
L 546.019872 152.392001 
L 554.714656 157.939415 
L 563.409441 171.979267 
L 572.104226 177.557342 
L 580.799011 155.789202 
L 590.735908 180.024037 
L 599.430692 196.260745 
L 608.125477 202.707922 
L 616.820262 187.256575 
L 625.515047 187.885515 
L 634.209831 191.527235 
L 642.904616 204.544458 
L 651.599401 192.3556 
L 660.294186 176.484321 
L 668.98897 166.923047 
L 677.683755 176.491527 
L 686.37854 195.432106 
L 695.073325 208.768836 
L 703.768109 217.630947 
L 712.462894 213.722778 
L 721.157679 204.456004 
L 729.852464 187.778254 
L 739.789361 191.114766 
L 748.484145 186.766141 
L 757.17893 177.683991 
L 765.873715 178.571413 
L 774.5685 169.400846 
L 783.263284 173.614834 
L 791.958069 191.223148 
L 800.652854 187.313131 
L 809.347639 182.981377 
L 818.042423 179.535869 
L 826.737208 169.275519 
L 835.431993 163.814456 
L 844.126778 181.313147 
L 852.821562 178.873133 
L 861.516347 179.883631 
L 870.211132 185.124618 
L 880.148029 186.098098 
L 888.842814 184.073846 
L 897.537598 190.09046 
L 906.232383 189.226562 
L 914.927168 196.833177 
L 923.621953 197.774432 
L 932.316737 195.942246 
L 941.011522 196.733803 
L 949.706307 194.173111 
" clip-path="url(#p313967d101)" style="fill: none; stroke: #7cb5ec; stroke-linecap: square"/>
   </g>
   <g id="line2d_8">
    <path d="M 81.469943 116.734718 
L 90.164728 110.675544 
L 98.859513 86.266693 
L 107.554297 71.97768 
L 116.249082 54.071258 
L 124.943867 67.574514 
L 133.638652 61.050516 
L 142.333436 72.630662 
L 151.028221 81.600931 
L 160.965118 95.976843 
L 169.659903 123.238258 
L 178.354688 120.080802 
L 187.049472 138.585642 
L 195.744257 139.472715 
L 204.439042 129.752841 
L 213.133827 120.837304 
L 221.828611 130.043095 
L 230.523396 141.595466 
L 239.218181 140.031436 
L 247.912966 132.742544 
L 256.60775 126.958076 
L 265.302535 113.19584 
L 273.99732 114.567433 
L 282.692105 117.706974 
L 291.386889 118.828412 
L 301.323786 119.436639 
L 310.018571 134.035806 
L 318.713356 132.987732 
L 327.408141 134.154946 
L 336.102925 116.834035 
L 344.79771 112.478587 
L 353.492495 109.727797 
L 362.18728 97.43544 
L 370.882064 91.661144 
L 379.576849 94.255724 
L 388.271634 94.492479 
L 396.966419 105.107819 
L 405.661203 109.391891 
L 414.355988 122.235468 
L 423.050773 130.186867 
L 431.745558 154.177247 
L 440.440342 172.630445 
L 450.377239 157.228045 
L 459.072024 142.365754 
L 467.766809 109.607933 
L 476.461594 79.926896 
L 485.156378 61.422586 
L 493.851163 61.525454 
L 502.545948 57.951003 
L 511.240733 59.364613 
L 519.935517 52.671566 
L 528.630302 59.476811 
L 537.325087 59.341126 
L 546.019872 66.23741 
L 554.714656 74.414792 
L 563.409441 103.45432 
L 572.104226 105.349489 
L 580.799011 94.276859 
L 590.735908 106.212202 
L 599.430692 126.162449 
L 608.125477 131.479367 
L 616.820262 110.272987 
L 625.515047 104.02364 
L 634.209831 94.618991 
L 642.904616 109.281889 
L 651.599401 66.445346 
L 660.294186 50.491619 
L 668.98897 42.505915 
L 677.683755 63.019688 
L 686.37854 90.193632 
L 695.073325 91.479292 
L 703.768109 97.169379 
L 712.462894 116.741494 
L 721.157679 108.622449 
L 729.852464 94.843916 
L 739.789361 98.255474 
L 748.484145 102.143536 
L 757.17893 90.320404 
L 765.873715 86.479726 
L 774.5685 77.968665 
L 783.263284 87.829017 
L 791.958069 98.955182 
L 800.652854 109.718832 
L 809.347639 98.916259 
L 818.042423 84.321099 
L 826.737208 67.493644 
L 835.431993 56.479488 
L 844.126778 68.130999 
L 852.821562 78.774004 
L 861.516347 71.548982 
L 870.211132 93.068001 
L 880.148029 111.986908 
L 888.842814 101.078057 
L 897.537598 85.711721 
L 906.232383 84.726081 
L 914.927168 106.175002 
L 923.621953 106.822829 
L 932.316737 113.190405 
L 941.011522 104.838816 
L 949.706307 116.823567 
" clip-path="url(#p313967d101)" style="fill: none; stroke: #434348; stroke-linecap: square"/>
   </g>
   <g id="line2d_9">
    <path d="M 81.469943 257.559388 
L 90.164728 247.816418 
L 98.859513 226.964334 
L 107.554297 218.157537 
L 116.249082 208.482464 
L 124.943867 211.557533 
L 133.638652 212.509082 
L 142.333436 206.918919 
L 151.028221 211.691908 
L 160.965118 218.00391 
L 169.659903 234.315683 
L 178.354688 237.971738 
L 187.049472 247.625953 
L 195.744257 256.433141 
L 204.439042 241.112481 
L 213.133827 232.523185 
L 221.828611 241.215427 
L 230.523396 243.31375 
L 239.218181 240.15232 
L 247.912966 229.203428 
L 256.60775 223.172208 
L 265.302535 222.690415 
L 273.99732 232.227426 
L 282.692105 232.485324 
L 291.386889 237.419062 
L 301.323786 233.598795 
L 310.018571 231.044168 
L 318.713356 233.469263 
L 327.408141 227.318459 
L 336.102925 220.583261 
L 344.79771 222.420955 
L 353.492495 208.453414 
L 362.18728 198.173444 
L 370.882064 181.309377 
L 379.576849 165.993826 
L 388.271634 152.037429 
L 396.966419 141.675822 
L 405.661203 133.2076 
L 414.355988 131.299518 
L 423.050773 145.321365 
L 431.745558 179.694694 
L 440.440342 221.032418 
L 450.377239 241.947229 
L 459.072024 242.288579 
L 467.766809 243.089478 
L 476.461594 227.536319 
L 485.156378 215.453355 
L 493.851163 224.742854 
L 502.545948 210.275925 
L 511.240733 214.307073 
L 519.935517 212.825418 
L 528.630302 209.22082 
L 537.325087 209.4982 
L 546.019872 212.307674 
L 554.714656 210.51218 
L 563.409441 220.471343 
L 572.104226 207.7289 
L 580.799011 191.826961 
L 590.735908 196.336217 
L 599.430692 205.93723 
L 608.125477 219.382541 
L 616.820262 217.687437 
L 625.515047 221.942679 
L 634.209831 221.798225 
L 642.904616 228.357175 
L 651.599401 223.690866 
L 660.294186 211.076005 
L 668.98897 200.039746 
L 677.683755 215.623209 
L 686.37854 226.846185 
L 695.073325 238.364703 
L 703.768109 245.104678 
L 712.462894 245.770079 
L 721.157679 238.921074 
L 729.852464 222.621691 
L 739.789361 220.645546 
L 748.484145 227.676725 
L 757.17893 217.65059 
L 765.873715 221.096211 
L 774.5685 215.16008 
L 783.263284 213.131391 
L 791.958069 222.363896 
L 800.652854 220.837633 
L 809.347639 226.028515 
L 818.042423 223.576818 
L 826.737208 208.77835 
L 835.431993 202.288445 
L 844.126778 203.772326 
L 852.821562 208.89936 
L 861.516347 209.06264 
L 870.211132 210.300229 
L 880.148029 222.682185 
L 888.842814 221.216151 
L 897.537598 215.021824 
L 906.232383 218.351915 
L 914.927168 223.66016 
L 923.621953 226.360617 
L 932.316737 228.528964 
L 941.011522 232.225853 
L 949.706307 227.119097 
" clip-path="url(#p313967d101)" style="fill: none; stroke: #90ed7d; stroke-linecap: square"/>
   </g>
   <g id="line2d_10">
    <path d="M 81.469943 261.58648 
L 90.164728 258.282664 
L 98.859513 246.542167 
L 107.554297 235.532558 
L 116.249082 232.291935 
L 124.943867 235.910628 
L 133.638652 232.966515 
L 142.333436 223.19143 
L 151.028221 231.460667 
L 160.965118 240.501337 
L 169.659903 254.609646 
L 178.354688 249.357376 
L 187.049472 247.488562 
L 195.744257 255.851897 
L 204.439042 247.128253 
L 213.133827 248.120679 
L 221.828611 252.142702 
L 230.523396 250.401344 
L 239.218181 252.79512 
L 247.912966 255.506918 
L 256.60775 251.694114 
L 265.302535 248.429906 
L 273.99732 240.605038 
L 282.692105 248.924148 
L 291.386889 254.425783 
L 301.323786 256.486529 
L 310.018571 260.706052 
L 318.713356 256.357618 
L 327.408141 248.529509 
L 336.102925 242.235398 
L 344.79771 245.084515 
L 353.492495 236.148957 
L 362.18728 221.106061 
L 370.882064 212.225535 
L 379.576849 195.018849 
L 388.271634 185.362645 
L 396.966419 185.595741 
L 405.661203 176.555683 
L 414.355988 173.522746 
L 423.050773 187.211604 
L 431.745558 201.210054 
L 440.440342 241.020915 
L 450.377239 262.967005 
L 459.072024 262.657078 
L 467.766809 259.283378 
L 476.461594 239.147533 
L 485.156378 237.884299 
L 493.851163 236.252534 
L 502.545948 228.465643 
L 511.240733 226.006485 
L 519.935517 215.877431 
L 528.630302 216.152324 
L 537.325087 223.064588 
L 546.019872 228.939564 
L 554.714656 233.529048 
L 563.409441 242.148386 
L 572.104226 243.780818 
L 580.799011 227.925828 
L 590.735908 224.032409 
L 599.430692 230.534549 
L 608.125477 241.263586 
L 616.820262 231.208048 
L 625.515047 234.146245 
L 634.209831 238.872292 
L 642.904616 246.684257 
L 651.599401 240.356318 
L 660.294186 234.614748 
L 668.98897 223.099914 
L 677.683755 229.232028 
L 686.37854 241.758241 
L 695.073325 248.514668 
L 703.768109 251.336296 
L 712.462894 260.165634 
L 721.157679 254.962 
L 729.852464 246.611141 
L 739.789361 236.760794 
L 748.484145 237.057572 
L 757.17893 244.153422 
L 765.873715 240.460291 
L 774.5685 229.519516 
L 783.263284 239.025197 
L 791.958069 243.285846 
L 800.652854 246.077199 
L 809.347639 244.450805 
L 818.042423 238.468741 
L 826.737208 232.54512 
L 835.431993 230.798765 
L 844.126778 230.571182 
L 852.821562 226.835829 
L 861.516347 225.132496 
L 870.211132 238.983683 
L 880.148029 241.382938 
L 888.842814 234.282314 
L 897.537598 233.008539 
L 906.232383 225.942521 
L 914.927168 235.730444 
L 923.621953 242.239609 
L 932.316737 241.7528 
L 941.011522 245.656353 
L 949.706307 235.551717 
" clip-path="url(#p313967d101)" style="fill: none; stroke: #f7a35c; stroke-linecap: square"/>
   </g>
   <g id="line2d_11">
    <path clip-path="url(#p313967d101)" style="fill: none; stroke: #dedede; stroke-width: 2; stroke-linecap: square"/>
   </g>
   <g id="text_16">
    <!-- deeptools: Read Distribution Profile after Annotation -->
    <g transform="translate(306.421875 19.3575)scale(0.16 -0.16)">
     <defs>
      <path id="DejaVuSans-64" d="M 2906 2969 
L 2906 4863 
L 3481 4863 
L 3481 0 
L 2906 0 
L 2906 525 
Q 2725 213 2448 61 
Q 2172 -91 1784 -91 
Q 1150 -91 751 415 
Q 353 922 353 1747 
Q 353 2572 751 3078 
Q 1150 3584 1784 3584 
Q 2172 3584 2448 3432 
Q 2725 3281 2906 2969 
z
M 947 1747 
Q 947 1113 1208 752 
Q 1469 391 1925 391 
Q 2381 391 2643 752 
Q 2906 1113 2906 1747 
Q 2906 2381 2643 2742 
Q 2381 3103 1925 3103 
Q 1469 3103 1208 2742 
Q 947 2381 947 1747 
z
" transform="scale(0.015625)"/>
      <path id="DejaVuSans-70" d="M 1159 525 
L 1159 -1331 
L 581 -1331 
L 581 3500 
L 1159 3500 
L 1159 2969 
Q 1341 3281 1617 3432 
Q 1894 3584 2278 3584 
Q 2916 3584 3314 3078 
Q 3713 2572 3713 1747 
Q 3713 922 3314 415 
Q 2916 -91 2278 -91 
Q 1894 -91 1617 61 
Q 1341 213 1159 525 
z
M 3116 1747 
Q 3116 2381 2855 2742 
Q 2594 3103 2138 3103 
Q 1681 3103 1420 2742 
Q 1159 2381 1159 1747 
Q 1159 1113 1420 752 
Q 1681 391 2138 391 
Q 2594 391 2855 752 
Q 3116 1113 3116 1747 
z
" transform="scale(0.015625)"/>
      <path id="DejaVuSans-74" d="M 1172 4494 
L 1172 3500 
L 2356 3500 
L 2356 3053 
L 1172 3053 
L 1172 1153 
Q 1172 725 1289 603 
Q 1406 481 1766 481 
L 2356 481 
L 2356 0 
L 1766 0 
Q 1100 0 847 248 
Q 594 497 594 1153 
L 594 3053 
L 172 3053 
L 172 3500 
L 594 3500 
L 594 4494 
L 1172 4494 
z
" transform="scale(0.015625)"/>
      <path id="DejaVuSans-6f" d="M 1959 3097 
Q 1497 3097 1228 2736 
Q 959 2375 959 1747 
Q 959 1119 1226 758 
Q 1494 397 1959 397 
Q 2419 397 2687 759 
Q 2956 1122 2956 1747 
Q 2956 2369 2687 2733 
Q 2419 3097 1959 3097 
z
M 1959 3584 
Q 2709 3584 3137 3096 
Q 3566 2609 3566 1747 
Q 3566 888 3137 398 
Q 2709 -91 1959 -91 
Q 1206 -91 779 398 
Q 353 888 353 1747 
Q 353 2609 779 3096 
Q 1206 3584 1959 3584 
z
" transform="scale(0.015625)"/>
      <path id="DejaVuSans-6c" d="M 603 4863 
L 1178 4863 
L 1178 0 
L 603 0 
L 603 4863 
z
" transform="scale(0.015625)"/>
      <path id="DejaVuSans-73" d="M 2834 3397 
L 2834 2853 
Q 2591 2978 2328 3040 
Q 2066 3103 1784 3103 
Q 1356 3103 1142 2972 
Q 928 2841 928 2578 
Q 928 2378 1081 2264 
Q 1234 2150 1697 2047 
L 1894 2003 
Q 2506 1872 2764 1633 
Q 3022 1394 3022 966 
Q 3022 478 2636 193 
Q 2250 -91 1575 -91 
Q 1294 -91 989 -36 
Q 684 19 347 128 
L 347 722 
Q 666 556 975 473 
Q 1284 391 1588 391 
Q 1994 391 2212 530 
Q 2431 669 2431 922 
Q 2431 1156 2273 1281 
Q 2116 1406 1581 1522 
L 1381 1569 
Q 847 1681 609 1914 
Q 372 2147 372 2553 
Q 372 3047 722 3315 
Q 1072 3584 1716 3584 
Q 2034 3584 2315 3537 
Q 2597 3491 2834 3397 
z
" transform="scale(0.015625)"/>
      <path id="DejaVuSans-3a" d="M 750 794 
L 1409 794 
L 1409 0 
L 750 0 
L 750 794 
z
M 750 3309 
L 1409 3309 
L 1409 2516 
L 750 2516 
L 750 3309 
z
" transform="scale(0.015625)"/>
      <path id="DejaVuSans-20" transform="scale(0.015625)"/>
      <path id="DejaVuSans-52" d="M 2841 2188 
Q 3044 2119 3236 1894 
Q 3428 1669 3622 1275 
L 4263 0 
L 3584 0 
L 2988 1197 
Q 2756 1666 2539 1819 
Q 2322 1972 1947 1972 
L 1259 1972 
L 1259 0 
L 628 0 
L 628 4666 
L 2053 4666 
Q 2853 4666 3247 4331 
Q 3641 3997 3641 3322 
Q 3641 2881 3436 2590 
Q 3231 2300 2841 2188 
z
M 1259 4147 
L 1259 2491 
L 2053 2491 
Q 2509 2491 2742 2702 
Q 2975 2913 2975 3322 
Q 2975 3731 2742 3939 
Q 2509 4147 2053 4147 
L 1259 4147 
z
" transform="scale(0.015625)"/>
      <path id="DejaVuSans-61" d="M 2194 1759 
Q 1497 1759 1228 1600 
Q 959 1441 959 1056 
Q 959 750 1161 570 
Q 1363 391 1709 391 
Q 2188 391 2477 730 
Q 2766 1069 2766 1631 
L 2766 1759 
L 2194 1759 
z
M 3341 1997 
L 3341 0 
L 2766 0 
L 2766 531 
Q 2569 213 2275 61 
Q 1981 -91 1556 -91 
Q 1019 -91 701 211 
Q 384 513 384 1019 
Q 384 1609 779 1909 
Q 1175 2209 1959 2209 
L 2766 2209 
L 2766 2266 
Q 2766 2663 2505 2880 
Q 2244 3097 1772 3097 
Q 1472 3097 1187 3025 
Q 903 2953 641 2809 
L 641 3341 
Q 956 3463 1253 3523 
Q 1550 3584 1831 3584 
Q 2591 3584 2966 3190 
Q 3341 2797 3341 1997 
z
" transform="scale(0.015625)"/>
      <path id="DejaVuSans-44" d="M 1259 4147 
L 1259 519 
L 2022 519 
Q 2988 519 3436 956 
Q 3884 1394 3884 2338 
Q 3884 3275 3436 3711 
Q 2988 4147 2022 4147 
L 1259 4147 
z
M 628 4666 
L 1925 4666 
Q 3281 4666 3915 4102 
Q 4550 3538 4550 2338 
Q 4550 1131 3912 565 
Q 3275 0 1925 0 
L 628 0 
L 628 4666 
z
" transform="scale(0.015625)"/>
      <path id="DejaVuSans-69" d="M 603 3500 
L 1178 3500 
L 1178 0 
L 603 0 
L 603 3500 
z
M 603 4863 
L 1178 4863 
L 1178 4134 
L 603 4134 
L 603 4863 
z
" transform="scale(0.015625)"/>
      <path id="DejaVuSans-62" d="M 3116 1747 
Q 3116 2381 2855 2742 
Q 2594 3103 2138 3103 
Q 1681 3103 1420 2742 
Q 1159 2381 1159 1747 
Q 1159 1113 1420 752 
Q 1681 391 2138 391 
Q 2594 391 2855 752 
Q 3116 1113 3116 1747 
z
M 1159 2969 
Q 1341 3281 1617 3432 
Q 1894 3584 2278 3584 
Q 2916 3584 3314 3078 
Q 3713 2572 3713 1747 
Q 3713 922 3314 415 
Q 2916 -91 2278 -91 
Q 1894 -91 1617 61 
Q 1341 213 1159 525 
L 1159 0 
L 581 0 
L 581 4863 
L 1159 4863 
L 1159 2969 
z
" transform="scale(0.015625)"/>
      <path id="DejaVuSans-50" d="M 1259 4147 
L 1259 2394 
L 2053 2394 
Q 2494 2394 2734 2622 
Q 2975 2850 2975 3272 
Q 2975 3691 2734 3919 
Q 2494 4147 2053 4147 
L 1259 4147 
z
M 628 4666 
L 2053 4666 
Q 2838 4666 3239 4311 
Q 3641 3956 3641 3272 
Q 3641 2581 3239 2228 
Q 2838 1875 2053 1875 
L 1259 1875 
L 1259 0 
L 628 0 
L 628 4666 
z
" transform="scale(0.015625)"/>
      <path id="DejaVuSans-66" d="M 2375 4863 
L 2375 4384 
L 1825 4384 
Q 1516 4384 1395 4259 
Q 1275 4134 1275 3809 
L 1275 3500 
L 2222 3500 
L 2222 3053 
L 1275 3053 
L 1275 0 
L 697 0 
L 697 3053 
L 147 3053 
L 147 3500 
L 697 3500 
L 697 3744 
Q 697 4328 969 4595 
Q 1241 4863 1831 4863 
L 2375 4863 
z
" transform="scale(0.015625)"/>
      <path id="DejaVuSans-41" d="M 2188 4044 
L 1331 1722 
L 3047 1722 
L 2188 4044 
z
M 1831 4666 
L 2547 4666 
L 4325 0 
L 3669 0 
L 3244 1197 
L 1141 1197 
L 716 0 
L 50 0 
L 1831 4666 
z
" transform="scale(0.015625)"/>
     </defs>
     <use xlink:href="#DejaVuSans-64"/>
     <use xlink:href="#DejaVuSans-65" x="63.476562"/>
     <use xlink:href="#DejaVuSans-65" x="125"/>
     <use xlink:href="#DejaVuSans-70" x="186.523438"/>
     <use xlink:href="#DejaVuSans-74" x="250"/>
     <use xlink:href="#DejaVuSans-6f" x="289.208984"/>
     <use xlink:href="#DejaVuSans-6f" x="350.390625"/>
     <use xlink:href="#DejaVuSans-6c" x="411.572266"/>
     <use xlink:href="#DejaVuSans-73" x="439.355469"/>
     <use xlink:href="#DejaVuSans-3a" x="491.455078"/>
     <use xlink:href="#DejaVuSans-20" x="525.146484"/>
     <use xlink:href="#DejaVuSans-52" x="556.933594"/>
     <use xlink:href="#DejaVuSans-65" x="621.916016"/>
     <use xlink:href="#DejaVuSans-61" x="683.439453"/>
     <use xlink:href="#DejaVuSans-64" x="744.71875"/>
     <use xlink:href="#DejaVuSans-20" x="808.195312"/>
     <use xlink:href="#DejaVuSans-44" x="839.982422"/>
     <use xlink:href="#DejaVuSans-69" x="916.984375"/>
     <use xlink:href="#DejaVuSans-73" x="944.767578"/>
     <use xlink:href="#DejaVuSans-74" x="996.867188"/>
     <use xlink:href="#DejaVuSans-72" x="1036.076172"/>
     <use xlink:href="#DejaVuSans-69" x="1077.189453"/>
     <use xlink:href="#DejaVuSans-62" x="1104.972656"/>
     <use xlink:href="#DejaVuSans-75" x="1168.449219"/>
     <use xlink:href="#DejaVuSans-74" x="1231.828125"/>
     <use xlink:href="#DejaVuSans-69" x="1271.037109"/>
     <use xlink:href="#DejaVuSans-6f" x="1298.820312"/>
     <use xlink:href="#DejaVuSans-6e" x="1360.001953"/>
     <use xlink:href="#DejaVuSans-20" x="1423.380859"/>
     <use xlink:href="#DejaVuSans-50" x="1455.167969"/>
     <use xlink:href="#DejaVuSans-72" x="1513.720703"/>
     <use xlink:href="#DejaVuSans-6f" x="1552.583984"/>
     <use xlink:href="#DejaVuSans-66" x="1613.765625"/>
     <use xlink:href="#DejaVuSans-69" x="1648.970703"/>
     <use xlink:href="#DejaVuSans-6c" x="1676.753906"/>
     <use xlink:href="#DejaVuSans-65" x="1704.537109"/>
     <use xlink:href="#DejaVuSans-20" x="1766.060547"/>
     <use xlink:href="#DejaVuSans-61" x="1797.847656"/>
     <use xlink:href="#DejaVuSans-66" x="1859.126953"/>
     <use xlink:href="#DejaVuSans-74" x="1892.582031"/>
     <use xlink:href="#DejaVuSans-65" x="1931.791016"/>
     <use xlink:href="#DejaVuSans-72" x="1993.314453"/>
     <use xlink:href="#DejaVuSans-20" x="2034.427734"/>
     <use xlink:href="#DejaVuSans-41" x="2066.214844"/>
     <use xlink:href="#DejaVuSans-6e" x="2134.623047"/>
     <use xlink:href="#DejaVuSans-6e" x="2198.001953"/>
     <use xlink:href="#DejaVuSans-6f" x="2261.380859"/>
     <use xlink:href="#DejaVuSans-74" x="2322.5625"/>
     <use xlink:href="#DejaVuSans-61" x="2361.771484"/>
     <use xlink:href="#DejaVuSans-74" x="2423.050781"/>
     <use xlink:href="#DejaVuSans-69" x="2462.259766"/>
     <use xlink:href="#DejaVuSans-6f" x="2490.042969"/>
     <use xlink:href="#DejaVuSans-6e" x="2551.224609"/>
    </g>
   </g>
   <g id="legend_1">
    <g id="line2d_12">
     <path d="M 45.258125 315.455394 
L 53.258125 315.455394 
L 61.258125 315.455394 
" style="fill: none; stroke: #7cb5ec; stroke-linecap: square"/>
    </g>
    <g id="text_17">
     <!-- OSMOTIC_STRESS_T0_REP1 -->
     <g transform="translate(67.658125 318.255394)scale(0.08 -0.08)">
      <defs>
       <path id="DejaVuSans-53" d="M 3425 4513 
L 3425 3897 
Q 3066 4069 2747 4153 
Q 2428 4238 2131 4238 
Q 1616 4238 1336 4038 
Q 1056 3838 1056 3469 
Q 1056 3159 1242 3001 
Q 1428 2844 1947 2747 
L 2328 2669 
Q 3034 2534 3370 2195 
Q 3706 1856 3706 1288 
Q 3706 609 3251 259 
Q 2797 -91 1919 -91 
Q 1588 -91 1214 -16 
Q 841 59 441 206 
L 441 856 
Q 825 641 1194 531 
Q 1563 422 1919 422 
Q 2459 422 2753 634 
Q 3047 847 3047 1241 
Q 3047 1584 2836 1778 
Q 2625 1972 2144 2069 
L 1759 2144 
Q 1053 2284 737 2584 
Q 422 2884 422 3419 
Q 422 4038 858 4394 
Q 1294 4750 2059 4750 
Q 2388 4750 2728 4690 
Q 3069 4631 3425 4513 
z
" transform="scale(0.015625)"/>
       <path id="DejaVuSans-4d" d="M 628 4666 
L 1569 4666 
L 2759 1491 
L 3956 4666 
L 4897 4666 
L 4897 0 
L 4281 0 
L 4281 4097 
L 3078 897 
L 2444 897 
L 1241 4097 
L 1241 0 
L 628 0 
L 628 4666 
z
" transform="scale(0.015625)"/>
       <path id="DejaVuSans-54" d="M -19 4666 
L 3928 4666 
L 3928 4134 
L 2272 4134 
L 2272 0 
L 1638 0 
L 1638 4134 
L -19 4134 
L -19 4666 
z
" transform="scale(0.015625)"/>
       <path id="DejaVuSans-49" d="M 628 4666 
L 1259 4666 
L 1259 0 
L 628 0 
L 628 4666 
z
" transform="scale(0.015625)"/>
       <path id="DejaVuSans-43" d="M 4122 4306 
L 4122 3641 
Q 3803 3938 3442 4084 
Q 3081 4231 2675 4231 
Q 1875 4231 1450 3742 
Q 1025 3253 1025 2328 
Q 1025 1406 1450 917 
Q 1875 428 2675 428 
Q 3081 428 3442 575 
Q 3803 722 4122 1019 
L 4122 359 
Q 3791 134 3420 21 
Q 3050 -91 2638 -91 
Q 1578 -91 968 557 
Q 359 1206 359 2328 
Q 359 3453 968 4101 
Q 1578 4750 2638 4750 
Q 3056 4750 3426 4639 
Q 3797 4528 4122 4306 
z
" transform="scale(0.015625)"/>
       <path id="DejaVuSans-5f" d="M 3263 -1063 
L 3263 -1509 
L -63 -1509 
L -63 -1063 
L 3263 -1063 
z
" transform="scale(0.015625)"/>
       <path id="DejaVuSans-45" d="M 628 4666 
L 3578 4666 
L 3578 4134 
L 1259 4134 
L 1259 2753 
L 3481 2753 
L 3481 2222 
L 1259 2222 
L 1259 531 
L 3634 531 
L 3634 0 
L 628 0 
L 628 4666 
z
" transform="scale(0.015625)"/>
      </defs>
      <use xlink:href="#DejaVuSans-4f"/>
      <use xlink:href="#DejaVuSans-53" x="78.710938"/>
      <use xlink:href="#DejaVuSans-4d" x="142.1875"/>
      <use xlink:href="#DejaVuSans-4f" x="228.466797"/>
      <use xlink:href="#DejaVuSans-54" x="307.177734"/>
      <use xlink:href="#DejaVuSans-49" x="368.261719"/>
      <use xlink:href="#DejaVuSans-43" x="397.753906"/>
      <use xlink:href="#DejaVuSans-5f" x="467.578125"/>
      <use xlink:href="#DejaVuSans-53" x="517.578125"/>
      <use xlink:href="#DejaVuSans-54" x="581.054688"/>
      <use xlink:href="#DejaVuSans-52" x="642.138672"/>
      <use xlink:href="#DejaVuSans-45" x="711.621094"/>
      <use xlink:href="#DejaVuSans-53" x="774.804688"/>
      <use xlink:href="#DejaVuSans-53" x="838.28125"/>
      <use xlink:href="#DejaVuSans-5f" x="901.757812"/>
      <use xlink:href="#DejaVuSans-54" x="951.757812"/>
      <use xlink:href="#DejaVuSans-30" x="1012.841797"/>
      <use xlink:href="#DejaVuSans-5f" x="1076.464844"/>
      <use xlink:href="#DejaVuSans-52" x="1126.464844"/>
      <use xlink:href="#DejaVuSans-45" x="1195.947266"/>
      <use xlink:href="#DejaVuSans-50" x="1259.130859"/>
      <use xlink:href="#DejaVuSans-31" x="1319.433594"/>
     </g>
    </g>
    <g id="line2d_13">
     <path d="M 311.068542 315.455394 
L 319.068542 315.455394 
L 327.068542 315.455394 
" style="fill: none; stroke: #434348; stroke-linecap: square"/>
    </g>
    <g id="text_18">
     <!-- OSMOTIC_STRESS_T0_REP2 -->
     <g transform="translate(333.468542 318.255394)scale(0.08 -0.08)">
      <use xlink:href="#DejaVuSans-4f"/>
      <use xlink:href="#DejaVuSans-53" x="78.710938"/>
      <use xlink:href="#DejaVuSans-4d" x="142.1875"/>
      <use xlink:href="#DejaVuSans-4f" x="228.466797"/>
      <use xlink:href="#DejaVuSans-54" x="307.177734"/>
      <use xlink:href="#DejaVuSans-49" x="368.261719"/>
      <use xlink:href="#DejaVuSans-43" x="397.753906"/>
      <use xlink:href="#DejaVuSans-5f" x="467.578125"/>
      <use xlink:href="#DejaVuSans-53" x="517.578125"/>
      <use xlink:href="#DejaVuSans-54" x="581.054688"/>
      <use xlink:href="#DejaVuSans-52" x="642.138672"/>
      <use xlink:href="#DejaVuSans-45" x="711.621094"/>
      <use xlink:href="#DejaVuSans-53" x="774.804688"/>
      <use xlink:href="#DejaVuSans-53" x="838.28125"/>
      <use xlink:href="#DejaVuSans-5f" x="901.757812"/>
      <use xlink:href="#DejaVuSans-54" x="951.757812"/>
      <use xlink:href="#DejaVuSans-30" x="1012.841797"/>
      <use xlink:href="#DejaVuSans-5f" x="1076.464844"/>
      <use xlink:href="#DejaVuSans-52" x="1126.464844"/>
      <use xlink:href="#DejaVuSans-45" x="1195.947266"/>
      <use xlink:href="#DejaVuSans-50" x="1259.130859"/>
      <use xlink:href="#DejaVuSans-32" x="1319.433594"/>
     </g>
    </g>
    <g id="line2d_14">
     <path d="M 576.878958 315.455394 
L 584.878958 315.455394 
L 592.878958 315.455394 
" style="fill: none; stroke: #90ed7d; stroke-linecap: square"/>
    </g>
    <g id="text_19">
     <!-- OSMOTIC_STRESS_T15_REP1 -->
     <g transform="translate(599.278958 318.255394)scale(0.08 -0.08)">
      <defs>
       <path id="DejaVuSans-35" d="M 691 4666 
L 3169 4666 
L 3169 4134 
L 1269 4134 
L 1269 2991 
Q 1406 3038 1543 3061 
Q 1681 3084 1819 3084 
Q 2600 3084 3056 2656 
Q 3513 2228 3513 1497 
Q 3513 744 3044 326 
Q 2575 -91 1722 -91 
Q 1428 -91 1123 -41 
Q 819 9 494 109 
L 494 744 
Q 775 591 1075 516 
Q 1375 441 1709 441 
Q 2250 441 2565 725 
Q 2881 1009 2881 1497 
Q 2881 1984 2565 2268 
Q 2250 2553 1709 2553 
Q 1456 2553 1204 2497 
Q 953 2441 691 2322 
L 691 4666 
z
" transform="scale(0.015625)"/>
      </defs>
      <use xlink:href="#DejaVuSans-4f"/>
      <use xlink:href="#DejaVuSans-53" x="78.710938"/>
      <use xlink:href="#DejaVuSans-4d" x="142.1875"/>
      <use xlink:href="#DejaVuSans-4f" x="228.466797"/>
      <use xlink:href="#DejaVuSans-54" x="307.177734"/>
      <use xlink:href="#DejaVuSans-49" x="368.261719"/>
      <use xlink:href="#DejaVuSans-43" x="397.753906"/>
      <use xlink:href="#DejaVuSans-5f" x="467.578125"/>
      <use xlink:href="#DejaVuSans-53" x="517.578125"/>
      <use xlink:href="#DejaVuSans-54" x="581.054688"/>
      <use xlink:href="#DejaVuSans-52" x="642.138672"/>
      <use xlink:href="#DejaVuSans-45" x="711.621094"/>
      <use xlink:href="#DejaVuSans-53" x="774.804688"/>
      <use xlink:href="#DejaVuSans-53" x="838.28125"/>
      <use xlink:href="#DejaVuSans-5f" x="901.757812"/>
      <use xlink:href="#DejaVuSans-54" x="951.757812"/>
      <use xlink:href="#DejaVuSans-31" x="1012.841797"/>
      <use xlink:href="#DejaVuSans-35" x="1076.464844"/>
      <use xlink:href="#DejaVuSans-5f" x="1140.087891"/>
      <use xlink:href="#DejaVuSans-52" x="1190.087891"/>
      <use xlink:href="#DejaVuSans-45" x="1259.570312"/>
      <use xlink:href="#DejaVuSans-50" x="1322.753906"/>
      <use xlink:href="#DejaVuSans-31" x="1383.056641"/>
     </g>
    </g>
    <g id="line2d_15">
     <path d="M 847.779375 315.455394 
L 855.779375 315.455394 
L 863.779375 315.455394 
" style="fill: none; stroke: #f7a35c; stroke-linecap: square"/>
    </g>
    <g id="text_20">
     <!-- OSMOTIC_STRESS_T15_REP2 -->
     <g transform="translate(870.179375 318.255394)scale(0.08 -0.08)">
      <use xlink:href="#DejaVuSans-4f"/>
      <use xlink:href="#DejaVuSans-53" x="78.710938"/>
      <use xlink:href="#DejaVuSans-4d" x="142.1875"/>
      <use xlink:href="#DejaVuSans-4f" x="228.466797"/>
      <use xlink:href="#DejaVuSans-54" x="307.177734"/>
      <use xlink:href="#DejaVuSans-49" x="368.261719"/>
      <use xlink:href="#DejaVuSans-43" x="397.753906"/>
      <use xlink:href="#DejaVuSans-5f" x="467.578125"/>
      <use xlink:href="#DejaVuSans-53" x="517.578125"/>
      <use xlink:href="#DejaVuSans-54" x="581.054688"/>
      <use xlink:href="#DejaVuSans-52" x="642.138672"/>
      <use xlink:href="#DejaVuSans-45" x="711.621094"/>
      <use xlink:href="#DejaVuSans-53" x="774.804688"/>
      <use xlink:href="#DejaVuSans-53" x="838.28125"/>
      <use xlink:href="#DejaVuSans-5f" x="901.757812"/>
      <use xlink:href="#DejaVuSans-54" x="951.757812"/>
      <use xlink:href="#DejaVuSans-31" x="1012.841797"/>
      <use xlink:href="#DejaVuSans-35" x="1076.464844"/>
      <use xlink:href="#DejaVuSans-5f" x="1140.087891"/>
      <use xlink:href="#DejaVuSans-52" x="1190.087891"/>
      <use xlink:href="#DejaVuSans-45" x="1259.570312"/>
      <use xlink:href="#DejaVuSans-50" x="1322.753906"/>
      <use xlink:href="#DejaVuSans-32" x="1383.056641"/>
     </g>
    </g>
   </g>
  </g>
 </g>
 <defs>
  <clipPath id="p313967d101">
   <rect x="38.058125" y="31.48286" width="955.06" height="242.5072"/>
  </clipPath>
 </defs>
</svg>
