<?xml version="1.0" encoding="utf-8" standalone="no"?>
<!DOCTYPE svg PUBLIC "-//W3C//DTD SVG 1.1//EN"
  "http://www.w3.org/Graphics/SVG/1.1/DTD/svg11.dtd">
<svg xmlns:xlink="http://www.w3.org/1999/xlink" width="1000.298125pt" height="330.541644pt" viewBox="0 0 1000.298125 330.541644" xmlns="http://www.w3.org/2000/svg" version="1.1">
 <metadata>
  <rdf:RDF xmlns:dc="http://purl.org/dc/elements/1.1/" xmlns:cc="http://creativecommons.org/ns#" xmlns:rdf="http://www.w3.org/1999/02/22-rdf-syntax-ns#">
   <cc:Work>
    <dc:type rdf:resource="http://purl.org/dc/dcmitype/StillImage"/>
    <dc:date>2022-11-03T22:57:02.079422</dc:date>
    <dc:format>image/svg+xml</dc:format>
    <dc:creator>
     <cc:Agent>
      <dc:title>Matplotlib v3.5.2, https://matplotlib.org/</dc:title>
     </cc:Agent>
    </dc:creator>
   </cc:Work>
  </rdf:RDF>
 </metadata>
 <defs>
  <style type="text/css">*{stroke-linejoin: round; stroke-linecap: butt}</style>
 </defs>
 <g id="figure_1">
  <g id="axes_1">
   <g id="patch_1">
    <path d="M 32.968125 273.99006 
L 985.463125 273.99006 
L 985.463125 31.48286 
L 32.968125 31.48286 
z
" style="fill: #ffffff"/>
   </g>
   <g id="matplotlib.axis_1">
    <g id="xtick_1">
     <g id="text_1">
      <!-- 0 -->
      <g transform="translate(30.423125 287.06881)scale(0.08 -0.08)">
       <defs>
        <path id="DejaVuSans-30" d="M 2034 4250 
Q 1547 4250 1301 3770 
Q 1056 3291 1056 2328 
Q 1056 1369 1301 889 
Q 1547 409 2034 409 
Q 2525 409 2770 889 
Q 3016 1369 3016 2328 
Q 3016 3291 2770 3770 
Q 2525 4250 2034 4250 
z
M 2034 4750 
Q 2819 4750 3233 4129 
Q 3647 3509 3647 2328 
Q 3647 1150 3233 529 
Q 2819 -91 2034 -91 
Q 1250 -91 836 529 
Q 422 1150 422 2328 
Q 422 3509 836 4129 
Q 1250 4750 2034 4750 
z
" transform="scale(0.015625)"/>
       </defs>
       <use xlink:href="#DejaVuSans-30"/>
      </g>
     </g>
    </g>
    <g id="xtick_2">
     <g id="text_2">
      <!-- 20 -->
      <g transform="translate(218.377125 287.06881)scale(0.08 -0.08)">
       <defs>
        <path id="DejaVuSans-32" d="M 1228 531 
L 3431 531 
L 3431 0 
L 469 0 
L 469 531 
Q 828 903 1448 1529 
Q 2069 2156 2228 2338 
Q 2531 2678 2651 2914 
Q 2772 3150 2772 3378 
Q 2772 3750 2511 3984 
Q 2250 4219 1831 4219 
Q 1534 4219 1204 4116 
Q 875 4013 500 3803 
L 500 4441 
Q 881 4594 1212 4672 
Q 1544 4750 1819 4750 
Q 2544 4750 2975 4387 
Q 3406 4025 3406 3419 
Q 3406 3131 3298 2873 
Q 3191 2616 2906 2266 
Q 2828 2175 2409 1742 
Q 1991 1309 1228 531 
z
" transform="scale(0.015625)"/>
       </defs>
       <use xlink:href="#DejaVuSans-32"/>
       <use xlink:href="#DejaVuSans-30" x="63.623047"/>
      </g>
     </g>
    </g>
    <g id="xtick_3">
     <g id="text_3">
      <!-- 40 -->
      <g transform="translate(408.876125 287.06881)scale(0.08 -0.08)">
       <defs>
        <path id="DejaVuSans-34" d="M 2419 4116 
L 825 1625 
L 2419 1625 
L 2419 4116 
z
M 2253 4666 
L 3047 4666 
L 3047 1625 
L 3713 1625 
L 3713 1100 
L 3047 1100 
L 3047 0 
L 2419 0 
L 2419 1100 
L 313 1100 
L 313 1709 
L 2253 4666 
z
" transform="scale(0.015625)"/>
       </defs>
       <use xlink:href="#DejaVuSans-34"/>
       <use xlink:href="#DejaVuSans-30" x="63.623047"/>
      </g>
     </g>
    </g>
    <g id="xtick_4">
     <g id="text_4">
      <!-- 60 -->
      <g transform="translate(599.375125 287.06881)scale(0.08 -0.08)">
       <defs>
        <path id="DejaVuSans-36" d="M 2113 2584 
Q 1688 2584 1439 2293 
Q 1191 2003 1191 1497 
Q 1191 994 1439 701 
Q 1688 409 2113 409 
Q 2538 409 2786 701 
Q 3034 994 3034 1497 
Q 3034 2003 2786 2293 
Q 2538 2584 2113 2584 
z
M 3366 4563 
L 3366 3988 
Q 3128 4100 2886 4159 
Q 2644 4219 2406 4219 
Q 1781 4219 1451 3797 
Q 1122 3375 1075 2522 
Q 1259 2794 1537 2939 
Q 1816 3084 2150 3084 
Q 2853 3084 3261 2657 
Q 3669 2231 3669 1497 
Q 3669 778 3244 343 
Q 2819 -91 2113 -91 
Q 1303 -91 875 529 
Q 447 1150 447 2328 
Q 447 3434 972 4092 
Q 1497 4750 2381 4750 
Q 2619 4750 2861 4703 
Q 3103 4656 3366 4563 
z
" transform="scale(0.015625)"/>
       </defs>
       <use xlink:href="#DejaVuSans-36"/>
       <use xlink:href="#DejaVuSans-30" x="63.623047"/>
      </g>
     </g>
    </g>
    <g id="xtick_5">
     <g id="text_5">
      <!-- 80 -->
      <g transform="translate(789.874125 287.06881)scale(0.08 -0.08)">
       <defs>
        <path id="DejaVuSans-38" d="M 2034 2216 
Q 1584 2216 1326 1975 
Q 1069 1734 1069 1313 
Q 1069 891 1326 650 
Q 1584 409 2034 409 
Q 2484 409 2743 651 
Q 3003 894 3003 1313 
Q 3003 1734 2745 1975 
Q 2488 2216 2034 2216 
z
M 1403 2484 
Q 997 2584 770 2862 
Q 544 3141 544 3541 
Q 544 4100 942 4425 
Q 1341 4750 2034 4750 
Q 2731 4750 3128 4425 
Q 3525 4100 3525 3541 
Q 3525 3141 3298 2862 
Q 3072 2584 2669 2484 
Q 3125 2378 3379 2068 
Q 3634 1759 3634 1313 
Q 3634 634 3220 271 
Q 2806 -91 2034 -91 
Q 1263 -91 848 271 
Q 434 634 434 1313 
Q 434 1759 690 2068 
Q 947 2378 1403 2484 
z
M 1172 3481 
Q 1172 3119 1398 2916 
Q 1625 2713 2034 2713 
Q 2441 2713 2670 2916 
Q 2900 3119 2900 3481 
Q 2900 3844 2670 4047 
Q 2441 4250 2034 4250 
Q 1625 4250 1398 4047 
Q 1172 3844 1172 3481 
z
" transform="scale(0.015625)"/>
       </defs>
       <use xlink:href="#DejaVuSans-38"/>
       <use xlink:href="#DejaVuSans-30" x="63.623047"/>
      </g>
     </g>
    </g>
    <g id="xtick_6">
     <g id="text_6">
      <!-- 100 -->
      <g transform="translate(977.828125 287.06881)scale(0.08 -0.08)">
       <defs>
        <path id="DejaVuSans-31" d="M 794 531 
L 1825 531 
L 1825 4091 
L 703 3866 
L 703 4441 
L 1819 4666 
L 2450 4666 
L 2450 531 
L 3481 531 
L 3481 0 
L 794 0 
L 794 531 
z
" transform="scale(0.015625)"/>
       </defs>
       <use xlink:href="#DejaVuSans-31"/>
       <use xlink:href="#DejaVuSans-30" x="63.623047"/>
       <use xlink:href="#DejaVuSans-30" x="127.246094"/>
      </g>
     </g>
    </g>
    <g id="text_7">
     <!-- % GC -->
     <g transform="translate(495.510156 300.330997)scale(0.1 -0.1)">
      <defs>
       <path id="DejaVuSans-25" d="M 4653 2053 
Q 4381 2053 4226 1822 
Q 4072 1591 4072 1178 
Q 4072 772 4226 539 
Q 4381 306 4653 306 
Q 4919 306 5073 539 
Q 5228 772 5228 1178 
Q 5228 1588 5073 1820 
Q 4919 2053 4653 2053 
z
M 4653 2450 
Q 5147 2450 5437 2106 
Q 5728 1763 5728 1178 
Q 5728 594 5436 251 
Q 5144 -91 4653 -91 
Q 4153 -91 3862 251 
Q 3572 594 3572 1178 
Q 3572 1766 3864 2108 
Q 4156 2450 4653 2450 
z
M 1428 4353 
Q 1159 4353 1004 4120 
Q 850 3888 850 3481 
Q 850 3069 1003 2837 
Q 1156 2606 1428 2606 
Q 1700 2606 1854 2837 
Q 2009 3069 2009 3481 
Q 2009 3884 1853 4118 
Q 1697 4353 1428 4353 
z
M 4250 4750 
L 4750 4750 
L 1831 -91 
L 1331 -91 
L 4250 4750 
z
M 1428 4750 
Q 1922 4750 2215 4408 
Q 2509 4066 2509 3481 
Q 2509 2891 2217 2550 
Q 1925 2209 1428 2209 
Q 931 2209 642 2551 
Q 353 2894 353 3481 
Q 353 4063 643 4406 
Q 934 4750 1428 4750 
z
" transform="scale(0.015625)"/>
       <path id="DejaVuSans-20" transform="scale(0.015625)"/>
       <path id="DejaVuSans-47" d="M 3809 666 
L 3809 1919 
L 2778 1919 
L 2778 2438 
L 4434 2438 
L 4434 434 
Q 4069 175 3628 42 
Q 3188 -91 2688 -91 
Q 1594 -91 976 548 
Q 359 1188 359 2328 
Q 359 3472 976 4111 
Q 1594 4750 2688 4750 
Q 3144 4750 3555 4637 
Q 3966 4525 4313 4306 
L 4313 3634 
Q 3963 3931 3569 4081 
Q 3175 4231 2741 4231 
Q 1884 4231 1454 3753 
Q 1025 3275 1025 2328 
Q 1025 1384 1454 906 
Q 1884 428 2741 428 
Q 3075 428 3337 486 
Q 3600 544 3809 666 
z
" transform="scale(0.015625)"/>
       <path id="DejaVuSans-43" d="M 4122 4306 
L 4122 3641 
Q 3803 3938 3442 4084 
Q 3081 4231 2675 4231 
Q 1875 4231 1450 3742 
Q 1025 3253 1025 2328 
Q 1025 1406 1450 917 
Q 1875 428 2675 428 
Q 3081 428 3442 575 
Q 3803 722 4122 1019 
L 4122 359 
Q 3791 134 3420 21 
Q 3050 -91 2638 -91 
Q 1578 -91 968 557 
Q 359 1206 359 2328 
Q 359 3453 968 4101 
Q 1578 4750 2638 4750 
Q 3056 4750 3426 4639 
Q 3797 4528 4122 4306 
z
" transform="scale(0.015625)"/>
      </defs>
      <use xlink:href="#DejaVuSans-25"/>
      <use xlink:href="#DejaVuSans-20" x="95.019531"/>
      <use xlink:href="#DejaVuSans-47" x="126.806641"/>
      <use xlink:href="#DejaVuSans-43" x="204.296875"/>
     </g>
    </g>
   </g>
   <g id="matplotlib.axis_2">
    <g id="ytick_1">
     <g id="line2d_1">
      <path d="M 32.968125 273.99006 
L 985.463125 273.99006 
" clip-path="url(#pd6d9893768)" style="fill: none; stroke: #dedede; stroke-linecap: square"/>
     </g>
     <g id="text_8">
      <!-- 0 -->
      <g transform="translate(20.878125 277.029435)scale(0.08 -0.08)">
       <use xlink:href="#DejaVuSans-30"/>
      </g>
     </g>
    </g>
    <g id="ytick_2">
     <g id="line2d_2">
      <path d="M 32.968125 225.191262 
L 985.463125 225.191262 
" clip-path="url(#pd6d9893768)" style="fill: none; stroke: #dedede; stroke-linecap: square"/>
     </g>
     <g id="text_9">
      <!-- 1 -->
      <g transform="translate(20.878125 228.230637)scale(0.08 -0.08)">
       <use xlink:href="#DejaVuSans-31"/>
      </g>
     </g>
    </g>
    <g id="ytick_3">
     <g id="line2d_3">
      <path d="M 32.968125 176.392465 
L 985.463125 176.392465 
" clip-path="url(#pd6d9893768)" style="fill: none; stroke: #dedede; stroke-linecap: square"/>
     </g>
     <g id="text_10">
      <!-- 2 -->
      <g transform="translate(20.878125 179.43184)scale(0.08 -0.08)">
       <use xlink:href="#DejaVuSans-32"/>
      </g>
     </g>
    </g>
    <g id="ytick_4">
     <g id="line2d_4">
      <path d="M 32.968125 127.593667 
L 985.463125 127.593667 
" clip-path="url(#pd6d9893768)" style="fill: none; stroke: #dedede; stroke-linecap: square"/>
     </g>
     <g id="text_11">
      <!-- 3 -->
      <g transform="translate(20.878125 130.633042)scale(0.08 -0.08)">
       <defs>
        <path id="DejaVuSans-33" d="M 2597 2516 
Q 3050 2419 3304 2112 
Q 3559 1806 3559 1356 
Q 3559 666 3084 287 
Q 2609 -91 1734 -91 
Q 1441 -91 1130 -33 
Q 819 25 488 141 
L 488 750 
Q 750 597 1062 519 
Q 1375 441 1716 441 
Q 2309 441 2620 675 
Q 2931 909 2931 1356 
Q 2931 1769 2642 2001 
Q 2353 2234 1838 2234 
L 1294 2234 
L 1294 2753 
L 1863 2753 
Q 2328 2753 2575 2939 
Q 2822 3125 2822 3475 
Q 2822 3834 2567 4026 
Q 2313 4219 1838 4219 
Q 1578 4219 1281 4162 
Q 984 4106 628 3988 
L 628 4550 
Q 988 4650 1302 4700 
Q 1616 4750 1894 4750 
Q 2613 4750 3031 4423 
Q 3450 4097 3450 3541 
Q 3450 3153 3228 2886 
Q 3006 2619 2597 2516 
z
" transform="scale(0.015625)"/>
       </defs>
       <use xlink:href="#DejaVuSans-33"/>
      </g>
     </g>
    </g>
    <g id="ytick_5">
     <g id="line2d_5">
      <path d="M 32.968125 78.794869 
L 985.463125 78.794869 
" clip-path="url(#pd6d9893768)" style="fill: none; stroke: #dedede; stroke-linecap: square"/>
     </g>
     <g id="text_12">
      <!-- 4 -->
      <g transform="translate(20.878125 81.834244)scale(0.08 -0.08)">
       <use xlink:href="#DejaVuSans-34"/>
      </g>
     </g>
    </g>
    <g id="text_13">
     <!-- Percentage -->
     <g transform="translate(14.798437 180.859116)rotate(-90)scale(0.1 -0.1)">
      <defs>
       <path id="DejaVuSans-50" d="M 1259 4147 
L 1259 2394 
L 2053 2394 
Q 2494 2394 2734 2622 
Q 2975 2850 2975 3272 
Q 2975 3691 2734 3919 
Q 2494 4147 2053 4147 
L 1259 4147 
z
M 628 4666 
L 2053 4666 
Q 2838 4666 3239 4311 
Q 3641 3956 3641 3272 
Q 3641 2581 3239 2228 
Q 2838 1875 2053 1875 
L 1259 1875 
L 1259 0 
L 628 0 
L 628 4666 
z
" transform="scale(0.015625)"/>
       <path id="DejaVuSans-65" d="M 3597 1894 
L 3597 1613 
L 953 1613 
Q 991 1019 1311 708 
Q 1631 397 2203 397 
Q 2534 397 2845 478 
Q 3156 559 3463 722 
L 3463 178 
Q 3153 47 2828 -22 
Q 2503 -91 2169 -91 
Q 1331 -91 842 396 
Q 353 884 353 1716 
Q 353 2575 817 3079 
Q 1281 3584 2069 3584 
Q 2775 3584 3186 3129 
Q 3597 2675 3597 1894 
z
M 3022 2063 
Q 3016 2534 2758 2815 
Q 2500 3097 2075 3097 
Q 1594 3097 1305 2825 
Q 1016 2553 972 2059 
L 3022 2063 
z
" transform="scale(0.015625)"/>
       <path id="DejaVuSans-72" d="M 2631 2963 
Q 2534 3019 2420 3045 
Q 2306 3072 2169 3072 
Q 1681 3072 1420 2755 
Q 1159 2438 1159 1844 
L 1159 0 
L 581 0 
L 581 3500 
L 1159 3500 
L 1159 2956 
Q 1341 3275 1631 3429 
Q 1922 3584 2338 3584 
Q 2397 3584 2469 3576 
Q 2541 3569 2628 3553 
L 2631 2963 
z
" transform="scale(0.015625)"/>
       <path id="DejaVuSans-63" d="M 3122 3366 
L 3122 2828 
Q 2878 2963 2633 3030 
Q 2388 3097 2138 3097 
Q 1578 3097 1268 2742 
Q 959 2388 959 1747 
Q 959 1106 1268 751 
Q 1578 397 2138 397 
Q 2388 397 2633 464 
Q 2878 531 3122 666 
L 3122 134 
Q 2881 22 2623 -34 
Q 2366 -91 2075 -91 
Q 1284 -91 818 406 
Q 353 903 353 1747 
Q 353 2603 823 3093 
Q 1294 3584 2113 3584 
Q 2378 3584 2631 3529 
Q 2884 3475 3122 3366 
z
" transform="scale(0.015625)"/>
       <path id="DejaVuSans-6e" d="M 3513 2113 
L 3513 0 
L 2938 0 
L 2938 2094 
Q 2938 2591 2744 2837 
Q 2550 3084 2163 3084 
Q 1697 3084 1428 2787 
Q 1159 2491 1159 1978 
L 1159 0 
L 581 0 
L 581 3500 
L 1159 3500 
L 1159 2956 
Q 1366 3272 1645 3428 
Q 1925 3584 2291 3584 
Q 2894 3584 3203 3211 
Q 3513 2838 3513 2113 
z
" transform="scale(0.015625)"/>
       <path id="DejaVuSans-74" d="M 1172 4494 
L 1172 3500 
L 2356 3500 
L 2356 3053 
L 1172 3053 
L 1172 1153 
Q 1172 725 1289 603 
Q 1406 481 1766 481 
L 2356 481 
L 2356 0 
L 1766 0 
Q 1100 0 847 248 
Q 594 497 594 1153 
L 594 3053 
L 172 3053 
L 172 3500 
L 594 3500 
L 594 4494 
L 1172 4494 
z
" transform="scale(0.015625)"/>
       <path id="DejaVuSans-61" d="M 2194 1759 
Q 1497 1759 1228 1600 
Q 959 1441 959 1056 
Q 959 750 1161 570 
Q 1363 391 1709 391 
Q 2188 391 2477 730 
Q 2766 1069 2766 1631 
L 2766 1759 
L 2194 1759 
z
M 3341 1997 
L 3341 0 
L 2766 0 
L 2766 531 
Q 2569 213 2275 61 
Q 1981 -91 1556 -91 
Q 1019 -91 701 211 
Q 384 513 384 1019 
Q 384 1609 779 1909 
Q 1175 2209 1959 2209 
L 2766 2209 
L 2766 2266 
Q 2766 2663 2505 2880 
Q 2244 3097 1772 3097 
Q 1472 3097 1187 3025 
Q 903 2953 641 2809 
L 641 3341 
Q 956 3463 1253 3523 
Q 1550 3584 1831 3584 
Q 2591 3584 2966 3190 
Q 3341 2797 3341 1997 
z
" transform="scale(0.015625)"/>
       <path id="DejaVuSans-67" d="M 2906 1791 
Q 2906 2416 2648 2759 
Q 2391 3103 1925 3103 
Q 1463 3103 1205 2759 
Q 947 2416 947 1791 
Q 947 1169 1205 825 
Q 1463 481 1925 481 
Q 2391 481 2648 825 
Q 2906 1169 2906 1791 
z
M 3481 434 
Q 3481 -459 3084 -895 
Q 2688 -1331 1869 -1331 
Q 1566 -1331 1297 -1286 
Q 1028 -1241 775 -1147 
L 775 -588 
Q 1028 -725 1275 -790 
Q 1522 -856 1778 -856 
Q 2344 -856 2625 -561 
Q 2906 -266 2906 331 
L 2906 616 
Q 2728 306 2450 153 
Q 2172 0 1784 0 
Q 1141 0 747 490 
Q 353 981 353 1791 
Q 353 2603 747 3093 
Q 1141 3584 1784 3584 
Q 2172 3584 2450 3431 
Q 2728 3278 2906 2969 
L 2906 3500 
L 3481 3500 
L 3481 434 
z
" transform="scale(0.015625)"/>
      </defs>
      <use xlink:href="#DejaVuSans-50"/>
      <use xlink:href="#DejaVuSans-65" x="56.677734"/>
      <use xlink:href="#DejaVuSans-72" x="118.201172"/>
      <use xlink:href="#DejaVuSans-63" x="157.064453"/>
      <use xlink:href="#DejaVuSans-65" x="212.044922"/>
      <use xlink:href="#DejaVuSans-6e" x="273.568359"/>
      <use xlink:href="#DejaVuSans-74" x="336.947266"/>
      <use xlink:href="#DejaVuSans-61" x="376.15625"/>
      <use xlink:href="#DejaVuSans-67" x="437.435547"/>
      <use xlink:href="#DejaVuSans-65" x="500.912109"/>
     </g>
    </g>
   </g>
   <g id="line2d_6">
    <path d="M 32.968125 273.99006 
L 42.493075 273.99006 
L 52.018025 273.99006 
L 61.542975 273.99006 
L 71.067925 273.958188 
L 80.592875 273.926315 
L 90.117825 273.910379 
L 99.642775 273.910379 
L 109.167725 273.878507 
L 118.692675 273.78289 
L 128.217625 273.671337 
L 137.742575 273.543847 
L 147.267525 273.368549 
L 156.792475 273.049826 
L 166.317425 272.762975 
L 175.842375 272.651421 
L 185.367325 271.982102 
L 194.892275 271.185293 
L 204.417225 270.563782 
L 213.942175 269.511995 
L 223.467125 267.711207 
L 232.992075 266.515994 
L 242.517025 265.432334 
L 252.041975 262.436333 
L 261.566925 259.312843 
L 271.091875 256.157481 
L 280.616825 248.874649 
L 290.141775 239.822902 
L 299.666725 230.691474 
L 309.191675 222.91462 
L 318.716625 211.010298 
L 328.241575 195.105996 
L 337.766525 181.990524 
L 347.291475 172.922841 
L 356.816425 163.01054 
L 366.341375 145.337323 
L 375.866325 126.835424 
L 385.391275 116.620336 
L 394.916225 105.959035 
L 404.441175 85.544795 
L 413.966125 74.771941 
L 423.491075 71.377536 
L 433.016025 65.32179 
L 442.540975 57.943341 
L 452.065925 55.505106 
L 461.590875 56.955298 
L 471.115825 52.764084 
L 480.640775 57.098724 
L 490.165725 72.859601 
L 499.690675 84.811731 
L 509.215625 88.939201 
L 518.740575 101.974991 
L 528.265525 116.779698 
L 537.790475 135.05849 
L 547.315425 158.691837 
L 556.840375 175.520437 
L 566.365325 194.022336 
L 575.890275 209.623851 
L 585.415225 218.930577 
L 594.940175 227.376749 
L 604.465125 235.488262 
L 613.990075 242.324881 
L 623.515025 247.408521 
L 633.039975 250.532011 
L 642.564925 254.053906 
L 652.089875 258.165439 
L 661.614825 262.547887 
L 671.139775 265.862611 
L 680.664725 267.982122 
L 690.189675 269.766974 
L 699.714625 270.946251 
L 709.239575 271.264974 
L 718.764525 271.82274 
L 728.289475 272.444251 
L 737.814425 272.762975 
L 747.339375 273.03389 
L 756.864325 273.11357 
L 766.389275 273.097634 
L 775.914225 273.161379 
L 785.439175 273.368549 
L 794.964125 273.559783 
L 804.489075 273.687273 
L 814.014025 273.703209 
L 823.538975 273.687273 
L 833.063925 273.798826 
L 842.588875 273.926315 
L 852.113825 273.926315 
L 861.638775 273.926315 
L 871.163725 273.974124 
L 880.688675 273.99006 
L 890.213625 273.99006 
L 899.738575 273.99006 
L 909.263525 273.99006 
L 918.788475 273.958188 
L 928.313425 273.958188 
L 937.838375 273.99006 
L 947.363325 273.99006 
L 956.888275 273.99006 
L 966.413225 273.99006 
L 975.938175 273.926315 
L 985.463125 273.862571 
" clip-path="url(#pd6d9893768)" style="fill: none; stroke: #5cb85c; stroke-linecap: square"/>
   </g>
   <g id="line2d_7">
    <path d="M 32.968125 273.607767 
L 42.493075 273.639624 
L 52.018025 273.719269 
L 61.542975 273.735198 
L 71.067925 273.70334 
L 80.592875 273.751127 
L 90.117825 273.798913 
L 99.642775 273.639624 
L 109.167725 273.464407 
L 118.692675 273.464407 
L 128.217625 273.41662 
L 137.742575 273.1299 
L 147.267525 272.890966 
L 156.792475 272.875038 
L 166.317425 272.636104 
L 175.842375 272.221953 
L 185.367325 271.712228 
L 194.892275 271.329935 
L 204.417225 270.931713 
L 213.942175 269.737046 
L 223.467125 268.112299 
L 232.992075 267.188423 
L 242.517025 265.866325 
L 252.041975 262.537187 
L 261.566925 257.519586 
L 271.091875 253.601078 
L 280.616825 249.332135 
L 290.141775 241.606623 
L 299.666725 232.01743 
L 309.191675 224.084842 
L 318.716625 211.501017 
L 328.241575 195.476552 
L 337.766525 182.207785 
L 347.291475 172.331872 
L 356.816425 161.548012 
L 366.341375 144.376666 
L 375.866325 127.587614 
L 385.391275 116.835612 
L 394.916225 105.191592 
L 404.441175 86.124708 
L 413.966125 75.850573 
L 423.491075 72.632937 
L 433.016025 66.564029 
L 442.540975 59.491601 
L 452.065925 55.955387 
L 461.590875 55.668667 
L 471.115825 51.622728 
L 480.640775 56.48104 
L 490.165725 72.537363 
L 499.690675 85.853917 
L 509.215625 92.464407 
L 518.740575 103.455343 
L 528.265525 116.421461 
L 537.790475 135.392771 
L 547.315425 159.206465 
L 556.840375 176.170735 
L 566.365325 192.529707 
L 575.890275 208.331167 
L 585.415225 219.003525 
L 594.940175 227.398051 
L 604.465125 236.174871 
L 613.990075 243.040223 
L 623.515025 247.834819 
L 633.039975 250.749807 
L 642.564925 254.44531 
L 652.089875 258.093026 
L 661.614825 262.20268 
L 671.139775 265.754823 
L 680.664725 267.905223 
L 690.189675 269.752975 
L 699.714625 270.852068 
L 709.239575 271.282148 
L 718.764525 271.855588 
L 728.289475 272.4131 
L 737.814425 272.731678 
L 747.339375 273.034326 
L 756.864325 273.145829 
L 766.389275 273.145829 
L 775.914225 273.241402 
L 785.439175 273.432549 
L 794.964125 273.575909 
L 804.489075 273.623695 
L 814.014025 273.607767 
L 823.538975 273.639624 
L 833.063925 273.782984 
L 842.588875 273.894487 
L 852.113825 273.878558 
L 861.638775 273.878558 
L 871.163725 273.910416 
L 880.688675 273.926344 
L 890.213625 273.942273 
L 899.738575 273.958202 
L 909.263525 273.958202 
L 918.788475 273.974131 
L 928.313425 273.958202 
L 937.838375 273.926344 
L 947.363325 273.910416 
L 956.888275 273.878558 
L 966.413225 273.735198 
L 975.938175 272.397171 
L 985.463125 271.186575 
" clip-path="url(#pd6d9893768)" style="fill: none; stroke: #5cb85c; stroke-linecap: square"/>
   </g>
   <g id="line2d_8">
    <path d="M 32.968125 273.99006 
L 42.493075 273.957671 
L 52.018025 273.941477 
L 61.542975 273.941477 
L 71.067925 273.925282 
L 80.592875 273.909088 
L 90.117825 273.84431 
L 99.642775 273.811921 
L 109.167725 273.84431 
L 118.692675 273.682366 
L 128.217625 273.569005 
L 137.742575 273.43945 
L 147.267525 273.228922 
L 156.792475 272.88884 
L 166.317425 272.224869 
L 175.842375 271.625675 
L 185.367325 270.977899 
L 194.892275 270.330122 
L 204.417225 269.423235 
L 213.942175 268.45157 
L 223.467125 266.540628 
L 232.992075 264.483937 
L 242.517025 262.767329 
L 252.041975 260.823999 
L 261.566925 258.556781 
L 271.091875 255.593203 
L 280.616825 247.900855 
L 290.141775 238.054649 
L 299.666725 228.483749 
L 309.191675 220.240791 
L 318.716625 210.734669 
L 328.241575 197.746746 
L 337.766525 185.487573 
L 347.291475 176.564449 
L 356.816425 168.062381 
L 366.341375 151.252576 
L 375.866325 133.309163 
L 385.391275 123.673485 
L 394.916225 112.224032 
L 404.441175 90.393958 
L 413.966125 78.231951 
L 423.491075 73.098321 
L 433.016025 66.183305 
L 442.540975 58.879624 
L 452.065925 53.422105 
L 461.590875 52.158941 
L 471.115825 49.486862 
L 480.640775 56.580016 
L 490.165725 74.912096 
L 499.690675 85.810938 
L 509.215625 90.118653 
L 518.740575 101.632884 
L 528.265525 111.252367 
L 537.790475 131.041944 
L 547.315425 156.6939 
L 556.840375 174.167676 
L 566.365325 193.147532 
L 575.890275 209.390532 
L 585.415225 220.661846 
L 594.940175 229.066748 
L 604.465125 235.706459 
L 613.990075 241.196366 
L 623.515025 244.402861 
L 633.039975 246.751051 
L 642.564925 251.36646 
L 652.089875 255.39887 
L 661.614825 259.593224 
L 671.139775 264.289604 
L 680.664725 267.528488 
L 690.189675 269.649956 
L 699.714625 270.961704 
L 709.239575 271.852397 
L 718.764525 272.613535 
L 728.289475 273.164145 
L 737.814425 273.455644 
L 747.339375 273.633783 
L 756.864325 273.682366 
L 766.389275 273.682366 
L 775.914225 273.747144 
L 785.439175 273.811921 
L 794.964125 273.84431 
L 804.489075 273.860505 
L 814.014025 273.860505 
L 823.538975 273.909088 
L 833.063925 273.973866 
L 842.588875 273.957671 
L 852.113825 273.909088 
L 861.638775 273.892894 
L 871.163725 273.941477 
L 880.688675 273.99006 
L 890.213625 273.99006 
L 899.738575 273.99006 
L 909.263525 273.99006 
L 918.788475 273.99006 
L 928.313425 273.99006 
L 937.838375 273.99006 
L 947.363325 273.99006 
L 956.888275 273.99006 
L 966.413225 273.99006 
L 975.938175 273.909088 
L 985.463125 273.828116 
" clip-path="url(#pd6d9893768)" style="fill: none; stroke: #5cb85c; stroke-linecap: square"/>
   </g>
   <g id="line2d_9">
    <path d="M 32.968125 273.763171 
L 42.493075 273.584901 
L 52.018025 273.520076 
L 61.542975 273.682139 
L 71.067925 273.730758 
L 80.592875 273.795584 
L 90.117825 273.860409 
L 99.642775 273.698346 
L 109.167725 273.520076 
L 118.692675 273.520076 
L 128.217625 273.341806 
L 137.742575 273.001472 
L 147.267525 272.806996 
L 156.792475 272.466662 
L 166.317425 271.802202 
L 175.842375 271.105329 
L 185.367325 270.489487 
L 194.892275 270.376043 
L 204.417225 269.549518 
L 213.942175 268.171978 
L 223.467125 266.51893 
L 232.992075 264.444516 
L 242.517025 262.629404 
L 252.041975 260.117419 
L 261.566925 257.248894 
L 271.091875 254.915179 
L 280.616825 248.967446 
L 290.141775 239.632584 
L 299.666725 230.281517 
L 309.191675 222.907625 
L 318.716625 212.357287 
L 328.241575 196.799185 
L 337.766525 185.714037 
L 347.291475 178.810129 
L 356.816425 165.164377 
L 366.341375 145.392622 
L 375.866325 130.336917 
L 385.391275 121.455834 
L 394.916225 107.37251 
L 404.441175 87.584549 
L 413.966125 76.094242 
L 423.491075 70.584081 
L 433.016025 66.645936 
L 442.540975 57.392107 
L 452.065925 51.039215 
L 461.590875 53.761883 
L 471.115825 52.465375 
L 480.640775 57.651409 
L 490.165725 75.024623 
L 499.690675 85.056357 
L 509.215625 87.843851 
L 518.740575 102.137857 
L 528.265525 115.929466 
L 537.790475 136.981523 
L 547.315425 163.300646 
L 556.840375 177.934986 
L 566.365325 194.23858 
L 575.890275 209.634619 
L 585.415225 219.828417 
L 594.940175 228.790532 
L 604.465125 236.650615 
L 613.990075 242.014919 
L 623.515025 245.321016 
L 633.039975 248.076096 
L 642.564925 252.484225 
L 652.089875 256.179274 
L 661.614825 260.117419 
L 671.139775 264.493135 
L 680.664725 267.377867 
L 690.189675 269.792614 
L 699.714625 271.299805 
L 709.239575 271.915646 
L 718.764525 272.709758 
L 728.289475 273.309393 
L 737.814425 273.487663 
L 747.339375 273.536282 
L 756.864325 273.520076 
L 766.389275 273.568695 
L 775.914225 273.63352 
L 785.439175 273.698346 
L 794.964125 273.81179 
L 804.489075 273.876616 
L 814.014025 273.844203 
L 823.538975 273.876616 
L 833.063925 273.957647 
L 842.588875 273.957647 
L 852.113825 273.909028 
L 861.638775 273.876616 
L 871.163725 273.844203 
L 880.688675 273.876616 
L 890.213625 273.957647 
L 899.738575 273.957647 
L 909.263525 273.925235 
L 918.788475 273.941441 
L 928.313425 273.957647 
L 937.838375 273.925235 
L 947.363325 273.892822 
L 956.888275 273.925235 
L 966.413225 273.730758 
L 975.938175 272.871821 
L 985.463125 272.239774 
" clip-path="url(#pd6d9893768)" style="fill: none; stroke: #5cb85c; stroke-linecap: square"/>
   </g>
   <g id="line2d_10">
    <path d="M 32.968125 273.99006 
L 42.493075 273.972907 
L 52.018025 273.972907 
L 61.542975 273.972907 
L 71.067925 273.955755 
L 80.592875 273.955755 
L 90.117825 273.921449 
L 99.642775 273.887144 
L 109.167725 273.887144 
L 118.692675 273.904297 
L 128.217625 273.887144 
L 137.742575 273.749923 
L 147.267525 273.647007 
L 156.792475 273.544091 
L 166.317425 273.269648 
L 175.842375 272.875137 
L 185.367325 272.669305 
L 194.892275 272.446321 
L 204.417225 272.137573 
L 213.942175 271.417161 
L 223.467125 270.285086 
L 232.992075 269.496064 
L 242.517025 268.415446 
L 252.041975 265.945463 
L 261.566925 261.640146 
L 271.091875 257.489203 
L 280.616825 250.645292 
L 290.141775 242.068963 
L 299.666725 233.372566 
L 309.191675 226.048381 
L 318.716625 214.333115 
L 328.241575 195.739634 
L 337.766525 178.775655 
L 347.291475 166.906016 
L 356.816425 154.384575 
L 366.341375 134.298813 
L 375.866325 114.573256 
L 385.391275 102.240495 
L 394.916225 88.432605 
L 404.441175 65.413738 
L 413.966125 52.446328 
L 423.491075 52.189038 
L 433.016025 50.062109 
L 442.540975 44.470342 
L 452.065925 43.972915 
L 461.590875 48.655591 
L 471.115825 51.468627 
L 480.640775 59.358849 
L 490.165725 75.68818 
L 499.690675 89.56468 
L 509.215625 96.562965 
L 518.740575 111.382861 
L 528.265525 126.99178 
L 537.790475 148.724198 
L 547.315425 172.480629 
L 556.840375 186.408588 
L 566.365325 202.583544 
L 575.890275 216.408587 
L 585.415225 225.619564 
L 594.940175 233.767077 
L 604.465125 242.480627 
L 613.990075 249.153011 
L 623.515025 252.326253 
L 633.039975 254.075824 
L 642.564925 257.643577 
L 652.089875 261.485772 
L 661.614825 265.01922 
L 671.139775 267.883714 
L 680.664725 269.461758 
L 690.189675 270.936887 
L 699.714625 272.000352 
L 709.239575 272.3091 
L 718.764525 272.532084 
L 728.289475 273.012358 
L 737.814425 273.338259 
L 747.339375 273.372564 
L 756.864325 273.303954 
L 766.389275 273.561244 
L 775.914225 273.852839 
L 785.439175 273.904297 
L 794.964125 273.938602 
L 804.489075 273.921449 
L 814.014025 273.887144 
L 823.538975 273.887144 
L 833.063925 273.904297 
L 842.588875 273.921449 
L 852.113825 273.921449 
L 861.638775 273.938602 
L 871.163725 273.955755 
L 880.688675 273.972907 
L 890.213625 273.99006 
L 899.738575 273.99006 
L 909.263525 273.99006 
L 918.788475 273.99006 
L 928.313425 273.99006 
L 937.838375 273.99006 
L 947.363325 273.99006 
L 956.888275 273.99006 
L 966.413225 273.99006 
L 975.938175 273.972907 
L 985.463125 273.955755 
" clip-path="url(#pd6d9893768)" style="fill: none; stroke: #5cb85c; stroke-linecap: square"/>
   </g>
   <g id="line2d_11">
    <path d="M 32.968125 273.543164 
L 42.493075 273.577541 
L 52.018025 273.680671 
L 61.542975 273.732235 
L 71.067925 273.715047 
L 80.592875 273.715047 
L 90.117825 273.818177 
L 99.642775 273.800989 
L 109.167725 273.697859 
L 118.692675 273.697859 
L 128.217625 273.715047 
L 137.742575 273.422846 
L 147.267525 273.027515 
L 156.792475 273.147833 
L 166.317425 273.250963 
L 175.842375 272.890009 
L 185.367325 272.391548 
L 194.892275 272.202476 
L 204.417225 271.85871 
L 213.942175 271.188366 
L 223.467125 269.675796 
L 232.992075 267.9054 
L 242.517025 266.839726 
L 252.041975 265.06933 
L 261.566925 261.683234 
L 271.091875 258.245574 
L 280.616825 252.642187 
L 290.141775 243.824587 
L 299.666725 233.872559 
L 309.191675 225.931563 
L 318.716625 213.538796 
L 328.241575 194.631661 
L 337.766525 176.790202 
L 347.291475 165.188097 
L 356.816425 153.345356 
L 366.341375 131.138067 
L 375.866325 113.520056 
L 385.391275 106.060332 
L 394.916225 88.717333 
L 404.441175 65.616253 
L 413.966125 56.145498 
L 423.491075 53.670382 
L 433.016025 52.140623 
L 442.540975 44.010555 
L 452.065925 43.030822 
L 461.590875 50.232721 
L 471.115825 50.318663 
L 480.640775 60.219126 
L 490.165725 80.157558 
L 499.690675 93.014409 
L 509.215625 99.477212 
L 518.740575 114.929497 
L 528.265525 128.044172 
L 537.790475 147.690404 
L 547.315425 172.218113 
L 556.840375 185.951568 
L 566.365325 200.183484 
L 575.890275 215.82484 
L 585.415225 227.495698 
L 594.940175 234.714786 
L 604.465125 241.727614 
L 613.990075 247.84665 
L 623.515025 251.971843 
L 633.039975 254.240699 
L 642.564925 257.867431 
L 652.089875 261.597293 
L 661.614825 265.120895 
L 671.139775 267.871024 
L 680.664725 269.555478 
L 690.189675 271.016483 
L 699.714625 271.686827 
L 709.239575 271.996217 
L 718.764525 272.391548 
L 728.289475 272.786879 
L 737.814425 273.165021 
L 747.339375 273.388469 
L 756.864325 273.491599 
L 766.389275 273.646294 
L 775.914225 273.852554 
L 785.439175 273.938495 
L 794.964125 273.921307 
L 804.489075 273.904118 
L 814.014025 273.852554 
L 823.538975 273.800989 
L 833.063925 273.800989 
L 842.588875 273.818177 
L 852.113825 273.904118 
L 861.638775 273.921307 
L 871.163725 273.852554 
L 880.688675 273.852554 
L 890.213625 273.835365 
L 899.738575 273.818177 
L 909.263525 273.869742 
L 918.788475 273.921307 
L 928.313425 273.921307 
L 937.838375 273.88693 
L 947.363325 273.88693 
L 956.888275 273.904118 
L 966.413225 273.715047 
L 975.938175 272.099347 
L 985.463125 270.689906 
" clip-path="url(#pd6d9893768)" style="fill: none; stroke: #5cb85c; stroke-linecap: square"/>
   </g>
   <g id="line2d_12">
    <path d="M 32.968125 273.99006 
L 42.493075 273.99006 
L 52.018025 273.99006 
L 61.542975 273.99006 
L 71.067925 273.957365 
L 80.592875 273.891974 
L 90.117825 273.859278 
L 99.642775 273.875626 
L 109.167725 273.859278 
L 118.692675 273.810235 
L 128.217625 273.793887 
L 137.742575 273.695801 
L 147.267525 273.499628 
L 156.792475 273.336151 
L 166.317425 273.107282 
L 175.842375 272.518764 
L 185.367325 271.815812 
L 194.892275 271.472509 
L 204.417225 270.736861 
L 213.942175 269.625216 
L 223.467125 267.777922 
L 232.992075 265.423848 
L 242.517025 263.445773 
L 252.041975 259.800229 
L 261.566925 255.010343 
L 271.091875 251.28306 
L 280.616825 243.730408 
L 290.141775 233.071687 
L 299.666725 223.2467 
L 309.191675 214.81127 
L 318.716625 200.000225 
L 328.241575 179.941557 
L 337.766525 164.264082 
L 347.291475 152.787974 
L 356.816425 137.17589 
L 366.341375 115.858448 
L 375.866325 99.543411 
L 385.391275 91.500327 
L 394.916225 82.966811 
L 404.441175 68.139418 
L 413.966125 59.050079 
L 423.491075 56.434441 
L 433.016025 55.535316 
L 442.540975 50.89256 
L 452.065925 52.26577 
L 461.590875 61.436847 
L 471.115825 64.918914 
L 480.640775 73.321649 
L 490.165725 90.421376 
L 499.690675 106.131547 
L 509.215625 115.400711 
L 518.740575 126.680646 
L 528.265525 139.12127 
L 537.790475 157.120123 
L 547.315425 178.19235 
L 556.840375 192.545659 
L 566.365325 206.490274 
L 575.890275 220.189674 
L 585.415225 230.16179 
L 594.940175 237.256706 
L 604.465125 243.812147 
L 613.990075 249.893503 
L 623.515025 253.915045 
L 633.039975 255.860425 
L 642.564925 259.440578 
L 652.089875 263.167861 
L 661.614825 266.028714 
L 671.139775 268.268354 
L 680.664725 269.690606 
L 690.189675 271.227293 
L 699.714625 272.110071 
L 709.239575 272.420678 
L 718.764525 272.960153 
L 728.289475 273.221717 
L 737.814425 273.303455 
L 747.339375 273.434237 
L 756.864325 273.532324 
L 766.389275 273.646758 
L 775.914225 273.744844 
L 785.439175 273.826583 
L 794.964125 273.908321 
L 804.489075 273.957365 
L 814.014025 273.957365 
L 823.538975 273.941017 
L 833.063925 273.924669 
L 842.588875 273.957365 
L 852.113825 273.99006 
L 861.638775 273.99006 
L 871.163725 273.99006 
L 880.688675 273.99006 
L 890.213625 273.99006 
L 899.738575 273.99006 
L 909.263525 273.99006 
L 918.788475 273.99006 
L 928.313425 273.99006 
L 937.838375 273.99006 
L 947.363325 273.99006 
L 956.888275 273.99006 
L 966.413225 273.99006 
L 975.938175 273.973712 
L 985.463125 273.957365 
" clip-path="url(#pd6d9893768)" style="fill: none; stroke: #5cb85c; stroke-linecap: square"/>
   </g>
   <g id="line2d_13">
    <path d="M 32.968125 273.630933 
L 42.493075 273.663581 
L 52.018025 273.728877 
L 61.542975 273.728877 
L 71.067925 273.696229 
L 80.592875 273.712553 
L 90.117825 273.647257 
L 99.642775 273.614609 
L 109.167725 273.614609 
L 118.692675 273.581961 
L 128.217625 273.36975 
L 137.742575 273.059595 
L 147.267525 272.977975 
L 156.792475 272.847384 
L 166.317425 272.651497 
L 175.842375 272.227074 
L 185.367325 271.410877 
L 194.892275 270.872187 
L 204.417225 270.170257 
L 213.942175 269.35406 
L 223.467125 267.362539 
L 232.992075 264.962919 
L 242.517025 263.101989 
L 252.041975 259.853525 
L 261.566925 254.336032 
L 271.091875 249.56944 
L 280.616825 243.382665 
L 290.141775 234.061693 
L 299.666725 224.202031 
L 309.191675 215.25651 
L 318.716625 199.960975 
L 328.241575 180.453862 
L 337.766525 164.63596 
L 347.291475 152.817425 
L 356.816425 138.191171 
L 366.341375 117.933157 
L 375.866325 99.764608 
L 385.391275 88.109312 
L 394.916225 79.261734 
L 404.441175 65.516973 
L 413.966125 57.14279 
L 423.491075 57.84472 
L 433.016025 59.330199 
L 442.540975 53.82903 
L 452.065925 54.530959 
L 461.590875 62.235861 
L 471.115825 65.468002 
L 480.640775 75.719438 
L 490.165725 94.949044 
L 499.690675 108.84072 
L 509.215625 114.815284 
L 518.740575 126.617495 
L 528.265525 137.342326 
L 537.790475 155.5272 
L 547.315425 179.229566 
L 556.840375 193.904792 
L 566.365325 207.910735 
L 575.890275 220.349581 
L 585.415225 229.686876 
L 594.940175 237.538693 
L 604.465125 244.574313 
L 613.990075 250.255046 
L 623.515025 254.042201 
L 633.039975 256.131665 
L 642.564925 259.804553 
L 652.089875 263.363173 
L 661.614825 265.942356 
L 671.139775 267.950201 
L 680.664725 269.549947 
L 690.189675 271.280285 
L 699.714625 272.21075 
L 709.239575 272.684144 
L 718.764525 273.075919 
L 728.289475 273.337102 
L 737.814425 273.337102 
L 747.339375 273.271806 
L 756.864325 273.337102 
L 766.389275 273.549314 
L 775.914225 273.761525 
L 785.439175 273.777849 
L 794.964125 273.761525 
L 804.489075 273.859468 
L 814.014025 273.892116 
L 823.538975 273.810497 
L 833.063925 273.810497 
L 842.588875 273.859468 
L 852.113825 273.875792 
L 861.638775 273.859468 
L 871.163725 273.924764 
L 880.688675 273.99006 
L 890.213625 273.99006 
L 899.738575 273.957412 
L 909.263525 273.924764 
L 918.788475 273.941088 
L 928.313425 273.90844 
L 937.838375 273.843145 
L 947.363325 273.826821 
L 956.888275 273.90844 
L 966.413225 273.794173 
L 975.938175 272.21075 
L 985.463125 270.823215 
" clip-path="url(#pd6d9893768)" style="fill: none; stroke: #5cb85c; stroke-linecap: square"/>
   </g>
   <g id="line2d_14">
    <path d="M 32.968125 273.99006 
L 985.463125 273.99006 
" clip-path="url(#pd6d9893768)" style="fill: none; stroke: #dedede; stroke-width: 2; stroke-linecap: square"/>
   </g>
   <g id="text_14">
    <!-- FastQC: Per Sequence GC Content -->
    <g transform="translate(372.579375 19.3575)scale(0.16 -0.16)">
     <defs>
      <path id="DejaVuSans-46" d="M 628 4666 
L 3309 4666 
L 3309 4134 
L 1259 4134 
L 1259 2759 
L 3109 2759 
L 3109 2228 
L 1259 2228 
L 1259 0 
L 628 0 
L 628 4666 
z
" transform="scale(0.015625)"/>
      <path id="DejaVuSans-73" d="M 2834 3397 
L 2834 2853 
Q 2591 2978 2328 3040 
Q 2066 3103 1784 3103 
Q 1356 3103 1142 2972 
Q 928 2841 928 2578 
Q 928 2378 1081 2264 
Q 1234 2150 1697 2047 
L 1894 2003 
Q 2506 1872 2764 1633 
Q 3022 1394 3022 966 
Q 3022 478 2636 193 
Q 2250 -91 1575 -91 
Q 1294 -91 989 -36 
Q 684 19 347 128 
L 347 722 
Q 666 556 975 473 
Q 1284 391 1588 391 
Q 1994 391 2212 530 
Q 2431 669 2431 922 
Q 2431 1156 2273 1281 
Q 2116 1406 1581 1522 
L 1381 1569 
Q 847 1681 609 1914 
Q 372 2147 372 2553 
Q 372 3047 722 3315 
Q 1072 3584 1716 3584 
Q 2034 3584 2315 3537 
Q 2597 3491 2834 3397 
z
" transform="scale(0.015625)"/>
      <path id="DejaVuSans-51" d="M 2522 4238 
Q 1834 4238 1429 3725 
Q 1025 3213 1025 2328 
Q 1025 1447 1429 934 
Q 1834 422 2522 422 
Q 3209 422 3611 934 
Q 4013 1447 4013 2328 
Q 4013 3213 3611 3725 
Q 3209 4238 2522 4238 
z
M 3406 84 
L 4238 -825 
L 3475 -825 
L 2784 -78 
Q 2681 -84 2626 -87 
Q 2572 -91 2522 -91 
Q 1538 -91 948 567 
Q 359 1225 359 2328 
Q 359 3434 948 4092 
Q 1538 4750 2522 4750 
Q 3503 4750 4090 4092 
Q 4678 3434 4678 2328 
Q 4678 1516 4351 937 
Q 4025 359 3406 84 
z
" transform="scale(0.015625)"/>
      <path id="DejaVuSans-3a" d="M 750 794 
L 1409 794 
L 1409 0 
L 750 0 
L 750 794 
z
M 750 3309 
L 1409 3309 
L 1409 2516 
L 750 2516 
L 750 3309 
z
" transform="scale(0.015625)"/>
      <path id="DejaVuSans-53" d="M 3425 4513 
L 3425 3897 
Q 3066 4069 2747 4153 
Q 2428 4238 2131 4238 
Q 1616 4238 1336 4038 
Q 1056 3838 1056 3469 
Q 1056 3159 1242 3001 
Q 1428 2844 1947 2747 
L 2328 2669 
Q 3034 2534 3370 2195 
Q 3706 1856 3706 1288 
Q 3706 609 3251 259 
Q 2797 -91 1919 -91 
Q 1588 -91 1214 -16 
Q 841 59 441 206 
L 441 856 
Q 825 641 1194 531 
Q 1563 422 1919 422 
Q 2459 422 2753 634 
Q 3047 847 3047 1241 
Q 3047 1584 2836 1778 
Q 2625 1972 2144 2069 
L 1759 2144 
Q 1053 2284 737 2584 
Q 422 2884 422 3419 
Q 422 4038 858 4394 
Q 1294 4750 2059 4750 
Q 2388 4750 2728 4690 
Q 3069 4631 3425 4513 
z
" transform="scale(0.015625)"/>
      <path id="DejaVuSans-71" d="M 947 1747 
Q 947 1113 1208 752 
Q 1469 391 1925 391 
Q 2381 391 2643 752 
Q 2906 1113 2906 1747 
Q 2906 2381 2643 2742 
Q 2381 3103 1925 3103 
Q 1469 3103 1208 2742 
Q 947 2381 947 1747 
z
M 2906 525 
Q 2725 213 2448 61 
Q 2172 -91 1784 -91 
Q 1150 -91 751 415 
Q 353 922 353 1747 
Q 353 2572 751 3078 
Q 1150 3584 1784 3584 
Q 2172 3584 2448 3432 
Q 2725 3281 2906 2969 
L 2906 3500 
L 3481 3500 
L 3481 -1331 
L 2906 -1331 
L 2906 525 
z
" transform="scale(0.015625)"/>
      <path id="DejaVuSans-75" d="M 544 1381 
L 544 3500 
L 1119 3500 
L 1119 1403 
Q 1119 906 1312 657 
Q 1506 409 1894 409 
Q 2359 409 2629 706 
Q 2900 1003 2900 1516 
L 2900 3500 
L 3475 3500 
L 3475 0 
L 2900 0 
L 2900 538 
Q 2691 219 2414 64 
Q 2138 -91 1772 -91 
Q 1169 -91 856 284 
Q 544 659 544 1381 
z
M 1991 3584 
L 1991 3584 
z
" transform="scale(0.015625)"/>
      <path id="DejaVuSans-6f" d="M 1959 3097 
Q 1497 3097 1228 2736 
Q 959 2375 959 1747 
Q 959 1119 1226 758 
Q 1494 397 1959 397 
Q 2419 397 2687 759 
Q 2956 1122 2956 1747 
Q 2956 2369 2687 2733 
Q 2419 3097 1959 3097 
z
M 1959 3584 
Q 2709 3584 3137 3096 
Q 3566 2609 3566 1747 
Q 3566 888 3137 398 
Q 2709 -91 1959 -91 
Q 1206 -91 779 398 
Q 353 888 353 1747 
Q 353 2609 779 3096 
Q 1206 3584 1959 3584 
z
" transform="scale(0.015625)"/>
     </defs>
     <use xlink:href="#DejaVuSans-46"/>
     <use xlink:href="#DejaVuSans-61" x="48.394531"/>
     <use xlink:href="#DejaVuSans-73" x="109.673828"/>
     <use xlink:href="#DejaVuSans-74" x="161.773438"/>
     <use xlink:href="#DejaVuSans-51" x="200.982422"/>
     <use xlink:href="#DejaVuSans-43" x="279.693359"/>
     <use xlink:href="#DejaVuSans-3a" x="349.517578"/>
     <use xlink:href="#DejaVuSans-20" x="383.208984"/>
     <use xlink:href="#DejaVuSans-50" x="414.996094"/>
     <use xlink:href="#DejaVuSans-65" x="471.673828"/>
     <use xlink:href="#DejaVuSans-72" x="533.197266"/>
     <use xlink:href="#DejaVuSans-20" x="574.310547"/>
     <use xlink:href="#DejaVuSans-53" x="606.097656"/>
     <use xlink:href="#DejaVuSans-65" x="669.574219"/>
     <use xlink:href="#DejaVuSans-71" x="731.097656"/>
     <use xlink:href="#DejaVuSans-75" x="794.574219"/>
     <use xlink:href="#DejaVuSans-65" x="857.953125"/>
     <use xlink:href="#DejaVuSans-6e" x="919.476562"/>
     <use xlink:href="#DejaVuSans-63" x="982.855469"/>
     <use xlink:href="#DejaVuSans-65" x="1037.835938"/>
     <use xlink:href="#DejaVuSans-20" x="1099.359375"/>
     <use xlink:href="#DejaVuSans-47" x="1131.146484"/>
     <use xlink:href="#DejaVuSans-43" x="1208.636719"/>
     <use xlink:href="#DejaVuSans-20" x="1278.460938"/>
     <use xlink:href="#DejaVuSans-43" x="1310.248047"/>
     <use xlink:href="#DejaVuSans-6f" x="1380.072266"/>
     <use xlink:href="#DejaVuSans-6e" x="1441.253906"/>
     <use xlink:href="#DejaVuSans-74" x="1504.632812"/>
     <use xlink:href="#DejaVuSans-65" x="1543.841797"/>
     <use xlink:href="#DejaVuSans-6e" x="1605.365234"/>
     <use xlink:href="#DejaVuSans-74" x="1668.744141"/>
    </g>
   </g>
   <g id="legend_1">
    <g id="line2d_15">
     <path d="M 40.168125 303.490394 
L 48.168125 303.490394 
L 56.168125 303.490394 
" style="fill: none; stroke: #5cb85c; stroke-linecap: square"/>
    </g>
    <g id="text_15">
     <!-- OSMOTIC_STRESS_T0_REP1_T1_1 -->
     <g transform="translate(62.568125 306.290394)scale(0.08 -0.08)">
      <defs>
       <path id="DejaVuSans-4f" d="M 2522 4238 
Q 1834 4238 1429 3725 
Q 1025 3213 1025 2328 
Q 1025 1447 1429 934 
Q 1834 422 2522 422 
Q 3209 422 3611 934 
Q 4013 1447 4013 2328 
Q 4013 3213 3611 3725 
Q 3209 4238 2522 4238 
z
M 2522 4750 
Q 3503 4750 4090 4092 
Q 4678 3434 4678 2328 
Q 4678 1225 4090 567 
Q 3503 -91 2522 -91 
Q 1538 -91 948 565 
Q 359 1222 359 2328 
Q 359 3434 948 4092 
Q 1538 4750 2522 4750 
z
" transform="scale(0.015625)"/>
       <path id="DejaVuSans-4d" d="M 628 4666 
L 1569 4666 
L 2759 1491 
L 3956 4666 
L 4897 4666 
L 4897 0 
L 4281 0 
L 4281 4097 
L 3078 897 
L 2444 897 
L 1241 4097 
L 1241 0 
L 628 0 
L 628 4666 
z
" transform="scale(0.015625)"/>
       <path id="DejaVuSans-54" d="M -19 4666 
L 3928 4666 
L 3928 4134 
L 2272 4134 
L 2272 0 
L 1638 0 
L 1638 4134 
L -19 4134 
L -19 4666 
z
" transform="scale(0.015625)"/>
       <path id="DejaVuSans-49" d="M 628 4666 
L 1259 4666 
L 1259 0 
L 628 0 
L 628 4666 
z
" transform="scale(0.015625)"/>
       <path id="DejaVuSans-5f" d="M 3263 -1063 
L 3263 -1509 
L -63 -1509 
L -63 -1063 
L 3263 -1063 
z
" transform="scale(0.015625)"/>
       <path id="DejaVuSans-52" d="M 2841 2188 
Q 3044 2119 3236 1894 
Q 3428 1669 3622 1275 
L 4263 0 
L 3584 0 
L 2988 1197 
Q 2756 1666 2539 1819 
Q 2322 1972 1947 1972 
L 1259 1972 
L 1259 0 
L 628 0 
L 628 4666 
L 2053 4666 
Q 2853 4666 3247 4331 
Q 3641 3997 3641 3322 
Q 3641 2881 3436 2590 
Q 3231 2300 2841 2188 
z
M 1259 4147 
L 1259 2491 
L 2053 2491 
Q 2509 2491 2742 2702 
Q 2975 2913 2975 3322 
Q 2975 3731 2742 3939 
Q 2509 4147 2053 4147 
L 1259 4147 
z
" transform="scale(0.015625)"/>
       <path id="DejaVuSans-45" d="M 628 4666 
L 3578 4666 
L 3578 4134 
L 1259 4134 
L 1259 2753 
L 3481 2753 
L 3481 2222 
L 1259 2222 
L 1259 531 
L 3634 531 
L 3634 0 
L 628 0 
L 628 4666 
z
" transform="scale(0.015625)"/>
      </defs>
      <use xlink:href="#DejaVuSans-4f"/>
      <use xlink:href="#DejaVuSans-53" x="78.710938"/>
      <use xlink:href="#DejaVuSans-4d" x="142.1875"/>
      <use xlink:href="#DejaVuSans-4f" x="228.466797"/>
      <use xlink:href="#DejaVuSans-54" x="307.177734"/>
      <use xlink:href="#DejaVuSans-49" x="368.261719"/>
      <use xlink:href="#DejaVuSans-43" x="397.753906"/>
      <use xlink:href="#DejaVuSans-5f" x="467.578125"/>
      <use xlink:href="#DejaVuSans-53" x="517.578125"/>
      <use xlink:href="#DejaVuSans-54" x="581.054688"/>
      <use xlink:href="#DejaVuSans-52" x="642.138672"/>
      <use xlink:href="#DejaVuSans-45" x="711.621094"/>
      <use xlink:href="#DejaVuSans-53" x="774.804688"/>
      <use xlink:href="#DejaVuSans-53" x="838.28125"/>
      <use xlink:href="#DejaVuSans-5f" x="901.757812"/>
      <use xlink:href="#DejaVuSans-54" x="951.757812"/>
      <use xlink:href="#DejaVuSans-30" x="1012.841797"/>
      <use xlink:href="#DejaVuSans-5f" x="1076.464844"/>
      <use xlink:href="#DejaVuSans-52" x="1126.464844"/>
      <use xlink:href="#DejaVuSans-45" x="1195.947266"/>
      <use xlink:href="#DejaVuSans-50" x="1259.130859"/>
      <use xlink:href="#DejaVuSans-31" x="1319.433594"/>
      <use xlink:href="#DejaVuSans-5f" x="1383.056641"/>
      <use xlink:href="#DejaVuSans-54" x="1433.056641"/>
      <use xlink:href="#DejaVuSans-31" x="1494.140625"/>
      <use xlink:href="#DejaVuSans-5f" x="1557.763672"/>
      <use xlink:href="#DejaVuSans-31" x="1607.763672"/>
     </g>
    </g>
    <g id="line2d_16">
     <path d="M 40.168125 315.455394 
L 48.168125 315.455394 
L 56.168125 315.455394 
" style="fill: none; stroke: #5cb85c; stroke-linecap: square"/>
    </g>
    <g id="text_16">
     <!-- OSMOTIC_STRESS_T0_REP1_T1_2 -->
     <g transform="translate(62.568125 318.255394)scale(0.08 -0.08)">
      <use xlink:href="#DejaVuSans-4f"/>
      <use xlink:href="#DejaVuSans-53" x="78.710938"/>
      <use xlink:href="#DejaVuSans-4d" x="142.1875"/>
      <use xlink:href="#DejaVuSans-4f" x="228.466797"/>
      <use xlink:href="#DejaVuSans-54" x="307.177734"/>
      <use xlink:href="#DejaVuSans-49" x="368.261719"/>
      <use xlink:href="#DejaVuSans-43" x="397.753906"/>
      <use xlink:href="#DejaVuSans-5f" x="467.578125"/>
      <use xlink:href="#DejaVuSans-53" x="517.578125"/>
      <use xlink:href="#DejaVuSans-54" x="581.054688"/>
      <use xlink:href="#DejaVuSans-52" x="642.138672"/>
      <use xlink:href="#DejaVuSans-45" x="711.621094"/>
      <use xlink:href="#DejaVuSans-53" x="774.804688"/>
      <use xlink:href="#DejaVuSans-53" x="838.28125"/>
      <use xlink:href="#DejaVuSans-5f" x="901.757812"/>
      <use xlink:href="#DejaVuSans-54" x="951.757812"/>
      <use xlink:href="#DejaVuSans-30" x="1012.841797"/>
      <use xlink:href="#DejaVuSans-5f" x="1076.464844"/>
      <use xlink:href="#DejaVuSans-52" x="1126.464844"/>
      <use xlink:href="#DejaVuSans-45" x="1195.947266"/>
      <use xlink:href="#DejaVuSans-50" x="1259.130859"/>
      <use xlink:href="#DejaVuSans-31" x="1319.433594"/>
      <use xlink:href="#DejaVuSans-5f" x="1383.056641"/>
      <use xlink:href="#DejaVuSans-54" x="1433.056641"/>
      <use xlink:href="#DejaVuSans-31" x="1494.140625"/>
      <use xlink:href="#DejaVuSans-5f" x="1557.763672"/>
      <use xlink:href="#DejaVuSans-32" x="1607.763672"/>
     </g>
    </g>
    <g id="line2d_17">
     <path d="M 231.845625 303.490394 
L 239.845625 303.490394 
L 247.845625 303.490394 
" style="fill: none; stroke: #5cb85c; stroke-linecap: square"/>
    </g>
    <g id="text_17">
     <!-- OSMOTIC_STRESS_T0_REP2_T1_1 -->
     <g transform="translate(254.245625 306.290394)scale(0.08 -0.08)">
      <use xlink:href="#DejaVuSans-4f"/>
      <use xlink:href="#DejaVuSans-53" x="78.710938"/>
      <use xlink:href="#DejaVuSans-4d" x="142.1875"/>
      <use xlink:href="#DejaVuSans-4f" x="228.466797"/>
      <use xlink:href="#DejaVuSans-54" x="307.177734"/>
      <use xlink:href="#DejaVuSans-49" x="368.261719"/>
      <use xlink:href="#DejaVuSans-43" x="397.753906"/>
      <use xlink:href="#DejaVuSans-5f" x="467.578125"/>
      <use xlink:href="#DejaVuSans-53" x="517.578125"/>
      <use xlink:href="#DejaVuSans-54" x="581.054688"/>
      <use xlink:href="#DejaVuSans-52" x="642.138672"/>
      <use xlink:href="#DejaVuSans-45" x="711.621094"/>
      <use xlink:href="#DejaVuSans-53" x="774.804688"/>
      <use xlink:href="#DejaVuSans-53" x="838.28125"/>
      <use xlink:href="#DejaVuSans-5f" x="901.757812"/>
      <use xlink:href="#DejaVuSans-54" x="951.757812"/>
      <use xlink:href="#DejaVuSans-30" x="1012.841797"/>
      <use xlink:href="#DejaVuSans-5f" x="1076.464844"/>
      <use xlink:href="#DejaVuSans-52" x="1126.464844"/>
      <use xlink:href="#DejaVuSans-45" x="1195.947266"/>
      <use xlink:href="#DejaVuSans-50" x="1259.130859"/>
      <use xlink:href="#DejaVuSans-32" x="1319.433594"/>
      <use xlink:href="#DejaVuSans-5f" x="1383.056641"/>
      <use xlink:href="#DejaVuSans-54" x="1433.056641"/>
      <use xlink:href="#DejaVuSans-31" x="1494.140625"/>
      <use xlink:href="#DejaVuSans-5f" x="1557.763672"/>
      <use xlink:href="#DejaVuSans-31" x="1607.763672"/>
     </g>
    </g>
    <g id="line2d_18">
     <path d="M 231.845625 315.455394 
L 239.845625 315.455394 
L 247.845625 315.455394 
" style="fill: none; stroke: #5cb85c; stroke-linecap: square"/>
    </g>
    <g id="text_18">
     <!-- OSMOTIC_STRESS_T0_REP2_T1_2 -->
     <g transform="translate(254.245625 318.255394)scale(0.08 -0.08)">
      <use xlink:href="#DejaVuSans-4f"/>
      <use xlink:href="#DejaVuSans-53" x="78.710938"/>
      <use xlink:href="#DejaVuSans-4d" x="142.1875"/>
      <use xlink:href="#DejaVuSans-4f" x="228.466797"/>
      <use xlink:href="#DejaVuSans-54" x="307.177734"/>
      <use xlink:href="#DejaVuSans-49" x="368.261719"/>
      <use xlink:href="#DejaVuSans-43" x="397.753906"/>
      <use xlink:href="#DejaVuSans-5f" x="467.578125"/>
      <use xlink:href="#DejaVuSans-53" x="517.578125"/>
      <use xlink:href="#DejaVuSans-54" x="581.054688"/>
      <use xlink:href="#DejaVuSans-52" x="642.138672"/>
      <use xlink:href="#DejaVuSans-45" x="711.621094"/>
      <use xlink:href="#DejaVuSans-53" x="774.804688"/>
      <use xlink:href="#DejaVuSans-53" x="838.28125"/>
      <use xlink:href="#DejaVuSans-5f" x="901.757812"/>
      <use xlink:href="#DejaVuSans-54" x="951.757812"/>
      <use xlink:href="#DejaVuSans-30" x="1012.841797"/>
      <use xlink:href="#DejaVuSans-5f" x="1076.464844"/>
      <use xlink:href="#DejaVuSans-52" x="1126.464844"/>
      <use xlink:href="#DejaVuSans-45" x="1195.947266"/>
      <use xlink:href="#DejaVuSans-50" x="1259.130859"/>
      <use xlink:href="#DejaVuSans-32" x="1319.433594"/>
      <use xlink:href="#DejaVuSans-5f" x="1383.056641"/>
      <use xlink:href="#DejaVuSans-54" x="1433.056641"/>
      <use xlink:href="#DejaVuSans-31" x="1494.140625"/>
      <use xlink:href="#DejaVuSans-5f" x="1557.763672"/>
      <use xlink:href="#DejaVuSans-32" x="1607.763672"/>
     </g>
    </g>
    <g id="line2d_19">
     <path d="M 423.523125 303.490394 
L 431.523125 303.490394 
L 439.523125 303.490394 
" style="fill: none; stroke: #5cb85c; stroke-linecap: square"/>
    </g>
    <g id="text_19">
     <!-- OSMOTIC_STRESS_T15_REP1_T1_1 -->
     <g transform="translate(445.923125 306.290394)scale(0.08 -0.08)">
      <defs>
       <path id="DejaVuSans-35" d="M 691 4666 
L 3169 4666 
L 3169 4134 
L 1269 4134 
L 1269 2991 
Q 1406 3038 1543 3061 
Q 1681 3084 1819 3084 
Q 2600 3084 3056 2656 
Q 3513 2228 3513 1497 
Q 3513 744 3044 326 
Q 2575 -91 1722 -91 
Q 1428 -91 1123 -41 
Q 819 9 494 109 
L 494 744 
Q 775 591 1075 516 
Q 1375 441 1709 441 
Q 2250 441 2565 725 
Q 2881 1009 2881 1497 
Q 2881 1984 2565 2268 
Q 2250 2553 1709 2553 
Q 1456 2553 1204 2497 
Q 953 2441 691 2322 
L 691 4666 
z
" transform="scale(0.015625)"/>
      </defs>
      <use xlink:href="#DejaVuSans-4f"/>
      <use xlink:href="#DejaVuSans-53" x="78.710938"/>
      <use xlink:href="#DejaVuSans-4d" x="142.1875"/>
      <use xlink:href="#DejaVuSans-4f" x="228.466797"/>
      <use xlink:href="#DejaVuSans-54" x="307.177734"/>
      <use xlink:href="#DejaVuSans-49" x="368.261719"/>
      <use xlink:href="#DejaVuSans-43" x="397.753906"/>
      <use xlink:href="#DejaVuSans-5f" x="467.578125"/>
      <use xlink:href="#DejaVuSans-53" x="517.578125"/>
      <use xlink:href="#DejaVuSans-54" x="581.054688"/>
      <use xlink:href="#DejaVuSans-52" x="642.138672"/>
      <use xlink:href="#DejaVuSans-45" x="711.621094"/>
      <use xlink:href="#DejaVuSans-53" x="774.804688"/>
      <use xlink:href="#DejaVuSans-53" x="838.28125"/>
      <use xlink:href="#DejaVuSans-5f" x="901.757812"/>
      <use xlink:href="#DejaVuSans-54" x="951.757812"/>
      <use xlink:href="#DejaVuSans-31" x="1012.841797"/>
      <use xlink:href="#DejaVuSans-35" x="1076.464844"/>
      <use xlink:href="#DejaVuSans-5f" x="1140.087891"/>
      <use xlink:href="#DejaVuSans-52" x="1190.087891"/>
      <use xlink:href="#DejaVuSans-45" x="1259.570312"/>
      <use xlink:href="#DejaVuSans-50" x="1322.753906"/>
      <use xlink:href="#DejaVuSans-31" x="1383.056641"/>
      <use xlink:href="#DejaVuSans-5f" x="1446.679688"/>
      <use xlink:href="#DejaVuSans-54" x="1496.679688"/>
      <use xlink:href="#DejaVuSans-31" x="1557.763672"/>
      <use xlink:href="#DejaVuSans-5f" x="1621.386719"/>
      <use xlink:href="#DejaVuSans-31" x="1671.386719"/>
     </g>
    </g>
    <g id="line2d_20">
     <path d="M 423.523125 315.455394 
L 431.523125 315.455394 
L 439.523125 315.455394 
" style="fill: none; stroke: #5cb85c; stroke-linecap: square"/>
    </g>
    <g id="text_20">
     <!-- OSMOTIC_STRESS_T15_REP1_T1_2 -->
     <g transform="translate(445.923125 318.255394)scale(0.08 -0.08)">
      <use xlink:href="#DejaVuSans-4f"/>
      <use xlink:href="#DejaVuSans-53" x="78.710938"/>
      <use xlink:href="#DejaVuSans-4d" x="142.1875"/>
      <use xlink:href="#DejaVuSans-4f" x="228.466797"/>
      <use xlink:href="#DejaVuSans-54" x="307.177734"/>
      <use xlink:href="#DejaVuSans-49" x="368.261719"/>
      <use xlink:href="#DejaVuSans-43" x="397.753906"/>
      <use xlink:href="#DejaVuSans-5f" x="467.578125"/>
      <use xlink:href="#DejaVuSans-53" x="517.578125"/>
      <use xlink:href="#DejaVuSans-54" x="581.054688"/>
      <use xlink:href="#DejaVuSans-52" x="642.138672"/>
      <use xlink:href="#DejaVuSans-45" x="711.621094"/>
      <use xlink:href="#DejaVuSans-53" x="774.804688"/>
      <use xlink:href="#DejaVuSans-53" x="838.28125"/>
      <use xlink:href="#DejaVuSans-5f" x="901.757812"/>
      <use xlink:href="#DejaVuSans-54" x="951.757812"/>
      <use xlink:href="#DejaVuSans-31" x="1012.841797"/>
      <use xlink:href="#DejaVuSans-35" x="1076.464844"/>
      <use xlink:href="#DejaVuSans-5f" x="1140.087891"/>
      <use xlink:href="#DejaVuSans-52" x="1190.087891"/>
      <use xlink:href="#DejaVuSans-45" x="1259.570312"/>
      <use xlink:href="#DejaVuSans-50" x="1322.753906"/>
      <use xlink:href="#DejaVuSans-31" x="1383.056641"/>
      <use xlink:href="#DejaVuSans-5f" x="1446.679688"/>
      <use xlink:href="#DejaVuSans-54" x="1496.679688"/>
      <use xlink:href="#DejaVuSans-31" x="1557.763672"/>
      <use xlink:href="#DejaVuSans-5f" x="1621.386719"/>
      <use xlink:href="#DejaVuSans-32" x="1671.386719"/>
     </g>
    </g>
    <g id="line2d_21">
     <path d="M 620.290625 303.490394 
L 628.290625 303.490394 
L 636.290625 303.490394 
" style="fill: none; stroke: #5cb85c; stroke-linecap: square"/>
    </g>
    <g id="text_21">
     <!-- OSMOTIC_STRESS_T15_REP2_T1_1 -->
     <g transform="translate(642.690625 306.290394)scale(0.08 -0.08)">
      <use xlink:href="#DejaVuSans-4f"/>
      <use xlink:href="#DejaVuSans-53" x="78.710938"/>
      <use xlink:href="#DejaVuSans-4d" x="142.1875"/>
      <use xlink:href="#DejaVuSans-4f" x="228.466797"/>
      <use xlink:href="#DejaVuSans-54" x="307.177734"/>
      <use xlink:href="#DejaVuSans-49" x="368.261719"/>
      <use xlink:href="#DejaVuSans-43" x="397.753906"/>
      <use xlink:href="#DejaVuSans-5f" x="467.578125"/>
      <use xlink:href="#DejaVuSans-53" x="517.578125"/>
      <use xlink:href="#DejaVuSans-54" x="581.054688"/>
      <use xlink:href="#DejaVuSans-52" x="642.138672"/>
      <use xlink:href="#DejaVuSans-45" x="711.621094"/>
      <use xlink:href="#DejaVuSans-53" x="774.804688"/>
      <use xlink:href="#DejaVuSans-53" x="838.28125"/>
      <use xlink:href="#DejaVuSans-5f" x="901.757812"/>
      <use xlink:href="#DejaVuSans-54" x="951.757812"/>
      <use xlink:href="#DejaVuSans-31" x="1012.841797"/>
      <use xlink:href="#DejaVuSans-35" x="1076.464844"/>
      <use xlink:href="#DejaVuSans-5f" x="1140.087891"/>
      <use xlink:href="#DejaVuSans-52" x="1190.087891"/>
      <use xlink:href="#DejaVuSans-45" x="1259.570312"/>
      <use xlink:href="#DejaVuSans-50" x="1322.753906"/>
      <use xlink:href="#DejaVuSans-32" x="1383.056641"/>
      <use xlink:href="#DejaVuSans-5f" x="1446.679688"/>
      <use xlink:href="#DejaVuSans-54" x="1496.679688"/>
      <use xlink:href="#DejaVuSans-31" x="1557.763672"/>
      <use xlink:href="#DejaVuSans-5f" x="1621.386719"/>
      <use xlink:href="#DejaVuSans-31" x="1671.386719"/>
     </g>
    </g>
    <g id="line2d_22">
     <path d="M 817.058125 303.490394 
L 825.058125 303.490394 
L 833.058125 303.490394 
" style="fill: none; stroke: #5cb85c; stroke-linecap: square"/>
    </g>
    <g id="text_22">
     <!-- OSMOTIC_STRESS_T15_REP2_T1_2 -->
     <g transform="translate(839.458125 306.290394)scale(0.08 -0.08)">
      <use xlink:href="#DejaVuSans-4f"/>
      <use xlink:href="#DejaVuSans-53" x="78.710938"/>
      <use xlink:href="#DejaVuSans-4d" x="142.1875"/>
      <use xlink:href="#DejaVuSans-4f" x="228.466797"/>
      <use xlink:href="#DejaVuSans-54" x="307.177734"/>
      <use xlink:href="#DejaVuSans-49" x="368.261719"/>
      <use xlink:href="#DejaVuSans-43" x="397.753906"/>
      <use xlink:href="#DejaVuSans-5f" x="467.578125"/>
      <use xlink:href="#DejaVuSans-53" x="517.578125"/>
      <use xlink:href="#DejaVuSans-54" x="581.054688"/>
      <use xlink:href="#DejaVuSans-52" x="642.138672"/>
      <use xlink:href="#DejaVuSans-45" x="711.621094"/>
      <use xlink:href="#DejaVuSans-53" x="774.804688"/>
      <use xlink:href="#DejaVuSans-53" x="838.28125"/>
      <use xlink:href="#DejaVuSans-5f" x="901.757812"/>
      <use xlink:href="#DejaVuSans-54" x="951.757812"/>
      <use xlink:href="#DejaVuSans-31" x="1012.841797"/>
      <use xlink:href="#DejaVuSans-35" x="1076.464844"/>
      <use xlink:href="#DejaVuSans-5f" x="1140.087891"/>
      <use xlink:href="#DejaVuSans-52" x="1190.087891"/>
      <use xlink:href="#DejaVuSans-45" x="1259.570312"/>
      <use xlink:href="#DejaVuSans-50" x="1322.753906"/>
      <use xlink:href="#DejaVuSans-32" x="1383.056641"/>
      <use xlink:href="#DejaVuSans-5f" x="1446.679688"/>
      <use xlink:href="#DejaVuSans-54" x="1496.679688"/>
      <use xlink:href="#DejaVuSans-31" x="1557.763672"/>
      <use xlink:href="#DejaVuSans-5f" x="1621.386719"/>
      <use xlink:href="#DejaVuSans-32" x="1671.386719"/>
     </g>
    </g>
   </g>
  </g>
 </g>
 <defs>
  <clipPath id="pd6d9893768">
   <rect x="32.968125" y="31.48286" width="952.495" height="242.5072"/>
  </clipPath>
 </defs>
</svg>
