<?xml version="1.0" encoding="utf-8" standalone="no"?>
<!DOCTYPE svg PUBLIC "-//W3C//DTD SVG 1.1//EN"
  "http://www.w3.org/Graphics/SVG/1.1/DTD/svg11.dtd">
<svg xmlns:xlink="http://www.w3.org/1999/xlink" width="1000.318125pt" height="330.541644pt" viewBox="0 0 1000.318125 330.541644" xmlns="http://www.w3.org/2000/svg" version="1.1">
 <metadata>
  <rdf:RDF xmlns:dc="http://purl.org/dc/elements/1.1/" xmlns:cc="http://creativecommons.org/ns#" xmlns:rdf="http://www.w3.org/1999/02/22-rdf-syntax-ns#">
   <cc:Work>
    <dc:type rdf:resource="http://purl.org/dc/dcmitype/StillImage"/>
    <dc:date>2022-11-03T22:56:47.806530</dc:date>
    <dc:format>image/svg+xml</dc:format>
    <dc:creator>
     <cc:Agent>
      <dc:title>Matplotlib v3.5.2, https://matplotlib.org/</dc:title>
     </cc:Agent>
    </dc:creator>
   </cc:Work>
  </rdf:RDF>
 </metadata>
 <defs>
  <style type="text/css">*{stroke-linejoin: round; stroke-linecap: butt}</style>
 </defs>
 <g id="figure_1">
  <g id="axes_1">
   <g id="patch_1">
    <path d="M 38.058125 273.99006 
L 993.118125 273.99006 
L 993.118125 31.48286 
L 38.058125 31.48286 
z
" style="fill: #ffffff"/>
   </g>
   <g id="patch_2">
    <path d="M 38.058125 88.300622 
L 961.282792 88.300622 
L 961.282792 -389.186505 
L 38.058125 -389.186505 
z
" clip-path="url(#p1784e8ad32)" style="fill: #c3e6c3"/>
   </g>
   <g id="patch_3">
    <path d="M 38.058125 141.354747 
L 961.282792 141.354747 
L 961.282792 88.300622 
L 38.058125 88.300622 
z
" clip-path="url(#p1784e8ad32)" style="fill: #e6dcc3"/>
   </g>
   <g id="patch_4">
    <path d="M 38.058125 273.99006 
L 961.282792 273.99006 
L 961.282792 141.354747 
L 38.058125 141.354747 
z
" clip-path="url(#p1784e8ad32)" style="fill: #e6c3c3"/>
   </g>
   <g id="matplotlib.axis_1">
    <g id="xtick_1">
     <g id="text_1">
      <!-- 0 -->
      <g transform="translate(67.348458 287.06881)scale(0.08 -0.08)">
       <defs>
        <path id="DejaVuSans-30" d="M 2034 4250 
Q 1547 4250 1301 3770 
Q 1056 3291 1056 2328 
Q 1056 1369 1301 889 
Q 1547 409 2034 409 
Q 2525 409 2770 889 
Q 3016 1369 3016 2328 
Q 3016 3291 2770 3770 
Q 2525 4250 2034 4250 
z
M 2034 4750 
Q 2819 4750 3233 4129 
Q 3647 3509 3647 2328 
Q 3647 1150 3233 529 
Q 2819 -91 2034 -91 
Q 1250 -91 836 529 
Q 422 1150 422 2328 
Q 422 3509 836 4129 
Q 1250 4750 2034 4750 
z
" transform="scale(0.015625)"/>
       </defs>
       <use xlink:href="#DejaVuSans-30"/>
      </g>
     </g>
    </g>
    <g id="xtick_2">
     <g id="text_2">
      <!-- 10 -->
      <g transform="translate(180.568307 287.06881)scale(0.08 -0.08)">
       <defs>
        <path id="DejaVuSans-31" d="M 794 531 
L 1825 531 
L 1825 4091 
L 703 3866 
L 703 4441 
L 1819 4666 
L 2450 4666 
L 2450 531 
L 3481 531 
L 3481 0 
L 794 0 
L 794 531 
z
" transform="scale(0.015625)"/>
       </defs>
       <use xlink:href="#DejaVuSans-31"/>
       <use xlink:href="#DejaVuSans-30" x="63.623047"/>
      </g>
     </g>
    </g>
    <g id="xtick_3">
     <g id="text_3">
      <!-- 20 -->
      <g transform="translate(296.333155 287.06881)scale(0.08 -0.08)">
       <defs>
        <path id="DejaVuSans-32" d="M 1228 531 
L 3431 531 
L 3431 0 
L 469 0 
L 469 531 
Q 828 903 1448 1529 
Q 2069 2156 2228 2338 
Q 2531 2678 2651 2914 
Q 2772 3150 2772 3378 
Q 2772 3750 2511 3984 
Q 2250 4219 1831 4219 
Q 1534 4219 1204 4116 
Q 875 4013 500 3803 
L 500 4441 
Q 881 4594 1212 4672 
Q 1544 4750 1819 4750 
Q 2544 4750 2975 4387 
Q 3406 4025 3406 3419 
Q 3406 3131 3298 2873 
Q 3191 2616 2906 2266 
Q 2828 2175 2409 1742 
Q 1991 1309 1228 531 
z
" transform="scale(0.015625)"/>
       </defs>
       <use xlink:href="#DejaVuSans-32"/>
       <use xlink:href="#DejaVuSans-30" x="63.623047"/>
      </g>
     </g>
    </g>
    <g id="xtick_4">
     <g id="text_4">
      <!-- 30 -->
      <g transform="translate(412.098004 287.06881)scale(0.08 -0.08)">
       <defs>
        <path id="DejaVuSans-33" d="M 2597 2516 
Q 3050 2419 3304 2112 
Q 3559 1806 3559 1356 
Q 3559 666 3084 287 
Q 2609 -91 1734 -91 
Q 1441 -91 1130 -33 
Q 819 25 488 141 
L 488 750 
Q 750 597 1062 519 
Q 1375 441 1716 441 
Q 2309 441 2620 675 
Q 2931 909 2931 1356 
Q 2931 1769 2642 2001 
Q 2353 2234 1838 2234 
L 1294 2234 
L 1294 2753 
L 1863 2753 
Q 2328 2753 2575 2939 
Q 2822 3125 2822 3475 
Q 2822 3834 2567 4026 
Q 2313 4219 1838 4219 
Q 1578 4219 1281 4162 
Q 984 4106 628 3988 
L 628 4550 
Q 988 4650 1302 4700 
Q 1616 4750 1894 4750 
Q 2613 4750 3031 4423 
Q 3450 4097 3450 3541 
Q 3450 3153 3228 2886 
Q 3006 2619 2597 2516 
z
" transform="scale(0.015625)"/>
       </defs>
       <use xlink:href="#DejaVuSans-33"/>
       <use xlink:href="#DejaVuSans-30" x="63.623047"/>
      </g>
     </g>
    </g>
    <g id="xtick_5">
     <g id="text_5">
      <!-- 40 -->
      <g transform="translate(527.862852 287.06881)scale(0.08 -0.08)">
       <defs>
        <path id="DejaVuSans-34" d="M 2419 4116 
L 825 1625 
L 2419 1625 
L 2419 4116 
z
M 2253 4666 
L 3047 4666 
L 3047 1625 
L 3713 1625 
L 3713 1100 
L 3047 1100 
L 3047 0 
L 2419 0 
L 2419 1100 
L 313 1100 
L 313 1709 
L 2253 4666 
z
" transform="scale(0.015625)"/>
       </defs>
       <use xlink:href="#DejaVuSans-34"/>
       <use xlink:href="#DejaVuSans-30" x="63.623047"/>
      </g>
     </g>
    </g>
    <g id="xtick_6">
     <g id="text_6">
      <!-- 50 -->
      <g transform="translate(643.627701 287.06881)scale(0.08 -0.08)">
       <defs>
        <path id="DejaVuSans-35" d="M 691 4666 
L 3169 4666 
L 3169 4134 
L 1269 4134 
L 1269 2991 
Q 1406 3038 1543 3061 
Q 1681 3084 1819 3084 
Q 2600 3084 3056 2656 
Q 3513 2228 3513 1497 
Q 3513 744 3044 326 
Q 2575 -91 1722 -91 
Q 1428 -91 1123 -41 
Q 819 9 494 109 
L 494 744 
Q 775 591 1075 516 
Q 1375 441 1709 441 
Q 2250 441 2565 725 
Q 2881 1009 2881 1497 
Q 2881 1984 2565 2268 
Q 2250 2553 1709 2553 
Q 1456 2553 1204 2497 
Q 953 2441 691 2322 
L 691 4666 
z
" transform="scale(0.015625)"/>
       </defs>
       <use xlink:href="#DejaVuSans-35"/>
       <use xlink:href="#DejaVuSans-30" x="63.623047"/>
      </g>
     </g>
    </g>
    <g id="xtick_7">
     <g id="text_7">
      <!-- 60 -->
      <g transform="translate(759.392549 287.06881)scale(0.08 -0.08)">
       <defs>
        <path id="DejaVuSans-36" d="M 2113 2584 
Q 1688 2584 1439 2293 
Q 1191 2003 1191 1497 
Q 1191 994 1439 701 
Q 1688 409 2113 409 
Q 2538 409 2786 701 
Q 3034 994 3034 1497 
Q 3034 2003 2786 2293 
Q 2538 2584 2113 2584 
z
M 3366 4563 
L 3366 3988 
Q 3128 4100 2886 4159 
Q 2644 4219 2406 4219 
Q 1781 4219 1451 3797 
Q 1122 3375 1075 2522 
Q 1259 2794 1537 2939 
Q 1816 3084 2150 3084 
Q 2853 3084 3261 2657 
Q 3669 2231 3669 1497 
Q 3669 778 3244 343 
Q 2819 -91 2113 -91 
Q 1303 -91 875 529 
Q 447 1150 447 2328 
Q 447 3434 972 4092 
Q 1497 4750 2381 4750 
Q 2619 4750 2861 4703 
Q 3103 4656 3366 4563 
z
" transform="scale(0.015625)"/>
       </defs>
       <use xlink:href="#DejaVuSans-36"/>
       <use xlink:href="#DejaVuSans-30" x="63.623047"/>
      </g>
     </g>
    </g>
    <g id="xtick_8">
     <g id="text_8">
      <!-- 70 -->
      <g transform="translate(875.157398 287.06881)scale(0.08 -0.08)">
       <defs>
        <path id="DejaVuSans-37" d="M 525 4666 
L 3525 4666 
L 3525 4397 
L 1831 0 
L 1172 0 
L 2766 4134 
L 525 4134 
L 525 4666 
z
" transform="scale(0.015625)"/>
       </defs>
       <use xlink:href="#DejaVuSans-37"/>
       <use xlink:href="#DejaVuSans-30" x="63.623047"/>
      </g>
     </g>
    </g>
    <g id="text_9">
     <!-- Position (bp) -->
     <g transform="translate(484.285 300.330997)scale(0.1 -0.1)">
      <defs>
       <path id="DejaVuSans-50" d="M 1259 4147 
L 1259 2394 
L 2053 2394 
Q 2494 2394 2734 2622 
Q 2975 2850 2975 3272 
Q 2975 3691 2734 3919 
Q 2494 4147 2053 4147 
L 1259 4147 
z
M 628 4666 
L 2053 4666 
Q 2838 4666 3239 4311 
Q 3641 3956 3641 3272 
Q 3641 2581 3239 2228 
Q 2838 1875 2053 1875 
L 1259 1875 
L 1259 0 
L 628 0 
L 628 4666 
z
" transform="scale(0.015625)"/>
       <path id="DejaVuSans-6f" d="M 1959 3097 
Q 1497 3097 1228 2736 
Q 959 2375 959 1747 
Q 959 1119 1226 758 
Q 1494 397 1959 397 
Q 2419 397 2687 759 
Q 2956 1122 2956 1747 
Q 2956 2369 2687 2733 
Q 2419 3097 1959 3097 
z
M 1959 3584 
Q 2709 3584 3137 3096 
Q 3566 2609 3566 1747 
Q 3566 888 3137 398 
Q 2709 -91 1959 -91 
Q 1206 -91 779 398 
Q 353 888 353 1747 
Q 353 2609 779 3096 
Q 1206 3584 1959 3584 
z
" transform="scale(0.015625)"/>
       <path id="DejaVuSans-73" d="M 2834 3397 
L 2834 2853 
Q 2591 2978 2328 3040 
Q 2066 3103 1784 3103 
Q 1356 3103 1142 2972 
Q 928 2841 928 2578 
Q 928 2378 1081 2264 
Q 1234 2150 1697 2047 
L 1894 2003 
Q 2506 1872 2764 1633 
Q 3022 1394 3022 966 
Q 3022 478 2636 193 
Q 2250 -91 1575 -91 
Q 1294 -91 989 -36 
Q 684 19 347 128 
L 347 722 
Q 666 556 975 473 
Q 1284 391 1588 391 
Q 1994 391 2212 530 
Q 2431 669 2431 922 
Q 2431 1156 2273 1281 
Q 2116 1406 1581 1522 
L 1381 1569 
Q 847 1681 609 1914 
Q 372 2147 372 2553 
Q 372 3047 722 3315 
Q 1072 3584 1716 3584 
Q 2034 3584 2315 3537 
Q 2597 3491 2834 3397 
z
" transform="scale(0.015625)"/>
       <path id="DejaVuSans-69" d="M 603 3500 
L 1178 3500 
L 1178 0 
L 603 0 
L 603 3500 
z
M 603 4863 
L 1178 4863 
L 1178 4134 
L 603 4134 
L 603 4863 
z
" transform="scale(0.015625)"/>
       <path id="DejaVuSans-74" d="M 1172 4494 
L 1172 3500 
L 2356 3500 
L 2356 3053 
L 1172 3053 
L 1172 1153 
Q 1172 725 1289 603 
Q 1406 481 1766 481 
L 2356 481 
L 2356 0 
L 1766 0 
Q 1100 0 847 248 
Q 594 497 594 1153 
L 594 3053 
L 172 3053 
L 172 3500 
L 594 3500 
L 594 4494 
L 1172 4494 
z
" transform="scale(0.015625)"/>
       <path id="DejaVuSans-6e" d="M 3513 2113 
L 3513 0 
L 2938 0 
L 2938 2094 
Q 2938 2591 2744 2837 
Q 2550 3084 2163 3084 
Q 1697 3084 1428 2787 
Q 1159 2491 1159 1978 
L 1159 0 
L 581 0 
L 581 3500 
L 1159 3500 
L 1159 2956 
Q 1366 3272 1645 3428 
Q 1925 3584 2291 3584 
Q 2894 3584 3203 3211 
Q 3513 2838 3513 2113 
z
" transform="scale(0.015625)"/>
       <path id="DejaVuSans-20" transform="scale(0.015625)"/>
       <path id="DejaVuSans-28" d="M 1984 4856 
Q 1566 4138 1362 3434 
Q 1159 2731 1159 2009 
Q 1159 1288 1364 580 
Q 1569 -128 1984 -844 
L 1484 -844 
Q 1016 -109 783 600 
Q 550 1309 550 2009 
Q 550 2706 781 3412 
Q 1013 4119 1484 4856 
L 1984 4856 
z
" transform="scale(0.015625)"/>
       <path id="DejaVuSans-62" d="M 3116 1747 
Q 3116 2381 2855 2742 
Q 2594 3103 2138 3103 
Q 1681 3103 1420 2742 
Q 1159 2381 1159 1747 
Q 1159 1113 1420 752 
Q 1681 391 2138 391 
Q 2594 391 2855 752 
Q 3116 1113 3116 1747 
z
M 1159 2969 
Q 1341 3281 1617 3432 
Q 1894 3584 2278 3584 
Q 2916 3584 3314 3078 
Q 3713 2572 3713 1747 
Q 3713 922 3314 415 
Q 2916 -91 2278 -91 
Q 1894 -91 1617 61 
Q 1341 213 1159 525 
L 1159 0 
L 581 0 
L 581 4863 
L 1159 4863 
L 1159 2969 
z
" transform="scale(0.015625)"/>
       <path id="DejaVuSans-70" d="M 1159 525 
L 1159 -1331 
L 581 -1331 
L 581 3500 
L 1159 3500 
L 1159 2969 
Q 1341 3281 1617 3432 
Q 1894 3584 2278 3584 
Q 2916 3584 3314 3078 
Q 3713 2572 3713 1747 
Q 3713 922 3314 415 
Q 2916 -91 2278 -91 
Q 1894 -91 1617 61 
Q 1341 213 1159 525 
z
M 3116 1747 
Q 3116 2381 2855 2742 
Q 2594 3103 2138 3103 
Q 1681 3103 1420 2742 
Q 1159 2381 1159 1747 
Q 1159 1113 1420 752 
Q 1681 391 2138 391 
Q 2594 391 2855 752 
Q 3116 1113 3116 1747 
z
" transform="scale(0.015625)"/>
       <path id="DejaVuSans-29" d="M 513 4856 
L 1013 4856 
Q 1481 4119 1714 3412 
Q 1947 2706 1947 2009 
Q 1947 1309 1714 600 
Q 1481 -109 1013 -844 
L 513 -844 
Q 928 -128 1133 580 
Q 1338 1288 1338 2009 
Q 1338 2731 1133 3434 
Q 928 4138 513 4856 
z
" transform="scale(0.015625)"/>
      </defs>
      <use xlink:href="#DejaVuSans-50"/>
      <use xlink:href="#DejaVuSans-6f" x="56.677734"/>
      <use xlink:href="#DejaVuSans-73" x="117.859375"/>
      <use xlink:href="#DejaVuSans-69" x="169.958984"/>
      <use xlink:href="#DejaVuSans-74" x="197.742188"/>
      <use xlink:href="#DejaVuSans-69" x="236.951172"/>
      <use xlink:href="#DejaVuSans-6f" x="264.734375"/>
      <use xlink:href="#DejaVuSans-6e" x="325.916016"/>
      <use xlink:href="#DejaVuSans-20" x="389.294922"/>
      <use xlink:href="#DejaVuSans-28" x="421.082031"/>
      <use xlink:href="#DejaVuSans-62" x="460.095703"/>
      <use xlink:href="#DejaVuSans-70" x="523.572266"/>
      <use xlink:href="#DejaVuSans-29" x="587.048828"/>
     </g>
    </g>
   </g>
   <g id="matplotlib.axis_2">
    <g id="ytick_1">
     <g id="line2d_1">
      <path d="M 38.058125 273.99006 
L 993.118125 273.99006 
" clip-path="url(#p1784e8ad32)" style="fill: none; stroke: #dedede; stroke-linecap: square"/>
     </g>
     <g id="text_10">
      <!-- 0 -->
      <g transform="translate(25.968125 277.029435)scale(0.08 -0.08)">
       <use xlink:href="#DejaVuSans-30"/>
      </g>
     </g>
    </g>
    <g id="ytick_2">
     <g id="line2d_2">
      <path d="M 38.058125 240.831232 
L 993.118125 240.831232 
" clip-path="url(#p1784e8ad32)" style="fill: none; stroke: #dedede; stroke-linecap: square"/>
     </g>
     <g id="text_11">
      <!-- 5 -->
      <g transform="translate(25.968125 243.870607)scale(0.08 -0.08)">
       <use xlink:href="#DejaVuSans-35"/>
      </g>
     </g>
    </g>
    <g id="ytick_3">
     <g id="line2d_3">
      <path d="M 38.058125 207.672403 
L 993.118125 207.672403 
" clip-path="url(#p1784e8ad32)" style="fill: none; stroke: #dedede; stroke-linecap: square"/>
     </g>
     <g id="text_12">
      <!-- 10 -->
      <g transform="translate(20.878125 210.711778)scale(0.08 -0.08)">
       <use xlink:href="#DejaVuSans-31"/>
       <use xlink:href="#DejaVuSans-30" x="63.623047"/>
      </g>
     </g>
    </g>
    <g id="ytick_4">
     <g id="line2d_4">
      <path d="M 38.058125 174.513575 
L 993.118125 174.513575 
" clip-path="url(#p1784e8ad32)" style="fill: none; stroke: #dedede; stroke-linecap: square"/>
     </g>
     <g id="text_13">
      <!-- 15 -->
      <g transform="translate(20.878125 177.55295)scale(0.08 -0.08)">
       <use xlink:href="#DejaVuSans-31"/>
       <use xlink:href="#DejaVuSans-35" x="63.623047"/>
      </g>
     </g>
    </g>
    <g id="ytick_5">
     <g id="line2d_5">
      <path d="M 38.058125 141.354747 
L 993.118125 141.354747 
" clip-path="url(#p1784e8ad32)" style="fill: none; stroke: #dedede; stroke-linecap: square"/>
     </g>
     <g id="text_14">
      <!-- 20 -->
      <g transform="translate(20.878125 144.394122)scale(0.08 -0.08)">
       <use xlink:href="#DejaVuSans-32"/>
       <use xlink:href="#DejaVuSans-30" x="63.623047"/>
      </g>
     </g>
    </g>
    <g id="ytick_6">
     <g id="line2d_6">
      <path d="M 38.058125 108.195919 
L 993.118125 108.195919 
" clip-path="url(#p1784e8ad32)" style="fill: none; stroke: #dedede; stroke-linecap: square"/>
     </g>
     <g id="text_15">
      <!-- 25 -->
      <g transform="translate(20.878125 111.235294)scale(0.08 -0.08)">
       <use xlink:href="#DejaVuSans-32"/>
       <use xlink:href="#DejaVuSans-35" x="63.623047"/>
      </g>
     </g>
    </g>
    <g id="ytick_7">
     <g id="line2d_7">
      <path d="M 38.058125 75.03709 
L 993.118125 75.03709 
" clip-path="url(#p1784e8ad32)" style="fill: none; stroke: #dedede; stroke-linecap: square"/>
     </g>
     <g id="text_16">
      <!-- 30 -->
      <g transform="translate(20.878125 78.076465)scale(0.08 -0.08)">
       <use xlink:href="#DejaVuSans-33"/>
       <use xlink:href="#DejaVuSans-30" x="63.623047"/>
      </g>
     </g>
    </g>
    <g id="ytick_8">
     <g id="line2d_8">
      <path d="M 38.058125 41.878262 
L 993.118125 41.878262 
" clip-path="url(#p1784e8ad32)" style="fill: none; stroke: #dedede; stroke-linecap: square"/>
     </g>
     <g id="text_17">
      <!-- 35 -->
      <g transform="translate(20.878125 44.917637)scale(0.08 -0.08)">
       <use xlink:href="#DejaVuSans-33"/>
       <use xlink:href="#DejaVuSans-35" x="63.623047"/>
      </g>
     </g>
    </g>
    <g id="text_18">
     <!-- Phred Score -->
     <g transform="translate(14.798438 182.70521)rotate(-90)scale(0.1 -0.1)">
      <defs>
       <path id="DejaVuSans-68" d="M 3513 2113 
L 3513 0 
L 2938 0 
L 2938 2094 
Q 2938 2591 2744 2837 
Q 2550 3084 2163 3084 
Q 1697 3084 1428 2787 
Q 1159 2491 1159 1978 
L 1159 0 
L 581 0 
L 581 4863 
L 1159 4863 
L 1159 2956 
Q 1366 3272 1645 3428 
Q 1925 3584 2291 3584 
Q 2894 3584 3203 3211 
Q 3513 2838 3513 2113 
z
" transform="scale(0.015625)"/>
       <path id="DejaVuSans-72" d="M 2631 2963 
Q 2534 3019 2420 3045 
Q 2306 3072 2169 3072 
Q 1681 3072 1420 2755 
Q 1159 2438 1159 1844 
L 1159 0 
L 581 0 
L 581 3500 
L 1159 3500 
L 1159 2956 
Q 1341 3275 1631 3429 
Q 1922 3584 2338 3584 
Q 2397 3584 2469 3576 
Q 2541 3569 2628 3553 
L 2631 2963 
z
" transform="scale(0.015625)"/>
       <path id="DejaVuSans-65" d="M 3597 1894 
L 3597 1613 
L 953 1613 
Q 991 1019 1311 708 
Q 1631 397 2203 397 
Q 2534 397 2845 478 
Q 3156 559 3463 722 
L 3463 178 
Q 3153 47 2828 -22 
Q 2503 -91 2169 -91 
Q 1331 -91 842 396 
Q 353 884 353 1716 
Q 353 2575 817 3079 
Q 1281 3584 2069 3584 
Q 2775 3584 3186 3129 
Q 3597 2675 3597 1894 
z
M 3022 2063 
Q 3016 2534 2758 2815 
Q 2500 3097 2075 3097 
Q 1594 3097 1305 2825 
Q 1016 2553 972 2059 
L 3022 2063 
z
" transform="scale(0.015625)"/>
       <path id="DejaVuSans-64" d="M 2906 2969 
L 2906 4863 
L 3481 4863 
L 3481 0 
L 2906 0 
L 2906 525 
Q 2725 213 2448 61 
Q 2172 -91 1784 -91 
Q 1150 -91 751 415 
Q 353 922 353 1747 
Q 353 2572 751 3078 
Q 1150 3584 1784 3584 
Q 2172 3584 2448 3432 
Q 2725 3281 2906 2969 
z
M 947 1747 
Q 947 1113 1208 752 
Q 1469 391 1925 391 
Q 2381 391 2643 752 
Q 2906 1113 2906 1747 
Q 2906 2381 2643 2742 
Q 2381 3103 1925 3103 
Q 1469 3103 1208 2742 
Q 947 2381 947 1747 
z
" transform="scale(0.015625)"/>
       <path id="DejaVuSans-53" d="M 3425 4513 
L 3425 3897 
Q 3066 4069 2747 4153 
Q 2428 4238 2131 4238 
Q 1616 4238 1336 4038 
Q 1056 3838 1056 3469 
Q 1056 3159 1242 3001 
Q 1428 2844 1947 2747 
L 2328 2669 
Q 3034 2534 3370 2195 
Q 3706 1856 3706 1288 
Q 3706 609 3251 259 
Q 2797 -91 1919 -91 
Q 1588 -91 1214 -16 
Q 841 59 441 206 
L 441 856 
Q 825 641 1194 531 
Q 1563 422 1919 422 
Q 2459 422 2753 634 
Q 3047 847 3047 1241 
Q 3047 1584 2836 1778 
Q 2625 1972 2144 2069 
L 1759 2144 
Q 1053 2284 737 2584 
Q 422 2884 422 3419 
Q 422 4038 858 4394 
Q 1294 4750 2059 4750 
Q 2388 4750 2728 4690 
Q 3069 4631 3425 4513 
z
" transform="scale(0.015625)"/>
       <path id="DejaVuSans-63" d="M 3122 3366 
L 3122 2828 
Q 2878 2963 2633 3030 
Q 2388 3097 2138 3097 
Q 1578 3097 1268 2742 
Q 959 2388 959 1747 
Q 959 1106 1268 751 
Q 1578 397 2138 397 
Q 2388 397 2633 464 
Q 2878 531 3122 666 
L 3122 134 
Q 2881 22 2623 -34 
Q 2366 -91 2075 -91 
Q 1284 -91 818 406 
Q 353 903 353 1747 
Q 353 2603 823 3093 
Q 1294 3584 2113 3584 
Q 2378 3584 2631 3529 
Q 2884 3475 3122 3366 
z
" transform="scale(0.015625)"/>
      </defs>
      <use xlink:href="#DejaVuSans-50"/>
      <use xlink:href="#DejaVuSans-68" x="60.302734"/>
      <use xlink:href="#DejaVuSans-72" x="123.681641"/>
      <use xlink:href="#DejaVuSans-65" x="162.544922"/>
      <use xlink:href="#DejaVuSans-64" x="224.068359"/>
      <use xlink:href="#DejaVuSans-20" x="287.544922"/>
      <use xlink:href="#DejaVuSans-53" x="319.332031"/>
      <use xlink:href="#DejaVuSans-63" x="382.808594"/>
      <use xlink:href="#DejaVuSans-6f" x="437.789062"/>
      <use xlink:href="#DejaVuSans-72" x="498.970703"/>
      <use xlink:href="#DejaVuSans-65" x="537.833984"/>
     </g>
    </g>
   </g>
   <g id="line2d_9">
    <path d="M 81.469943 66.124329 
L 93.046428 65.40591 
L 104.622913 65.476737 
L 116.199398 65.986786 
L 127.775883 64.759114 
L 139.352367 34.492796 
L 150.928852 34.652622 
L 162.505337 35.367526 
L 174.081822 33.955822 
L 185.658307 35.03869 
L 208.811277 35.058552 
L 231.964246 35.960472 
L 255.117216 35.775645 
L 278.270186 35.812982 
L 301.423155 36.217486 
L 324.576125 36.307612 
L 347.729095 36.596956 
L 370.882064 35.932155 
L 394.035034 35.863085 
L 417.188004 36.444127 
L 440.340973 36.657206 
L 463.493943 36.690132 
L 486.646913 37.044136 
L 509.799883 37.075405 
L 532.952852 37.289777 
L 556.105822 37.498047 
L 579.258792 37.635159 
L 602.411761 37.983625 
L 625.564731 38.22847 
L 648.717701 38.49447 
L 671.87067 38.801388 
L 695.02364 39.082144 
L 718.17661 39.296947 
L 741.32958 39.364491 
L 764.482549 39.766874 
L 787.635519 40.662394 
L 810.788489 40.895567 
L 833.941458 41.122373 
L 857.094428 41.608548 
L 880.247398 41.758227 
L 903.400367 42.662369 
L 926.553337 43.314736 
L 949.706307 45.873304 
" clip-path="url(#p1784e8ad32)" style="fill: none; stroke: #5cb85c; stroke-linecap: square"/>
   </g>
   <g id="line2d_10">
    <path d="M 81.469943 68.984742 
L 93.046428 66.137393 
L 104.622913 67.008807 
L 116.199398 67.530131 
L 127.775883 67.995283 
L 139.352367 36.239139 
L 150.928852 36.59805 
L 162.505337 37.498976 
L 174.081822 35.945352 
L 185.658307 36.652033 
L 208.811277 36.749354 
L 231.964246 36.866272 
L 255.117216 36.770609 
L 278.270186 37.005174 
L 301.423155 37.082235 
L 324.576125 37.276613 
L 347.729095 37.444661 
L 370.882064 37.618546 
L 394.035034 37.690634 
L 417.188004 37.900131 
L 440.340973 38.121864 
L 463.493943 38.102367 
L 486.646913 38.237489 
L 509.799883 38.675981 
L 532.952852 38.830502 
L 556.105822 38.798901 
L 579.258792 38.961313 
L 602.411761 39.37225 
L 625.564731 39.889329 
L 648.717701 39.910684 
L 671.87067 40.158479 
L 695.02364 40.334122 
L 718.17661 40.660139 
L 741.32958 40.891787 
L 764.482549 41.737934 
L 787.635519 41.732529 
L 810.788489 41.779548 
L 833.941458 42.214294 
L 857.094428 42.579571 
L 880.247398 42.945313 
L 903.400367 43.02831 
L 926.553337 43.299682 
L 949.706307 47.939165 
" clip-path="url(#p1784e8ad32)" style="fill: none; stroke: #5cb85c; stroke-linecap: square"/>
   </g>
   <g id="line2d_11">
    <path d="M 81.469943 66.752026 
L 93.046428 65.741676 
L 104.622913 65.561093 
L 116.199398 66.040702 
L 127.775883 64.782656 
L 139.352367 34.257634 
L 150.928852 34.444716 
L 162.505337 35.240462 
L 174.081822 33.581857 
L 185.658307 34.670992 
L 208.811277 34.760056 
L 231.964246 35.868755 
L 255.117216 35.603418 
L 278.270186 35.818088 
L 301.423155 36.14835 
L 324.576125 36.418263 
L 347.729095 36.758075 
L 370.882064 36.066415 
L 394.035034 36.132335 
L 417.188004 36.533059 
L 440.340973 37.0129 
L 463.493943 37.025103 
L 486.646913 37.212616 
L 509.799883 37.391541 
L 532.952852 37.527923 
L 556.105822 37.89088 
L 579.258792 38.016618 
L 602.411761 38.530679 
L 625.564731 38.921324 
L 648.717701 39.132479 
L 671.87067 39.184538 
L 695.02364 39.414031 
L 718.17661 39.849074 
L 741.32958 40.144354 
L 764.482549 40.484895 
L 787.635519 41.056354 
L 810.788489 41.292279 
L 833.941458 41.639784 
L 857.094428 42.228154 
L 880.247398 42.66542 
L 903.400367 43.183891 
L 926.553337 44.045192 
L 949.706307 47.268097 
" clip-path="url(#p1784e8ad32)" style="fill: none; stroke: #5cb85c; stroke-linecap: square"/>
   </g>
   <g id="line2d_12">
    <path d="M 81.469943 69.323824 
L 93.046428 66.442919 
L 104.622913 67.499227 
L 116.199398 67.844742 
L 127.775883 68.518197 
L 139.352367 36.91737 
L 150.928852 37.201541 
L 162.505337 38.716369 
L 174.081822 36.547914 
L 185.658307 37.434747 
L 208.811277 37.528487 
L 231.964246 37.818096 
L 255.117216 37.816902 
L 278.270186 38.060786 
L 301.423155 38.223761 
L 324.576125 38.477327 
L 347.729095 38.809611 
L 370.882064 38.853746 
L 394.035034 39.058137 
L 417.188004 39.33236 
L 440.340973 39.61945 
L 463.493943 39.725326 
L 486.646913 39.701982 
L 509.799883 40.107614 
L 532.952852 40.294066 
L 556.105822 40.557878 
L 579.258792 40.74748 
L 602.411761 41.213991 
L 625.564731 41.527906 
L 648.717701 41.558379 
L 671.87067 41.973229 
L 695.02364 42.15862 
L 718.17661 42.55394 
L 741.32958 42.800111 
L 764.482549 43.343949 
L 787.635519 43.628319 
L 810.788489 43.832345 
L 833.941458 44.321504 
L 857.094428 44.817427 
L 880.247398 44.882319 
L 903.400367 44.744776 
L 926.553337 45.107501 
L 949.706307 49.774838 
" clip-path="url(#p1784e8ad32)" style="fill: none; stroke: #5cb85c; stroke-linecap: square"/>
   </g>
   <g id="line2d_13">
    <path d="M 81.469943 65.926039 
L 93.046428 65.306699 
L 104.622913 65.15377 
L 116.199398 65.601679 
L 127.775883 64.47786 
L 139.352367 33.895672 
L 150.928852 34.248217 
L 162.505337 35.164263 
L 174.081822 33.296492 
L 185.658307 34.578976 
L 208.811277 34.485004 
L 231.964246 35.500327 
L 255.117216 35.229983 
L 278.270186 35.438652 
L 301.423155 35.622186 
L 324.576125 35.810031 
L 347.729095 36.081303 
L 370.882064 35.319943 
L 394.035034 35.259694 
L 417.188004 35.660915 
L 440.340973 36.064061 
L 463.493943 36.058622 
L 486.646913 36.280588 
L 509.799883 36.379998 
L 532.952852 36.713874 
L 556.105822 36.818921 
L 579.258792 37.022749 
L 602.411761 37.409712 
L 625.564731 37.80344 
L 648.717701 38.015524 
L 671.87067 38.07385 
L 695.02364 38.165435 
L 718.17661 38.696142 
L 741.32958 38.797475 
L 764.482549 39.136259 
L 787.635519 39.520603 
L 810.788489 39.835347 
L 833.941458 40.095842 
L 857.094428 40.66697 
L 880.247398 41.19466 
L 903.400367 41.649101 
L 926.553337 42.424554 
L 949.706307 45.662613 
" clip-path="url(#p1784e8ad32)" style="fill: none; stroke: #5cb85c; stroke-linecap: square"/>
   </g>
   <g id="line2d_14">
    <path d="M 81.469943 68.948864 
L 93.046428 65.914367 
L 104.622913 66.69234 
L 116.199398 67.207495 
L 127.775883 67.405652 
L 139.352367 35.696263 
L 150.928852 36.332581 
L 162.505337 37.493869 
L 174.081822 35.6131 
L 185.658307 36.207472 
L 208.811277 36.35745 
L 231.964246 36.502022 
L 255.117216 36.517043 
L 278.270186 36.784038 
L 301.423155 36.922476 
L 324.576125 37.031436 
L 347.729095 37.175478 
L 370.882064 37.188708 
L 394.035034 37.388291 
L 417.188004 37.530941 
L 440.340973 37.7604 
L 463.493943 37.84207 
L 486.646913 38.028522 
L 509.799883 37.922115 
L 532.952852 38.391048 
L 556.105822 38.578295 
L 579.258792 38.643585 
L 602.411761 39.119713 
L 625.564731 39.286402 
L 648.717701 39.534099 
L 671.87067 39.926036 
L 695.02364 40.015532 
L 718.17661 40.340422 
L 741.32958 40.528333 
L 764.482549 40.886548 
L 787.635519 41.201159 
L 810.788489 41.252721 
L 833.941458 41.623834 
L 857.094428 42.2258 
L 880.247398 42.376142 
L 903.400367 42.334163 
L 926.553337 42.672516 
L 949.706307 47.374139 
" clip-path="url(#p1784e8ad32)" style="fill: none; stroke: #5cb85c; stroke-linecap: square"/>
   </g>
   <g id="line2d_15">
    <path d="M 81.469943 66.361149 
L 93.046428 65.417781 
L 104.622913 65.397753 
L 116.199398 65.974517 
L 127.775883 64.717731 
L 139.352367 34.409302 
L 150.928852 34.528807 
L 162.505337 35.363613 
L 174.081822 33.511428 
L 185.658307 34.692943 
L 208.811277 34.77972 
L 231.964246 35.762083 
L 255.117216 35.496083 
L 278.270186 35.489683 
L 301.423155 36.058059 
L 324.576125 36.005933 
L 347.729095 36.244179 
L 370.882064 35.680744 
L 394.035034 35.637804 
L 417.188004 35.858177 
L 440.340973 36.278465 
L 463.493943 36.450659 
L 486.646913 36.524637 
L 509.799883 36.603389 
L 532.952852 36.817794 
L 556.105822 37.192853 
L 579.258792 37.176838 
L 602.411761 37.783114 
L 625.564731 37.931367 
L 648.717701 38.120637 
L 671.87067 38.447882 
L 695.02364 38.383355 
L 718.17661 38.901461 
L 741.32958 39.219687 
L 764.482549 39.541725 
L 787.635519 40.018881 
L 810.788489 40.264455 
L 833.941458 40.550218 
L 857.094428 41.126054 
L 880.247398 41.598368 
L 903.400367 42.113657 
L 926.553337 42.699706 
L 949.706307 45.957726 
" clip-path="url(#p1784e8ad32)" style="fill: none; stroke: #5cb85c; stroke-linecap: square"/>
   </g>
   <g id="line2d_16">
    <path d="M 81.469943 69.569133 
L 93.046428 66.816486 
L 104.622913 67.591077 
L 116.199398 68.046811 
L 127.775883 68.488421 
L 139.352367 36.912661 
L 150.928852 37.325157 
L 162.505337 38.426959 
L 174.081822 36.626501 
L 185.658307 37.334939 
L 208.811277 37.525171 
L 231.964246 37.66477 
L 255.117216 37.532466 
L 278.270186 37.844259 
L 301.423155 37.932992 
L 324.576125 38.067484 
L 347.729095 38.392109 
L 370.882064 38.463367 
L 394.035034 38.590564 
L 417.188004 38.656119 
L 440.340973 38.814884 
L 463.493943 38.967978 
L 486.646913 39.080718 
L 509.799883 39.289685 
L 532.952852 39.603533 
L 556.105822 39.842045 
L 579.258792 40.031713 
L 602.411761 40.390293 
L 625.564731 40.790818 
L 648.717701 40.833626 
L 671.87067 41.239789 
L 695.02364 41.423854 
L 718.17661 41.793707 
L 741.32958 41.985199 
L 764.482549 42.363376 
L 787.635519 42.622081 
L 810.788489 42.790627 
L 833.941458 43.453107 
L 857.094428 43.839275 
L 880.247398 43.803563 
L 903.400367 43.974563 
L 926.553337 44.261686 
L 949.706307 49.30385 
" clip-path="url(#p1784e8ad32)" style="fill: none; stroke: #5cb85c; stroke-linecap: square"/>
   </g>
   <g id="line2d_17">
    <path d="M 38.058125 273.99006 
L 993.118125 273.99006 
" clip-path="url(#p1784e8ad32)" style="fill: none; stroke: #dedede; stroke-width: 2; stroke-linecap: square"/>
   </g>
   <g id="text_19">
    <!-- FastQC: Mean Quality Scores -->
    <g transform="translate(400.349375 19.3575)scale(0.16 -0.16)">
     <defs>
      <path id="DejaVuSans-46" d="M 628 4666 
L 3309 4666 
L 3309 4134 
L 1259 4134 
L 1259 2759 
L 3109 2759 
L 3109 2228 
L 1259 2228 
L 1259 0 
L 628 0 
L 628 4666 
z
" transform="scale(0.015625)"/>
      <path id="DejaVuSans-61" d="M 2194 1759 
Q 1497 1759 1228 1600 
Q 959 1441 959 1056 
Q 959 750 1161 570 
Q 1363 391 1709 391 
Q 2188 391 2477 730 
Q 2766 1069 2766 1631 
L 2766 1759 
L 2194 1759 
z
M 3341 1997 
L 3341 0 
L 2766 0 
L 2766 531 
Q 2569 213 2275 61 
Q 1981 -91 1556 -91 
Q 1019 -91 701 211 
Q 384 513 384 1019 
Q 384 1609 779 1909 
Q 1175 2209 1959 2209 
L 2766 2209 
L 2766 2266 
Q 2766 2663 2505 2880 
Q 2244 3097 1772 3097 
Q 1472 3097 1187 3025 
Q 903 2953 641 2809 
L 641 3341 
Q 956 3463 1253 3523 
Q 1550 3584 1831 3584 
Q 2591 3584 2966 3190 
Q 3341 2797 3341 1997 
z
" transform="scale(0.015625)"/>
      <path id="DejaVuSans-51" d="M 2522 4238 
Q 1834 4238 1429 3725 
Q 1025 3213 1025 2328 
Q 1025 1447 1429 934 
Q 1834 422 2522 422 
Q 3209 422 3611 934 
Q 4013 1447 4013 2328 
Q 4013 3213 3611 3725 
Q 3209 4238 2522 4238 
z
M 3406 84 
L 4238 -825 
L 3475 -825 
L 2784 -78 
Q 2681 -84 2626 -87 
Q 2572 -91 2522 -91 
Q 1538 -91 948 567 
Q 359 1225 359 2328 
Q 359 3434 948 4092 
Q 1538 4750 2522 4750 
Q 3503 4750 4090 4092 
Q 4678 3434 4678 2328 
Q 4678 1516 4351 937 
Q 4025 359 3406 84 
z
" transform="scale(0.015625)"/>
      <path id="DejaVuSans-43" d="M 4122 4306 
L 4122 3641 
Q 3803 3938 3442 4084 
Q 3081 4231 2675 4231 
Q 1875 4231 1450 3742 
Q 1025 3253 1025 2328 
Q 1025 1406 1450 917 
Q 1875 428 2675 428 
Q 3081 428 3442 575 
Q 3803 722 4122 1019 
L 4122 359 
Q 3791 134 3420 21 
Q 3050 -91 2638 -91 
Q 1578 -91 968 557 
Q 359 1206 359 2328 
Q 359 3453 968 4101 
Q 1578 4750 2638 4750 
Q 3056 4750 3426 4639 
Q 3797 4528 4122 4306 
z
" transform="scale(0.015625)"/>
      <path id="DejaVuSans-3a" d="M 750 794 
L 1409 794 
L 1409 0 
L 750 0 
L 750 794 
z
M 750 3309 
L 1409 3309 
L 1409 2516 
L 750 2516 
L 750 3309 
z
" transform="scale(0.015625)"/>
      <path id="DejaVuSans-4d" d="M 628 4666 
L 1569 4666 
L 2759 1491 
L 3956 4666 
L 4897 4666 
L 4897 0 
L 4281 0 
L 4281 4097 
L 3078 897 
L 2444 897 
L 1241 4097 
L 1241 0 
L 628 0 
L 628 4666 
z
" transform="scale(0.015625)"/>
      <path id="DejaVuSans-75" d="M 544 1381 
L 544 3500 
L 1119 3500 
L 1119 1403 
Q 1119 906 1312 657 
Q 1506 409 1894 409 
Q 2359 409 2629 706 
Q 2900 1003 2900 1516 
L 2900 3500 
L 3475 3500 
L 3475 0 
L 2900 0 
L 2900 538 
Q 2691 219 2414 64 
Q 2138 -91 1772 -91 
Q 1169 -91 856 284 
Q 544 659 544 1381 
z
M 1991 3584 
L 1991 3584 
z
" transform="scale(0.015625)"/>
      <path id="DejaVuSans-6c" d="M 603 4863 
L 1178 4863 
L 1178 0 
L 603 0 
L 603 4863 
z
" transform="scale(0.015625)"/>
      <path id="DejaVuSans-79" d="M 2059 -325 
Q 1816 -950 1584 -1140 
Q 1353 -1331 966 -1331 
L 506 -1331 
L 506 -850 
L 844 -850 
Q 1081 -850 1212 -737 
Q 1344 -625 1503 -206 
L 1606 56 
L 191 3500 
L 800 3500 
L 1894 763 
L 2988 3500 
L 3597 3500 
L 2059 -325 
z
" transform="scale(0.015625)"/>
     </defs>
     <use xlink:href="#DejaVuSans-46"/>
     <use xlink:href="#DejaVuSans-61" x="48.394531"/>
     <use xlink:href="#DejaVuSans-73" x="109.673828"/>
     <use xlink:href="#DejaVuSans-74" x="161.773438"/>
     <use xlink:href="#DejaVuSans-51" x="200.982422"/>
     <use xlink:href="#DejaVuSans-43" x="279.693359"/>
     <use xlink:href="#DejaVuSans-3a" x="349.517578"/>
     <use xlink:href="#DejaVuSans-20" x="383.208984"/>
     <use xlink:href="#DejaVuSans-4d" x="414.996094"/>
     <use xlink:href="#DejaVuSans-65" x="501.275391"/>
     <use xlink:href="#DejaVuSans-61" x="562.798828"/>
     <use xlink:href="#DejaVuSans-6e" x="624.078125"/>
     <use xlink:href="#DejaVuSans-20" x="687.457031"/>
     <use xlink:href="#DejaVuSans-51" x="719.244141"/>
     <use xlink:href="#DejaVuSans-75" x="797.955078"/>
     <use xlink:href="#DejaVuSans-61" x="861.333984"/>
     <use xlink:href="#DejaVuSans-6c" x="922.613281"/>
     <use xlink:href="#DejaVuSans-69" x="950.396484"/>
     <use xlink:href="#DejaVuSans-74" x="978.179688"/>
     <use xlink:href="#DejaVuSans-79" x="1017.388672"/>
     <use xlink:href="#DejaVuSans-20" x="1076.568359"/>
     <use xlink:href="#DejaVuSans-53" x="1108.355469"/>
     <use xlink:href="#DejaVuSans-63" x="1171.832031"/>
     <use xlink:href="#DejaVuSans-6f" x="1226.8125"/>
     <use xlink:href="#DejaVuSans-72" x="1287.994141"/>
     <use xlink:href="#DejaVuSans-65" x="1326.857422"/>
     <use xlink:href="#DejaVuSans-73" x="1388.380859"/>
    </g>
   </g>
   <g id="legend_1">
    <g id="line2d_18">
     <path d="M 45.258125 303.490394 
L 53.258125 303.490394 
L 61.258125 303.490394 
" style="fill: none; stroke: #5cb85c; stroke-linecap: square"/>
    </g>
    <g id="text_20">
     <!-- OSMOTIC_STRESS_T0_REP1_T1_1 -->
     <g transform="translate(67.658125 306.290394)scale(0.08 -0.08)">
      <defs>
       <path id="DejaVuSans-4f" d="M 2522 4238 
Q 1834 4238 1429 3725 
Q 1025 3213 1025 2328 
Q 1025 1447 1429 934 
Q 1834 422 2522 422 
Q 3209 422 3611 934 
Q 4013 1447 4013 2328 
Q 4013 3213 3611 3725 
Q 3209 4238 2522 4238 
z
M 2522 4750 
Q 3503 4750 4090 4092 
Q 4678 3434 4678 2328 
Q 4678 1225 4090 567 
Q 3503 -91 2522 -91 
Q 1538 -91 948 565 
Q 359 1222 359 2328 
Q 359 3434 948 4092 
Q 1538 4750 2522 4750 
z
" transform="scale(0.015625)"/>
       <path id="DejaVuSans-54" d="M -19 4666 
L 3928 4666 
L 3928 4134 
L 2272 4134 
L 2272 0 
L 1638 0 
L 1638 4134 
L -19 4134 
L -19 4666 
z
" transform="scale(0.015625)"/>
       <path id="DejaVuSans-49" d="M 628 4666 
L 1259 4666 
L 1259 0 
L 628 0 
L 628 4666 
z
" transform="scale(0.015625)"/>
       <path id="DejaVuSans-5f" d="M 3263 -1063 
L 3263 -1509 
L -63 -1509 
L -63 -1063 
L 3263 -1063 
z
" transform="scale(0.015625)"/>
       <path id="DejaVuSans-52" d="M 2841 2188 
Q 3044 2119 3236 1894 
Q 3428 1669 3622 1275 
L 4263 0 
L 3584 0 
L 2988 1197 
Q 2756 1666 2539 1819 
Q 2322 1972 1947 1972 
L 1259 1972 
L 1259 0 
L 628 0 
L 628 4666 
L 2053 4666 
Q 2853 4666 3247 4331 
Q 3641 3997 3641 3322 
Q 3641 2881 3436 2590 
Q 3231 2300 2841 2188 
z
M 1259 4147 
L 1259 2491 
L 2053 2491 
Q 2509 2491 2742 2702 
Q 2975 2913 2975 3322 
Q 2975 3731 2742 3939 
Q 2509 4147 2053 4147 
L 1259 4147 
z
" transform="scale(0.015625)"/>
       <path id="DejaVuSans-45" d="M 628 4666 
L 3578 4666 
L 3578 4134 
L 1259 4134 
L 1259 2753 
L 3481 2753 
L 3481 2222 
L 1259 2222 
L 1259 531 
L 3634 531 
L 3634 0 
L 628 0 
L 628 4666 
z
" transform="scale(0.015625)"/>
      </defs>
      <use xlink:href="#DejaVuSans-4f"/>
      <use xlink:href="#DejaVuSans-53" x="78.710938"/>
      <use xlink:href="#DejaVuSans-4d" x="142.1875"/>
      <use xlink:href="#DejaVuSans-4f" x="228.466797"/>
      <use xlink:href="#DejaVuSans-54" x="307.177734"/>
      <use xlink:href="#DejaVuSans-49" x="368.261719"/>
      <use xlink:href="#DejaVuSans-43" x="397.753906"/>
      <use xlink:href="#DejaVuSans-5f" x="467.578125"/>
      <use xlink:href="#DejaVuSans-53" x="517.578125"/>
      <use xlink:href="#DejaVuSans-54" x="581.054688"/>
      <use xlink:href="#DejaVuSans-52" x="642.138672"/>
      <use xlink:href="#DejaVuSans-45" x="711.621094"/>
      <use xlink:href="#DejaVuSans-53" x="774.804688"/>
      <use xlink:href="#DejaVuSans-53" x="838.28125"/>
      <use xlink:href="#DejaVuSans-5f" x="901.757812"/>
      <use xlink:href="#DejaVuSans-54" x="951.757812"/>
      <use xlink:href="#DejaVuSans-30" x="1012.841797"/>
      <use xlink:href="#DejaVuSans-5f" x="1076.464844"/>
      <use xlink:href="#DejaVuSans-52" x="1126.464844"/>
      <use xlink:href="#DejaVuSans-45" x="1195.947266"/>
      <use xlink:href="#DejaVuSans-50" x="1259.130859"/>
      <use xlink:href="#DejaVuSans-31" x="1319.433594"/>
      <use xlink:href="#DejaVuSans-5f" x="1383.056641"/>
      <use xlink:href="#DejaVuSans-54" x="1433.056641"/>
      <use xlink:href="#DejaVuSans-31" x="1494.140625"/>
      <use xlink:href="#DejaVuSans-5f" x="1557.763672"/>
      <use xlink:href="#DejaVuSans-31" x="1607.763672"/>
     </g>
    </g>
    <g id="line2d_19">
     <path d="M 45.258125 315.455394 
L 53.258125 315.455394 
L 61.258125 315.455394 
" style="fill: none; stroke: #5cb85c; stroke-linecap: square"/>
    </g>
    <g id="text_21">
     <!-- OSMOTIC_STRESS_T0_REP1_T1_2 -->
     <g transform="translate(67.658125 318.255394)scale(0.08 -0.08)">
      <use xlink:href="#DejaVuSans-4f"/>
      <use xlink:href="#DejaVuSans-53" x="78.710938"/>
      <use xlink:href="#DejaVuSans-4d" x="142.1875"/>
      <use xlink:href="#DejaVuSans-4f" x="228.466797"/>
      <use xlink:href="#DejaVuSans-54" x="307.177734"/>
      <use xlink:href="#DejaVuSans-49" x="368.261719"/>
      <use xlink:href="#DejaVuSans-43" x="397.753906"/>
      <use xlink:href="#DejaVuSans-5f" x="467.578125"/>
      <use xlink:href="#DejaVuSans-53" x="517.578125"/>
      <use xlink:href="#DejaVuSans-54" x="581.054688"/>
      <use xlink:href="#DejaVuSans-52" x="642.138672"/>
      <use xlink:href="#DejaVuSans-45" x="711.621094"/>
      <use xlink:href="#DejaVuSans-53" x="774.804688"/>
      <use xlink:href="#DejaVuSans-53" x="838.28125"/>
      <use xlink:href="#DejaVuSans-5f" x="901.757812"/>
      <use xlink:href="#DejaVuSans-54" x="951.757812"/>
      <use xlink:href="#DejaVuSans-30" x="1012.841797"/>
      <use xlink:href="#DejaVuSans-5f" x="1076.464844"/>
      <use xlink:href="#DejaVuSans-52" x="1126.464844"/>
      <use xlink:href="#DejaVuSans-45" x="1195.947266"/>
      <use xlink:href="#DejaVuSans-50" x="1259.130859"/>
      <use xlink:href="#DejaVuSans-31" x="1319.433594"/>
      <use xlink:href="#DejaVuSans-5f" x="1383.056641"/>
      <use xlink:href="#DejaVuSans-54" x="1433.056641"/>
      <use xlink:href="#DejaVuSans-31" x="1494.140625"/>
      <use xlink:href="#DejaVuSans-5f" x="1557.763672"/>
      <use xlink:href="#DejaVuSans-32" x="1607.763672"/>
     </g>
    </g>
    <g id="line2d_20">
     <path d="M 237.576875 303.490394 
L 245.576875 303.490394 
L 253.576875 303.490394 
" style="fill: none; stroke: #5cb85c; stroke-linecap: square"/>
    </g>
    <g id="text_22">
     <!-- OSMOTIC_STRESS_T0_REP2_T1_1 -->
     <g transform="translate(259.976875 306.290394)scale(0.08 -0.08)">
      <use xlink:href="#DejaVuSans-4f"/>
      <use xlink:href="#DejaVuSans-53" x="78.710938"/>
      <use xlink:href="#DejaVuSans-4d" x="142.1875"/>
      <use xlink:href="#DejaVuSans-4f" x="228.466797"/>
      <use xlink:href="#DejaVuSans-54" x="307.177734"/>
      <use xlink:href="#DejaVuSans-49" x="368.261719"/>
      <use xlink:href="#DejaVuSans-43" x="397.753906"/>
      <use xlink:href="#DejaVuSans-5f" x="467.578125"/>
      <use xlink:href="#DejaVuSans-53" x="517.578125"/>
      <use xlink:href="#DejaVuSans-54" x="581.054688"/>
      <use xlink:href="#DejaVuSans-52" x="642.138672"/>
      <use xlink:href="#DejaVuSans-45" x="711.621094"/>
      <use xlink:href="#DejaVuSans-53" x="774.804688"/>
      <use xlink:href="#DejaVuSans-53" x="838.28125"/>
      <use xlink:href="#DejaVuSans-5f" x="901.757812"/>
      <use xlink:href="#DejaVuSans-54" x="951.757812"/>
      <use xlink:href="#DejaVuSans-30" x="1012.841797"/>
      <use xlink:href="#DejaVuSans-5f" x="1076.464844"/>
      <use xlink:href="#DejaVuSans-52" x="1126.464844"/>
      <use xlink:href="#DejaVuSans-45" x="1195.947266"/>
      <use xlink:href="#DejaVuSans-50" x="1259.130859"/>
      <use xlink:href="#DejaVuSans-32" x="1319.433594"/>
      <use xlink:href="#DejaVuSans-5f" x="1383.056641"/>
      <use xlink:href="#DejaVuSans-54" x="1433.056641"/>
      <use xlink:href="#DejaVuSans-31" x="1494.140625"/>
      <use xlink:href="#DejaVuSans-5f" x="1557.763672"/>
      <use xlink:href="#DejaVuSans-31" x="1607.763672"/>
     </g>
    </g>
    <g id="line2d_21">
     <path d="M 237.576875 315.455394 
L 245.576875 315.455394 
L 253.576875 315.455394 
" style="fill: none; stroke: #5cb85c; stroke-linecap: square"/>
    </g>
    <g id="text_23">
     <!-- OSMOTIC_STRESS_T0_REP2_T1_2 -->
     <g transform="translate(259.976875 318.255394)scale(0.08 -0.08)">
      <use xlink:href="#DejaVuSans-4f"/>
      <use xlink:href="#DejaVuSans-53" x="78.710938"/>
      <use xlink:href="#DejaVuSans-4d" x="142.1875"/>
      <use xlink:href="#DejaVuSans-4f" x="228.466797"/>
      <use xlink:href="#DejaVuSans-54" x="307.177734"/>
      <use xlink:href="#DejaVuSans-49" x="368.261719"/>
      <use xlink:href="#DejaVuSans-43" x="397.753906"/>
      <use xlink:href="#DejaVuSans-5f" x="467.578125"/>
      <use xlink:href="#DejaVuSans-53" x="517.578125"/>
      <use xlink:href="#DejaVuSans-54" x="581.054688"/>
      <use xlink:href="#DejaVuSans-52" x="642.138672"/>
      <use xlink:href="#DejaVuSans-45" x="711.621094"/>
      <use xlink:href="#DejaVuSans-53" x="774.804688"/>
      <use xlink:href="#DejaVuSans-53" x="838.28125"/>
      <use xlink:href="#DejaVuSans-5f" x="901.757812"/>
      <use xlink:href="#DejaVuSans-54" x="951.757812"/>
      <use xlink:href="#DejaVuSans-30" x="1012.841797"/>
      <use xlink:href="#DejaVuSans-5f" x="1076.464844"/>
      <use xlink:href="#DejaVuSans-52" x="1126.464844"/>
      <use xlink:href="#DejaVuSans-45" x="1195.947266"/>
      <use xlink:href="#DejaVuSans-50" x="1259.130859"/>
      <use xlink:href="#DejaVuSans-32" x="1319.433594"/>
      <use xlink:href="#DejaVuSans-5f" x="1383.056641"/>
      <use xlink:href="#DejaVuSans-54" x="1433.056641"/>
      <use xlink:href="#DejaVuSans-31" x="1494.140625"/>
      <use xlink:href="#DejaVuSans-5f" x="1557.763672"/>
      <use xlink:href="#DejaVuSans-32" x="1607.763672"/>
     </g>
    </g>
    <g id="line2d_22">
     <path d="M 429.895625 303.490394 
L 437.895625 303.490394 
L 445.895625 303.490394 
" style="fill: none; stroke: #5cb85c; stroke-linecap: square"/>
    </g>
    <g id="text_24">
     <!-- OSMOTIC_STRESS_T15_REP1_T1_1 -->
     <g transform="translate(452.295625 306.290394)scale(0.08 -0.08)">
      <use xlink:href="#DejaVuSans-4f"/>
      <use xlink:href="#DejaVuSans-53" x="78.710938"/>
      <use xlink:href="#DejaVuSans-4d" x="142.1875"/>
      <use xlink:href="#DejaVuSans-4f" x="228.466797"/>
      <use xlink:href="#DejaVuSans-54" x="307.177734"/>
      <use xlink:href="#DejaVuSans-49" x="368.261719"/>
      <use xlink:href="#DejaVuSans-43" x="397.753906"/>
      <use xlink:href="#DejaVuSans-5f" x="467.578125"/>
      <use xlink:href="#DejaVuSans-53" x="517.578125"/>
      <use xlink:href="#DejaVuSans-54" x="581.054688"/>
      <use xlink:href="#DejaVuSans-52" x="642.138672"/>
      <use xlink:href="#DejaVuSans-45" x="711.621094"/>
      <use xlink:href="#DejaVuSans-53" x="774.804688"/>
      <use xlink:href="#DejaVuSans-53" x="838.28125"/>
      <use xlink:href="#DejaVuSans-5f" x="901.757812"/>
      <use xlink:href="#DejaVuSans-54" x="951.757812"/>
      <use xlink:href="#DejaVuSans-31" x="1012.841797"/>
      <use xlink:href="#DejaVuSans-35" x="1076.464844"/>
      <use xlink:href="#DejaVuSans-5f" x="1140.087891"/>
      <use xlink:href="#DejaVuSans-52" x="1190.087891"/>
      <use xlink:href="#DejaVuSans-45" x="1259.570312"/>
      <use xlink:href="#DejaVuSans-50" x="1322.753906"/>
      <use xlink:href="#DejaVuSans-31" x="1383.056641"/>
      <use xlink:href="#DejaVuSans-5f" x="1446.679688"/>
      <use xlink:href="#DejaVuSans-54" x="1496.679688"/>
      <use xlink:href="#DejaVuSans-31" x="1557.763672"/>
      <use xlink:href="#DejaVuSans-5f" x="1621.386719"/>
      <use xlink:href="#DejaVuSans-31" x="1671.386719"/>
     </g>
    </g>
    <g id="line2d_23">
     <path d="M 429.895625 315.455394 
L 437.895625 315.455394 
L 445.895625 315.455394 
" style="fill: none; stroke: #5cb85c; stroke-linecap: square"/>
    </g>
    <g id="text_25">
     <!-- OSMOTIC_STRESS_T15_REP1_T1_2 -->
     <g transform="translate(452.295625 318.255394)scale(0.08 -0.08)">
      <use xlink:href="#DejaVuSans-4f"/>
      <use xlink:href="#DejaVuSans-53" x="78.710938"/>
      <use xlink:href="#DejaVuSans-4d" x="142.1875"/>
      <use xlink:href="#DejaVuSans-4f" x="228.466797"/>
      <use xlink:href="#DejaVuSans-54" x="307.177734"/>
      <use xlink:href="#DejaVuSans-49" x="368.261719"/>
      <use xlink:href="#DejaVuSans-43" x="397.753906"/>
      <use xlink:href="#DejaVuSans-5f" x="467.578125"/>
      <use xlink:href="#DejaVuSans-53" x="517.578125"/>
      <use xlink:href="#DejaVuSans-54" x="581.054688"/>
      <use xlink:href="#DejaVuSans-52" x="642.138672"/>
      <use xlink:href="#DejaVuSans-45" x="711.621094"/>
      <use xlink:href="#DejaVuSans-53" x="774.804688"/>
      <use xlink:href="#DejaVuSans-53" x="838.28125"/>
      <use xlink:href="#DejaVuSans-5f" x="901.757812"/>
      <use xlink:href="#DejaVuSans-54" x="951.757812"/>
      <use xlink:href="#DejaVuSans-31" x="1012.841797"/>
      <use xlink:href="#DejaVuSans-35" x="1076.464844"/>
      <use xlink:href="#DejaVuSans-5f" x="1140.087891"/>
      <use xlink:href="#DejaVuSans-52" x="1190.087891"/>
      <use xlink:href="#DejaVuSans-45" x="1259.570312"/>
      <use xlink:href="#DejaVuSans-50" x="1322.753906"/>
      <use xlink:href="#DejaVuSans-31" x="1383.056641"/>
      <use xlink:href="#DejaVuSans-5f" x="1446.679688"/>
      <use xlink:href="#DejaVuSans-54" x="1496.679688"/>
      <use xlink:href="#DejaVuSans-31" x="1557.763672"/>
      <use xlink:href="#DejaVuSans-5f" x="1621.386719"/>
      <use xlink:href="#DejaVuSans-32" x="1671.386719"/>
     </g>
    </g>
    <g id="line2d_24">
     <path d="M 627.304375 303.490394 
L 635.304375 303.490394 
L 643.304375 303.490394 
" style="fill: none; stroke: #5cb85c; stroke-linecap: square"/>
    </g>
    <g id="text_26">
     <!-- OSMOTIC_STRESS_T15_REP2_T1_1 -->
     <g transform="translate(649.704375 306.290394)scale(0.08 -0.08)">
      <use xlink:href="#DejaVuSans-4f"/>
      <use xlink:href="#DejaVuSans-53" x="78.710938"/>
      <use xlink:href="#DejaVuSans-4d" x="142.1875"/>
      <use xlink:href="#DejaVuSans-4f" x="228.466797"/>
      <use xlink:href="#DejaVuSans-54" x="307.177734"/>
      <use xlink:href="#DejaVuSans-49" x="368.261719"/>
      <use xlink:href="#DejaVuSans-43" x="397.753906"/>
      <use xlink:href="#DejaVuSans-5f" x="467.578125"/>
      <use xlink:href="#DejaVuSans-53" x="517.578125"/>
      <use xlink:href="#DejaVuSans-54" x="581.054688"/>
      <use xlink:href="#DejaVuSans-52" x="642.138672"/>
      <use xlink:href="#DejaVuSans-45" x="711.621094"/>
      <use xlink:href="#DejaVuSans-53" x="774.804688"/>
      <use xlink:href="#DejaVuSans-53" x="838.28125"/>
      <use xlink:href="#DejaVuSans-5f" x="901.757812"/>
      <use xlink:href="#DejaVuSans-54" x="951.757812"/>
      <use xlink:href="#DejaVuSans-31" x="1012.841797"/>
      <use xlink:href="#DejaVuSans-35" x="1076.464844"/>
      <use xlink:href="#DejaVuSans-5f" x="1140.087891"/>
      <use xlink:href="#DejaVuSans-52" x="1190.087891"/>
      <use xlink:href="#DejaVuSans-45" x="1259.570312"/>
      <use xlink:href="#DejaVuSans-50" x="1322.753906"/>
      <use xlink:href="#DejaVuSans-32" x="1383.056641"/>
      <use xlink:href="#DejaVuSans-5f" x="1446.679688"/>
      <use xlink:href="#DejaVuSans-54" x="1496.679688"/>
      <use xlink:href="#DejaVuSans-31" x="1557.763672"/>
      <use xlink:href="#DejaVuSans-5f" x="1621.386719"/>
      <use xlink:href="#DejaVuSans-31" x="1671.386719"/>
     </g>
    </g>
    <g id="line2d_25">
     <path d="M 824.713125 303.490394 
L 832.713125 303.490394 
L 840.713125 303.490394 
" style="fill: none; stroke: #5cb85c; stroke-linecap: square"/>
    </g>
    <g id="text_27">
     <!-- OSMOTIC_STRESS_T15_REP2_T1_2 -->
     <g transform="translate(847.113125 306.290394)scale(0.08 -0.08)">
      <use xlink:href="#DejaVuSans-4f"/>
      <use xlink:href="#DejaVuSans-53" x="78.710938"/>
      <use xlink:href="#DejaVuSans-4d" x="142.1875"/>
      <use xlink:href="#DejaVuSans-4f" x="228.466797"/>
      <use xlink:href="#DejaVuSans-54" x="307.177734"/>
      <use xlink:href="#DejaVuSans-49" x="368.261719"/>
      <use xlink:href="#DejaVuSans-43" x="397.753906"/>
      <use xlink:href="#DejaVuSans-5f" x="467.578125"/>
      <use xlink:href="#DejaVuSans-53" x="517.578125"/>
      <use xlink:href="#DejaVuSans-54" x="581.054688"/>
      <use xlink:href="#DejaVuSans-52" x="642.138672"/>
      <use xlink:href="#DejaVuSans-45" x="711.621094"/>
      <use xlink:href="#DejaVuSans-53" x="774.804688"/>
      <use xlink:href="#DejaVuSans-53" x="838.28125"/>
      <use xlink:href="#DejaVuSans-5f" x="901.757812"/>
      <use xlink:href="#DejaVuSans-54" x="951.757812"/>
      <use xlink:href="#DejaVuSans-31" x="1012.841797"/>
      <use xlink:href="#DejaVuSans-35" x="1076.464844"/>
      <use xlink:href="#DejaVuSans-5f" x="1140.087891"/>
      <use xlink:href="#DejaVuSans-52" x="1190.087891"/>
      <use xlink:href="#DejaVuSans-45" x="1259.570312"/>
      <use xlink:href="#DejaVuSans-50" x="1322.753906"/>
      <use xlink:href="#DejaVuSans-32" x="1383.056641"/>
      <use xlink:href="#DejaVuSans-5f" x="1446.679688"/>
      <use xlink:href="#DejaVuSans-54" x="1496.679688"/>
      <use xlink:href="#DejaVuSans-31" x="1557.763672"/>
      <use xlink:href="#DejaVuSans-5f" x="1621.386719"/>
      <use xlink:href="#DejaVuSans-32" x="1671.386719"/>
     </g>
    </g>
   </g>
  </g>
 </g>
 <defs>
  <clipPath id="p1784e8ad32">
   <rect x="38.058125" y="31.48286" width="955.06" height="242.5072"/>
  </clipPath>
 </defs>
</svg>
