<?xml version="1.0" encoding="utf-8" standalone="no"?>
<!DOCTYPE svg PUBLIC "-//W3C//DTD SVG 1.1//EN"
  "http://www.w3.org/Graphics/SVG/1.1/DTD/svg11.dtd">
<svg xmlns:xlink="http://www.w3.org/1999/xlink" width="1000.178125pt" height="330.541644pt" viewBox="0 0 1000.178125 330.541644" xmlns="http://www.w3.org/2000/svg" version="1.1">
 <metadata>
  <rdf:RDF xmlns:dc="http://purl.org/dc/elements/1.1/" xmlns:cc="http://creativecommons.org/ns#" xmlns:rdf="http://www.w3.org/1999/02/22-rdf-syntax-ns#">
   <cc:Work>
    <dc:type rdf:resource="http://purl.org/dc/dcmitype/StillImage"/>
    <dc:date>2022-11-03T22:56:50.717656</dc:date>
    <dc:format>image/svg+xml</dc:format>
    <dc:creator>
     <cc:Agent>
      <dc:title>Matplotlib v3.5.2, https://matplotlib.org/</dc:title>
     </cc:Agent>
    </dc:creator>
   </cc:Work>
  </rdf:RDF>
 </metadata>
 <defs>
  <style type="text/css">*{stroke-linejoin: round; stroke-linecap: butt}</style>
 </defs>
 <g id="figure_1">
  <g id="axes_1">
   <g id="patch_1">
    <path d="M 48.238125 273.99006 
L 985.343125 273.99006 
L 985.343125 31.48286 
L 48.238125 31.48286 
z
" style="fill: #ffffff"/>
   </g>
   <g id="matplotlib.axis_1">
    <g id="xtick_1">
     <g id="text_1">
      <!-- 0 -->
      <g transform="translate(45.693125 287.06881)scale(0.08 -0.08)">
       <defs>
        <path id="DejaVuSans-30" d="M 2034 4250 
Q 1547 4250 1301 3770 
Q 1056 3291 1056 2328 
Q 1056 1369 1301 889 
Q 1547 409 2034 409 
Q 2525 409 2770 889 
Q 3016 1369 3016 2328 
Q 3016 3291 2770 3770 
Q 2525 4250 2034 4250 
z
M 2034 4750 
Q 2819 4750 3233 4129 
Q 3647 3509 3647 2328 
Q 3647 1150 3233 529 
Q 2819 -91 2034 -91 
Q 1250 -91 836 529 
Q 422 1150 422 2328 
Q 422 3509 836 4129 
Q 1250 4750 2034 4750 
z
" transform="scale(0.015625)"/>
       </defs>
       <use xlink:href="#DejaVuSans-30"/>
      </g>
     </g>
    </g>
    <g id="xtick_2">
     <g id="text_2">
      <!-- 20 -->
      <g transform="translate(230.569125 287.06881)scale(0.08 -0.08)">
       <defs>
        <path id="DejaVuSans-32" d="M 1228 531 
L 3431 531 
L 3431 0 
L 469 0 
L 469 531 
Q 828 903 1448 1529 
Q 2069 2156 2228 2338 
Q 2531 2678 2651 2914 
Q 2772 3150 2772 3378 
Q 2772 3750 2511 3984 
Q 2250 4219 1831 4219 
Q 1534 4219 1204 4116 
Q 875 4013 500 3803 
L 500 4441 
Q 881 4594 1212 4672 
Q 1544 4750 1819 4750 
Q 2544 4750 2975 4387 
Q 3406 4025 3406 3419 
Q 3406 3131 3298 2873 
Q 3191 2616 2906 2266 
Q 2828 2175 2409 1742 
Q 1991 1309 1228 531 
z
" transform="scale(0.015625)"/>
       </defs>
       <use xlink:href="#DejaVuSans-32"/>
       <use xlink:href="#DejaVuSans-30" x="63.623047"/>
      </g>
     </g>
    </g>
    <g id="xtick_3">
     <g id="text_3">
      <!-- 40 -->
      <g transform="translate(417.990125 287.06881)scale(0.08 -0.08)">
       <defs>
        <path id="DejaVuSans-34" d="M 2419 4116 
L 825 1625 
L 2419 1625 
L 2419 4116 
z
M 2253 4666 
L 3047 4666 
L 3047 1625 
L 3713 1625 
L 3713 1100 
L 3047 1100 
L 3047 0 
L 2419 0 
L 2419 1100 
L 313 1100 
L 313 1709 
L 2253 4666 
z
" transform="scale(0.015625)"/>
       </defs>
       <use xlink:href="#DejaVuSans-34"/>
       <use xlink:href="#DejaVuSans-30" x="63.623047"/>
      </g>
     </g>
    </g>
    <g id="xtick_4">
     <g id="text_4">
      <!-- 60 -->
      <g transform="translate(605.411125 287.06881)scale(0.08 -0.08)">
       <defs>
        <path id="DejaVuSans-36" d="M 2113 2584 
Q 1688 2584 1439 2293 
Q 1191 2003 1191 1497 
Q 1191 994 1439 701 
Q 1688 409 2113 409 
Q 2538 409 2786 701 
Q 3034 994 3034 1497 
Q 3034 2003 2786 2293 
Q 2538 2584 2113 2584 
z
M 3366 4563 
L 3366 3988 
Q 3128 4100 2886 4159 
Q 2644 4219 2406 4219 
Q 1781 4219 1451 3797 
Q 1122 3375 1075 2522 
Q 1259 2794 1537 2939 
Q 1816 3084 2150 3084 
Q 2853 3084 3261 2657 
Q 3669 2231 3669 1497 
Q 3669 778 3244 343 
Q 2819 -91 2113 -91 
Q 1303 -91 875 529 
Q 447 1150 447 2328 
Q 447 3434 972 4092 
Q 1497 4750 2381 4750 
Q 2619 4750 2861 4703 
Q 3103 4656 3366 4563 
z
" transform="scale(0.015625)"/>
       </defs>
       <use xlink:href="#DejaVuSans-36"/>
       <use xlink:href="#DejaVuSans-30" x="63.623047"/>
      </g>
     </g>
    </g>
    <g id="xtick_5">
     <g id="text_5">
      <!-- 80 -->
      <g transform="translate(792.832125 287.06881)scale(0.08 -0.08)">
       <defs>
        <path id="DejaVuSans-38" d="M 2034 2216 
Q 1584 2216 1326 1975 
Q 1069 1734 1069 1313 
Q 1069 891 1326 650 
Q 1584 409 2034 409 
Q 2484 409 2743 651 
Q 3003 894 3003 1313 
Q 3003 1734 2745 1975 
Q 2488 2216 2034 2216 
z
M 1403 2484 
Q 997 2584 770 2862 
Q 544 3141 544 3541 
Q 544 4100 942 4425 
Q 1341 4750 2034 4750 
Q 2731 4750 3128 4425 
Q 3525 4100 3525 3541 
Q 3525 3141 3298 2862 
Q 3072 2584 2669 2484 
Q 3125 2378 3379 2068 
Q 3634 1759 3634 1313 
Q 3634 634 3220 271 
Q 2806 -91 2034 -91 
Q 1263 -91 848 271 
Q 434 634 434 1313 
Q 434 1759 690 2068 
Q 947 2378 1403 2484 
z
M 1172 3481 
Q 1172 3119 1398 2916 
Q 1625 2713 2034 2713 
Q 2441 2713 2670 2916 
Q 2900 3119 2900 3481 
Q 2900 3844 2670 4047 
Q 2441 4250 2034 4250 
Q 1625 4250 1398 4047 
Q 1172 3844 1172 3481 
z
" transform="scale(0.015625)"/>
       </defs>
       <use xlink:href="#DejaVuSans-38"/>
       <use xlink:href="#DejaVuSans-30" x="63.623047"/>
      </g>
     </g>
    </g>
    <g id="xtick_6">
     <g id="text_6">
      <!-- 100 -->
      <g transform="translate(977.708125 287.06881)scale(0.08 -0.08)">
       <defs>
        <path id="DejaVuSans-31" d="M 794 531 
L 1825 531 
L 1825 4091 
L 703 3866 
L 703 4441 
L 1819 4666 
L 2450 4666 
L 2450 531 
L 3481 531 
L 3481 0 
L 794 0 
L 794 531 
z
" transform="scale(0.015625)"/>
       </defs>
       <use xlink:href="#DejaVuSans-31"/>
       <use xlink:href="#DejaVuSans-30" x="63.623047"/>
       <use xlink:href="#DejaVuSans-30" x="127.246094"/>
      </g>
     </g>
    </g>
    <g id="text_7">
     <!-- % GC -->
     <g transform="translate(503.085156 300.330997)scale(0.1 -0.1)">
      <defs>
       <path id="DejaVuSans-25" d="M 4653 2053 
Q 4381 2053 4226 1822 
Q 4072 1591 4072 1178 
Q 4072 772 4226 539 
Q 4381 306 4653 306 
Q 4919 306 5073 539 
Q 5228 772 5228 1178 
Q 5228 1588 5073 1820 
Q 4919 2053 4653 2053 
z
M 4653 2450 
Q 5147 2450 5437 2106 
Q 5728 1763 5728 1178 
Q 5728 594 5436 251 
Q 5144 -91 4653 -91 
Q 4153 -91 3862 251 
Q 3572 594 3572 1178 
Q 3572 1766 3864 2108 
Q 4156 2450 4653 2450 
z
M 1428 4353 
Q 1159 4353 1004 4120 
Q 850 3888 850 3481 
Q 850 3069 1003 2837 
Q 1156 2606 1428 2606 
Q 1700 2606 1854 2837 
Q 2009 3069 2009 3481 
Q 2009 3884 1853 4118 
Q 1697 4353 1428 4353 
z
M 4250 4750 
L 4750 4750 
L 1831 -91 
L 1331 -91 
L 4250 4750 
z
M 1428 4750 
Q 1922 4750 2215 4408 
Q 2509 4066 2509 3481 
Q 2509 2891 2217 2550 
Q 1925 2209 1428 2209 
Q 931 2209 642 2551 
Q 353 2894 353 3481 
Q 353 4063 643 4406 
Q 934 4750 1428 4750 
z
" transform="scale(0.015625)"/>
       <path id="DejaVuSans-20" transform="scale(0.015625)"/>
       <path id="DejaVuSans-47" d="M 3809 666 
L 3809 1919 
L 2778 1919 
L 2778 2438 
L 4434 2438 
L 4434 434 
Q 4069 175 3628 42 
Q 3188 -91 2688 -91 
Q 1594 -91 976 548 
Q 359 1188 359 2328 
Q 359 3472 976 4111 
Q 1594 4750 2688 4750 
Q 3144 4750 3555 4637 
Q 3966 4525 4313 4306 
L 4313 3634 
Q 3963 3931 3569 4081 
Q 3175 4231 2741 4231 
Q 1884 4231 1454 3753 
Q 1025 3275 1025 2328 
Q 1025 1384 1454 906 
Q 1884 428 2741 428 
Q 3075 428 3337 486 
Q 3600 544 3809 666 
z
" transform="scale(0.015625)"/>
       <path id="DejaVuSans-43" d="M 4122 4306 
L 4122 3641 
Q 3803 3938 3442 4084 
Q 3081 4231 2675 4231 
Q 1875 4231 1450 3742 
Q 1025 3253 1025 2328 
Q 1025 1406 1450 917 
Q 1875 428 2675 428 
Q 3081 428 3442 575 
Q 3803 722 4122 1019 
L 4122 359 
Q 3791 134 3420 21 
Q 3050 -91 2638 -91 
Q 1578 -91 968 557 
Q 359 1206 359 2328 
Q 359 3453 968 4101 
Q 1578 4750 2638 4750 
Q 3056 4750 3426 4639 
Q 3797 4528 4122 4306 
z
" transform="scale(0.015625)"/>
      </defs>
      <use xlink:href="#DejaVuSans-25"/>
      <use xlink:href="#DejaVuSans-20" x="95.019531"/>
      <use xlink:href="#DejaVuSans-47" x="126.806641"/>
      <use xlink:href="#DejaVuSans-43" x="204.296875"/>
     </g>
    </g>
   </g>
   <g id="matplotlib.axis_2">
    <g id="ytick_1">
     <g id="line2d_1">
      <path d="M 48.238125 273.99006 
L 985.343125 273.99006 
" clip-path="url(#p74d074336c)" style="fill: none; stroke: #dedede; stroke-linecap: square"/>
     </g>
     <g id="text_8">
      <!-- 0 -->
      <g transform="translate(36.148125 277.029435)scale(0.08 -0.08)">
       <use xlink:href="#DejaVuSans-30"/>
      </g>
     </g>
    </g>
    <g id="ytick_2">
     <g id="line2d_2">
      <path d="M 48.238125 238.815031 
L 985.343125 238.815031 
" clip-path="url(#p74d074336c)" style="fill: none; stroke: #dedede; stroke-linecap: square"/>
     </g>
     <g id="text_9">
      <!-- 1000 -->
      <g transform="translate(20.878125 241.854406)scale(0.08 -0.08)">
       <use xlink:href="#DejaVuSans-31"/>
       <use xlink:href="#DejaVuSans-30" x="63.623047"/>
       <use xlink:href="#DejaVuSans-30" x="127.246094"/>
       <use xlink:href="#DejaVuSans-30" x="190.869141"/>
      </g>
     </g>
    </g>
    <g id="ytick_3">
     <g id="line2d_3">
      <path d="M 48.238125 203.640003 
L 985.343125 203.640003 
" clip-path="url(#p74d074336c)" style="fill: none; stroke: #dedede; stroke-linecap: square"/>
     </g>
     <g id="text_10">
      <!-- 2000 -->
      <g transform="translate(20.878125 206.679378)scale(0.08 -0.08)">
       <use xlink:href="#DejaVuSans-32"/>
       <use xlink:href="#DejaVuSans-30" x="63.623047"/>
       <use xlink:href="#DejaVuSans-30" x="127.246094"/>
       <use xlink:href="#DejaVuSans-30" x="190.869141"/>
      </g>
     </g>
    </g>
    <g id="ytick_4">
     <g id="line2d_4">
      <path d="M 48.238125 168.464974 
L 985.343125 168.464974 
" clip-path="url(#p74d074336c)" style="fill: none; stroke: #dedede; stroke-linecap: square"/>
     </g>
     <g id="text_11">
      <!-- 3000 -->
      <g transform="translate(20.878125 171.504349)scale(0.08 -0.08)">
       <defs>
        <path id="DejaVuSans-33" d="M 2597 2516 
Q 3050 2419 3304 2112 
Q 3559 1806 3559 1356 
Q 3559 666 3084 287 
Q 2609 -91 1734 -91 
Q 1441 -91 1130 -33 
Q 819 25 488 141 
L 488 750 
Q 750 597 1062 519 
Q 1375 441 1716 441 
Q 2309 441 2620 675 
Q 2931 909 2931 1356 
Q 2931 1769 2642 2001 
Q 2353 2234 1838 2234 
L 1294 2234 
L 1294 2753 
L 1863 2753 
Q 2328 2753 2575 2939 
Q 2822 3125 2822 3475 
Q 2822 3834 2567 4026 
Q 2313 4219 1838 4219 
Q 1578 4219 1281 4162 
Q 984 4106 628 3988 
L 628 4550 
Q 988 4650 1302 4700 
Q 1616 4750 1894 4750 
Q 2613 4750 3031 4423 
Q 3450 4097 3450 3541 
Q 3450 3153 3228 2886 
Q 3006 2619 2597 2516 
z
" transform="scale(0.015625)"/>
       </defs>
       <use xlink:href="#DejaVuSans-33"/>
       <use xlink:href="#DejaVuSans-30" x="63.623047"/>
       <use xlink:href="#DejaVuSans-30" x="127.246094"/>
       <use xlink:href="#DejaVuSans-30" x="190.869141"/>
      </g>
     </g>
    </g>
    <g id="ytick_5">
     <g id="line2d_5">
      <path d="M 48.238125 133.289945 
L 985.343125 133.289945 
" clip-path="url(#p74d074336c)" style="fill: none; stroke: #dedede; stroke-linecap: square"/>
     </g>
     <g id="text_12">
      <!-- 4000 -->
      <g transform="translate(20.878125 136.32932)scale(0.08 -0.08)">
       <use xlink:href="#DejaVuSans-34"/>
       <use xlink:href="#DejaVuSans-30" x="63.623047"/>
       <use xlink:href="#DejaVuSans-30" x="127.246094"/>
       <use xlink:href="#DejaVuSans-30" x="190.869141"/>
      </g>
     </g>
    </g>
    <g id="ytick_6">
     <g id="line2d_6">
      <path d="M 48.238125 98.114917 
L 985.343125 98.114917 
" clip-path="url(#p74d074336c)" style="fill: none; stroke: #dedede; stroke-linecap: square"/>
     </g>
     <g id="text_13">
      <!-- 5000 -->
      <g transform="translate(20.878125 101.154292)scale(0.08 -0.08)">
       <defs>
        <path id="DejaVuSans-35" d="M 691 4666 
L 3169 4666 
L 3169 4134 
L 1269 4134 
L 1269 2991 
Q 1406 3038 1543 3061 
Q 1681 3084 1819 3084 
Q 2600 3084 3056 2656 
Q 3513 2228 3513 1497 
Q 3513 744 3044 326 
Q 2575 -91 1722 -91 
Q 1428 -91 1123 -41 
Q 819 9 494 109 
L 494 744 
Q 775 591 1075 516 
Q 1375 441 1709 441 
Q 2250 441 2565 725 
Q 2881 1009 2881 1497 
Q 2881 1984 2565 2268 
Q 2250 2553 1709 2553 
Q 1456 2553 1204 2497 
Q 953 2441 691 2322 
L 691 4666 
z
" transform="scale(0.015625)"/>
       </defs>
       <use xlink:href="#DejaVuSans-35"/>
       <use xlink:href="#DejaVuSans-30" x="63.623047"/>
       <use xlink:href="#DejaVuSans-30" x="127.246094"/>
       <use xlink:href="#DejaVuSans-30" x="190.869141"/>
      </g>
     </g>
    </g>
    <g id="ytick_7">
     <g id="line2d_7">
      <path d="M 48.238125 62.939888 
L 985.343125 62.939888 
" clip-path="url(#p74d074336c)" style="fill: none; stroke: #dedede; stroke-linecap: square"/>
     </g>
     <g id="text_14">
      <!-- 6000 -->
      <g transform="translate(20.878125 65.979263)scale(0.08 -0.08)">
       <use xlink:href="#DejaVuSans-36"/>
       <use xlink:href="#DejaVuSans-30" x="63.623047"/>
       <use xlink:href="#DejaVuSans-30" x="127.246094"/>
       <use xlink:href="#DejaVuSans-30" x="190.869141"/>
      </g>
     </g>
    </g>
    <g id="text_15">
     <!-- Count -->
     <g transform="translate(14.798438 167.584897)rotate(-90)scale(0.1 -0.1)">
      <defs>
       <path id="DejaVuSans-6f" d="M 1959 3097 
Q 1497 3097 1228 2736 
Q 959 2375 959 1747 
Q 959 1119 1226 758 
Q 1494 397 1959 397 
Q 2419 397 2687 759 
Q 2956 1122 2956 1747 
Q 2956 2369 2687 2733 
Q 2419 3097 1959 3097 
z
M 1959 3584 
Q 2709 3584 3137 3096 
Q 3566 2609 3566 1747 
Q 3566 888 3137 398 
Q 2709 -91 1959 -91 
Q 1206 -91 779 398 
Q 353 888 353 1747 
Q 353 2609 779 3096 
Q 1206 3584 1959 3584 
z
" transform="scale(0.015625)"/>
       <path id="DejaVuSans-75" d="M 544 1381 
L 544 3500 
L 1119 3500 
L 1119 1403 
Q 1119 906 1312 657 
Q 1506 409 1894 409 
Q 2359 409 2629 706 
Q 2900 1003 2900 1516 
L 2900 3500 
L 3475 3500 
L 3475 0 
L 2900 0 
L 2900 538 
Q 2691 219 2414 64 
Q 2138 -91 1772 -91 
Q 1169 -91 856 284 
Q 544 659 544 1381 
z
M 1991 3584 
L 1991 3584 
z
" transform="scale(0.015625)"/>
       <path id="DejaVuSans-6e" d="M 3513 2113 
L 3513 0 
L 2938 0 
L 2938 2094 
Q 2938 2591 2744 2837 
Q 2550 3084 2163 3084 
Q 1697 3084 1428 2787 
Q 1159 2491 1159 1978 
L 1159 0 
L 581 0 
L 581 3500 
L 1159 3500 
L 1159 2956 
Q 1366 3272 1645 3428 
Q 1925 3584 2291 3584 
Q 2894 3584 3203 3211 
Q 3513 2838 3513 2113 
z
" transform="scale(0.015625)"/>
       <path id="DejaVuSans-74" d="M 1172 4494 
L 1172 3500 
L 2356 3500 
L 2356 3053 
L 1172 3053 
L 1172 1153 
Q 1172 725 1289 603 
Q 1406 481 1766 481 
L 2356 481 
L 2356 0 
L 1766 0 
Q 1100 0 847 248 
Q 594 497 594 1153 
L 594 3053 
L 172 3053 
L 172 3500 
L 594 3500 
L 594 4494 
L 1172 4494 
z
" transform="scale(0.015625)"/>
      </defs>
      <use xlink:href="#DejaVuSans-43"/>
      <use xlink:href="#DejaVuSans-6f" x="69.824219"/>
      <use xlink:href="#DejaVuSans-75" x="131.005859"/>
      <use xlink:href="#DejaVuSans-6e" x="194.384766"/>
      <use xlink:href="#DejaVuSans-74" x="257.763672"/>
     </g>
    </g>
   </g>
   <g id="line2d_8">
    <path d="M 48.238125 273.99006 
L 57.609175 273.99006 
L 66.980225 273.99006 
L 76.351275 273.99006 
L 85.722325 273.99006 
L 95.093375 273.99006 
L 104.464425 273.954885 
L 113.835475 273.937297 
L 123.206525 273.954885 
L 132.577575 273.796597 
L 141.948625 273.63831 
L 151.319675 273.603135 
L 160.690725 273.56796 
L 170.061775 273.339322 
L 179.432825 273.005159 
L 188.803875 272.846872 
L 198.174925 272.143371 
L 207.545975 271.492633 
L 216.917025 271.08812 
L 226.288075 270.191157 
L 235.659125 268.836918 
L 245.030175 267.97513 
L 254.401225 266.726417 
L 263.772275 263.947589 
L 273.143325 260.975299 
L 282.514375 259.533123 
L 291.885425 255.294532 
L 301.256475 245.287237 
L 310.627525 234.945778 
L 319.998575 230.373024 
L 329.369625 222.669693 
L 338.740675 204.624904 
L 348.111725 188.673028 
L 357.482775 183.062611 
L 366.853825 177.118031 
L 376.224875 159.213942 
L 385.595925 137.370249 
L 394.966975 127.486066 
L 404.338025 119.413397 
L 413.709075 96.813441 
L 423.080125 80.82639 
L 432.451175 73.281347 
L 441.822225 67.196067 
L 451.193275 58.314372 
L 460.564325 46.847313 
L 469.935375 43.82226 
L 479.306425 43.382572 
L 488.677475 45.387549 
L 498.048525 59.193748 
L 507.419575 73.158234 
L 516.790625 75.321498 
L 526.161675 86.542332 
L 535.532725 113.152242 
L 544.903775 147.201669 
L 554.274825 165.862022 
L 563.645875 180.670709 
L 573.016925 207.210268 
L 582.387975 226.204784 
L 591.759025 233.468427 
L 601.130075 240.274795 
L 610.501125 251.548392 
L 619.872175 258.794448 
L 629.243225 261.573275 
L 638.614275 262.962689 
L 647.985325 265.811866 
L 657.356375 269.030381 
L 666.727425 271.422283 
L 676.098475 272.055433 
L 685.469525 272.372009 
L 694.840575 272.917222 
L 704.211625 273.251384 
L 713.582675 273.356909 
L 722.953725 273.532785 
L 732.324775 273.726247 
L 741.695825 273.743835 
L 751.066875 273.743835 
L 760.437925 273.814185 
L 769.808975 273.884535 
L 779.180025 273.91971 
L 788.551075 273.954885 
L 797.922125 273.954885 
L 807.293175 273.972472 
L 816.664225 273.99006 
L 826.035275 273.99006 
L 835.406325 273.99006 
L 844.777375 273.972472 
L 854.148425 273.972472 
L 863.519475 273.99006 
L 872.890525 273.99006 
L 882.261575 273.99006 
L 891.632625 273.972472 
L 901.003675 273.972472 
L 910.374725 273.99006 
L 919.745775 273.954885 
L 929.116825 273.954885 
L 938.487875 273.99006 
L 947.858925 273.99006 
L 957.229975 273.99006 
L 966.601025 273.972472 
L 975.972075 273.91971 
L 985.343125 273.884535 
" clip-path="url(#p74d074336c)" style="fill: none; stroke: #5cb85c; stroke-linecap: square"/>
   </g>
   <g id="line2d_9">
    <path d="M 48.238125 271.316758 
L 57.609175 272.424771 
L 66.980225 273.532785 
L 76.351275 273.655897 
L 85.722325 273.77901 
L 95.093375 273.761422 
L 104.464425 273.673485 
L 113.835475 273.620722 
L 123.206525 273.63831 
L 132.577575 273.532785 
L 141.948625 273.444847 
L 151.319675 273.356909 
L 160.690725 273.251384 
L 170.061775 273.093097 
L 179.432825 272.846872 
L 188.803875 272.442359 
L 198.174925 271.721271 
L 207.545975 271.316758 
L 216.917025 271.08812 
L 226.288075 270.507732 
L 235.659125 269.118319 
L 245.030175 268.080655 
L 254.401225 266.937467 
L 263.772275 264.352102 
L 273.143325 259.744173 
L 282.514375 256.578421 
L 291.885425 254.274456 
L 301.256475 246.166612 
L 310.627525 235.877916 
L 319.998575 231.3931 
L 329.369625 222.177243 
L 338.740675 204.449028 
L 348.111725 188.884078 
L 357.482775 181.831485 
L 366.853825 175.623092 
L 376.224875 155.942664 
L 385.595925 134.274846 
L 394.966975 126.079065 
L 404.338025 118.358146 
L 413.709075 97.446591 
L 423.080125 80.281177 
L 432.451175 71.434658 
L 441.822225 66.562916 
L 451.193275 59.66861 
L 460.564325 48.817114 
L 469.935375 43.945373 
L 479.306425 43.030822 
L 488.677475 46.354862 
L 498.048525 60.055536 
L 507.419575 76.288811 
L 516.790625 82.145454 
L 526.161675 92.416562 
L 535.532725 114.488893 
L 544.903775 147.658945 
L 554.274825 169.027775 
L 563.645875 182.306348 
L 573.016925 207.333381 
L 582.387975 227.189684 
L 591.759025 235.297528 
L 601.130075 241.576271 
L 610.501125 252.163955 
L 619.872175 259.392423 
L 629.243225 262.31195 
L 638.614275 263.068214 
L 647.985325 265.723928 
L 657.356375 268.801743 
L 666.727425 271.070533 
L 676.098475 272.160959 
L 685.469525 272.565471 
L 694.840575 272.899634 
L 704.211625 273.163447 
L 713.582675 273.49761 
L 722.953725 273.603135 
L 732.324775 273.743835 
L 741.695825 273.691072 
L 751.066875 273.603135 
L 760.437925 273.761422 
L 769.808975 273.796597 
L 779.180025 273.814185 
L 788.551075 273.954885 
L 797.922125 273.937297 
L 807.293175 273.884535 
L 816.664225 273.866947 
L 826.035275 273.884535 
L 835.406325 273.937297 
L 844.777375 273.937297 
L 854.148425 273.91971 
L 863.519475 273.954885 
L 872.890525 273.91971 
L 882.261575 273.91971 
L 891.632625 273.902122 
L 901.003675 273.902122 
L 910.374725 273.954885 
L 919.745775 273.937297 
L 929.116825 273.884535 
L 938.487875 273.884535 
L 947.858925 273.91971 
L 957.229975 273.884535 
L 966.601025 273.761422 
L 975.972075 272.512709 
L 985.343125 271.351933 
" clip-path="url(#p74d074336c)" style="fill: none; stroke: #f0ad4e; stroke-linecap: square"/>
   </g>
   <g id="line2d_10">
    <path d="M 48.238125 273.99006 
L 57.609175 273.954885 
L 66.980225 273.937297 
L 76.351275 273.937297 
L 85.722325 273.91971 
L 95.093375 273.937297 
L 104.464425 273.902122 
L 113.835475 273.866947 
L 123.206525 273.884535 
L 132.577575 273.77901 
L 141.948625 273.673485 
L 151.319675 273.603135 
L 160.690725 273.532785 
L 170.061775 273.216209 
L 179.432825 272.653409 
L 188.803875 272.002671 
L 198.174925 270.87707 
L 207.545975 270.155982 
L 216.917025 269.417306 
L 226.288075 268.485168 
L 235.659125 266.427429 
L 245.030175 264.563152 
L 254.401225 263.244089 
L 263.772275 261.432575 
L 273.143325 259.515536 
L 282.514375 258.090947 
L 291.885425 252.234305 
L 301.256475 241.611446 
L 310.627525 231.217225 
L 319.998575 225.589221 
L 329.369625 218.51904 
L 338.740675 204.343503 
L 348.111725 190.255904 
L 357.482775 183.273661 
L 366.853825 178.61297 
L 376.224875 164.525371 
L 385.595925 144.686655 
L 394.966975 134.274846 
L 404.338025 124.742413 
L 413.709075 102.072107 
L 423.080125 85.152919 
L 432.451175 77.449587 
L 441.822225 73.527572 
L 451.193275 67.688517 
L 460.564325 54.638581 
L 469.935375 47.040775 
L 479.306425 46.65385 
L 488.677475 53.864731 
L 498.048525 67.618167 
L 507.419575 77.308887 
L 516.790625 80.457052 
L 526.161675 93.542163 
L 535.532725 111.006565 
L 544.903775 134.767297 
L 554.274825 154.148737 
L 563.645875 170.768938 
L 573.016925 200.19285 
L 582.387975 220.893354 
L 591.759025 228.790148 
L 601.130075 235.156828 
L 610.501125 246.67665 
L 619.872175 255.611108 
L 629.243225 259.392423 
L 638.614275 260.975299 
L 647.985325 265.249065 
L 657.356375 268.907268 
L 666.727425 271.08812 
L 676.098475 272.301659 
L 685.469525 272.706171 
L 694.840575 273.110684 
L 704.211625 273.181034 
L 713.582675 273.251384 
L 722.953725 273.462435 
L 732.324775 273.70866 
L 741.695825 273.84936 
L 751.066875 273.954885 
L 760.437925 273.954885 
L 769.808975 273.954885 
L 779.180025 273.972472 
L 788.551075 273.99006 
L 797.922125 273.99006 
L 807.293175 273.99006 
L 816.664225 273.99006 
L 826.035275 273.99006 
L 835.406325 273.99006 
L 844.777375 273.954885 
L 854.148425 273.954885 
L 863.519475 273.99006 
L 872.890525 273.99006 
L 882.261575 273.99006 
L 891.632625 273.99006 
L 901.003675 273.99006 
L 910.374725 273.99006 
L 919.745775 273.99006 
L 929.116825 273.99006 
L 938.487875 273.972472 
L 947.858925 273.954885 
L 957.229975 273.972472 
L 966.601025 273.99006 
L 975.972075 273.902122 
L 985.343125 273.814185 
" clip-path="url(#p74d074336c)" style="fill: none; stroke: #5cb85c; stroke-linecap: square"/>
   </g>
   <g id="line2d_11">
    <path d="M 48.238125 271.387108 
L 57.609175 272.336834 
L 66.980225 273.321734 
L 76.351275 273.550372 
L 85.722325 273.743835 
L 95.093375 273.796597 
L 104.464425 273.814185 
L 113.835475 273.655897 
L 123.206525 273.532785 
L 132.577575 273.56796 
L 141.948625 273.409672 
L 151.319675 273.110684 
L 160.690725 273.005159 
L 170.061775 272.864459 
L 179.432825 272.301659 
L 188.803875 271.545396 
L 198.174925 270.80672 
L 207.545975 270.402207 
L 216.917025 269.558006 
L 226.288075 268.39723 
L 235.659125 265.987741 
L 245.030175 263.894827 
L 254.401225 263.226501 
L 263.772275 260.992887 
L 273.143325 258.460285 
L 282.514375 257.492972 
L 291.885425 253.078505 
L 301.256475 242.543584 
L 310.627525 231.991076 
L 319.998575 227.559022 
L 329.369625 219.22254 
L 338.740675 201.828489 
L 348.111725 189.042366 
L 357.482775 185.313813 
L 366.853825 177.188381 
L 376.224875 157.965228 
L 385.595925 138.161687 
L 394.966975 129.455867 
L 404.338025 118.709896 
L 413.709075 95.33609 
L 423.080125 77.50235 
L 432.451175 71.452245 
L 441.822225 70.608044 
L 451.193275 62.676075 
L 460.564325 48.518126 
L 469.935375 43.628797 
L 479.306425 44.965448 
L 488.677475 50.927616 
L 498.048525 65.841828 
L 507.419575 75.866711 
L 516.790625 76.93955 
L 526.161675 93.190413 
L 535.532725 118.569196 
L 544.903775 150.121197 
L 554.274825 172.545277 
L 563.645875 184.926887 
L 573.016925 209.338357 
L 582.387975 227.85801 
L 591.759025 234.347803 
L 601.130075 240.538608 
L 610.501125 251.91773 
L 619.872175 259.849698 
L 629.243225 262.593351 
L 638.614275 263.472726 
L 647.985325 266.181204 
L 657.356375 269.329369 
L 666.727425 271.668508 
L 676.098475 272.688584 
L 685.469525 272.794109 
L 694.840575 273.216209 
L 704.211625 273.49761 
L 713.582675 273.462435 
L 722.953725 273.655897 
L 732.324775 273.866947 
L 741.695825 273.866947 
L 751.066875 273.84936 
L 760.437925 273.866947 
L 769.808975 273.84936 
L 779.180025 273.814185 
L 788.551075 273.814185 
L 797.922125 273.884535 
L 807.293175 273.91971 
L 816.664225 273.937297 
L 826.035275 273.99006 
L 835.406325 273.99006 
L 844.777375 273.937297 
L 854.148425 273.91971 
L 863.519475 273.954885 
L 872.890525 273.884535 
L 882.261575 273.884535 
L 891.632625 273.937297 
L 901.003675 273.902122 
L 910.374725 273.884535 
L 919.745775 273.91971 
L 929.116825 273.954885 
L 938.487875 273.884535 
L 947.858925 273.814185 
L 957.229975 273.866947 
L 966.601025 273.937297 
L 975.972075 273.339322 
L 985.343125 272.723759 
" clip-path="url(#p74d074336c)" style="fill: none; stroke: #f0ad4e; stroke-linecap: square"/>
   </g>
   <g id="line2d_12">
    <path d="M 48.238125 273.99006 
L 57.609175 273.972472 
L 66.980225 273.972472 
L 76.351275 273.972472 
L 85.722325 273.954885 
L 95.093375 273.972472 
L 104.464425 273.954885 
L 113.835475 273.937297 
L 123.206525 273.954885 
L 132.577575 273.954885 
L 141.948625 273.937297 
L 151.319675 273.761422 
L 160.690725 273.603135 
L 170.061775 273.56796 
L 179.432825 273.392085 
L 188.803875 273.075509 
L 198.174925 272.670996 
L 207.545975 272.442359 
L 216.917025 272.459946 
L 226.288075 271.914733 
L 235.659125 270.80672 
L 245.030175 270.261507 
L 254.401225 269.522831 
L 263.772275 267.500267 
L 273.143325 263.349614 
L 282.514375 260.482849 
L 291.885425 256.420133 
L 301.256475 247.661551 
L 310.627525 237.918068 
L 319.998575 232.870452 
L 329.369625 224.217394 
L 338.740675 204.800779 
L 348.111725 185.225875 
L 357.482775 176.414531 
L 366.853825 168.816724 
L 376.224875 148.292095 
L 385.595925 122.772612 
L 394.966975 110.179952 
L 404.338025 101.192732 
L 413.709075 78.926939 
L 423.080125 60.846974 
L 432.451175 56.221458 
L 441.822225 56.397333 
L 451.193275 52.229092 
L 460.564325 47.35735 
L 469.935375 47.410113 
L 479.306425 48.166376 
L 488.677475 55.553132 
L 498.048525 73.844147 
L 507.419575 88.002096 
L 516.790625 91.255786 
L 526.161675 106.609686 
L 535.532725 129.965905 
L 544.903775 157.24414 
L 554.274825 176.520056 
L 563.645875 188.58509 
L 573.016925 210.252908 
L 582.387975 226.257546 
L 591.759025 232.659401 
L 601.130075 238.815031 
L 610.501125 250.457966 
L 619.872175 257.915072 
L 629.243225 259.884874 
L 638.614275 261.379812 
L 647.985325 264.563152 
L 657.356375 267.658555 
L 666.727425 270.191157 
L 676.098475 271.316758 
L 685.469525 271.932321 
L 694.840575 272.829284 
L 704.211625 273.181034 
L 713.582675 273.251384 
L 722.953725 273.480022 
L 732.324775 273.70866 
L 741.695825 273.814185 
L 751.066875 273.91971 
L 760.437925 273.902122 
L 769.808975 273.937297 
L 779.180025 273.972472 
L 788.551075 273.954885 
L 797.922125 273.972472 
L 807.293175 273.972472 
L 816.664225 273.954885 
L 826.035275 273.954885 
L 835.406325 273.972472 
L 844.777375 273.99006 
L 854.148425 273.99006 
L 863.519475 273.99006 
L 872.890525 273.972472 
L 882.261575 273.972472 
L 891.632625 273.99006 
L 901.003675 273.99006 
L 910.374725 273.99006 
L 919.745775 273.99006 
L 929.116825 273.99006 
L 938.487875 273.99006 
L 947.858925 273.99006 
L 957.229975 273.99006 
L 966.601025 273.99006 
L 975.972075 273.972472 
L 985.343125 273.954885 
" clip-path="url(#p74d074336c)" style="fill: none; stroke: #5cb85c; stroke-linecap: square"/>
   </g>
   <g id="line2d_13">
    <path d="M 48.238125 271.246408 
L 57.609175 272.284071 
L 66.980225 273.49761 
L 76.351275 273.743835 
L 85.722325 273.814185 
L 95.093375 273.691072 
L 104.464425 273.726247 
L 113.835475 273.814185 
L 123.206525 273.743835 
L 132.577575 273.691072 
L 141.948625 273.70866 
L 151.319675 273.515197 
L 160.690725 273.251384 
L 170.061775 273.251384 
L 179.432825 273.251384 
L 188.803875 273.075509 
L 198.174925 272.512709 
L 207.545975 272.125783 
L 216.917025 272.073021 
L 226.288075 271.633333 
L 235.659125 270.243919 
L 245.030175 269.241431 
L 254.401225 268.362055 
L 263.772275 266.691242 
L 273.143325 263.543076 
L 282.514375 261.18635 
L 291.885425 258.249235 
L 301.256475 249.402715 
L 310.627525 238.269818 
L 319.998575 233.046327 
L 329.369625 224.182219 
L 338.740675 203.059615 
L 348.111725 182.14806 
L 357.482775 173.495003 
L 366.853825 167.779061 
L 376.224875 147.307194 
L 385.595925 122.385687 
L 394.966975 112.220103 
L 404.338025 100.612344 
L 413.709075 77.625463 
L 423.080125 62.6409 
L 432.451175 57.223946 
L 441.822225 55.412432 
L 451.193275 48.623651 
L 460.564325 44.754398 
L 469.935375 48.641239 
L 479.306425 49.608552 
L 488.677475 54.919982 
L 498.048525 75.180798 
L 507.419575 92.680375 
L 516.790625 95.230564 
L 526.161675 109.423688 
L 535.532725 131.320144 
L 544.903775 159.337054 
L 554.274825 179.650633 
L 563.645875 190.748355 
L 573.016925 210.886059 
L 582.387975 228.49116 
L 591.759025 237.05628 
L 601.130075 241.980784 
L 610.501125 251.020766 
L 619.872175 257.510559 
L 629.243225 259.884874 
L 638.614275 261.713975 
L 647.985325 265.125953 
L 657.356375 267.957543 
L 666.727425 270.331857 
L 676.098475 271.457458 
L 685.469525 272.178546 
L 694.840575 272.969984 
L 704.211625 273.093097 
L 713.582675 273.145859 
L 722.953725 273.286559 
L 732.324775 273.56796 
L 741.695825 273.70866 
L 751.066875 273.70866 
L 760.437925 273.761422 
L 769.808975 273.84936 
L 779.180025 273.91971 
L 788.551075 273.954885 
L 797.922125 273.954885 
L 807.293175 273.902122 
L 816.664225 273.84936 
L 826.035275 273.84936 
L 835.406325 273.84936 
L 844.777375 273.831772 
L 854.148425 273.902122 
L 863.519475 273.99006 
L 872.890525 273.84936 
L 882.261575 273.743835 
L 891.632625 273.814185 
L 901.003675 273.866947 
L 910.374725 273.884535 
L 919.745775 273.91971 
L 929.116825 273.902122 
L 938.487875 273.831772 
L 947.858925 273.814185 
L 957.229975 273.866947 
L 966.601025 273.831772 
L 975.972075 272.442359 
L 985.343125 271.140883 
" clip-path="url(#p74d074336c)" style="fill: none; stroke: #5cb85c; stroke-linecap: square"/>
   </g>
   <g id="line2d_14">
    <path d="M 48.238125 273.99006 
L 57.609175 273.99006 
L 66.980225 273.99006 
L 76.351275 273.99006 
L 85.722325 273.99006 
L 95.093375 273.954885 
L 104.464425 273.937297 
L 113.835475 273.91971 
L 123.206525 273.884535 
L 132.577575 273.866947 
L 141.948625 273.831772 
L 151.319675 273.77901 
L 160.690725 273.743835 
L 170.061775 273.532785 
L 179.432825 273.251384 
L 188.803875 272.969984 
L 198.174925 272.037846 
L 207.545975 271.316758 
L 216.917025 271.22882 
L 226.288075 270.59567 
L 235.659125 268.379643 
L 245.030175 266.708829 
L 254.401225 265.21389 
L 263.772275 261.977788 
L 273.143325 257.827134 
L 282.514375 255.417645 
L 291.885425 251.196641 
L 301.256475 240.73207 
L 310.627525 228.631861 
L 319.998575 222.775218 
L 329.369625 213.752823 
L 338.740675 194.10757 
L 348.111725 174.462316 
L 357.482775 165.439922 
L 366.853825 156.980327 
L 376.224875 135.418035 
L 385.595925 114.29543 
L 394.966975 106.275523 
L 404.338025 97.991804 
L 413.709075 78.803826 
L 423.080125 65.648365 
L 432.451175 59.52791 
L 441.822225 55.658657 
L 451.193275 52.475317 
L 460.564325 51.824579 
L 469.935375 57.522934 
L 479.306425 60.688686 
L 488.677475 67.002604 
L 498.048525 82.637904 
L 507.419575 98.325967 
L 516.790625 104.692647 
L 526.161675 116.282819 
L 535.532725 137.423011 
L 544.903775 163.39977 
L 554.274825 179.826508 
L 563.645875 193.316132 
L 573.016925 215.458812 
L 582.387975 231.32275 
L 591.759025 238.533631 
L 601.130075 244.073698 
L 610.501125 253.412668 
L 619.872175 259.902461 
L 629.243225 262.593351 
L 638.614275 264.000352 
L 647.985325 266.761592 
L 657.356375 269.434894 
L 666.727425 271.756446 
L 676.098475 272.758934 
L 685.469525 272.653409 
L 694.840575 272.952397 
L 704.211625 273.339322 
L 713.582675 273.321734 
L 722.953725 273.49761 
L 732.324775 273.761422 
L 741.695825 273.902122 
L 751.066875 273.954885 
L 760.437925 273.954885 
L 769.808975 273.91971 
L 779.180025 273.91971 
L 788.551075 273.954885 
L 797.922125 273.972472 
L 807.293175 273.972472 
L 816.664225 273.972472 
L 826.035275 273.99006 
L 835.406325 273.954885 
L 844.777375 273.954885 
L 854.148425 273.99006 
L 863.519475 273.99006 
L 872.890525 273.99006 
L 882.261575 273.99006 
L 891.632625 273.99006 
L 901.003675 273.99006 
L 910.374725 273.99006 
L 919.745775 273.99006 
L 929.116825 273.99006 
L 938.487875 273.99006 
L 947.858925 273.99006 
L 957.229975 273.99006 
L 966.601025 273.972472 
L 975.972075 273.972472 
L 985.343125 273.99006 
" clip-path="url(#p74d074336c)" style="fill: none; stroke: #5cb85c; stroke-linecap: square"/>
   </g>
   <g id="line2d_15">
    <path d="M 48.238125 271.703683 
L 57.609175 272.530296 
L 66.980225 273.515197 
L 76.351275 273.655897 
L 85.722325 273.63831 
L 95.093375 273.691072 
L 104.464425 273.691072 
L 113.835475 273.585547 
L 123.206525 273.532785 
L 132.577575 273.585547 
L 141.948625 273.409672 
L 151.319675 273.216209 
L 160.690725 273.251384 
L 170.061775 273.145859 
L 179.432825 272.934809 
L 188.803875 272.495121 
L 198.174925 271.615746 
L 207.545975 271.070533 
L 216.917025 270.789132 
L 226.288075 270.191157 
L 235.659125 268.221355 
L 245.030175 266.568129 
L 254.401225 264.79179 
L 263.772275 261.942613 
L 273.143325 257.405034 
L 282.514375 253.940294 
L 291.885425 250.739366 
L 301.256475 241.277283 
L 310.627525 229.282599 
L 319.998575 223.549069 
L 329.369625 213.225198 
L 338.740675 194.283445 
L 348.111725 173.723641 
L 357.482775 161.781719 
L 366.853825 155.221576 
L 376.224875 137.124024 
L 385.595925 113.081891 
L 394.966975 100.577169 
L 404.338025 90.974386 
L 413.709075 74.002435 
L 423.080125 62.28915 
L 432.451175 59.17616 
L 441.822225 60.407286 
L 451.193275 55.43002 
L 460.564325 51.701466 
L 469.935375 54.620994 
L 479.306425 56.291808 
L 488.677475 63.379576 
L 498.048525 83.622805 
L 507.419575 101.667595 
L 516.790625 106.556924 
L 526.161675 119.430984 
L 535.532725 138.9883 
L 544.903775 167.497661 
L 554.274825 189.323766 
L 563.645875 199.700399 
L 573.016925 219.785341 
L 582.387975 235.104066 
L 591.759025 240.714483 
L 601.130075 246.870113 
L 610.501125 255.73422 
L 619.872175 260.922537 
L 629.243225 263.402376 
L 638.614275 264.475215 
L 647.985325 267.113342 
L 657.356375 269.751469 
L 666.727425 271.633333 
L 676.098475 272.442359 
L 685.469525 272.741346 
L 694.840575 273.216209 
L 704.211625 273.409672 
L 713.582675 273.42726 
L 722.953725 273.585547 
L 732.324775 273.77901 
L 741.695825 273.726247 
L 751.066875 273.63831 
L 760.437925 273.673485 
L 769.808975 273.77901 
L 779.180025 273.866947 
L 788.551075 273.884535 
L 797.922125 273.77901 
L 807.293175 273.796597 
L 816.664225 273.866947 
L 826.035275 273.814185 
L 835.406325 273.814185 
L 844.777375 273.831772 
L 854.148425 273.866947 
L 863.519475 273.884535 
L 872.890525 273.937297 
L 882.261575 273.954885 
L 891.632625 273.902122 
L 901.003675 273.866947 
L 910.374725 273.84936 
L 919.745775 273.814185 
L 929.116825 273.814185 
L 938.487875 273.831772 
L 947.858925 273.814185 
L 957.229975 273.902122 
L 966.601025 273.91971 
L 975.972075 272.442359 
L 985.343125 271.035358 
" clip-path="url(#p74d074336c)" style="fill: none; stroke: #5cb85c; stroke-linecap: square"/>
   </g>
   <g id="line2d_16">
    <path d="M 48.238125 273.99006 
L 985.343125 273.99006 
" clip-path="url(#p74d074336c)" style="fill: none; stroke: #dedede; stroke-width: 2; stroke-linecap: square"/>
   </g>
   <g id="text_16">
    <!-- FastQC: Per Sequence GC Content -->
    <g transform="translate(380.154375 19.3575)scale(0.16 -0.16)">
     <defs>
      <path id="DejaVuSans-46" d="M 628 4666 
L 3309 4666 
L 3309 4134 
L 1259 4134 
L 1259 2759 
L 3109 2759 
L 3109 2228 
L 1259 2228 
L 1259 0 
L 628 0 
L 628 4666 
z
" transform="scale(0.015625)"/>
      <path id="DejaVuSans-61" d="M 2194 1759 
Q 1497 1759 1228 1600 
Q 959 1441 959 1056 
Q 959 750 1161 570 
Q 1363 391 1709 391 
Q 2188 391 2477 730 
Q 2766 1069 2766 1631 
L 2766 1759 
L 2194 1759 
z
M 3341 1997 
L 3341 0 
L 2766 0 
L 2766 531 
Q 2569 213 2275 61 
Q 1981 -91 1556 -91 
Q 1019 -91 701 211 
Q 384 513 384 1019 
Q 384 1609 779 1909 
Q 1175 2209 1959 2209 
L 2766 2209 
L 2766 2266 
Q 2766 2663 2505 2880 
Q 2244 3097 1772 3097 
Q 1472 3097 1187 3025 
Q 903 2953 641 2809 
L 641 3341 
Q 956 3463 1253 3523 
Q 1550 3584 1831 3584 
Q 2591 3584 2966 3190 
Q 3341 2797 3341 1997 
z
" transform="scale(0.015625)"/>
      <path id="DejaVuSans-73" d="M 2834 3397 
L 2834 2853 
Q 2591 2978 2328 3040 
Q 2066 3103 1784 3103 
Q 1356 3103 1142 2972 
Q 928 2841 928 2578 
Q 928 2378 1081 2264 
Q 1234 2150 1697 2047 
L 1894 2003 
Q 2506 1872 2764 1633 
Q 3022 1394 3022 966 
Q 3022 478 2636 193 
Q 2250 -91 1575 -91 
Q 1294 -91 989 -36 
Q 684 19 347 128 
L 347 722 
Q 666 556 975 473 
Q 1284 391 1588 391 
Q 1994 391 2212 530 
Q 2431 669 2431 922 
Q 2431 1156 2273 1281 
Q 2116 1406 1581 1522 
L 1381 1569 
Q 847 1681 609 1914 
Q 372 2147 372 2553 
Q 372 3047 722 3315 
Q 1072 3584 1716 3584 
Q 2034 3584 2315 3537 
Q 2597 3491 2834 3397 
z
" transform="scale(0.015625)"/>
      <path id="DejaVuSans-51" d="M 2522 4238 
Q 1834 4238 1429 3725 
Q 1025 3213 1025 2328 
Q 1025 1447 1429 934 
Q 1834 422 2522 422 
Q 3209 422 3611 934 
Q 4013 1447 4013 2328 
Q 4013 3213 3611 3725 
Q 3209 4238 2522 4238 
z
M 3406 84 
L 4238 -825 
L 3475 -825 
L 2784 -78 
Q 2681 -84 2626 -87 
Q 2572 -91 2522 -91 
Q 1538 -91 948 567 
Q 359 1225 359 2328 
Q 359 3434 948 4092 
Q 1538 4750 2522 4750 
Q 3503 4750 4090 4092 
Q 4678 3434 4678 2328 
Q 4678 1516 4351 937 
Q 4025 359 3406 84 
z
" transform="scale(0.015625)"/>
      <path id="DejaVuSans-3a" d="M 750 794 
L 1409 794 
L 1409 0 
L 750 0 
L 750 794 
z
M 750 3309 
L 1409 3309 
L 1409 2516 
L 750 2516 
L 750 3309 
z
" transform="scale(0.015625)"/>
      <path id="DejaVuSans-50" d="M 1259 4147 
L 1259 2394 
L 2053 2394 
Q 2494 2394 2734 2622 
Q 2975 2850 2975 3272 
Q 2975 3691 2734 3919 
Q 2494 4147 2053 4147 
L 1259 4147 
z
M 628 4666 
L 2053 4666 
Q 2838 4666 3239 4311 
Q 3641 3956 3641 3272 
Q 3641 2581 3239 2228 
Q 2838 1875 2053 1875 
L 1259 1875 
L 1259 0 
L 628 0 
L 628 4666 
z
" transform="scale(0.015625)"/>
      <path id="DejaVuSans-65" d="M 3597 1894 
L 3597 1613 
L 953 1613 
Q 991 1019 1311 708 
Q 1631 397 2203 397 
Q 2534 397 2845 478 
Q 3156 559 3463 722 
L 3463 178 
Q 3153 47 2828 -22 
Q 2503 -91 2169 -91 
Q 1331 -91 842 396 
Q 353 884 353 1716 
Q 353 2575 817 3079 
Q 1281 3584 2069 3584 
Q 2775 3584 3186 3129 
Q 3597 2675 3597 1894 
z
M 3022 2063 
Q 3016 2534 2758 2815 
Q 2500 3097 2075 3097 
Q 1594 3097 1305 2825 
Q 1016 2553 972 2059 
L 3022 2063 
z
" transform="scale(0.015625)"/>
      <path id="DejaVuSans-72" d="M 2631 2963 
Q 2534 3019 2420 3045 
Q 2306 3072 2169 3072 
Q 1681 3072 1420 2755 
Q 1159 2438 1159 1844 
L 1159 0 
L 581 0 
L 581 3500 
L 1159 3500 
L 1159 2956 
Q 1341 3275 1631 3429 
Q 1922 3584 2338 3584 
Q 2397 3584 2469 3576 
Q 2541 3569 2628 3553 
L 2631 2963 
z
" transform="scale(0.015625)"/>
      <path id="DejaVuSans-53" d="M 3425 4513 
L 3425 3897 
Q 3066 4069 2747 4153 
Q 2428 4238 2131 4238 
Q 1616 4238 1336 4038 
Q 1056 3838 1056 3469 
Q 1056 3159 1242 3001 
Q 1428 2844 1947 2747 
L 2328 2669 
Q 3034 2534 3370 2195 
Q 3706 1856 3706 1288 
Q 3706 609 3251 259 
Q 2797 -91 1919 -91 
Q 1588 -91 1214 -16 
Q 841 59 441 206 
L 441 856 
Q 825 641 1194 531 
Q 1563 422 1919 422 
Q 2459 422 2753 634 
Q 3047 847 3047 1241 
Q 3047 1584 2836 1778 
Q 2625 1972 2144 2069 
L 1759 2144 
Q 1053 2284 737 2584 
Q 422 2884 422 3419 
Q 422 4038 858 4394 
Q 1294 4750 2059 4750 
Q 2388 4750 2728 4690 
Q 3069 4631 3425 4513 
z
" transform="scale(0.015625)"/>
      <path id="DejaVuSans-71" d="M 947 1747 
Q 947 1113 1208 752 
Q 1469 391 1925 391 
Q 2381 391 2643 752 
Q 2906 1113 2906 1747 
Q 2906 2381 2643 2742 
Q 2381 3103 1925 3103 
Q 1469 3103 1208 2742 
Q 947 2381 947 1747 
z
M 2906 525 
Q 2725 213 2448 61 
Q 2172 -91 1784 -91 
Q 1150 -91 751 415 
Q 353 922 353 1747 
Q 353 2572 751 3078 
Q 1150 3584 1784 3584 
Q 2172 3584 2448 3432 
Q 2725 3281 2906 2969 
L 2906 3500 
L 3481 3500 
L 3481 -1331 
L 2906 -1331 
L 2906 525 
z
" transform="scale(0.015625)"/>
      <path id="DejaVuSans-63" d="M 3122 3366 
L 3122 2828 
Q 2878 2963 2633 3030 
Q 2388 3097 2138 3097 
Q 1578 3097 1268 2742 
Q 959 2388 959 1747 
Q 959 1106 1268 751 
Q 1578 397 2138 397 
Q 2388 397 2633 464 
Q 2878 531 3122 666 
L 3122 134 
Q 2881 22 2623 -34 
Q 2366 -91 2075 -91 
Q 1284 -91 818 406 
Q 353 903 353 1747 
Q 353 2603 823 3093 
Q 1294 3584 2113 3584 
Q 2378 3584 2631 3529 
Q 2884 3475 3122 3366 
z
" transform="scale(0.015625)"/>
     </defs>
     <use xlink:href="#DejaVuSans-46"/>
     <use xlink:href="#DejaVuSans-61" x="48.394531"/>
     <use xlink:href="#DejaVuSans-73" x="109.673828"/>
     <use xlink:href="#DejaVuSans-74" x="161.773438"/>
     <use xlink:href="#DejaVuSans-51" x="200.982422"/>
     <use xlink:href="#DejaVuSans-43" x="279.693359"/>
     <use xlink:href="#DejaVuSans-3a" x="349.517578"/>
     <use xlink:href="#DejaVuSans-20" x="383.208984"/>
     <use xlink:href="#DejaVuSans-50" x="414.996094"/>
     <use xlink:href="#DejaVuSans-65" x="471.673828"/>
     <use xlink:href="#DejaVuSans-72" x="533.197266"/>
     <use xlink:href="#DejaVuSans-20" x="574.310547"/>
     <use xlink:href="#DejaVuSans-53" x="606.097656"/>
     <use xlink:href="#DejaVuSans-65" x="669.574219"/>
     <use xlink:href="#DejaVuSans-71" x="731.097656"/>
     <use xlink:href="#DejaVuSans-75" x="794.574219"/>
     <use xlink:href="#DejaVuSans-65" x="857.953125"/>
     <use xlink:href="#DejaVuSans-6e" x="919.476562"/>
     <use xlink:href="#DejaVuSans-63" x="982.855469"/>
     <use xlink:href="#DejaVuSans-65" x="1037.835938"/>
     <use xlink:href="#DejaVuSans-20" x="1099.359375"/>
     <use xlink:href="#DejaVuSans-47" x="1131.146484"/>
     <use xlink:href="#DejaVuSans-43" x="1208.636719"/>
     <use xlink:href="#DejaVuSans-20" x="1278.460938"/>
     <use xlink:href="#DejaVuSans-43" x="1310.248047"/>
     <use xlink:href="#DejaVuSans-6f" x="1380.072266"/>
     <use xlink:href="#DejaVuSans-6e" x="1441.253906"/>
     <use xlink:href="#DejaVuSans-74" x="1504.632812"/>
     <use xlink:href="#DejaVuSans-65" x="1543.841797"/>
     <use xlink:href="#DejaVuSans-6e" x="1605.365234"/>
     <use xlink:href="#DejaVuSans-74" x="1668.744141"/>
    </g>
   </g>
   <g id="legend_1">
    <g id="line2d_17">
     <path d="M 55.438125 303.490394 
L 63.438125 303.490394 
L 71.438125 303.490394 
" style="fill: none; stroke: #5cb85c; stroke-linecap: square"/>
    </g>
    <g id="text_17">
     <!-- OSMOTIC_STRESS_T0_REP1_T1_1 -->
     <g transform="translate(77.838125 306.290394)scale(0.08 -0.08)">
      <defs>
       <path id="DejaVuSans-4f" d="M 2522 4238 
Q 1834 4238 1429 3725 
Q 1025 3213 1025 2328 
Q 1025 1447 1429 934 
Q 1834 422 2522 422 
Q 3209 422 3611 934 
Q 4013 1447 4013 2328 
Q 4013 3213 3611 3725 
Q 3209 4238 2522 4238 
z
M 2522 4750 
Q 3503 4750 4090 4092 
Q 4678 3434 4678 2328 
Q 4678 1225 4090 567 
Q 3503 -91 2522 -91 
Q 1538 -91 948 565 
Q 359 1222 359 2328 
Q 359 3434 948 4092 
Q 1538 4750 2522 4750 
z
" transform="scale(0.015625)"/>
       <path id="DejaVuSans-4d" d="M 628 4666 
L 1569 4666 
L 2759 1491 
L 3956 4666 
L 4897 4666 
L 4897 0 
L 4281 0 
L 4281 4097 
L 3078 897 
L 2444 897 
L 1241 4097 
L 1241 0 
L 628 0 
L 628 4666 
z
" transform="scale(0.015625)"/>
       <path id="DejaVuSans-54" d="M -19 4666 
L 3928 4666 
L 3928 4134 
L 2272 4134 
L 2272 0 
L 1638 0 
L 1638 4134 
L -19 4134 
L -19 4666 
z
" transform="scale(0.015625)"/>
       <path id="DejaVuSans-49" d="M 628 4666 
L 1259 4666 
L 1259 0 
L 628 0 
L 628 4666 
z
" transform="scale(0.015625)"/>
       <path id="DejaVuSans-5f" d="M 3263 -1063 
L 3263 -1509 
L -63 -1509 
L -63 -1063 
L 3263 -1063 
z
" transform="scale(0.015625)"/>
       <path id="DejaVuSans-52" d="M 2841 2188 
Q 3044 2119 3236 1894 
Q 3428 1669 3622 1275 
L 4263 0 
L 3584 0 
L 2988 1197 
Q 2756 1666 2539 1819 
Q 2322 1972 1947 1972 
L 1259 1972 
L 1259 0 
L 628 0 
L 628 4666 
L 2053 4666 
Q 2853 4666 3247 4331 
Q 3641 3997 3641 3322 
Q 3641 2881 3436 2590 
Q 3231 2300 2841 2188 
z
M 1259 4147 
L 1259 2491 
L 2053 2491 
Q 2509 2491 2742 2702 
Q 2975 2913 2975 3322 
Q 2975 3731 2742 3939 
Q 2509 4147 2053 4147 
L 1259 4147 
z
" transform="scale(0.015625)"/>
       <path id="DejaVuSans-45" d="M 628 4666 
L 3578 4666 
L 3578 4134 
L 1259 4134 
L 1259 2753 
L 3481 2753 
L 3481 2222 
L 1259 2222 
L 1259 531 
L 3634 531 
L 3634 0 
L 628 0 
L 628 4666 
z
" transform="scale(0.015625)"/>
      </defs>
      <use xlink:href="#DejaVuSans-4f"/>
      <use xlink:href="#DejaVuSans-53" x="78.710938"/>
      <use xlink:href="#DejaVuSans-4d" x="142.1875"/>
      <use xlink:href="#DejaVuSans-4f" x="228.466797"/>
      <use xlink:href="#DejaVuSans-54" x="307.177734"/>
      <use xlink:href="#DejaVuSans-49" x="368.261719"/>
      <use xlink:href="#DejaVuSans-43" x="397.753906"/>
      <use xlink:href="#DejaVuSans-5f" x="467.578125"/>
      <use xlink:href="#DejaVuSans-53" x="517.578125"/>
      <use xlink:href="#DejaVuSans-54" x="581.054688"/>
      <use xlink:href="#DejaVuSans-52" x="642.138672"/>
      <use xlink:href="#DejaVuSans-45" x="711.621094"/>
      <use xlink:href="#DejaVuSans-53" x="774.804688"/>
      <use xlink:href="#DejaVuSans-53" x="838.28125"/>
      <use xlink:href="#DejaVuSans-5f" x="901.757812"/>
      <use xlink:href="#DejaVuSans-54" x="951.757812"/>
      <use xlink:href="#DejaVuSans-30" x="1012.841797"/>
      <use xlink:href="#DejaVuSans-5f" x="1076.464844"/>
      <use xlink:href="#DejaVuSans-52" x="1126.464844"/>
      <use xlink:href="#DejaVuSans-45" x="1195.947266"/>
      <use xlink:href="#DejaVuSans-50" x="1259.130859"/>
      <use xlink:href="#DejaVuSans-31" x="1319.433594"/>
      <use xlink:href="#DejaVuSans-5f" x="1383.056641"/>
      <use xlink:href="#DejaVuSans-54" x="1433.056641"/>
      <use xlink:href="#DejaVuSans-31" x="1494.140625"/>
      <use xlink:href="#DejaVuSans-5f" x="1557.763672"/>
      <use xlink:href="#DejaVuSans-31" x="1607.763672"/>
     </g>
    </g>
    <g id="line2d_18">
     <path d="M 55.438125 315.455394 
L 63.438125 315.455394 
L 71.438125 315.455394 
" style="fill: none; stroke: #f0ad4e; stroke-linecap: square"/>
    </g>
    <g id="text_18">
     <!-- OSMOTIC_STRESS_T0_REP1_T1_2 -->
     <g transform="translate(77.838125 318.255394)scale(0.08 -0.08)">
      <use xlink:href="#DejaVuSans-4f"/>
      <use xlink:href="#DejaVuSans-53" x="78.710938"/>
      <use xlink:href="#DejaVuSans-4d" x="142.1875"/>
      <use xlink:href="#DejaVuSans-4f" x="228.466797"/>
      <use xlink:href="#DejaVuSans-54" x="307.177734"/>
      <use xlink:href="#DejaVuSans-49" x="368.261719"/>
      <use xlink:href="#DejaVuSans-43" x="397.753906"/>
      <use xlink:href="#DejaVuSans-5f" x="467.578125"/>
      <use xlink:href="#DejaVuSans-53" x="517.578125"/>
      <use xlink:href="#DejaVuSans-54" x="581.054688"/>
      <use xlink:href="#DejaVuSans-52" x="642.138672"/>
      <use xlink:href="#DejaVuSans-45" x="711.621094"/>
      <use xlink:href="#DejaVuSans-53" x="774.804688"/>
      <use xlink:href="#DejaVuSans-53" x="838.28125"/>
      <use xlink:href="#DejaVuSans-5f" x="901.757812"/>
      <use xlink:href="#DejaVuSans-54" x="951.757812"/>
      <use xlink:href="#DejaVuSans-30" x="1012.841797"/>
      <use xlink:href="#DejaVuSans-5f" x="1076.464844"/>
      <use xlink:href="#DejaVuSans-52" x="1126.464844"/>
      <use xlink:href="#DejaVuSans-45" x="1195.947266"/>
      <use xlink:href="#DejaVuSans-50" x="1259.130859"/>
      <use xlink:href="#DejaVuSans-31" x="1319.433594"/>
      <use xlink:href="#DejaVuSans-5f" x="1383.056641"/>
      <use xlink:href="#DejaVuSans-54" x="1433.056641"/>
      <use xlink:href="#DejaVuSans-31" x="1494.140625"/>
      <use xlink:href="#DejaVuSans-5f" x="1557.763672"/>
      <use xlink:href="#DejaVuSans-32" x="1607.763672"/>
     </g>
    </g>
    <g id="line2d_19">
     <path d="M 243.268125 303.490394 
L 251.268125 303.490394 
L 259.268125 303.490394 
" style="fill: none; stroke: #5cb85c; stroke-linecap: square"/>
    </g>
    <g id="text_19">
     <!-- OSMOTIC_STRESS_T0_REP2_T1_1 -->
     <g transform="translate(265.668125 306.290394)scale(0.08 -0.08)">
      <use xlink:href="#DejaVuSans-4f"/>
      <use xlink:href="#DejaVuSans-53" x="78.710938"/>
      <use xlink:href="#DejaVuSans-4d" x="142.1875"/>
      <use xlink:href="#DejaVuSans-4f" x="228.466797"/>
      <use xlink:href="#DejaVuSans-54" x="307.177734"/>
      <use xlink:href="#DejaVuSans-49" x="368.261719"/>
      <use xlink:href="#DejaVuSans-43" x="397.753906"/>
      <use xlink:href="#DejaVuSans-5f" x="467.578125"/>
      <use xlink:href="#DejaVuSans-53" x="517.578125"/>
      <use xlink:href="#DejaVuSans-54" x="581.054688"/>
      <use xlink:href="#DejaVuSans-52" x="642.138672"/>
      <use xlink:href="#DejaVuSans-45" x="711.621094"/>
      <use xlink:href="#DejaVuSans-53" x="774.804688"/>
      <use xlink:href="#DejaVuSans-53" x="838.28125"/>
      <use xlink:href="#DejaVuSans-5f" x="901.757812"/>
      <use xlink:href="#DejaVuSans-54" x="951.757812"/>
      <use xlink:href="#DejaVuSans-30" x="1012.841797"/>
      <use xlink:href="#DejaVuSans-5f" x="1076.464844"/>
      <use xlink:href="#DejaVuSans-52" x="1126.464844"/>
      <use xlink:href="#DejaVuSans-45" x="1195.947266"/>
      <use xlink:href="#DejaVuSans-50" x="1259.130859"/>
      <use xlink:href="#DejaVuSans-32" x="1319.433594"/>
      <use xlink:href="#DejaVuSans-5f" x="1383.056641"/>
      <use xlink:href="#DejaVuSans-54" x="1433.056641"/>
      <use xlink:href="#DejaVuSans-31" x="1494.140625"/>
      <use xlink:href="#DejaVuSans-5f" x="1557.763672"/>
      <use xlink:href="#DejaVuSans-31" x="1607.763672"/>
     </g>
    </g>
    <g id="line2d_20">
     <path d="M 243.268125 315.455394 
L 251.268125 315.455394 
L 259.268125 315.455394 
" style="fill: none; stroke: #f0ad4e; stroke-linecap: square"/>
    </g>
    <g id="text_20">
     <!-- OSMOTIC_STRESS_T0_REP2_T1_2 -->
     <g transform="translate(265.668125 318.255394)scale(0.08 -0.08)">
      <use xlink:href="#DejaVuSans-4f"/>
      <use xlink:href="#DejaVuSans-53" x="78.710938"/>
      <use xlink:href="#DejaVuSans-4d" x="142.1875"/>
      <use xlink:href="#DejaVuSans-4f" x="228.466797"/>
      <use xlink:href="#DejaVuSans-54" x="307.177734"/>
      <use xlink:href="#DejaVuSans-49" x="368.261719"/>
      <use xlink:href="#DejaVuSans-43" x="397.753906"/>
      <use xlink:href="#DejaVuSans-5f" x="467.578125"/>
      <use xlink:href="#DejaVuSans-53" x="517.578125"/>
      <use xlink:href="#DejaVuSans-54" x="581.054688"/>
      <use xlink:href="#DejaVuSans-52" x="642.138672"/>
      <use xlink:href="#DejaVuSans-45" x="711.621094"/>
      <use xlink:href="#DejaVuSans-53" x="774.804688"/>
      <use xlink:href="#DejaVuSans-53" x="838.28125"/>
      <use xlink:href="#DejaVuSans-5f" x="901.757812"/>
      <use xlink:href="#DejaVuSans-54" x="951.757812"/>
      <use xlink:href="#DejaVuSans-30" x="1012.841797"/>
      <use xlink:href="#DejaVuSans-5f" x="1076.464844"/>
      <use xlink:href="#DejaVuSans-52" x="1126.464844"/>
      <use xlink:href="#DejaVuSans-45" x="1195.947266"/>
      <use xlink:href="#DejaVuSans-50" x="1259.130859"/>
      <use xlink:href="#DejaVuSans-32" x="1319.433594"/>
      <use xlink:href="#DejaVuSans-5f" x="1383.056641"/>
      <use xlink:href="#DejaVuSans-54" x="1433.056641"/>
      <use xlink:href="#DejaVuSans-31" x="1494.140625"/>
      <use xlink:href="#DejaVuSans-5f" x="1557.763672"/>
      <use xlink:href="#DejaVuSans-32" x="1607.763672"/>
     </g>
    </g>
    <g id="line2d_21">
     <path d="M 431.098125 303.490394 
L 439.098125 303.490394 
L 447.098125 303.490394 
" style="fill: none; stroke: #5cb85c; stroke-linecap: square"/>
    </g>
    <g id="text_21">
     <!-- OSMOTIC_STRESS_T15_REP1_T1_1 -->
     <g transform="translate(453.498125 306.290394)scale(0.08 -0.08)">
      <use xlink:href="#DejaVuSans-4f"/>
      <use xlink:href="#DejaVuSans-53" x="78.710938"/>
      <use xlink:href="#DejaVuSans-4d" x="142.1875"/>
      <use xlink:href="#DejaVuSans-4f" x="228.466797"/>
      <use xlink:href="#DejaVuSans-54" x="307.177734"/>
      <use xlink:href="#DejaVuSans-49" x="368.261719"/>
      <use xlink:href="#DejaVuSans-43" x="397.753906"/>
      <use xlink:href="#DejaVuSans-5f" x="467.578125"/>
      <use xlink:href="#DejaVuSans-53" x="517.578125"/>
      <use xlink:href="#DejaVuSans-54" x="581.054688"/>
      <use xlink:href="#DejaVuSans-52" x="642.138672"/>
      <use xlink:href="#DejaVuSans-45" x="711.621094"/>
      <use xlink:href="#DejaVuSans-53" x="774.804688"/>
      <use xlink:href="#DejaVuSans-53" x="838.28125"/>
      <use xlink:href="#DejaVuSans-5f" x="901.757812"/>
      <use xlink:href="#DejaVuSans-54" x="951.757812"/>
      <use xlink:href="#DejaVuSans-31" x="1012.841797"/>
      <use xlink:href="#DejaVuSans-35" x="1076.464844"/>
      <use xlink:href="#DejaVuSans-5f" x="1140.087891"/>
      <use xlink:href="#DejaVuSans-52" x="1190.087891"/>
      <use xlink:href="#DejaVuSans-45" x="1259.570312"/>
      <use xlink:href="#DejaVuSans-50" x="1322.753906"/>
      <use xlink:href="#DejaVuSans-31" x="1383.056641"/>
      <use xlink:href="#DejaVuSans-5f" x="1446.679688"/>
      <use xlink:href="#DejaVuSans-54" x="1496.679688"/>
      <use xlink:href="#DejaVuSans-31" x="1557.763672"/>
      <use xlink:href="#DejaVuSans-5f" x="1621.386719"/>
      <use xlink:href="#DejaVuSans-31" x="1671.386719"/>
     </g>
    </g>
    <g id="line2d_22">
     <path d="M 431.098125 315.455394 
L 439.098125 315.455394 
L 447.098125 315.455394 
" style="fill: none; stroke: #5cb85c; stroke-linecap: square"/>
    </g>
    <g id="text_22">
     <!-- OSMOTIC_STRESS_T15_REP1_T1_2 -->
     <g transform="translate(453.498125 318.255394)scale(0.08 -0.08)">
      <use xlink:href="#DejaVuSans-4f"/>
      <use xlink:href="#DejaVuSans-53" x="78.710938"/>
      <use xlink:href="#DejaVuSans-4d" x="142.1875"/>
      <use xlink:href="#DejaVuSans-4f" x="228.466797"/>
      <use xlink:href="#DejaVuSans-54" x="307.177734"/>
      <use xlink:href="#DejaVuSans-49" x="368.261719"/>
      <use xlink:href="#DejaVuSans-43" x="397.753906"/>
      <use xlink:href="#DejaVuSans-5f" x="467.578125"/>
      <use xlink:href="#DejaVuSans-53" x="517.578125"/>
      <use xlink:href="#DejaVuSans-54" x="581.054688"/>
      <use xlink:href="#DejaVuSans-52" x="642.138672"/>
      <use xlink:href="#DejaVuSans-45" x="711.621094"/>
      <use xlink:href="#DejaVuSans-53" x="774.804688"/>
      <use xlink:href="#DejaVuSans-53" x="838.28125"/>
      <use xlink:href="#DejaVuSans-5f" x="901.757812"/>
      <use xlink:href="#DejaVuSans-54" x="951.757812"/>
      <use xlink:href="#DejaVuSans-31" x="1012.841797"/>
      <use xlink:href="#DejaVuSans-35" x="1076.464844"/>
      <use xlink:href="#DejaVuSans-5f" x="1140.087891"/>
      <use xlink:href="#DejaVuSans-52" x="1190.087891"/>
      <use xlink:href="#DejaVuSans-45" x="1259.570312"/>
      <use xlink:href="#DejaVuSans-50" x="1322.753906"/>
      <use xlink:href="#DejaVuSans-31" x="1383.056641"/>
      <use xlink:href="#DejaVuSans-5f" x="1446.679688"/>
      <use xlink:href="#DejaVuSans-54" x="1496.679688"/>
      <use xlink:href="#DejaVuSans-31" x="1557.763672"/>
      <use xlink:href="#DejaVuSans-5f" x="1621.386719"/>
      <use xlink:href="#DejaVuSans-32" x="1671.386719"/>
     </g>
    </g>
    <g id="line2d_23">
     <path d="M 624.018125 303.490394 
L 632.018125 303.490394 
L 640.018125 303.490394 
" style="fill: none; stroke: #5cb85c; stroke-linecap: square"/>
    </g>
    <g id="text_23">
     <!-- OSMOTIC_STRESS_T15_REP2_T1_1 -->
     <g transform="translate(646.418125 306.290394)scale(0.08 -0.08)">
      <use xlink:href="#DejaVuSans-4f"/>
      <use xlink:href="#DejaVuSans-53" x="78.710938"/>
      <use xlink:href="#DejaVuSans-4d" x="142.1875"/>
      <use xlink:href="#DejaVuSans-4f" x="228.466797"/>
      <use xlink:href="#DejaVuSans-54" x="307.177734"/>
      <use xlink:href="#DejaVuSans-49" x="368.261719"/>
      <use xlink:href="#DejaVuSans-43" x="397.753906"/>
      <use xlink:href="#DejaVuSans-5f" x="467.578125"/>
      <use xlink:href="#DejaVuSans-53" x="517.578125"/>
      <use xlink:href="#DejaVuSans-54" x="581.054688"/>
      <use xlink:href="#DejaVuSans-52" x="642.138672"/>
      <use xlink:href="#DejaVuSans-45" x="711.621094"/>
      <use xlink:href="#DejaVuSans-53" x="774.804688"/>
      <use xlink:href="#DejaVuSans-53" x="838.28125"/>
      <use xlink:href="#DejaVuSans-5f" x="901.757812"/>
      <use xlink:href="#DejaVuSans-54" x="951.757812"/>
      <use xlink:href="#DejaVuSans-31" x="1012.841797"/>
      <use xlink:href="#DejaVuSans-35" x="1076.464844"/>
      <use xlink:href="#DejaVuSans-5f" x="1140.087891"/>
      <use xlink:href="#DejaVuSans-52" x="1190.087891"/>
      <use xlink:href="#DejaVuSans-45" x="1259.570312"/>
      <use xlink:href="#DejaVuSans-50" x="1322.753906"/>
      <use xlink:href="#DejaVuSans-32" x="1383.056641"/>
      <use xlink:href="#DejaVuSans-5f" x="1446.679688"/>
      <use xlink:href="#DejaVuSans-54" x="1496.679688"/>
      <use xlink:href="#DejaVuSans-31" x="1557.763672"/>
      <use xlink:href="#DejaVuSans-5f" x="1621.386719"/>
      <use xlink:href="#DejaVuSans-31" x="1671.386719"/>
     </g>
    </g>
    <g id="line2d_24">
     <path d="M 816.938125 303.490394 
L 824.938125 303.490394 
L 832.938125 303.490394 
" style="fill: none; stroke: #5cb85c; stroke-linecap: square"/>
    </g>
    <g id="text_24">
     <!-- OSMOTIC_STRESS_T15_REP2_T1_2 -->
     <g transform="translate(839.338125 306.290394)scale(0.08 -0.08)">
      <use xlink:href="#DejaVuSans-4f"/>
      <use xlink:href="#DejaVuSans-53" x="78.710938"/>
      <use xlink:href="#DejaVuSans-4d" x="142.1875"/>
      <use xlink:href="#DejaVuSans-4f" x="228.466797"/>
      <use xlink:href="#DejaVuSans-54" x="307.177734"/>
      <use xlink:href="#DejaVuSans-49" x="368.261719"/>
      <use xlink:href="#DejaVuSans-43" x="397.753906"/>
      <use xlink:href="#DejaVuSans-5f" x="467.578125"/>
      <use xlink:href="#DejaVuSans-53" x="517.578125"/>
      <use xlink:href="#DejaVuSans-54" x="581.054688"/>
      <use xlink:href="#DejaVuSans-52" x="642.138672"/>
      <use xlink:href="#DejaVuSans-45" x="711.621094"/>
      <use xlink:href="#DejaVuSans-53" x="774.804688"/>
      <use xlink:href="#DejaVuSans-53" x="838.28125"/>
      <use xlink:href="#DejaVuSans-5f" x="901.757812"/>
      <use xlink:href="#DejaVuSans-54" x="951.757812"/>
      <use xlink:href="#DejaVuSans-31" x="1012.841797"/>
      <use xlink:href="#DejaVuSans-35" x="1076.464844"/>
      <use xlink:href="#DejaVuSans-5f" x="1140.087891"/>
      <use xlink:href="#DejaVuSans-52" x="1190.087891"/>
      <use xlink:href="#DejaVuSans-45" x="1259.570312"/>
      <use xlink:href="#DejaVuSans-50" x="1322.753906"/>
      <use xlink:href="#DejaVuSans-32" x="1383.056641"/>
      <use xlink:href="#DejaVuSans-5f" x="1446.679688"/>
      <use xlink:href="#DejaVuSans-54" x="1496.679688"/>
      <use xlink:href="#DejaVuSans-31" x="1557.763672"/>
      <use xlink:href="#DejaVuSans-5f" x="1621.386719"/>
      <use xlink:href="#DejaVuSans-32" x="1671.386719"/>
     </g>
    </g>
   </g>
  </g>
 </g>
 <defs>
  <clipPath id="p74d074336c">
   <rect x="48.238125" y="31.48286" width="937.105" height="242.5072"/>
  </clipPath>
 </defs>
</svg>
